<?xml version="1.0" encoding="utf-8"?>
<!-- Generator: Adobe Illustrator 15.1.0, SVG Export Plug-In . SVG Version: 6.00 Build 0)  -->
<!DOCTYPE svg PUBLIC "-//W3C//DTD SVG 1.1//EN" "http://www.w3.org/Graphics/SVG/1.1/DTD/svg11.dtd">
<svg version="1.1" id="Layer_1" xmlns="http://www.w3.org/2000/svg" xmlns:xlink="http://www.w3.org/1999/xlink" x="0px" y="0px"
	 width="128px" height="128px" viewBox="0 0 128 128" enable-background="new 0 0 128 128" xml:space="preserve">
<path id="A" d="M6.789,8.816l-0.839,2.542H4.87l2.758-8.083h1.248l2.758,8.083h-1.115L9.655,8.816H6.789z M9.451,8L8.647,5.673
	c-0.18-0.527-0.3-1.007-0.419-1.475H8.204c-0.12,0.468-0.24,0.972-0.408,1.463L7.004,8H9.451z"/>
<path id="B" d="M12.826,3.395c0.456-0.108,1.187-0.18,1.907-0.18c1.043,0,1.715,0.18,2.207,0.588
	c0.419,0.312,0.684,0.792,0.684,1.427c0,0.792-0.528,1.475-1.367,1.775v0.036c0.768,0.18,1.667,0.815,1.667,2.015
	c0,0.696-0.276,1.235-0.696,1.619c-0.552,0.516-1.463,0.755-2.782,0.755c-0.72,0-1.271-0.048-1.619-0.096V3.395z M13.869,6.705
	h0.947c1.091,0,1.739-0.588,1.739-1.367c0-0.936-0.708-1.319-1.763-1.319c-0.48,0-0.755,0.036-0.923,0.072V6.705z M13.869,10.567
	c0.216,0.036,0.503,0.048,0.875,0.048c1.079,0,2.075-0.396,2.075-1.571c0-1.091-0.947-1.559-2.087-1.559h-0.863V10.567z"/>
<path id="Percent" d="M22.46,5.746c0,1.643-0.852,2.458-1.859,2.458c-0.983,0-1.811-0.779-1.823-2.339
	c0-1.559,0.839-2.435,1.895-2.435C21.752,3.431,22.46,4.271,22.46,5.746z M19.605,5.817c-0.024,0.996,0.36,1.751,1.02,1.751
	c0.695,0,1.007-0.744,1.007-1.763c0-0.959-0.276-1.739-1.02-1.739C19.965,4.066,19.605,4.846,19.605,5.817z M20.517,11.502
	l4.594-8.083h0.671l-4.593,8.083H20.517z M27.545,8.984c0,1.643-0.852,2.458-1.859,2.458c-0.983,0-1.811-0.78-1.823-2.351
	c0-1.559,0.84-2.435,1.895-2.435C26.837,6.657,27.545,7.497,27.545,8.984z M24.69,9.056c-0.024,0.996,0.36,1.751,1.02,1.751
	c0.696,0,1.007-0.744,1.007-1.775c0-0.948-0.276-1.739-1.02-1.739C25.05,7.292,24.69,8.072,24.69,9.056z"/>
</svg>
