<?xml version="1.0" encoding="utf-8"?>
<!-- Generator: Adobe Illustrator 15.1.0, SVG Export Plug-In . SVG Version: 6.00 Build 0)  -->
<!DOCTYPE svg PUBLIC "-//W3C//DTD SVG 1.1//EN" "http://www.w3.org/Graphics/SVG/1.1/DTD/svg11.dtd">
<svg version="1.1" id="Layer_1" xmlns="http://www.w3.org/2000/svg" xmlns:xlink="http://www.w3.org/1999/xlink" x="0px" y="0px"
	 width="128px" height="128px" viewBox="0 0 128 128" enable-background="new 0 0 128 128" xml:space="preserve">
<path d="M3.684,7.251L2.845,9.793h-1.08L4.523,1.71h1.248l2.758,8.083H7.414L6.55,7.251H3.684z M6.347,6.435L5.543,4.108
	c-0.18-0.527-0.3-1.007-0.419-1.475H5.099c-0.12,0.468-0.24,0.972-0.408,1.463L3.9,6.435H6.347z"/>
<g>
	<path d="M13.358,5.548c-0.875-0.408-1.248-1.08-1.248-1.751c0-1.235,1.043-2.075,2.423-2.075c1.511,0,2.279,0.936,2.279,1.919
		c0,0.66-0.336,1.379-1.295,1.823V5.5c0.972,0.384,1.571,1.08,1.571,2.015c0,1.367-1.164,2.267-2.651,2.267
		c-1.631,0-2.614-0.959-2.614-2.099c0-0.983,0.587-1.691,1.547-2.099L13.358,5.548z M16.021,7.623c0-0.936-0.66-1.403-1.715-1.703
		c-0.911,0.264-1.403,0.875-1.403,1.619c-0.036,0.78,0.564,1.475,1.56,1.475C15.409,9.014,16.021,8.426,16.021,7.623z M13.119,3.725
		c-0.012,0.78,0.587,1.199,1.487,1.439c0.672-0.228,1.188-0.708,1.188-1.416c0-0.624-0.372-1.271-1.319-1.271
		C13.598,2.478,13.119,3.053,13.119,3.725z"/>
</g>
</svg>
