<?xml version="1.0" encoding="utf-8"?>
<!-- Generator: Adobe Illustrator 15.1.0, SVG Export Plug-In . SVG Version: 6.00 Build 0)  -->
<!DOCTYPE svg PUBLIC "-//W3C//DTD SVG 1.1//EN" "http://www.w3.org/Graphics/SVG/1.1/DTD/svg11.dtd">
<svg version="1.1" xmlns="http://www.w3.org/2000/svg" xmlns:xlink="http://www.w3.org/1999/xlink" x="0px" y="0px" width="128px"
	 height="128px" viewBox="0 0 128 128" enable-background="new 0 0 128 128" xml:space="preserve">
<g id="Layer_2">
	<path fill="#EF3E3A" stroke="#000000" stroke-miterlimit="10" d="M31.62,37.6c-4.44,1.986-8.334,4.29-11.67,7.012
		c-4.222,3.446-7.548,7.563-9.95,12.558l-0.38,0.02c-0.08-1.11-0.12-2.23-0.12-3.36c0-5.236,0.898-10.264,2.549-14.936
		c1.553-4.397,3.773-8.479,6.538-12.125c2.028-2.674,4.348-5.113,6.914-7.269c1.869,0.428,3.38,0.956,4.633,1.568
		c1.939,0.948,3.262,2.098,4.337,3.392c-1.44,1.43-2.56,3.14-3.3,5.04C30.16,32.09,30.39,35.04,31.62,37.6z"/>
	<path fill="#FFD21D" stroke="#000000" stroke-miterlimit="10" d="M57.51,9.11L57.5,9.33c-2.291,1.793-3.726,3.461-4.806,5.189
		c-1.131,1.809-1.874,3.682-2.804,5.831c-2.325-0.557-5.542-0.618-8.476,0.163c-2.75,0.731-5.109,2.113-6.944,3.947
		c-1.051-1.265-2.338-2.392-4.207-3.327c-1.279-0.64-2.83-1.19-4.763-1.633c4.302-3.617,9.295-6.441,14.754-8.245
		C45.697,9.456,51.442,8.706,57.51,9.11z"/>
	<path fill="#3D7ABE" stroke="#000000" stroke-miterlimit="10" d="M94.81,34.52v0.01l-0.31,0.14c-4.79-4.143-12.068-6.431-21-6.685
		c-4.717-0.134-9.895,0.299-15.41,1.325c-0.311-4.39-3.37-7.82-8.2-8.96c0.91-2.1,1.64-3.938,2.729-5.709
		c1.089-1.771,2.537-3.476,4.881-5.311l0.01-0.22c4.635,0.326,9.076,1.356,13.217,2.985c5.79,2.276,10.992,5.722,15.316,10.046
		C89.622,25.72,92.6,29.901,94.81,34.52z"/>
	<path fill="#F47A20" stroke="#000000" stroke-miterlimit="10" d="M99.17,53.83c0,12.12-4.81,23.13-12.64,31.2L86.5,85
		c-1.907-4.828-4.817-9.893-8.477-15.099C71.457,60.56,62.476,50.758,52.53,41.03c1.96-1.5,3.701-3.66,4.8-6.7
		c0.63-1.75,0.87-3.45,0.76-5.02c4.864-0.905,9.466-1.349,13.72-1.349c4.938,0,9.407,0.597,13.277,1.764
		C88.823,30.852,92,32.508,94.5,34.67l0.31-0.14C97.6,40.38,99.17,46.92,99.17,53.83z"/>
	<path fill="#00ABB3" stroke="#000000" stroke-miterlimit="10" d="M86.53,85.03c-8.15,8.41-19.561,13.64-32.2,13.64
		c-4.66,0-9.15-0.71-13.37-2.03L41,96.5c-3.371-4.389-4.965-10.784-5.312-17.983c-0.303-6.286,0.345-13.186,1.591-19.898
		C38.226,53.521,39.518,48.531,41,44c1.95,0.51,7.25,0.311,11.52-2.971h0.01c4.462,4.365,8.73,8.744,12.673,13.09
		C74.947,64.86,82.705,75.396,86.5,85L86.53,85.03z"/>
	<path fill="#D4D5E7" stroke="#000000" stroke-miterlimit="10" d="M41,96.5l-0.04,0.14c-5.928-1.85-11.327-4.896-15.914-8.857
		c-5.039-4.351-9.098-9.804-11.804-15.983c-1.983-4.528-3.239-9.447-3.622-14.609L10,57.17c1.539-3.198,3.456-6.037,5.745-8.57
		c2.312-2.559,5.003-4.806,8.066-6.797c2.38-1.547,4.984-2.939,7.809-4.203c1.61,3.38,4.93,6.08,9.38,6.4
		c-1.57,4.798-2.926,10.111-3.884,15.522c-1.275,7.197-1.848,14.566-1.286,21.128C36.371,86.976,37.966,92.551,41,96.5z"/>
	<path fill="#F6891F" stroke="#000000" stroke-miterlimit="10" d="M57.33,34.33c-1.1,3.04-2.84,5.2-4.8,6.7h-0.01
		C48.25,44.31,42.95,44.51,41,44c-4.45-0.32-7.77-3.02-9.38-6.4c-1.23-2.56-1.46-5.51-0.45-8.1c0.74-1.9,1.86-3.61,3.3-5.04
		c1.871-1.871,4.288-3.271,7.108-3.99c2.905-0.74,6.06-0.659,8.312-0.12c4.83,1.14,7.89,4.57,8.2,8.96
		C58.2,30.88,57.96,32.58,57.33,34.33z"/>
	<path fill="none" stroke="#000000" stroke-miterlimit="10" d="M52.52,41.03c-0.01-0.02-0.01-0.02-0.02-0.03"/>
	<path fill="none" stroke="#000000" stroke-miterlimit="10" d="M58.09,29.31c-0.03,0.01-0.06,0.01-0.09,0.02"/>
	<path fill="none" stroke="#000000" stroke-miterlimit="10" d="M49.89,20.35c-0.02,0.05-0.04,0.1-0.06,0.15"/>
	<path fill="none" stroke="#000000" stroke-miterlimit="10" d="M34.5,24.5c-0.01-0.01-0.02-0.03-0.03-0.04"/>
	<path fill="none" stroke="#000000" stroke-miterlimit="10" d="M31.83,37.5c-0.07,0.03-0.14,0.06-0.21,0.1"/>
</g>
<g id="HiLite">
	<path opacity="0.5" fill="#FFFFFF" d="M15.833,40C18,29,31.932,12.089,52.333,11.333C73.948,10.533,88.5,25.667,94.833,41.5
		c-13.165-7.418-26.32-11.238-44.167-10.667C35.942,31.806,24.99,34.601,15.833,40z"/>
	<path opacity="0.25" fill="#262660" d="M95.452,59.841c-0.729,11.188-12.361,29.754-32.495,33.137
		c-21.331,3.584-37.713-9.546-46.037-24.43c14.012,5.657,27.551,7.747,45.174,4.878C76.569,70.562,87.069,66.377,95.452,59.841z"/>
</g>
</svg>
