<?xml version="1.0" encoding="utf-8"?>
<!-- Generator: Adobe Illustrator 15.0.0, SVG Export Plug-In . SVG Version: 6.00 Build 0)  -->
<!DOCTYPE svg PUBLIC "-//W3C//DTD SVG 1.1//EN" "http://www.w3.org/Graphics/SVG/1.1/DTD/svg11.dtd">
<svg version="1.1" xmlns="http://www.w3.org/2000/svg" xmlns:xlink="http://www.w3.org/1999/xlink" x="0px" y="0px" width="1024px"
	 height="768px" viewBox="0 0 1024 768" enable-background="new 0 0 1024 768" xml:space="preserve">
<g id="Back">
</g>
<g id="Help">
</g>
<g id="Ok">
</g>
<g id="Audio">
	<g>
		<path fill="none" stroke="#AA7BAD" stroke-width="7" d="M523.167,260.167l-4-8.667l-2.699-3.175
			c-4.488,0.716-9.083,1.108-13.762,1.108c-43.561,0-78.873-35.367-78.873-78.014s35.359-76.065,78.873-74.042
			c2.4,0.112,4.765,0.326,7.103,0.604l2.358-1.814l6.666-9.333l2.334-7.667l0.057-1.198c-6.046-1.222-12.3-2.004-18.724-2.303
			c-54.801-2.547-99.334,39.541-99.334,93.25c0,53.71,44.474,98.251,99.334,98.251c7.478,0,14.798-0.759,21.868-2.196
			L523.167,260.167z"/>
		<path fill-rule="evenodd" clip-rule="evenodd" fill="#FFE633" d="M523.167,260.167l-4-8.667l-2.699-3.175
			c-4.488,0.716-9.083,1.108-13.762,1.108c-43.561,0-78.873-35.367-78.873-78.014s35.359-76.065,78.873-74.042
			c2.4,0.112,4.765,0.326,7.103,0.604l2.358-1.814l6.666-9.333l2.334-7.667l0.057-1.198c-6.046-1.222-12.3-2.004-18.724-2.303
			c-54.801-2.547-99.334,39.541-99.334,93.25c0,53.71,44.474,98.251,99.334,98.251c7.478,0,14.798-0.759,21.868-2.196
			L523.167,260.167z"/>
	</g>
</g>
</svg>
