<?xml version="1.0" encoding="UTF-8" standalone="no"?>
<!-- Created with Inkscape (http://www.inkscape.org/) -->

<svg
   xmlns:dc="http://purl.org/dc/elements/1.1/"
   xmlns:cc="http://creativecommons.org/ns#"
   xmlns:rdf="http://www.w3.org/1999/02/22-rdf-syntax-ns#"
   xmlns:svg="http://www.w3.org/2000/svg"
   xmlns="http://www.w3.org/2000/svg"
   version="1.1"
   width="765"
   height="990"
   id="svg2985"
   xml:space="preserve"><g
   transform="matrix(1.25,0,0,-1.25,0,990)"
   id="g2993"><path
   d="m 101.76,674.04 c 6.36,0.12 11.76,-1.2 15.96,-3.72 4.92,-3 7.8,-7.56 8.76,-13.68 1.56,-9.24 -0.36,-16.44 -5.52,-21.84 -5.28,-5.4 -13.32,-8.16 -24.24,-8.16 -3,-0.12 -6,0.48 -9,1.56 -3.96,1.32 -6.6,3.24 -8.16,5.88 -0.84,1.44 -1.2,3.24 -0.84,5.28 0.36,1.92 1.08,3.48 2.4,4.68 l 1.32,0 c -1.8,0.12 -3.72,0.6 -5.64,1.56 -2.28,1.08 -4.2,2.64 -5.52,4.68 -3.36,4.92 -2.64,9.84 2.04,14.64 2.4,2.52 6.24,4.56 11.64,6.36 m -2.52,-27.24 1.32,0.12 24.72,0.72"
   id="path3085"
   style="fill:none;stroke:#b4420c;stroke-width:4.19999981;stroke-linecap:round;stroke-linejoin:round;stroke-miterlimit:10;stroke-opacity:1;stroke-dasharray:none" />
		<path
   d="m 116.4,678.12 c 2.76,-2.04 5.76,-3 9,-2.76 3.24,0.24 5.76,1.56 7.56,3.96"
   id="path3095"
   style="fill:none;stroke:#7b3d20;stroke-width:3;stroke-linecap:round;stroke-linejoin:round;stroke-miterlimit:10;stroke-opacity:1;stroke-dasharray:none" />	   
	</g>
</svg>