<?xml version="1.0" encoding="UTF-8" standalone="no"?>
<!-- Created with Inkscape (http://www.inkscape.org/) -->

<svg
   xmlns:dc="http://purl.org/dc/elements/1.1/"
   xmlns:cc="http://creativecommons.org/ns#"
   xmlns:rdf="http://www.w3.org/1999/02/22-rdf-syntax-ns#"
   xmlns:svg="http://www.w3.org/2000/svg"
   xmlns="http://www.w3.org/2000/svg"
   xmlns:sodipodi="http://sodipodi.sourceforge.net/DTD/sodipodi-0.dtd"
   xmlns:inkscape="http://www.inkscape.org/namespaces/inkscape"
   version="1.1"
   width="765"
   height="990"
   id="svg2985"
   xml:space="preserve"
   inkscape:version="0.48.2 r9819"
   sodipodi:docname="c1-2.svg"><metadata
   id="metadata10"><rdf:RDF><cc:Work
       rdf:about=""><dc:format>image/svg+xml</dc:format><dc:type
         rdf:resource="http://purl.org/dc/dcmitype/StillImage" /></cc:Work></rdf:RDF></metadata><defs
   id="defs8" /><sodipodi:namedview
   pagecolor="#ffffff"
   bordercolor="#666666"
   borderopacity="1"
   objecttolerance="10"
   gridtolerance="10"
   guidetolerance="10"
   inkscape:pageopacity="0"
   inkscape:pageshadow="2"
   inkscape:window-width="640"
   inkscape:window-height="480"
   id="namedview6"
   showgrid="false"
   inkscape:zoom="2.6970053"
   inkscape:cx="130.27661"
   inkscape:cy="794.31986"
   inkscape:window-x="1875"
   inkscape:window-y="419"
   inkscape:window-maximized="0"
   inkscape:current-layer="svg2985" /><g
   transform="matrix(1.25,0,0,-1.25,0,990)"
   id="g2993"
   style="fill:#ffff00"><path
   d="m 101.76,674.04 c 6.36,0.12 11.76,-1.2 15.96,-3.72 4.92,-3 7.8,-7.56 8.76,-13.68 1.56,-9.24 -0.36,-16.44 -5.52,-21.84 -5.28,-5.4 -13.32,-8.16 -24.24,-8.16 -3,-0.12 -6,0.48 -9,1.56 -3.96,1.32 -6.6,3.24 -8.16,5.88 -0.84,1.44 -1.2,3.24 -0.84,5.28 0.36,1.92 1.08,3.48 2.4,4.68 l 1.32,0 c -1.8,0.12 -3.72,0.6 -5.64,1.56 -2.28,1.08 -4.2,2.64 -5.obj52,4.68 -3.36,4.92 -2.64,9.84 2.04,14.64 2.4,2.52 6.24,4.56 11.64,6.36 5.64,1.8 11.16,2.76 16.8,2.76 m -19.32,-30 1.32,0.12 24.72,0.72"
   id="path3085"
   style="fill:#ffff00;stroke:#b4420c;stroke-width:4.19999980999999960;stroke-linecap:round;stroke-linejoin:round;stroke-miterlimit:10;stroke-opacity:1;stroke-dasharray:none" />
		<path
   d="m 116.4,678.12 c 2.76,-2.04 5.76,-3 9,-2.76 3.24,0.24 5.76,1.56 7.56,3.96"
   id="path3095"
   style="fill:#ffff00;stroke:#7b3d20;stroke-width:3;stroke-linecap:round;stroke-linejoin:round;stroke-miterlimit:10;stroke-opacity:1;stroke-dasharray:none" />	   
	</g>
</svg>