<?xml version="1.0" encoding="UTF-8" standalone="no"?>
<!-- Created with Inkscape (http://www.inkscape.org/) -->

<svg
   xmlns:dc="http://purl.org/dc/elements/1.1/"
   xmlns:cc="http://creativecommons.org/ns#"
   xmlns:rdf="http://www.w3.org/1999/02/22-rdf-syntax-ns#"
   xmlns:svg="http://www.w3.org/2000/svg"
   xmlns="http://www.w3.org/2000/svg"
   version="1.1"
   width="765"
   height="990"
   id="svg2985"
   xml:space="preserve"><metadata
     id="metadata2991"><rdf:RDF><cc:Work
         rdf:about=""><dc:format>image/svg+xml</dc:format><dc:type
           rdf:resource="http://purl.org/dc/dcmitype/StillImage" /><dc:title></dc:title></cc:Work></rdf:RDF></metadata><defs
     id="defs2989"><clipPath
       id="clipPath3017"><path
         d="m 2320,6450 99,0 0,-218 -99,0 0,218 z"
         id="path3019" /></clipPath><clipPath
       id="clipPath3027"><path
         d="m 2226,6450 79,0 0,-208 -79,0 0,208 z"
         id="path3029" /></clipPath></defs><g
     transform="matrix(1.25,0,0,-1.25,0,990)"
     id="g2993"><path
       d="m 350.04,535.2 c -0.36,1.32 -1.2,2.64 -2.4,4.08 -2.4,2.76 -5.4,4.08 -9,4.08"
       id="path2997"
       style="fill:none;stroke:#7b3d20;stroke-width:4.80000019;stroke-linecap:round;stroke-linejoin:round;stroke-miterlimit:10;stroke-opacity:1;stroke-dasharray:none" /><path
       d="m 341.76,530.4 c 0.12,1.8 -0.24,3.6 -1.08,5.52 -1.44,3.72 -4.08,5.76 -7.92,6.24"
       id="path2999"
       style="fill:none;stroke:#7b3d20;stroke-width:4.80000019;stroke-linecap:round;stroke-linejoin:round;stroke-miterlimit:10;stroke-opacity:1;stroke-dasharray:none" /><path
       d="m 327,534.36 2.4,4.68 c 2.16,3 4.8,4.32 7.92,4.08"
       id="path3001"
       style="fill:none;stroke:#7b3d20;stroke-width:4.80000019;stroke-linecap:round;stroke-linejoin:round;stroke-miterlimit:10;stroke-opacity:1;stroke-dasharray:none" /><path
       d="m 328.44,564.48 c 2.4,0.36 5.04,-0.12 7.92,-1.44 2.88,-1.32 5.16,-3 6.72,-5.04 4.2,-5.4 2.28,-10.32 -5.52,-14.52"
       id="path3003"
       style="fill:none;stroke:#7b3d20;stroke-width:4.80000019;stroke-linecap:round;stroke-linejoin:round;stroke-miterlimit:10;stroke-opacity:1;stroke-dasharray:none" /><path
       d="m 231.24,535.2 c 0.36,1.32 1.2,2.64 2.4,4.08 2.4,2.76 5.4,4.08 9,4.08"
       id="path3005"
       style="fill:none;stroke:#7b3d20;stroke-width:4.80000019;stroke-linecap:round;stroke-linejoin:round;stroke-miterlimit:10;stroke-opacity:1;stroke-dasharray:none" /><path
       d="m 239.52,530.4 c -0.12,1.8 0.24,3.6 1.08,5.52 1.44,3.72 4.08,5.76 7.92,6.24"
       id="path3007"
       style="fill:none;stroke:#7b3d20;stroke-width:4.80000019;stroke-linecap:round;stroke-linejoin:round;stroke-miterlimit:10;stroke-opacity:1;stroke-dasharray:none" /><path
       d="m 254.28,534.36 -2.4,4.68 c -2.16,3 -4.8,4.32 -7.92,4.08"
       id="path3009"
       style="fill:none;stroke:#7b3d20;stroke-width:4.80000019;stroke-linecap:round;stroke-linejoin:round;stroke-miterlimit:10;stroke-opacity:1;stroke-dasharray:none" /><path
       d="m 252.84,564.48 c -2.4,0.36 -5.04,-0.12 -7.92,-1.44 -2.88,-1.32 -5.16,-3 -6.72,-5.04 -4.2,-5.4 -2.28,-10.32 5.52,-14.52"
       id="path3011"
       style="fill:none;stroke:#7b3d20;stroke-width:4.80000019;stroke-linecap:round;stroke-linejoin:round;stroke-miterlimit:10;stroke-opacity:1;stroke-dasharray:none" /><g
       transform="scale(0.12,0.12)"
       id="g3013"><g
         clip-path="url(#clipPath3017)"
         id="g3015"><path
           d="m 2377,6322 c -12,15 -21,26 -26,33 -21,27 -31,55 -28,83 3,23 13,41 32,54 5,5 12,10 19,13 -2,-2 -4,-5 -7,-10 -5,-9 -9,-18 -10,-29 -7,-32 1,-65 25,-98 19,-27 30,-48 33,-64 3,-32 -19,-55 -68,-69 l -2,-1 c -4,-1 -5,0 -4,2 1,0 3,2 8,5 1,1 3,3 6,5 19,15 29,27 30,37 l 2,10 c -1,9 -4,19 -10,29"
           id="path3021"
           style="fill:#7a3d20;fill-opacity:1;fill-rule:evenodd;stroke:none" /></g></g><g
       transform="scale(0.12,0.12)"
       id="g3023"><g
         clip-path="url(#clipPath3027)"
         id="g3025"><path
           d="m 2271,6314 c -9,12 -16,21 -21,27 -17,22 -24,44 -21,66 1,18 9,33 24,44 l 16,10 c -1,-2 -3,-5 -6,-8 -4,-7 -7,-15 -8,-23 -5,-26 1,-52 20,-79 16,-21 25,-38 26,-51 3,-25 -14,-44 -53,-55 l -2,-1 c -3,-1 -4,0 -3,1 0,1 2,2 6,5 l 4,3 c 15,12 24,22 25,30 l 1,8 c 0,7 -3,15 -8,23"
           id="path3031"
           style="fill:#7a3d20;fill-opacity:1;fill-rule:evenodd;stroke:none" /></g></g><path
       d="m 297.48,755.76 c -1.08,1.44 -1.92,2.52 -2.52,3.24 -2.04,2.64 -2.88,5.28 -2.52,7.92 0.12,2.16 1.08,3.96 2.88,5.28 l 1.92,1.2 c -0.12,-0.24 -0.36,-0.6 -0.72,-0.96 -0.48,-0.84 -0.84,-1.8 -0.96,-2.76 -0.6,-3.12 0.12,-6.24 2.4,-9.48 1.92,-2.52 3,-4.56 3.12,-6.12 0.36,-3 -1.68,-5.28 -6.36,-6.6 l -0.24,-0.12 c -0.36,-0.12 -0.48,0 -0.36,0.12 0,0.12 0.24,0.24 0.72,0.6 l 0.48,0.36 c 1.8,1.44 2.88,2.64 3,3.6 l 0.12,0.96 c 0,0.84 -0.36,1.8 -0.96,2.76"
       id="path3033"
       style="fill:#7a3d20;fill-opacity:1;fill-rule:evenodd;stroke:none" /><path
       d="m 216,684.96 c -0.36,-11.16 1.8,-21.84 6.6,-31.92 4.68,-9.72 11.28,-18.12 19.92,-25.2 -3.96,-4.44 -6.96,-9.24 -8.88,-14.4 -2.04,-5.28 -2.88,-10.68 -2.52,-16.32 0.72,-12.96 6.72,-23.4 17.88,-31.44 11.04,-7.8 25.56,-11.88 43.68,-12.48 18.6,-0.48 33,4.56 43.32,15.24 9.24,9.6 13.44,21.48 12.6,35.76 -0.48,8.04 -3.36,15.48 -8.64,22.2 8.28,6.36 14.88,14.16 19.68,23.16 4.92,9.24 7.68,19.2 8.16,29.76 0.72,19.8 -6.12,36.96 -20.4,51.48 -14.28,14.52 -31.8,22.2 -52.8,23.04 -21,0.72 -39.12,-5.64 -54.48,-19.08 -15.36,-13.44 -23.4,-30 -24.12,-49.8"
       id="path3035"
       style="fill:#ffdd3c;fill-opacity:1;fill-rule:evenodd;stroke:none" /><path
       d="m 366.12,679.56 c 0.84,19.8 -6,36.96 -20.28,51.48 -14.28,14.52 -31.92,22.2 -52.92,23.04 -21,0.84 -39.12,-5.52 -54.48,-18.96 -15.24,-13.44 -23.28,-30.12 -24,-49.92 -0.36,-11.04 1.8,-21.6 6.48,-31.68 4.44,-9.6 10.92,-17.88 19.44,-24.96 -6.36,-7.56 -9.96,-15.96 -10.8,-25.44 -1.2,-14.04 3.48,-25.8 14.16,-35.16 10.68,-9.48 25.32,-14.52 43.92,-15 18.24,-0.48 32.76,2.88 43.44,10.08 11.16,7.44 16.8,18.12 17.04,32.16 0.12,11.64 -3.24,21.96 -10.32,31.08 8.52,6.36 15.24,14.16 20.16,23.16 5.16,9.48 7.8,19.44 8.16,30.12"
       id="path3037"
       style="fill:none;stroke:#7b3d20;stroke-width:3.83999991;stroke-linecap:round;stroke-linejoin:round;stroke-miterlimit:10;stroke-opacity:1;stroke-dasharray:none" /><path
       d="m 278.88,696.72 c 11.64,2.28 22.08,-0.84 31.44,-9.24 4.2,-3.72 6.72,-8.64 7.68,-14.76 1.8,-10.68 -1.32,-19.68 -9.12,-26.88 -7.92,-7.2 -17.16,-9.24 -27.72,-6.24 -9.24,2.64 -15,5.4 -17.04,8.16 -1.2,1.56 -1.56,3.6 -1.2,6 0.36,2.4 1.2,4.32 2.64,5.76 l 16.68,3.36 -13.56,-2.4 c -2.64,-0.36 -5.28,0 -7.8,1.32 -2.52,1.32 -4.44,3.12 -5.88,5.52 -3.36,5.88 -2.4,11.76 2.88,17.88 4.92,5.88 11.88,9.72 21,11.52"
       id="path3039"
       style="fill:#ea5606;fill-opacity:1;fill-rule:evenodd;stroke:none" /><path
       d="m 288.6,695.76 c 7.56,0.24 13.92,-1.08 18.96,-3.84 5.88,-3.36 9.48,-8.52 10.92,-15.6 2.16,-10.92 0.24,-19.56 -5.64,-25.92 -5.88,-6.6 -15.24,-10.2 -28.08,-10.8 -3.72,-0.12 -7.32,0.36 -10.8,1.44 -4.68,1.44 -7.92,3.72 -9.84,6.72 -1.08,1.68 -1.56,3.72 -1.2,6.12 0.36,2.28 1.2,4.2 2.64,5.64 l 1.56,0.12 c -2.16,0 -4.32,0.48 -6.6,1.56 -2.76,1.2 -5.04,3 -6.72,5.28 -4.2,5.64 -3.6,11.4 1.8,17.28 2.76,3 7.2,5.64 13.32,7.92 6.6,2.4 13.08,3.72 19.68,4.08 m -21.48,-36.12 1.56,0.12 29.04,1.92"
       id="path3041"
       style="fill:none;stroke:#b4420c;stroke-width:4.80000019;stroke-linecap:round;stroke-linejoin:round;stroke-miterlimit:10;stroke-opacity:1;stroke-dasharray:none" /><path
       d="m 335.76,594 0.24,2.64 -5.52,0.48 -0.24,-2.64 c -0.12,-1.8 -0.36,-3.12 -0.6,-4.2 l 5.28,-1.44 c 0.36,1.32 0.72,3 0.84,5.16 l 0,0 z m -5.52,0.48 0,0"
       id="path3043"
       style="fill:#f08400;fill-opacity:1;fill-rule:nonzero;stroke:none" /><path
       d="m 323.52,580.8 0.12,2.64 -5.52,0.48 -0.12,-2.64 0,0.12 c -0.24,-1.8 -0.48,-3.24 -0.72,-4.32 l 5.28,-1.44 c 0.36,1.2 0.72,2.88 0.96,5.04 l 0,0.12"
       id="path3045"
       style="fill:#f08400;fill-opacity:1;fill-rule:nonzero;stroke:none" /><path
       d="m 332.28,572.88 0.12,2.64 -5.52,0 -0.12,-2.64 0,0.36 c -0.24,-1.8 -0.48,-3.36 -0.72,-4.44 l 5.28,-1.44 c 0.36,1.2 0.72,2.88 0.96,5.16 l 0,0.36"
       id="path3047"
       style="fill:#f08400;fill-opacity:1;fill-rule:nonzero;stroke:none" /><path
       d="m 247.2,699.84 c 3,-2.76 6.48,-3.96 10.68,-3.6 4.08,0.36 7.56,2.04 10.32,5.04"
       id="path3049"
       style="fill:none;stroke:#7b3d20;stroke-width:3.96000004;stroke-linecap:round;stroke-linejoin:round;stroke-miterlimit:10;stroke-opacity:1;stroke-dasharray:none" /><path
       d="m 305.64,701.04 c 3.36,-2.28 6.96,-3.24 10.8,-2.88 3.72,0.48 6.6,2.16 8.64,5.04"
       id="path3051"
       style="fill:none;stroke:#7b3d20;stroke-width:3.5999999;stroke-linecap:round;stroke-linejoin:round;stroke-miterlimit:10;stroke-opacity:1;stroke-dasharray:none" /><path
       d="m 337.56,633.6 c 1.56,1.2 6.96,4.2 16.08,8.88 9.12,4.8 13.68,7.08 13.68,6.72 0.6,-3 0.36,-6.84 -0.72,-11.52 -1.08,-4.68 -2.88,-9 -5.28,-13.2 -5.88,-10.2 -12.36,-13.68 -19.32,-10.44 l -1.56,1.08 c -2.28,1.2 -3.96,2.16 -5.28,3 -1.68,1.08 -3,3 -3.84,5.88 -1.08,3.24 -0.24,5.64 2.64,7.32 l 1.32,0.84 2.04,1.2 0.24,0.24"
       id="path3053"
       style="fill:#ffdd3c;fill-opacity:1;fill-rule:evenodd;stroke:none" /><path
       d="m 337.56,633.6 c 1.56,1.2 6.96,4.2 16.08,8.88 9.12,4.8 13.68,7.08 13.68,6.72 0.6,-3 0.36,-6.84 -0.72,-11.52 -1.08,-4.68 -2.88,-9 -5.28,-13.2 -5.88,-10.2 -12.36,-13.68 -19.32,-10.44"
       id="path3055"
       style="fill:none;stroke:#7b3d20;stroke-width:4.19999981;stroke-linecap:round;stroke-linejoin:round;stroke-miterlimit:10;stroke-opacity:1;stroke-dasharray:none" /><path
       d="m 240,634.44 c -1.56,1.2 -6.96,4.2 -16.08,8.88 -9.12,4.8 -13.68,7.08 -13.68,6.72 -0.6,-3 -0.36,-6.84 0.72,-11.52 1.08,-4.68 2.88,-9 5.28,-13.2 5.88,-10.2 12.36,-13.68 19.32,-10.44 l 1.56,1.08 c 2.28,1.2 3.96,2.16 5.28,3 1.68,1.08 3,3 3.84,5.88 1.08,3.24 0.24,5.64 -2.64,7.32 l -1.32,0.84 -2.04,1.2 -0.24,0.24"
       id="path3057"
       style="fill:#ffdd3c;fill-opacity:1;fill-rule:evenodd;stroke:none" /><path
       d="m 240,634.44 c -1.56,1.2 -6.96,4.2 -16.08,8.88 -9.12,4.8 -13.68,7.08 -13.68,6.72 -0.6,-3 -0.36,-6.84 0.72,-11.52 1.08,-4.68 2.88,-9 5.28,-13.2 5.88,-10.2 12.36,-13.68 19.32,-10.44"
       id="path3059"
       style="fill:none;stroke:#7b3d20;stroke-width:4.19999981;stroke-linecap:round;stroke-linejoin:round;stroke-miterlimit:10;stroke-opacity:1;stroke-dasharray:none" /><path
       d="m 145.56,534.48 c -0.36,1.08 -1.08,2.28 -2.04,3.36 -2.04,2.28 -4.56,3.48 -7.68,3.6"
       id="path3061"
       style="fill:none;stroke:#7b3d20;stroke-width:4.07999992;stroke-linecap:round;stroke-linejoin:round;stroke-miterlimit:10;stroke-opacity:1;stroke-dasharray:none" /><path
       d="m 138.48,530.4 c 0,1.56 -0.24,3.12 -0.84,4.68 -1.32,3.24 -3.48,4.92 -6.72,5.28"
       id="path3063"
       style="fill:none;stroke:#7b3d20;stroke-width:4.07999992;stroke-linecap:round;stroke-linejoin:round;stroke-miterlimit:10;stroke-opacity:1;stroke-dasharray:none" /><path
       d="m 125.88,533.76 2.04,3.96 c 1.8,2.52 4.08,3.72 6.84,3.48"
       id="path3065"
       style="fill:none;stroke:#7b3d20;stroke-width:4.07999992;stroke-linecap:round;stroke-linejoin:round;stroke-miterlimit:10;stroke-opacity:1;stroke-dasharray:none" /><path
       d="m 133.2,563.4 c 2.04,-0.48 3.96,-1.44 5.52,-3 1.56,-1.56 2.52,-3.36 3,-5.52 1.08,-5.04 -1.2,-9.48 -6.84,-13.32"
       id="path3067"
       style="fill:none;stroke:#7b3d20;stroke-width:4.07999992;stroke-linecap:round;stroke-linejoin:round;stroke-miterlimit:10;stroke-opacity:1;stroke-dasharray:none" /><path
       d="m 44.4,534.48 c 0.36,1.08 1.08,2.28 2.04,3.36 2.04,2.28 4.56,3.48 7.68,3.6"
       id="path3069"
       style="fill:none;stroke:#7b3d20;stroke-width:4.07999992;stroke-linecap:round;stroke-linejoin:round;stroke-miterlimit:10;stroke-opacity:1;stroke-dasharray:none" /><path
       d="m 51.48,530.4 c 0,1.56 0.24,3.12 0.84,4.68 1.32,3.24 3.48,4.92 6.72,5.28"
       id="path3071"
       style="fill:none;stroke:#7b3d20;stroke-width:4.07999992;stroke-linecap:round;stroke-linejoin:round;stroke-miterlimit:10;stroke-opacity:1;stroke-dasharray:none" /><path
       d="m 64.08,533.76 -2.04,3.96 c -1.8,2.52 -4.08,3.72 -6.84,3.48"
       id="path3073"
       style="fill:none;stroke:#7b3d20;stroke-width:4.07999992;stroke-linecap:round;stroke-linejoin:round;stroke-miterlimit:10;stroke-opacity:1;stroke-dasharray:none" /><path
       d="m 70.08,565.08 c -4.2,-1.08 -7.92,-3.72 -11.04,-7.8 -3.48,-4.8 -4.8,-10.08 -3.96,-15.72"
       id="path3075"
       style="fill:none;stroke:#7b3d20;stroke-width:4.07999992;stroke-linecap:round;stroke-linejoin:round;stroke-miterlimit:10;stroke-opacity:1;stroke-dasharray:none" /><path
       d="m 100.56,730.32 c -0.6,-3.24 -0.48,-6.48 0.24,-9.48 0.24,-0.6 0.24,-1.08 -0.12,-1.56 -0.36,-0.48 -0.72,-0.84 -1.32,-0.96 l -0.72,0 c -0.96,0.12 -1.56,0.6 -1.8,1.44 -0.96,4.08 -0.96,8.16 -0.12,12.12 0.84,4.08 2.4,7.44 4.68,10.08 1.44,1.56 3.12,2.88 5.16,3.96 1.92,0.96 3.84,1.44 5.88,1.56 3.12,0.12 5.76,-0.96 7.92,-3.12 2.28,-2.16 3.48,-4.68 3.6,-7.44 0.12,-2.76 -0.72,-5.28 -2.64,-7.56 -1.8,-2.28 -4.2,-3.24 -7.2,-2.88 l -0.24,0 c -2.88,0.36 -4.8,1.8 -5.88,4.44 -0.36,0.96 -0.6,1.8 -0.6,2.52 -0.12,0.84 0,1.08 0.36,0.96 0.36,-0.36 0.96,-0.96 1.56,-1.8 0.6,-0.84 1.32,-1.32 1.92,-1.68 1.08,-0.6 2.28,-0.84 3.72,-0.72 1.44,0.24 2.52,0.84 3.36,1.8 1.2,1.32 1.68,2.88 1.56,4.68 -0.12,1.8 -0.96,3.36 -2.4,4.8 -1.32,1.32 -3,2.04 -4.92,1.92 -1.32,-0.12 -2.76,-0.48 -4.32,-1.2 -1.44,-0.84 -2.64,-1.8 -3.72,-3 -2.04,-2.28 -3.36,-5.28 -3.96,-8.88"
       id="path3077"
       style="fill:#7a3d20;fill-opacity:1;fill-rule:evenodd;stroke:none" /><path
       d="m 39.72,667.08 c -0.6,-9.48 0.96,-18.48 4.68,-27.24 3.6,-8.52 9,-15.84 16.08,-22.08 -3.48,-3.6 -6.12,-7.56 -7.92,-11.88 -1.8,-4.44 -2.64,-9 -2.52,-13.8 0.24,-11.04 4.92,-20.16 14.16,-27.24 9.24,-6.96 21.48,-10.92 36.72,-11.88 15.72,-1.08 28.2,2.88 37.2,11.64 8.16,7.8 12.12,17.88 11.76,30 -0.12,6.84 -2.4,13.32 -6.6,19.2 7.2,5.16 12.96,11.4 17.4,18.96 4.44,7.8 7.08,16.08 7.68,25.08 1.32,16.68 -3.96,31.44 -15.72,44.28 -11.64,12.84 -26.4,19.8 -44.16,21.12 -17.76,1.32 -33.36,-3.6 -46.8,-14.52 C 48.24,697.8 40.92,683.88 39.72,667.08"
       id="path3079"
       style="fill:#ffdd3c;fill-opacity:1;fill-rule:evenodd;stroke:none" /><path
       d="m 167.04,658.08 c 1.32,16.8 -3.96,31.56 -15.72,44.4 -11.64,12.72 -26.4,19.8 -44.16,21.12 C 89.4,724.8 73.8,719.88 60.36,708.96 46.92,698.04 39.6,684.12 38.4,667.32 c -0.6,-9.36 0.84,-18.36 4.56,-27 3.6,-8.28 8.88,-15.6 15.84,-21.84 -5.64,-6.12 -9,-13.2 -9.96,-21.24 -1.44,-12 2.16,-22.08 10.92,-30.36 8.88,-8.4 21.24,-13.08 36.96,-13.92 15.48,-0.96 27.84,1.44 37.08,7.2 9.72,6 14.88,14.88 15.48,26.76 0.48,9.84 -2.16,18.72 -7.92,26.76 7.44,5.16 13.44,11.52 17.88,19.08 4.56,7.8 7.2,16.32 7.8,25.32"
       id="path3081"
       style="fill:none;stroke:#7b3d20;stroke-width:3.3599999;stroke-linecap:round;stroke-linejoin:round;stroke-miterlimit:10;stroke-opacity:1;stroke-dasharray:none" /><path
       d="m 93.48,675.24 c 9.96,1.56 18.72,-1.44 26.4,-8.76 3.48,-3.24 5.52,-7.56 6.12,-12.72 1.2,-9.24 -1.68,-16.8 -8.52,-22.68 -6.96,-5.88 -14.88,-7.32 -23.64,-4.32 -7.8,2.52 -12.6,4.92 -14.28,7.32 -1.08,1.32 -1.32,3.12 -0.84,5.16 0.36,2.04 1.08,3.6 2.4,4.8 l 14.16,2.28 -11.52,-1.56 c -2.28,-0.24 -4.44,0.24 -6.6,1.32 -2.04,1.2 -3.72,2.88 -4.8,4.92 -2.64,5.04 -1.68,10.08 2.88,15.12 4.44,4.92 10.44,7.92 18.24,9.12"
       id="path3083"
       style="fill:#ea5606;fill-opacity:1;fill-rule:evenodd;stroke:none" /><path
       d="m 101.76,674.04 c 6.36,0.12 11.76,-1.2 15.96,-3.72 4.92,-3 7.8,-7.56 8.76,-13.68 1.56,-9.24 -0.36,-16.44 -5.52,-21.84 -5.28,-5.4 -13.32,-8.16 -24.24,-8.16 -3,-0.12 -6,0.48 -9,1.56 -3.96,1.32 -6.6,3.24 -8.16,5.88 -0.84,1.44 -1.2,3.24 -0.84,5.28 0.36,1.92 1.08,3.48 2.4,4.68 l 1.32,0 c -1.8,0.12 -3.72,0.6 -5.64,1.56 -2.28,1.08 -4.2,2.64 -5.52,4.68 -3.36,4.92 -2.64,9.84 2.04,14.64 2.4,2.52 6.24,4.56 11.64,6.36 5.64,1.8 11.16,2.76 16.8,2.76 m -19.32,-30 1.32,0.12 24.72,0.72"
       id="path3085"
       style="fill:none;stroke:#b4420c;stroke-width:4.19999981;stroke-linecap:round;stroke-linejoin:round;stroke-miterlimit:10;stroke-opacity:1;stroke-dasharray:none" /><path
       d="m 138.84,586.44 0.24,2.16 -4.8,0.48 -0.24,-2.16 0,0.12 c -0.24,-1.56 -0.48,-2.76 -0.72,-3.72 l 4.56,-1.44 c 0.36,1.08 0.72,2.64 0.96,4.44 l 0,0.12"
       id="path3087"
       style="fill:#f08400;fill-opacity:1;fill-rule:nonzero;stroke:none" /><path
       d="m 127.92,575.52 0.24,2.28 -4.8,0.48 -0.24,-2.28 0,0.12 c -0.24,-1.56 -0.48,-2.76 -0.6,-3.72 l 4.56,-1.2 c 0.36,1.08 0.6,2.4 0.84,4.2 l 0,0.12"
       id="path3089"
       style="fill:#f08400;fill-opacity:1;fill-rule:nonzero;stroke:none" /><path
       d="m 135.24,568.08 0.24,2.16 -4.8,0.96 -0.24,-2.16 0,-0.12 c -0.24,-1.56 -0.48,-2.64 -0.72,-3.48 l 4.56,-1.68 c 0.36,0.96 0.72,2.4 0.96,4.44 l 0,-0.12"
       id="path3091"
       style="fill:#f08400;fill-opacity:1;fill-rule:nonzero;stroke:none" /><path
       d="m 66.72,678.84 c 2.52,-2.4 5.4,-3.48 8.88,-3.36 3.48,0.12 6.48,1.44 8.88,3.96"
       id="path3093"
       style="fill:none;stroke:#7b3d20;stroke-width:3.3599999;stroke-linecap:round;stroke-linejoin:round;stroke-miterlimit:10;stroke-opacity:1;stroke-dasharray:none" /><path
       d="m 116.4,678.12 c 2.76,-2.04 5.76,-3 9,-2.76 3.24,0.24 5.76,1.56 7.56,3.96"
       id="path3095"
       style="fill:none;stroke:#7b3d20;stroke-width:3;stroke-linecap:round;stroke-linejoin:round;stroke-miterlimit:10;stroke-opacity:1;stroke-dasharray:none" /><path
       d="m 141.36,619.8 c 1.2,0.84 6.24,1.68 15,2.52 8.76,0.84 13.08,1.08 13.2,0.6 0.36,-2.4 0,-5.16 -1.32,-8.16 -1.32,-3 -3.24,-5.64 -5.76,-7.92 -5.88,-5.52 -11.88,-6.72 -17.88,-3.72 l -1.32,0.96 c -1.8,1.08 -3.36,2.04 -4.44,2.76 -1.32,0.96 -2.4,2.64 -3.12,5.04 -0.84,2.76 0,4.8 2.52,6.12 l 1.2,0.72 1.8,0.96 0.12,0.12"
       id="path3097"
       style="fill:#ffdd3c;fill-opacity:1;fill-rule:evenodd;stroke:none" /><path
       d="m 141.36,619.8 c 1.2,0.84 6.24,1.68 15,2.52 8.76,0.84 13.08,1.08 13.2,0.6 0.36,-2.4 0,-5.16 -1.32,-8.16 -1.32,-3 -3.24,-5.64 -5.76,-7.92 -5.88,-5.52 -11.88,-6.72 -17.88,-3.72"
       id="path3099"
       style="fill:none;stroke:#7b3d20;stroke-width:3.5999999;stroke-linecap:round;stroke-linejoin:round;stroke-miterlimit:10;stroke-opacity:1;stroke-dasharray:none" /><path
       d="m 58.68,623.4 c -1.2,0.96 -6.12,2.16 -14.88,3.6 -8.52,1.44 -12.96,1.92 -13.08,1.56 -0.6,-2.52 -0.24,-5.28 0.84,-8.28 1.08,-3 2.76,-5.76 5.04,-8.28 5.64,-5.88 11.52,-7.56 17.64,-5.04 l 1.44,0.84 c 1.8,0.96 3.36,1.8 4.56,2.4 1.44,0.84 2.64,2.52 3.48,4.92 0.96,2.76 0.24,4.8 -2.16,6.36 l -1.08,0.6 -1.68,1.2 -0.12,0.12"
       id="path3101"
       style="fill:#ffdd3c;fill-opacity:1;fill-rule:evenodd;stroke:none" /><path
       d="m 58.68,623.4 c -1.2,0.96 -6.12,2.16 -14.88,3.6 -8.52,1.44 -12.96,1.92 -13.08,1.56 -0.6,-2.52 -0.24,-5.28 0.84,-8.28 1.08,-3 2.76,-5.76 5.04,-8.28 5.64,-5.88 11.52,-7.56 17.64,-5.04"
       id="path3103"
       style="fill:none;stroke:#7b3d20;stroke-width:3.5999999;stroke-linecap:round;stroke-linejoin:round;stroke-miterlimit:10;stroke-opacity:1;stroke-dasharray:none" /><path
       d="m 536.04,534.48 c -0.36,1.08 -1.08,2.28 -2.04,3.36 -2.04,2.28 -4.56,3.48 -7.68,3.6"
       id="path3105"
       style="fill:none;stroke:#7b3d20;stroke-width:4.07999992;stroke-linecap:round;stroke-linejoin:round;stroke-miterlimit:10;stroke-opacity:1;stroke-dasharray:none" /><path
       d="m 528.96,530.4 c 0,1.56 -0.24,3.12 -0.84,4.68 -1.32,3.24 -3.48,4.92 -6.72,5.28"
       id="path3107"
       style="fill:none;stroke:#7b3d20;stroke-width:4.07999992;stroke-linecap:round;stroke-linejoin:round;stroke-miterlimit:10;stroke-opacity:1;stroke-dasharray:none" /><path
       d="m 516.36,533.76 2.04,3.96 c 1.8,2.52 4.08,3.72 6.84,3.48"
       id="path3109"
       style="fill:none;stroke:#7b3d20;stroke-width:4.07999992;stroke-linecap:round;stroke-linejoin:round;stroke-miterlimit:10;stroke-opacity:1;stroke-dasharray:none" /><path
       d="m 517.68,559.32 c 2.04,0.24 4.32,-0.12 6.72,-1.2 2.4,-1.08 4.32,-2.52 5.64,-4.32 3.48,-4.56 1.92,-8.64 -4.68,-12.24"
       id="path3111"
       style="fill:none;stroke:#7b3d20;stroke-width:4.07999992;stroke-linecap:round;stroke-linejoin:round;stroke-miterlimit:10;stroke-opacity:1;stroke-dasharray:none" /><path
       d="m 434.88,534.48 c 0.36,1.08 1.08,2.28 2.04,3.36 2.04,2.28 4.56,3.48 7.68,3.6"
       id="path3113"
       style="fill:none;stroke:#7b3d20;stroke-width:4.07999992;stroke-linecap:round;stroke-linejoin:round;stroke-miterlimit:10;stroke-opacity:1;stroke-dasharray:none" /><path
       d="m 441.96,530.4 c 0,1.56 0.24,3.12 0.84,4.68 1.32,3.24 3.48,4.92 6.72,5.28"
       id="path3115"
       style="fill:none;stroke:#7b3d20;stroke-width:4.07999992;stroke-linecap:round;stroke-linejoin:round;stroke-miterlimit:10;stroke-opacity:1;stroke-dasharray:none" /><path
       d="m 454.56,533.76 -2.04,3.96 c -1.8,2.52 -4.08,3.72 -6.84,3.48"
       id="path3117"
       style="fill:none;stroke:#7b3d20;stroke-width:4.07999992;stroke-linecap:round;stroke-linejoin:round;stroke-miterlimit:10;stroke-opacity:1;stroke-dasharray:none" /><path
       d="m 453.24,559.32 c -2.04,0.24 -4.32,-0.12 -6.72,-1.2 -2.4,-1.08 -4.32,-2.52 -5.64,-4.32 -3.48,-4.56 -1.92,-8.64 4.68,-12.24"
       id="path3119"
       style="fill:none;stroke:#7b3d20;stroke-width:4.07999992;stroke-linecap:round;stroke-linejoin:round;stroke-miterlimit:10;stroke-opacity:1;stroke-dasharray:none" /><path
       d="m 496.56,730.08 c -4.56,0.12 -7.92,-1.2 -9.96,-3.84 -2.16,2.64 -5.52,3.96 -10.08,3.84 -1.68,0 -3.12,-0.12 -4.44,-0.48 -1.2,-0.36 -1.8,-0.72 -1.68,-1.08 0.12,-0.48 1.92,-0.84 5.4,-1.2 3.84,-0.96 6.6,-3 8.4,-6.12 0.36,-0.84 1.08,-1.2 2.04,-1.2 l 0.48,0 c 0.96,0 1.68,0.36 2.04,1.2 1.8,3 4.56,5.04 8.4,6 l 5.52,1.32 c 0.12,0.36 -0.48,0.72 -1.68,1.08 -1.32,0.36 -2.76,0.48 -4.44,0.48"
       id="path3121"
       style="fill:#7a3d20;fill-opacity:1;fill-rule:evenodd;stroke:none" /><path
       d="m 422.04,661.8 c -0.36,-9.48 1.56,-18.6 5.64,-27.12 3.96,-8.28 9.48,-15.48 16.8,-21.48 -3.24,-3.72 -5.76,-7.68 -7.44,-12.12 -1.68,-4.44 -2.4,-9.12 -2.16,-13.92 0.6,-11.04 5.76,-19.92 15.24,-26.64 9.48,-6.6 21.84,-10.2 37.08,-10.68 15.84,-0.48 28.08,3.84 36.84,12.96 7.8,8.16 11.4,18.24 10.68,30.36 -0.36,6.84 -2.76,13.2 -7.2,18.96 6.96,5.4 12.48,12 16.68,19.56 4.2,7.92 6.48,16.32 6.84,25.32 0.6,16.8 -5.16,31.44 -17.28,43.8 -12.12,12.36 -27.12,18.84 -45,19.44 -17.76,0.72 -33.24,-4.68 -46.32,-16.08 -12.96,-11.4 -19.8,-25.56 -20.4,-42.36"
       id="path3123"
       style="fill:#ffdd3c;fill-opacity:1;fill-rule:evenodd;stroke:none" /><path
       d="m 549.72,657.24 c 0.6,16.8 -5.16,31.44 -17.28,43.8 -12.12,12.36 -27.12,18.84 -45,19.56 -17.76,0.6 -33.24,-4.8 -46.32,-16.2 -12.96,-11.4 -19.8,-25.56 -20.4,-42.36 -0.36,-9.48 1.44,-18.36 5.4,-26.88 3.96,-8.28 9.48,-15.36 16.68,-21.36 -5.4,-6.36 -8.52,-13.56 -9.24,-21.6 -1.08,-12 3,-21.96 12,-29.88 9.24,-8.04 21.72,-12.36 37.44,-12.72 15.48,-0.36 27.84,2.4 36.84,8.52 9.48,6.36 14.28,15.48 14.52,27.36 0.12,9.84 -2.76,18.6 -8.76,26.4 7.2,5.4 12.96,12 17.16,19.8 4.32,8.04 6.6,16.56 6.96,25.56"
       id="path3125"
       style="fill:none;stroke:#7b3d20;stroke-width:3.3599999;stroke-linecap:round;stroke-linejoin:round;stroke-miterlimit:10;stroke-opacity:1;stroke-dasharray:none" /><path
       d="m 475.44,671.76 c 9.96,1.92 18.84,-0.72 26.76,-7.8 3.48,-3.12 5.76,-7.32 6.6,-12.48 1.44,-9.24 -1.2,-16.8 -7.8,-22.92 -6.72,-6.12 -14.52,-7.92 -23.52,-5.28 -7.92,2.28 -12.72,4.56 -14.52,6.84 -1.08,1.32 -1.44,3.12 -1.08,5.16 0.36,2.04 1.08,3.6 2.28,4.92 l 14.16,2.76 -11.52,-1.92 c -2.28,-0.36 -4.44,0 -6.6,1.08 -2.04,1.08 -3.72,2.64 -4.92,4.68 -2.88,4.92 -2.16,10.08 2.28,15.24 4.2,5.04 10.2,8.28 17.88,9.72"
       id="path3127"
       style="fill:#ea5606;fill-opacity:1;fill-rule:evenodd;stroke:none" /><path
       d="m 483.84,670.92 c 6.36,0.24 11.76,-0.84 16.08,-3.24 4.92,-2.76 8.04,-7.2 9.24,-13.32 1.8,-9.12 0.24,-16.44 -4.8,-21.96 -5.04,-5.64 -12.96,-8.64 -23.88,-9.12 -3.12,-0.12 -6.12,0.24 -9.12,1.2 -3.96,1.2 -6.84,3.12 -8.4,5.64 -0.96,1.44 -1.32,3.24 -0.96,5.28 0.24,1.92 0.96,3.48 2.16,4.8 l 1.32,0.12 c -1.8,0 -3.72,0.36 -5.64,1.2 -2.28,1.08 -4.2,2.52 -5.64,4.56 -3.6,4.8 -3.12,9.72 1.56,14.76 2.28,2.52 6,4.68 11.28,6.72 5.64,2.04 11.16,3.24 16.8,3.36 m -18.36,-30.6 1.44,0 24.6,1.68"
       id="path3129"
       style="fill:none;stroke:#b4420c;stroke-width:4.07999992;stroke-linecap:round;stroke-linejoin:round;stroke-miterlimit:10;stroke-opacity:1;stroke-dasharray:none" /><path
       d="m 523.92,584.76 0.12,2.28 -4.8,0 -0.12,-2.28 0,0.24 c -0.12,-1.56 -0.36,-2.88 -0.48,-3.84 l 4.56,-0.96 c 0.36,1.08 0.6,2.52 0.72,4.32 l 0,0.24"
       id="path3131"
       style="fill:#f08400;fill-opacity:1;fill-rule:nonzero;stroke:none" /><path
       d="m 513.48,573.24 0.12,2.28 -4.8,0.48 -0.12,-2.28 c -0.12,-1.44 -0.36,-2.64 -0.6,-3.48 l 4.56,-1.44 c 0.36,1.08 0.72,2.64 0.84,4.44 l 0,0 z m -4.8,0.48 0,0"
       id="path3133"
       style="fill:#f08400;fill-opacity:1;fill-rule:nonzero;stroke:none" /><path
       d="m 520.92,566.52 0.12,2.16 -4.8,0 -0.12,-2.16 0,0.24 c -0.12,-1.56 -0.36,-2.76 -0.48,-3.6 l 4.56,-1.2 c 0.36,0.96 0.6,2.4 0.72,4.32 l 0,0.24"
       id="path3135"
       style="fill:#f08400;fill-opacity:1;fill-rule:nonzero;stroke:none" /><path
       d="m 448.56,674.52 c 2.52,-2.28 5.64,-3.36 9.12,-3.12 3.48,0.24 6.36,1.68 8.64,4.32"
       id="path3137"
       style="fill:none;stroke:#7b3d20;stroke-width:3.3599999;stroke-linecap:round;stroke-linejoin:round;stroke-miterlimit:10;stroke-opacity:1;stroke-dasharray:none" /><path
       d="m 498.24,675.48 c 2.88,-2.04 5.88,-2.88 9.12,-2.52 3.24,0.36 5.64,1.8 7.44,4.32"
       id="path3139"
       style="fill:none;stroke:#7b3d20;stroke-width:3;stroke-linecap:round;stroke-linejoin:round;stroke-miterlimit:10;stroke-opacity:1;stroke-dasharray:none" /><path
       d="m 525.24,618 -0.12,-0.12 -1.8,-1.08 -1.08,-0.6 c -2.4,-1.44 -3.12,-3.48 -2.28,-6.24 0.72,-2.4 1.8,-4.08 3.24,-5.04 1.08,-0.6 2.64,-1.56 4.44,-2.64 l 1.44,-0.84 c 6.12,-2.88 11.16,-3.96 15.12,-3.36 3.24,0.6 7.08,2.64 11.52,6.36 -0.12,4.56 -4.92,8.4 -14.4,11.4 -3.48,1.2 -6.96,2.04 -10.2,2.4 -3.24,0.36 -5.16,0.36 -5.88,-0.24"
       id="path3141"
       style="fill:#ffdd3c;fill-opacity:1;fill-rule:evenodd;stroke:none" /><path
       d="m 529.08,601.44 c 6.12,-2.88 11.16,-3.96 15.12,-3.36 3.24,0.6 7.08,2.64 11.52,6.36 -0.12,4.56 -4.92,8.4 -14.4,11.4 -3.48,1.2 -6.96,2.04 -10.2,2.4 -3.24,0.36 -5.16,0.36 -5.88,-0.24"
       id="path3143"
       style="fill:none;stroke:#7b3d20;stroke-width:3.5999999;stroke-linecap:round;stroke-linejoin:round;stroke-miterlimit:10;stroke-opacity:1;stroke-dasharray:none" /><path
       d="m 442.44,618.72 0.12,-0.12 1.8,-1.08 1.08,-0.6 c 2.4,-1.44 3.12,-3.48 2.28,-6.24 -0.72,-2.4 -1.8,-4.08 -3.24,-5.04 -1.08,-0.6 -2.64,-1.56 -4.44,-2.64 l -1.44,-0.84 c -6.12,-2.88 -11.16,-3.96 -15.12,-3.36 -3.24,0.6 -7.08,2.64 -11.52,6.36 0.12,4.56 4.92,8.4 14.4,11.4 3.48,1.2 6.96,2.04 10.2,2.4 3.24,0.36 5.16,0.36 5.88,-0.24"
       id="path3145"
       style="fill:#ffdd3c;fill-opacity:1;fill-rule:evenodd;stroke:none" /><path
       d="m 438.6,602.16 c -6.12,-2.88 -11.16,-3.96 -15.12,-3.36 -3.24,0.6 -7.08,2.64 -11.52,6.36 0.12,4.56 4.92,8.4 14.4,11.4 3.48,1.2 6.96,2.04 10.2,2.4 3.24,0.36 5.16,0.36 5.88,-0.24"
       id="path3147"
       style="fill:none;stroke:#7b3d20;stroke-width:3.5999999;stroke-linecap:round;stroke-linejoin:round;stroke-miterlimit:10;stroke-opacity:1;stroke-dasharray:none" /></g></svg>