<?xml version="1.0" encoding="utf-8"?>
<!-- Generator: Adobe Illustrator 15.1.0, SVG Export Plug-In . SVG Version: 6.00 Build 0)  -->
<!DOCTYPE svg PUBLIC "-//W3C//DTD SVG 1.1//EN" "http://www.w3.org/Graphics/SVG/1.1/DTD/svg11.dtd">
<svg version="1.1" id="Layer_1" xmlns="http://www.w3.org/2000/svg" xmlns:xlink="http://www.w3.org/1999/xlink" x="0px" y="0px"
	 width="128px" height="128px" viewBox="0 0 128 128" enable-background="new 0 0 128 128" xml:space="preserve">
<path d="M7.706,7.13v56.506h79.108V7.13H7.706z M32.775,25.833c1.082-1.301,1.566-3.055,2.03-4.647
	c0.486-1.668,0.877-3.426,1.702-4.97c1.005-1.881,3.12-3.279,5.17-3.744c2.382-0.54,5.161,0.176,6.94,1.868
	c1.898,1.805,2.325,3.976,2.771,6.427c0.38,2.084,1.515,3.378,3.311,4.45c1.7,1.015,3.759,1.453,5.087-0.332
	c1.208-1.625,1.925-3.509,3.001-5.209c1.577-2.492,4.504-3.392,5.504-3.392c2.577,0,3.569,4.184,0.695,4.901
	c-2.66,0.665-3.731,3.67-4.924,5.815c-0.66,1.188-1.432,2.383-2.572,3.164c-1.355,0.927-2.965,0.967-4.544,0.784
	c-3.659-0.424-7.571-2.263-9.3-5.681c-0.971-1.918-0.767-4.143-1.633-6.087c-0.915-2.053-3.611-2.573-5.042-0.742
	c-0.89,1.139-1.232,2.742-1.61,4.107c-0.354,1.276-0.734,2.533-1.28,3.741c-0.83,1.837-1.997,3.563-3.764,4.608
	c-1.289,0.763-3.976,1.89-5.319,0.736c-1.08-0.927-0.879-2.762,0.011-3.74c0.612-0.672,1.337-0.692,2.147-0.933
	C31.803,26.766,32.348,26.348,32.775,25.833z M13.698,18.603c0-4.292,3.584-7.877,7.877-7.877s7.877,3.584,7.877,7.877
	s-3.584,7.877-7.877,7.877S13.698,22.895,13.698,18.603z M40.739,55.899c-1.643,0.268-3.313-0.346-4.486-1.509
	c-1.337-1.326-1.348-2.741-1.3-4.502c-2.721,0.444-5.359,0.054-7.676-1.503c-2.113,0.198-4.339-0.792-5.34-2.716
	c-0.614-1.181-0.625-2.572-1.074-3.819c-0.391-1.084-0.254-2.285,0.224-3.318c1.054-2.277,3.466-3.371,5.901-2.944
	c2.764,0.484,4.167,2.62,5.911,4.544c3.601-2.131,8.427-0.98,10.062,1.319c1.524,2.144,1.996,4.952,2.019,7.53
	C45.006,51.93,44.141,55.345,40.739,55.899z M55.838,49.532c-2.611,0.138-4.948-1.088-6.167-3.397
	c-1.935-3.665-1.92-8.202-5.266-11.087c-1.558-1.344-3.558-1.942-5.583-2.072c-0.805-0.052-1.601-0.625-1.152-1.536
	c0.476-0.967,2.401-0.353,3.181-0.211c0.556-0.751,1.646-0.293,2.375-0.108c0.991,0.251,1.963,0.57,2.919,0.93
	c1.908,0.719,3.749,1.597,5.614,2.417c1.938,0.852,3.915,1.674,5.995,2.101c2.687,0.551,5.692,0.639,8.166,1.743
	c1.3,0.58,2.57,1.51,3.01,2.873c0.415,1.286,0.048,2.711-0.728,3.95c-1.272,2.03-3.336,2.509-5.576,2.801
	c-1.087,0.143-2.198,0.251-3.245,0.596C58.178,48.927,57.135,49.464,55.838,49.532z M80.252,51.099
	c-0.539,1.395-1.236,2.821-2.512,3.674c-1.147,0.768-2.518,1.165-3.854,1.461c-1.484,0.329-2.994,0.535-4.482,0.84
	c-1.838,0.376-3.68,0.789-5.555,0.905c-0.717,0.044-1.828,0.212-2.478-0.165c-0.563-0.327-0.809-1.094-0.263-1.562
	c1.341-1.149,2.944-1.926,4.568-2.59c1.947-0.977,3.994-1.705,6.004-2.555c2.707-1.484,5.105-3.815,5.721-6.943
	c0.535-2.733-0.271-5.54-1.303-8.057c-0.58-1.418-1.26-2.794-1.961-4.157c-0.564-1.095,1.135-2.16,1.727-1.01
	C78.924,36.885,82.652,44.876,80.252,51.099z M62.722,40.679c-0.664-0.079-1.273-0.228-1.873-0.382
	c-0.58,0.773-2.338,0.262-3.134,0.116c-1.094-0.201-2.223-0.503-3.197-1.051c-1.058,0.521-2.813-0.854-3.577-1.477
	c1.008,2.141,1.46,4.331,1.426,4.733c0.369,0.347,0.605,0.83,0.757,1.305c2.983,2.221,1.852,1.353,7.425,0.65
	c1.512-0.191,3.02-0.221,4.489-0.672C65.305,41.563,64.532,40.489,62.722,40.679z"/>
</svg>
