<?xml version="1.0" encoding="UTF-8" standalone="no"?>
<!-- Created with Inkscape (http://www.inkscape.org/) -->

<svg
   xmlns:dc="http://purl.org/dc/elements/1.1/"
   xmlns:cc="http://creativecommons.org/ns#"
   xmlns:rdf="http://www.w3.org/1999/02/22-rdf-syntax-ns#"
   xmlns:svg="http://www.w3.org/2000/svg"
   xmlns="http://www.w3.org/2000/svg"
   xmlns:sodipodi="http://sodipodi.sourceforge.net/DTD/sodipodi-0.dtd"
   xmlns:inkscape="http://www.inkscape.org/namespaces/inkscape"
   width="744.09448819"
   height="1052.3622047"
   id="svg2"
   version="1.1"
   inkscape:version="0.48.2 r9819"
   sodipodi:docname="compound-inkscape.svg">
  <defs
     id="defs4" />
  <sodipodi:namedview
     id="base"
     pagecolor="#ffffff"
     bordercolor="#666666"
     borderopacity="1.0"
     inkscape:pageopacity="0.0"
     inkscape:pageshadow="2"
     inkscape:zoom="0.35"
     inkscape:cx="375"
     inkscape:cy="520"
     inkscape:document-units="px"
     inkscape:current-layer="layer1"
     showgrid="false"
     inkscape:window-width="1440"
     inkscape:window-height="883"
     inkscape:window-x="-4"
     inkscape:window-y="-4"
     inkscape:window-maximized="1" />
  <metadata
     id="metadata7">
    <rdf:RDF>
      <cc:Work
         rdf:about="">
        <dc:format>image/svg+xml</dc:format>
        <dc:type
           rdf:resource="http://purl.org/dc/dcmitype/StillImage" />
        <dc:title></dc:title>
      </cc:Work>
    </rdf:RDF>
  </metadata>
  <g
     inkscape:label="Layer 1"
     inkscape:groupmode="layer"
     id="layer1">
    <path
       style="fill:#000000;stroke:#000000;stroke-width:1px;stroke-linecap:butt;stroke-linejoin:miter;stroke-opacity:1"
       d="M 312.125 172.21875 C 242.2452 173.48511 202.78572 333.06697 134.28125 403.78125 C 65.709826 675.20983 134.27678 675.20983 268.5625 723.78125 C 402.84821 772.35268 437.12947 863.7991 582.84375 746.65625 C 728.55804 629.51339 488.57589 609.51339 425.71875 506.65625 C 362.8616 403.7991 502.84375 363.77678 382.84375 218.0625 C 355.65625 185.04911 332.59484 171.8478 312.125 172.21875 z M 274.28125 292.375 C 385.70982 309.51785 374.29911 315.21875 377.15625 395.21875 C 380.01339 475.21875 351.42857 466.65179 260 440.9375 C 168.57143 415.22322 211.4241 369.51785 274.28125 292.375 z M 402.84375 538.0625 C 488.55803 615.20536 557.12946 683.79464 462.84375 700.9375 C 368.55803 718.08035 322.86161 669.51786 345.71875 632.375 C 368.57589 595.23214 314.27232 538.0625 402.84375 538.0625 z "
       id="path2985" />
  </g>
</svg>
