<?xml version="1.0" encoding="utf-8"?>
<!-- Generator: Adobe Illustrator 15.0.0, SVG Export Plug-In . SVG Version: 6.00 Build 0)  -->
<!DOCTYPE svg PUBLIC "-//W3C//DTD SVG 1.1//EN" "http://www.w3.org/Graphics/SVG/1.1/DTD/svg11.dtd">
<svg version="1.1" id="Layer_1" xmlns="http://www.w3.org/2000/svg" xmlns:xlink="http://www.w3.org/1999/xlink" x="0px" y="0px"
	 width="2048px" height="1152px" viewBox="0 0 2048 1152" enable-background="new 0 0 2048 1152" xml:space="preserve">
<g>
	<path fill="#A85D13" d="M306.409,501.61c11.101-1.65,22.771,0.8,32.48,6.399c13.17,7.42,22.79,21,25.229,35.94
		c2.261,11.67,0.04,24.12-5.819,34.43c-7.38,13.39-21.08,23.14-36.16,25.64c-12.37,2.342-25.54-0.27-36.229-6.868
		c-12.419-7.62-21.459-20.671-23.84-35.081c-2.061-11.351-0.22-23.42,5.319-33.551C275.04,513.99,290.05,503.48,306.409,501.61z
		 M306.33,507.4c-10.66,1.609-20.71,7.02-27.811,15.149c-7.149,8.07-11.22,18.7-11.55,29.46c-0.24,13.561,5.76,27.12,16.11,35.921
		c10.779,9.329,26.039,13.25,39.949,10.021c12.98-2.78,24.541-11.521,30.69-23.28c5.02-9.07,6.37-19.85,4.7-30.01
		c-2.391-13.14-10.761-25.11-22.44-31.63C327.11,507.84,316.47,505.94,306.33,507.4z"/>
</g>
<g>
	<path fill="#F37C00" d="M306.33,507.4c10.14-1.46,20.779,0.439,29.649,5.63c11.68,6.52,20.05,18.489,22.44,31.63
		c1.67,10.16,0.319,20.939-4.7,30.01c-6.15,11.761-17.71,20.5-30.69,23.28c-13.91,3.229-29.17-0.69-39.949-10.021
		c-10.351-8.801-16.351-22.36-16.11-35.921c0.33-10.76,4.4-21.39,11.55-29.46C285.62,514.42,295.67,509.01,306.33,507.4z
		 M308.48,538.5c-7.939,2.33-12.8,11.87-9.68,19.61c2.53,7.68,11.819,12.149,19.38,9.199c7.26-2.38,11.67-10.72,9.66-18.069
		C325.96,541,316.48,535.68,308.48,538.5z"/>
</g>
<path fill="#090C0D" d="M308.48,538.5c8-2.82,17.48,2.5,19.36,10.74c2.01,7.35-2.4,15.689-9.66,18.069
	c-7.561,2.95-16.85-1.52-19.38-9.199C295.68,550.37,300.54,540.83,308.48,538.5z"/>
</svg>
