<?xml version="1.0" encoding="utf-8"?>
<!-- Generator: Adobe Illustrator 15.0.0, SVG Export Plug-In . SVG Version: 6.00 Build 0)  -->
<!DOCTYPE svg PUBLIC "-//W3C//DTD SVG 1.1//EN" "http://www.w3.org/Graphics/SVG/1.1/DTD/svg11.dtd">
<svg version="1.1" id="Layer_2" xmlns="http://www.w3.org/2000/svg" xmlns:xlink="http://www.w3.org/1999/xlink" x="0px" y="0px"
	 width="595.281px" height="841.89px" viewBox="0 0 595.281 841.89" enable-background="new 0 0 595.281 841.89"
	 xml:space="preserve">
<rect x="21.778" y="22.11" fill="none" stroke="#FFB600" stroke-miterlimit="10" width="16.675" height="16.675"/>
<polyline fill="none" stroke="#FFB600" stroke-miterlimit="10" points="71.778,38.785 71.778,22.11 55.103,22.11 "/>
<polyline fill="none" stroke="#FFB600" stroke-miterlimit="10" points="88.453,38.785 88.453,22.11 71.778,22.11 "/>
<polyline fill="none" stroke="#FFB600" stroke-miterlimit="10" points="105.115,38.785 105.115,22.11 88.44,22.11 "/>
<polyline fill="none" stroke="#FFB600" stroke-miterlimit="10" points="121.778,38.785 121.778,22.11 105.103,22.11 "/>
<polyline fill="none" stroke="#FFB600" stroke-miterlimit="10" points="71.778,55.46 71.778,38.785 55.103,38.785 "/>
<polyline fill="none" stroke="#FFB600" stroke-miterlimit="10" points="88.453,55.46 88.453,38.785 71.778,38.785 "/>
<polyline fill="none" stroke="#FFB600" stroke-miterlimit="10" points="105.115,55.46 105.115,38.785 88.44,38.785 "/>
<polyline fill="none" stroke="#FFB600" stroke-miterlimit="10" points="121.778,55.46 121.778,38.785 105.103,38.785 "/>
<polyline fill="none" stroke="#FFB600" stroke-miterlimit="10" points="88.453,72.135 88.453,55.459 71.778,55.459 "/>
<polyline fill="none" stroke="#FFB600" stroke-miterlimit="10" points="105.115,72.135 105.115,55.459 88.44,55.459 "/>
<polyline fill="none" stroke="#FFB600" stroke-miterlimit="10" points="121.778,72.135 121.778,55.459 105.103,55.459 "/>
<polyline fill="none" stroke="#FFB600" stroke-miterlimit="10" points="105.109,88.816 105.109,72.141 88.435,72.141 "/>
<polyline fill="none" stroke="#FFB600" stroke-miterlimit="10" points="121.772,88.816 121.772,72.141 105.097,72.141 "/>
<polyline fill="none" stroke="#FFB600" stroke-miterlimit="10" points="121.772,105.517 121.772,88.841 105.097,88.841 "/>
<polyline fill="none" stroke="#FFB600" stroke-miterlimit="10" points="55.103,38.785 55.103,22.11 38.453,22.11 "/>
<polyline fill="none" stroke="#FFB600" stroke-miterlimit="10" points="21.778,38.785 21.778,55.46 38.453,55.46 "/>
<polyline fill="none" stroke="#FFB600" stroke-miterlimit="10" points="21.778,55.466 21.778,72.141 38.453,72.141 "/>
<polyline fill="none" stroke="#FFB600" stroke-miterlimit="10" points="21.778,72.116 21.778,88.791 38.453,88.791 "/>
<polyline fill="none" stroke="#FFB600" stroke-miterlimit="10" points="21.778,88.804 21.778,105.479 38.453,105.479 "/>
<polyline fill="none" stroke="#FFB600" stroke-miterlimit="10" points="21.778,105.454 21.778,122.128 38.453,122.128 "/>
<polyline fill="none" stroke="#FFB600" stroke-miterlimit="10" points="38.44,55.473 38.44,72.147 55.116,72.147 "/>
<polyline fill="none" stroke="#FFB600" stroke-miterlimit="10" points="38.44,72.123 38.44,88.797 55.116,88.797 "/>
<polyline fill="none" stroke="#FFB600" stroke-miterlimit="10" points="38.44,88.81 38.44,105.485 55.116,105.485 "/>
<polyline fill="none" stroke="#FFB600" stroke-miterlimit="10" points="38.44,105.46 38.44,122.135 55.116,122.135 "/>
<polyline fill="none" stroke="#FFB600" stroke-miterlimit="10" points="55.103,72.141 55.103,88.816 71.778,88.816 "/>
<polyline fill="none" stroke="#FFB600" stroke-miterlimit="10" points="55.103,88.829 55.103,105.503 71.778,105.503 "/>
<polyline fill="none" stroke="#FFB600" stroke-miterlimit="10" points="55.103,105.479 55.103,122.153 71.778,122.153 "/>
<polyline fill="none" stroke="#FFB600" stroke-miterlimit="10" points="71.778,88.841 71.778,105.516 88.453,105.516 "/>
<polyline fill="none" stroke="#FFB600" stroke-miterlimit="10" points="71.778,105.491 71.778,122.166 88.453,122.166 "/>
<polyline fill="none" stroke="#FFB600" stroke-miterlimit="10" points="88.44,105.491 88.44,122.166 105.116,122.166 "/>
<rect x="38.453" y="38.785" fill="none" stroke="#FFB600" stroke-miterlimit="10" width="16.65" height="16.675"/>
<rect x="55.103" y="55.46" fill="none" stroke="#FFB600" stroke-miterlimit="10" width="16.675" height="16.675"/>
<rect x="71.778" y="72.11" fill="none" stroke="#FFB600" stroke-miterlimit="10" width="16.675" height="16.675"/>
<rect x="88.453" y="88.785" fill="none" stroke="#FFB600" stroke-miterlimit="10" width="16.65" height="16.675"/>
<rect x="105.103" y="105.46" fill="none" stroke="#FFB600" stroke-miterlimit="10" width="16.675" height="16.675"/>
</svg>
