<?xml version="1.0" encoding="iso-8859-1"?>
<!-- Generator: Adobe Illustrator 15.1.0, SVG Export Plug-In . SVG Version: 6.00 Build 0)  -->
<!DOCTYPE svg PUBLIC "-//W3C//DTD SVG 1.1//EN" "http://www.w3.org/Graphics/SVG/1.1/DTD/svg11.dtd">
<svg version="1.1" xmlns="http://www.w3.org/2000/svg" xmlns:xlink="http://www.w3.org/1999/xlink" x="0px" y="0px" width="1024px"
	 height="1024px" viewBox="0 0 1024 1024" enable-background="new 0 0 1024 1024" xml:space="preserve">
<g id="World_1_">
	<rect id="RightBar" x="672.075" width="82.075" height="590"/>
	<rect id="LeftBar" width="82.075" height="590"/>
	<radialGradient id="Canvas_1_" cx="377.0752" cy="295" r="295" gradientUnits="userSpaceOnUse">
		<stop  offset="0" style="stop-color:#C6E8EE"/>
		<stop  offset="0.1686" style="stop-color:#ACCFDB"/>
		<stop  offset="0.5558" style="stop-color:#7AA6BA"/>
		<stop  offset="0.8445" style="stop-color:#5C91A8"/>
		<stop  offset="1" style="stop-color:#5089A2"/>
	</radialGradient>
	<rect id="Canvas" x="82.075" fill="url(#Canvas_1_)" width="590" height="590"/>
	<g id="Will-E-Orbiter">
		<circle id="pivot_11_" cx="377.075" cy="295" r="4"/>
		<g id="Wil-E">
			<g id="Body">
				<g id="Neck">
					<polygon fill="#AC5234" points="376.357,182.168 374.743,179.768 382.546,175.897 384.161,178.298 					"/>
					<circle id="pivot_6_" cx="377.075" cy="180.234" r="0.5"/>
					<g id="Head_1_">
						<polygon fill="#C4BCA5" points="382.901,172.907 382.901,176.604 387.244,176.101 387.244,173.41 						"/>
						<path fill="#FFD591" d="M377.763,176.783c-1.502,0-2.721-1.045-2.721-2.335c0-1.291,1.218-2.336,2.721-2.336V176.783z"/>
						<polygon fill="#AA897D" points="377.225,170.957 377.225,177.938 383.055,176.989 383.055,171.906 						"/>
						<circle id="pivot_27_" cx="382.075" cy="177.734" r="0.5"/>
					</g>
				</g>
				<polygon fill="#FFD591" points="382.905,185.846 384.947,180.968 381.725,180.968 379.657,185.846 				"/>
				<polygon fill="#484541" points="371.903,180.968 369.662,185.846 379.657,185.846 381.725,180.968 				"/>
				<line fill="none" x1="376.338" y1="185.846" x2="373.02" y2="185.846"/>
				<line fill="none" x1="379.657" y1="185.846" x2="376.338" y2="185.846"/>
				<polygon fill="#C6722D" points="369.662,185.846 366.761,192.16 368.914,195.754 384.667,195.754 386.672,192.674 
					382.905,185.846 				"/>
				<polygon fill="#FFD591" points="376.338,185.846 378.406,180.968 375.088,180.968 373.02,185.846 				"/>
				<circle id="pivot_25_" cx="377.075" cy="199.097" r="0.5"/>
			</g>
			<g id="Tread">
				<polygon fill="#28191B" points="369.482,205.91 366.375,201.289 373.968,189.997 380.182,189.997 387.775,201.289 
					384.667,205.91 				"/>
				<polygon fill="#986B61" points="369.482,202.83 377.075,191.537 384.667,202.83 				"/>
				<polygon fill="#FFD591" points="378.168,201.81 380.394,198.5 382.619,201.81 				"/>
				<polygon fill="#FFD591" points="371.438,201.81 373.663,198.5 375.888,201.81 				"/>
				<polygon fill="#FFD591" points="374.962,196.532 377.075,193.389 379.188,196.532 				"/>
				<circle id="pivot_26_" cx="377.075" cy="199.097" r="0.5"/>
			</g>
		</g>
	</g>
	<g id="Globe">
		<g>
			<circle cx="377.075" cy="295" r="90"/>
			<path d="M339.047,299.226l-21.126,7.605l5.916,24.084l-17.655,19.533c-11.969-15.283-19.106-34.532-19.106-55.448
				c0-27.995,12.782-53.004,32.829-69.511l7.735,23.877l-9.718,19.014L339.047,299.226z M464.576,273.88l-16.938,14.782
				l-7.183,28.31l-12.253,15.634l-18.592,0.845l-13.099,9.718l7.732,37.652c36.426-11.521,62.831-45.585,62.831-85.821
				C467.075,287.725,466.206,280.654,464.576,273.88z M426.934,282.324l-10.563-22.395l5.916-8.873l-24.084,3.802l-16.057-13.521
				l-13.944,17.747l1.69,27.042l-16.479,15.634l20.704,17.746l8.028-13.943l26.197,8.028L426.934,282.324z"/>
			<circle cx="377.075" cy="295" r="4"/>
		</g>
		<g>
			<radialGradient id="SVGID_1_" cx="377.0752" cy="295" r="90" gradientUnits="userSpaceOnUse">
				<stop  offset="0" style="stop-color:#62A0D7"/>
				<stop  offset="0.2656" style="stop-color:#609ED5"/>
				<stop  offset="0.4802" style="stop-color:#5A97D0"/>
				<stop  offset="0.6768" style="stop-color:#508BC9"/>
				<stop  offset="0.8617" style="stop-color:#427CBF"/>
				<stop  offset="0.9004" style="stop-color:#3E78BC"/>
				<stop  offset="1" style="stop-color:#2D588A"/>
			</radialGradient>
			<circle fill="url(#SVGID_1_)" cx="377.075" cy="295" r="90"/>
			<radialGradient id="SVGID_2_" cx="377.0752" cy="295.2681" r="89.0147" gradientUnits="userSpaceOnUse">
				<stop  offset="0" style="stop-color:#69A849"/>
				<stop  offset="0.9004" style="stop-color:#365D2C"/>
				<stop  offset="1" style="stop-color:#134220"/>
			</radialGradient>
			<path fill="url(#SVGID_2_)" d="M339.047,299.226l-21.126,7.605l5.916,24.084l-17.655,19.533
				c-11.969-15.283-19.106-34.532-19.106-55.448c0-27.995,12.782-53.004,32.829-69.511l7.735,23.877l-9.718,19.014L339.047,299.226z
				 M464.576,273.88l-16.938,14.782l-7.183,28.31l-12.253,15.634l-18.592,0.845l-13.099,9.718l7.732,37.652
				c36.426-11.521,62.831-45.585,62.831-85.821C467.075,287.725,466.206,280.654,464.576,273.88z M426.934,282.324l-10.563-22.395
				l5.916-8.873l-24.084,3.802l-16.057-13.521l-13.944,17.747l1.69,27.042l-16.479,15.634l20.704,17.746l8.028-13.943l26.197,8.028
				L426.934,282.324z"/>
			<circle cx="377.075" cy="295" r="4"/>
		</g>
	</g>
	<g id="Hud-Teleport">
		<polygon id="Teleport-1" fill="#FFF200" points="717.113,30.107 727.616,30.107 713.113,18.184 698.61,30.107 709.446,30.107 
			709.446,36.107 698.61,36.107 713.113,48.031 727.616,36.107 717.113,36.107 		"/>
		<circle id="pivot_5_" cx="713.113" cy="33.107" r="4"/>
	</g>
	<g id="Fertilizer-1">
		<polygon fill="#88B35B" points="53.607,22.326 63.303,35.415 35.285,56.169 18.772,33.877 32.781,23.5 41.414,24.786 
			48.951,34.96 55.342,30.226 50.949,24.295 		"/>
		<polygon fill="#FFFFFF" points="44.749,39.656 38.008,30.556 38.008,30.556 27.271,38.509 29.771,41.884 33.912,38.816 
			36.26,41.986 39.328,39.713 41.221,42.27 		"/>
		<circle id="pivot_7_" cx="41.113" cy="38.107" r="4"/>
	</g>
</g>
<g id="Entities">
	<g id="AntHillOrbiter">
		<g id="AntHill_2_">
			
				<linearGradient id="SVGID_3_" gradientUnits="userSpaceOnUse" x1="515.4092" y1="474.3979" x2="515.4092" y2="466.4317" gradientTransform="matrix(-1 0 0 -1 892.9131 520.668)">
				<stop  offset="0" style="stop-color:#9E6C35"/>
				<stop  offset="1" style="stop-color:#C07B38"/>
			</linearGradient>
			<polygon fill="url(#SVGID_3_)" points="405.582,44.431 389.757,56.918 386.583,65.065 386.583,71.009 383.04,80.524 
				377.367,76.15 370.756,73.68 368.686,69.673 369.821,66 364.047,56.518 349.425,46.434 382.813,40.09 			"/>
			<polygon fill="#5A4731" points="406.65,16.317 406.65,22.795 403.645,26 402.71,29.807 400.64,29.606 401.375,25.6 
				400.507,23.93 400.373,19.99 402.31,18.388 401.441,21.593 402.577,24.397 405.181,21.86 405.582,16.25 404.046,14.047 			"/>
			<polygon fill="#5A4731" points="347.421,32.544 345.886,31.009 346.286,28.604 348.022,26.134 347.087,22.061 346.553,26 
				344.483,28.204 344.149,30.875 341.679,29.807 341.478,26 340.209,30.341 343.081,32.411 344.555,32.535 347.087,33.813 			"/>
			
				<linearGradient id="SVGID_4_" gradientUnits="userSpaceOnUse" x1="519.1162" y1="486.6543" x2="519.1162" y2="531.4957" gradientTransform="matrix(-1 0 0 -1 892.9131 520.668)">
				<stop  offset="0" style="stop-color:#D3C1A3"/>
				<stop  offset="1" style="stop-color:#A55325"/>
			</linearGradient>
			<polygon fill="url(#SVGID_4_)" points="410.323,39.022 405.248,29.272 391.625,24.063 386.817,18.054 377.602,15.783 
				373.461,11.643 370.123,14.447 366.685,19.423 357.404,22.194 350.493,27.402 347.956,31.943 337.271,38.621 			"/>
			
				<linearGradient id="SVGID_5_" gradientUnits="userSpaceOnUse" x1="518.3809" y1="490.9282" x2="518.3809" y2="475.688" gradientTransform="matrix(-1 0 0 -1 892.9131 520.668)">
				<stop  offset="0" style="stop-color:#3E7C3B"/>
				<stop  offset="1" style="stop-color:#8FC640"/>
			</linearGradient>
			<polygon fill="url(#SVGID_5_)" points="415.532,29.94 413.795,38.755 408.987,42.895 405.916,49.306 401.108,52.912 
				403.111,49.039 401.108,45.166 396.967,46.501 392.831,50.374 387.755,53.045 390.961,47.836 384.55,50.374 387.488,46.501 
				383.215,44.631 377.338,47.169 376.938,50.908 373.198,46.501 368.657,45.566 366.787,48.237 360.911,49.573 363.849,47.569 
				361.579,45.032 358.24,45.833 355.435,48.905 355.969,45.566 350.36,47.436 347.822,53.179 345.418,48.104 339.274,51.042 
				341.812,46.901 336.203,43.162 333.532,35.282 337.939,37.686 343.815,38.087 355.034,34.748 360.109,37.152 370.527,36.885 
				380.543,32.878 391.896,33.947 400.974,37.953 409.655,35.549 			"/>
			<polygon points="378.636,70.541 383.106,77.118 377.968,73.613 373.694,72.144 371.558,67.937 375.765,68.404 			"/>
			<circle id="pivot_4_" cx="377.075" cy="295" r="4"/>
		</g>
		<circle id="pivot_8_" cx="377.075" cy="295" r="4"/>
	</g>
	<g id="RocketCowOrbiter">
		<g id="RocketCow">
			<linearGradient id="SVGID_6_" gradientUnits="userSpaceOnUse" x1="378.4458" y1="35.8516" x2="386.9346" y2="35.8516">
				<stop  offset="0" style="stop-color:#ED1C24"/>
				<stop  offset="1" style="stop-color:#841618"/>
			</linearGradient>
			<path fill="url(#SVGID_6_)" d="M378.446,36.744c2.327-2.779,6.701-3.749,8.489-3.749c-1.767,1.939-2.87,3.907-2.706,5.702
				C382.776,38.876,378.446,36.744,378.446,36.744z"/>
			<path fill="#515251" d="M337.978,69.575c-1.453,2.326-3.048,5.127-3.048,5.127l-0.738-0.096
				C335.823,72.022,337.242,70.376,337.978,69.575z"/>
			<path fill="#FFFFFF" d="M408.233,82.23c-3.677-0.979-7.361-2.976-10.657-6.839c-1.893-2.3-5.571-1.709-10.026-1.709
				c-3.557,0-7.61-0.376-11.646-2.901l-5.155,4.785c-0.66-0.505-1.343-1.104-2.04-1.812c-0.919-0.869-1.163-0.258-3.276,1.466
				c-2.11,1.723-5.342,3.058-7.927,2.973c-2.585-0.086-4.093-0.474-5.429-0.949c2.025-0.731,3.145-0.904,3.577-1.594
				c0.43-0.688,1.377-2.327,1.766-3.36c-1.465,1.464-1.81,2.672-2.844,3.102c-0.406,0.168-1.762,0.551-3.442,1.128h-0.001
				c-2.602,0.896-5.983,2.262-7.826,4.042c0.886-0.388,1.533-0.689,1.533-0.689c0.216,0.776,0.775,1.982,1.508,2.068
				c0.574,0.067,2.444-1.427,4.409-2.139l1.181,8.186c-0.812-0.155-1.886-0.3-3.392-0.359c-4.31-0.173-3.163,0.818-6.17-0.733
				c-0.955-0.591-1.944-2.587-3.426-4.659c0,0,0.873-4.732,0.88-4.733c0.672-0.11,3.813-2.86,6.841-4.925
				c1.683-1.148,3.333-2.082,4.502-2.233c-1.896-0.08-3.577,0.695-5.083,1.557c-1.121-1.421-1.939-4.243-1.292-5.709
				c-0.884,0.776-1.292,1.357-1.292,1.357c-0.318-2.9-2.482-4.249-4.828-4.846c0,0-0.508-1.465-0.3-2.05l8.747-6.891
				c1.81,1.766,4.221,2.757,6.764,2.844c2.542,0.085,7.583-1.466,16.199-0.862c3.493-0.159,4.185-2.217,9.122-2.681l13.648,7.536
				c1.128,1.824,1.113,3.901,2.65,5.314c1.188,1.091,2.485,1.104,3.692,1.176l4.131,3.372c0.68,1.058,2.46,2.663,4.101,2.567
				C408.386,74.938,409.146,79.088,408.233,82.23z"/>
			<path fill="#8B5E3C" d="M353.598,57.995l-0.591,3.642c-1.292,0.042-1.358,1.087-3.385,1.087c-2.327,0-4.481-2.757-6.463-2.757
				c-1.944,0-2.646,0.25-3.729,0.992c-0.02,0.014-0.041,0.028-0.062,0.042c0.021,0.044-0.482-0.143-1.244-0.447
				c-2.213-0.883-6.599-2.742-6.599-2.742c-0.862-3.189,3.189-9.393,7.756-9.479c4.566-0.086,7.842,2.412,7.842,5.429
				c-0.604,1.465-1.208,2.67-1.208,2.67s2.327,2.327,4.912,2.327C352.551,58.76,353.05,58.301,353.598,57.995z"/>
			<path fill="#515251" d="M369.656,67.895c-1.841,1.195-3.909,2.811-7.238,3.198c3.942-0.291,4.653-0.808,7.399-2.327
				C369.818,68.25,369.656,67.895,369.656,67.895z"/>
			<path fill="#603913" d="M371.109,54.799l-2.013,0.256l-0.237,0.336c0.785,3.316,0.734,14.589-1.809,18.643
				c0.646,0.474,2.315,1.551,2.315,1.551C371.866,70.944,372.579,60.684,371.109,54.799z"/>
			<path fill="#9D9D9D" d="M340.704,50.445c1.207-0.948,2.068-2.068,2.24-2.843c0.862,0.905,1.207,2.757,1.077,3.877
				c-0.112,0.504-0.689,1.036-1.631,1.034C341.392,52.512,340.575,51.543,340.704,50.445z"/>
			<polygon points="331.41,57.727 334.025,53.762 334.93,54.495 			"/>
			<path fill="#E4BFA0" d="M343.505,67.549c-1.078,1.25-1.293,2.155-3.017,4.826c-1.723,2.67-4.007,2.585-5.558,2.327
				c0,0,1.595-2.801,3.048-5.127c-0.735,0.801-2.155,2.448-3.786,5.032c-0.21,0.333-0.424,0.68-0.639,1.043
				c-3.877-0.862-4.31-2.886-4.18-5.041c-3.834-3.016,1.724-6.592,2.887-8.186c0,0,2.468-0.365,5.094,0.02
				c0.44,0.065,0.885,0.15,1.324,0.261C341.023,63.301,343.187,64.649,343.505,67.549z"/>
			<path d="M359.511,64.017c0.323-1.293,3.328-2.198,5.008-1.455c1.681,0.743,2.068,2.133,1.6,3.167
				c-0.468,1.034-1.502,1.422-2.31,1.26c-1.422-0.323-0.922-1.745-1.39-1.961c-0.539-0.249-1.469,0.07-1.906,0
				C359.516,64.87,359.308,64.539,359.511,64.017z"/>
			<path fill="#8B5E3C" d="M369.097,55.055c0.991,2.025,1.164,14.907-1.594,19.302c0.647,0.474,2.315,1.551,2.315,1.551
				c2.553-4.74,3.243-15.338,1.648-21.155L369.097,55.055z"/>
			<path fill="#FFFFFF" d="M410.254,53.282c-1.018,0.369-2.443,0.653-4.708,0.653c-2.758,0.043-6.721,2.327-9.35,2.413
				c-0.735,0.024-1.41,0.001-2.041-0.056c0.754,1.447-0.74,1.702-1.255,1.876c-0.388,0.131-0.521,0.309-0.447,0.792
				c1.036,0.255,2.366,0.62,3.872,0.62c2.371,0,7.153-2.843,9.393-3.534c2.24-0.689,3.791-0.646,4.954-0.646
				c0.074,0,0.143,0.001,0.208,0.005C411.392,54.601,410.997,53.737,410.254,53.282z"/>
			<path fill="#603913" d="M408.233,82.23c3.048,0.813,6.09,0.928,8.902,0.83c-0.042-1.206-1.464-7.065-2.973-10.426
				c-3.732-0.437-5.363,0.316-6.732,0.395C408.386,74.937,409.147,79.087,408.233,82.23z"/>
			<path d="M396.155,70.954c0.565,1.415,4.772,1.328,7.175-0.492c-0.602-0.94-0.438-1.546-1.575-2.567
				c-0.735-0.659-1.618-0.75-2.556-0.806C396.921,68.04,395.625,69.629,396.155,70.954z"/>
			<path fill="#603913" d="M420.67,54.127c-1.292-1.789-3.017-2.348-6.032-2.477c-1.98-0.085-2.438,0.926-4.383,1.631
				c0.743,0.456,1.137,1.319,0.627,2.123c0.973,0.053,1.164,0.469,2.981,0.469C415.801,55.874,417.007,53.806,420.67,54.127z"/>
			<path d="M392.901,58.168c0.515-0.175,2.01-0.429,1.255-1.876c-4.878-0.443-6.954-3.028-10.928-3.262
				c-1.604-0.094-2.917-0.07-4.02,0.034c-1.735,1.735-3.628,4.783-1.83,5.654c0.923,0.405,1.971,0.517,3.005,0.258
				c1.034-0.258,0.355,0.711,0,1.26c-0.355,0.55-2.553,4.556,0.775,6.333c2.649,1.325,5.978-1.809,6.495-2.521
				c0.517-0.71,0.904-0.646,1.26-0.193c0.356,0.452,2.165,0.775,3.102-0.162c0.764-0.763,0.991-1.999,0.839-3.094
				c-0.419-0.678-0.997-1.321-1.873-1.882c0.377-0.016,0.875,0.096,1.47,0.242C392.381,58.477,392.514,58.299,392.901,58.168z"/>
			<path fill="#E4BFA0" d="M370.749,75.565c1.871,1.431,3.57,2.102,4.94,2.324c-0.388,0.432-1.466,2.155,0.43,2.844
				c1.897,0.69,2.24-1.12,2.499-2.024c1.336,0.043,3.554-0.905,4.717-1.767c0.755,1.012,1.767,1.508,2.823,0.56
				c0.596-0.535,0.344-1.594-0.474-2.456c0,0,0.733-0.56,1.25-0.947c-5.861-0.366-8.882-1.96-11.031-3.318
				C373.358,71.468,371.567,73.391,370.749,75.565z"/>
			<path fill="#F26522" d="M354.62,57.727c-0.46,0-0.747,0.115-1.022,0.269l-0.591,3.642c0.192-0.006,0.41,0.009,0.665,0.054
				c3.188,0.344,3.447-1.121,3.447-2.068S355.999,57.727,354.62,57.727z"/>
			<path fill="#FFFFFF" d="M354.122,61.011l0.352-2.171c0.265-0.042,0.68-0.003,1.055,0.167c0.806,0.368,0.759,0.913,0.739,1.078
				c-0.053,0.442-0.238,0.772-0.973,0.896C354.92,61.043,354.501,61.039,354.122,61.011z"/>
			<path fill="#EC578C" d="M335.663,64.964c-2.843-0.775-4.74-2.844-5.386-5.859c2.112-2.111,7.412-5.083,8.359-4.007
				C339.263,55.811,338.765,61.561,335.663,64.964z"/>
			<path fill="#B45830" d="M339.43,60.958c-0.208,0.584-0.458,1.173-0.753,1.745c-0.431,0.832-0.957,1.627-1.593,2.326l-1.422-0.065
				c0.685-0.752,1.245-1.62,1.691-2.521c0.309-0.622,0.563-1.259,0.771-1.888c0.854-2.585,0.903-5.01,0.511-5.456l1.626,0.728
				C340.385,56.872,340.168,58.889,339.43,60.958z"/>
			<path fill="#9D9D9D" d="M331.613,59.45c1.896-1.551,4.352-2.973,5.687-3.016c-0.129,2.025-0.775,4.61-2.154,6.851
				C333.552,62.423,332.733,61.776,331.613,59.45z"/>
			<polygon fill="#FFFFFF" points="334.457,57.493 333.552,60.063 334.93,59.708 333.843,62.479 334.674,63.021 336.352,58.588 
				334.93,59.062 335.682,56.877 			"/>
			<path fill="#603913" d="M351.15,87.855c2.112,0.307,2.777,0.763,3.686,0.633c2.93-0.646-0.388-6.505-2.457-9.048
				c-1.413,0.075-2.955,0.92-4.149,1.608C349.59,82.567,352.074,85.678,351.15,87.855z"/>
			<path fill="#C02026" d="M336.352,71.512c0,0,1.594,1.294,2.973,1.812c1.378,0.517,2.585,0.127,3.403-0.906
				c0.819-1.033,0.776-1.895-0.172-2.196c-0.948-0.302-4.042-0.659-4.67-0.545C337.482,70.131,336.352,71.512,336.352,71.512z"/>
			<path d="M341.867,82.08c0.13-0.679-0.387-1.357-1.809-1.842c0.873,0.259,2.036,0.259,2.585-0.743
				c0.471-0.858-0.836-1.905-2.013-2.432c-0.372,0.254-0.649,0.414-0.8,0.438c-1.047,0.173-3.263,1.638-1.453,3.964
				c0.388,0.498,0.743,1.001,1.073,1.49C340.921,83.081,341.755,82.665,341.867,82.08z"/>
			<path fill="#939393" d="M351.173,70.344c-1.169,0.151-2.819,1.085-4.502,2.233l-0.582-0.676
				C347.597,71.039,349.277,70.264,351.173,70.344z"/>
			<path fill="#515251" d="M357.42,72.289c-0.388,1.034-1.335,2.672-1.766,3.36c-0.432,0.689-1.551,0.862-3.577,1.594l-0.943-0.724
				c1.68-0.578,3.036-0.96,3.442-1.128C355.61,74.961,355.956,73.753,357.42,72.289z"/>
			<line fill="none" x1="351.135" y1="76.52" x2="351.133" y2="76.52"/>
			<path fill="#550F0E" d="M336.91,70.835c0.948,0.042,1.957,0.128,3.148,0.248c-1.551-0.56-2.758-0.74-2.758-0.74L336.91,70.835z"
				/>
			<path d="M330.276,69.316c0.69-1.508,2.297-2.499,2.894-2.198C334.324,67.433,331.41,69.097,330.276,69.316z"/>
			<linearGradient id="SVGID_7_" gradientUnits="userSpaceOnUse" x1="353.7583" y1="39.9751" x2="353.7583" y2="50.4838">
				<stop  offset="0" style="stop-color:#ED1C24"/>
				<stop  offset="1" style="stop-color:#841618"/>
			</linearGradient>
			<path fill="url(#SVGID_7_)" d="M347.296,44.835c2.82,3.458,7.604,7.182,12.925,9.056V35.779
				C354.9,37.653,350.116,41.377,347.296,44.835z"/>
			<linearGradient id="SVGID_8_" gradientUnits="userSpaceOnUse" x1="373.4312" y1="39.9756" x2="373.4312" y2="50.4842">
				<stop  offset="0" style="stop-color:#3E78BC"/>
				<stop  offset="1" style="stop-color:#2D588A"/>
			</linearGradient>
			<path fill="url(#SVGID_8_)" d="M386.137,39.484c-4.265-1.616-10.47-5.364-20.019-4.912c-1.991,0.094-3.979,0.531-5.897,1.207
				v18.112c1.919,0.676,3.907,1.113,5.897,1.207c9.549,0.453,15.753-3.296,20.019-4.912c0.333-1.255,0.505-3.311,0.505-5.37
				C386.642,42.79,386.476,40.758,386.137,39.484z"/>
			<linearGradient id="SVGID_9_" gradientUnits="userSpaceOnUse" x1="376.4424" y1="45.457" x2="387.4512" y2="45.457">
				<stop  offset="0" style="stop-color:#851C25"/>
				<stop  offset="0.1523" style="stop-color:#751F24"/>
				<stop  offset="1" style="stop-color:#2A1618"/>
			</linearGradient>
			<path fill="url(#SVGID_9_)" d="M387.451,44.835h-11.009c2.146,0.958,4.204,1.28,5.994,1.24
				C384.602,46.028,386.378,45.453,387.451,44.835z"/>
			<linearGradient id="SVGID_10_" gradientUnits="userSpaceOnUse" x1="376.4424" y1="44.1836" x2="387.4512" y2="44.1836">
				<stop  offset="0" style="stop-color:#ED1C24"/>
				<stop  offset="1" style="stop-color:#841618"/>
			</linearGradient>
			<path fill="url(#SVGID_10_)" d="M376.442,44.835h11.009c-1.398-0.548-3.61-1.302-6.034-1.302
				C379.794,43.533,378.075,43.871,376.442,44.835z"/>
			<path opacity="0.7" fill="#FFFFFF" d="M348.23,44.835c1.786-2.295,5.423-5.449,10.549-7.381c2.694-1.015,5.799-1.693,9.262-1.73
				c4.271-0.046,9.087,0.88,14.348,3.347c-3.945-0.755-8.671-1.847-13.831-1.846c-3.088,0.001-6.332,0.394-9.657,1.486
				C355.405,39.86,351.819,41.782,348.23,44.835z"/>
			<g id="RocketFlame">
				<path fill="#E86B3C" d="M387.538,39.372c1.447-0.979,3.44-2.252,5.699-3.175c2.316-0.947,4.911-1.527,7.484-1.047
					c-1.551,1.034-2.327,2.413-2.671,3.447c2.601-0.264,5.316-0.132,7.795,0.497c3.188,0.808,5.981,2.438,7.63,5.104
					c-1.884,1.884-4.094,3.585-6.421,4.747c-2.463,1.23-5.058,1.856-7.539,1.458c0.517,1.551,0.948,2.068,1.896,2.844
					c-1.83,0.326-3.758,0.319-5.626,0.052c-3.059-0.438-5.956-1.57-7.988-3.068c0.336-1.789,0.503-3.667,0.473-5.502
					C388.239,42.848,388.003,41.015,387.538,39.372z"/>
				<path fill="#FDBC5F" d="M390.64,42.043c1.055-0.138,1.866-0.714,2.848-1.068c0.864-0.311,1.859-0.449,3.27,0.034
					c-1.465,0.603-1.81,1.379-2.068,1.724c2.154-0.259,6.291,0.345,7.756,1.982c-2.678,3.017-4.332,3.756-5.729,3.756
					c-1.794,0-3.164-1.22-5.731-0.396c0.068-1.077,0.141-2.266,0.087-3.422C391.028,43.739,390.906,42.845,390.64,42.043z"/>
				<circle id="pivot_16_" cx="388.575" cy="45" r="4"/>
			</g>
			<circle id="pivot_10_" cx="370.075" cy="65" r="4"/>
		</g>
	</g>
	<g id="AntOrbiter">
		<g id="Ant_2_">
			<g id="ant-parachute_2_">
				<g>
					
						<rect x="369.299" y="77.025" transform="matrix(0.704 0.7102 -0.7102 0.704 165.3512 -242.4382)" fill="#2B3990" width="8.452" height="0.25"/>
				</g>
				<g>
					
						<rect x="371.805" y="76.847" transform="matrix(0.4359 0.9 -0.9 0.4359 281.1062 -294.5576)" fill="#2B3990" width="7.459" height="0.25"/>
				</g>
				<g>
					
						<rect x="381.433" y="72.961" transform="matrix(0.711 0.7032 -0.7032 0.711 164.4526 -246.0395)" fill="#2B3990" width="0.25" height="8.184"/>
				</g>
				<g>
					
						<rect x="379.367" y="73.251" transform="matrix(0.8991 0.4378 -0.4378 0.8991 71.9698 -158.3826)" fill="#2B3990" width="0.25" height="7.297"/>
				</g>
				<g>
					<rect x="377.37" y="74.015" fill="#2B3990" width="0.25" height="6.209"/>
				</g>
				<path fill="#FFFFFF" d="M370.203,74.522c0-2.392,2.778-5.87,4.855-5.267c0.283,0.083-1.329,4.55-1.329,4.55
					C372.619,72.598,371,73.532,370.203,74.522z"/>
				<path fill="#BFBFBF" d="M373.609,73.991c-0.411-2.754,1.715-5.532,2.923-5.532c1.063,0,0.968,1.087,0.969,1.522
					c0.005,1.508,0.017,4.276,0.017,4.276C376.025,72.783,374.431,72.71,373.609,73.991z"/>
				<path fill="#BFBFBF" d="M384.811,74.522c0-2.392-2.778-5.87-4.856-5.267c-2.078,0.604,1.28,4.566,1.28,4.566
					C382.347,72.614,384.014,73.532,384.811,74.522z"/>
				<path fill="#FFFFFF" d="M381.405,73.991c0.411-2.754-1.715-5.532-2.923-5.532c-1.063,0-0.968,1.087-0.969,1.522
					c-0.005,1.508-0.017,4.276-0.017,4.276C378.989,72.783,380.583,72.71,381.405,73.991z"/>
				<circle id="pivot_22_" cx="377.495" cy="80.594" r="0.25"/>
			</g>
			<g id="BodyFront">
				<polygon fill="#AA1F26" points="373.223,81.069 375.3,79.886 377.257,80.127 378.151,80.973 377.136,81.867 375.639,82.253 				
					"/>
				<circle id="pivot_23_" cx="377.62" cy="80.5" r="0.25"/>
				<g id="LegFront">
					<polygon fill="#AA1F26" points="375.01,81.094 374.068,82.736 372.111,83.968 374.189,83.147 375.614,81.094 					"/>
					<circle id="pivot_21_" cx="375.187" cy="81.344" r="0.25"/>
				</g>
				<g id="LegMid">
					<polygon fill="#AA1F26" points="376.895,80.78 377.716,82.664 379.238,84.041 378.054,82.567 377.547,80.731 					"/>
					<circle id="pivot_20_" cx="377.37" cy="80.981" r="0.25"/>
				</g>
				<g id="Head">
					<polygon fill="#AA1F26" points="372.28,83.292 371.701,81.818 372.184,80.659 373.464,80.345 373.803,81.118 373.174,82.277 
						372.546,82.543 					"/>
					<g id="Antennae">
						<polygon fill="#AA1F26" points="372.739,80.248 371.966,79.499 370.179,79.113 370.179,78.702 372.111,79.233 						"/>
						<circle id="pivot_24_" cx="372.86" cy="80.481" r="0.25"/>
					</g>
					<polygon fill="#FFFFFF" points="372.28,82.036 372.715,81.239 372.86,81.698 					"/>
					<circle id="pivot_17_" cx="373.575" cy="81" r="0.25"/>
				</g>
			</g>
			<g id="BodyBack">
				<polygon fill="#AA1F26" points="377.233,80.321 379.77,78.992 381.992,79.765 382.79,81.939 379.142,81.77 				"/>
				<circle id="pivot_18_" cx="377.62" cy="80.5" r="0.25"/>
				<g id="LegBack">
					<polygon fill="#AA1F26" points="378.948,80.659 380.253,82.519 383.394,83.872 380.688,82.181 379.48,80.345 					"/>
					<circle id="pivot_19_" cx="379.37" cy="80.731" r="0.25"/>
				</g>
			</g>
			<circle id="pivot_12_" cx="377.075" cy="81" r="0.805"/>
		</g>
		<circle id="pivot_13_" cx="377.075" cy="295" r="4"/>
	</g>
	<g id="FlowerOrbiter">
		<g id="Flower_2_">
			<path fill="#6C8036" d="M377.324,200.884c0,0,0.384-0.914,1.334-1.295c0.952-0.381,2.016,0.017,2.016,0.017
				C379.187,200.147,378.688,200.281,377.324,200.884z"/>
			<path fill="#6C8036" d="M377.396,201.061c0,0,0.907,0.395,1.858,0.014c0.952-0.381,1.447-1.404,1.447-1.404
				C379.251,200.307,378.797,200.555,377.396,201.061z"/>
			<rect x="377.037" y="197.896" fill="#6C8036" width="0.333" height="9.566"/>
			<path fill="#F4763E" d="M380.709,196.822c0,0-0.868,0.405-1.572,0.243c0.223,0.813-0.429,1.828-0.429,1.828
				s-1.019-0.331-1.499-0.991c-0.336,0.7-1.38,1.04-1.38,1.04s-0.58-0.97-0.482-1.82c-0.667,0.266-1.588-0.18-1.588-0.18
				s0.331-1.02,0.99-1.5c-0.699-0.337-1.04-1.38-1.04-1.38s0.943-0.465,1.731-0.329c-0.251-0.751,0.27-1.742,0.27-1.742
				s1.019,0.331,1.499,0.991c0.336-0.699,1.38-1.04,1.38-1.04s0.5,0.963,0.379,1.782c0.77-0.278,1.691,0.219,1.691,0.219
				s-0.331,1.02-0.99,1.499C380.369,195.778,380.709,196.822,380.709,196.822z"/>
			<circle fill="#ECEA98" cx="377.209" cy="195.442" r="2.46"/>
			<circle fill="#EB9D2C" cx="377.209" cy="195.442" r="1.88"/>
			<circle id="pivot_1_" cx="377.075" cy="206.5" r="4"/>
		</g>
		<circle id="pivot_14_" cx="377.075" cy="295" r="4"/>
	</g>
	<g id="ManureOrbiter">
		<g id="Manure_1_">
			<g id="Manure-Falling_1_">
				<path fill="#7A4734" d="M376.618,194.179c1.104-0.801,0.843-2.098,0.049-3.687c2.415,2.886,2.608,2.949,2.618,3.61
					c0.018,1.132-1.037,1.611-0.83,2.583c0.261,1.227,2.867,1.736,2.655,2.868c-0.181,0.968-1.238,1.065-1.238,2.195
					c0,1.01,1.455,1.947,1.227,3.869c-0.284,2.385-2.41,3.206-3.959,3.204c-2.802-0.002-4.565-1.895-4.447-4.214
					c0.137-2.68,2.075-3.673,2.322-5.053c0.193-1.085-0.474-1.486-0.32-2.636C374.791,196.197,375.331,195.113,376.618,194.179z"/>
				<circle id="pivot_15_" cx="377.075" cy="204.5" r="4"/>
			</g>
			<g id="Manure-Collectable_1_">
				<path fill="#7A4734" d="M374.269,199.224c1.494,0.026,1.798,1.678,4.182,1.714c2.383,0.036,3.617-0.667,3.617-2.437
					c0-1.769-3.827-2.202-3.899-3.791c-0.072-1.588,1.047-1.985,1.552-2.202c-2.021,0.108-4.621,0.867-4.621,2.672
					s1.589,2.708,2.527,3.321c-1.176-0.095-2.68-0.877-3.113-2.032c-2.021,0.325-2.374,1.491-2.374,2.43
					c0,0.613,0.758,2.202,3.104,1.625C374.938,199.62,374.269,199.224,374.269,199.224z"/>
				<path fill="#7A4734" d="M372.139,200.698c-0.907-0.229-1.994,0.845-2.001,1.665c-0.013,1.481,1.062,2.564,2.434,2.564
					c2.004,0,3.848-1.865,5.561-1.517c-0.847,0.32-1.161,0.614-1.594,0.831c2.563,0,3.074,0.686,4.915,0.686
					s3.719-1.517,3.719-2.816c0-1.732-0.594-2.727-2.472-2.799c-0.009,1.322-1.326,2.709-3.781,2.709s-3.025-1.246-3.314-1.174
					c-0.232,0.059-0.654,0.746-2.022,0.61C372.846,201.385,372.345,200.955,372.139,200.698z"/>
				<g id="StinkLines1_1_">
					<path fill="#6B6B6B" d="M371.924,194.707c-1.223-0.399-1.886-1.46-2.151-3.439c-0.149-1.107-0.977-1.766-2.329-1.854
						l0.032-0.499c1.593,0.104,2.61,0.938,2.792,2.287c0.237,1.764,0.795,2.698,1.812,3.03L371.924,194.707z"/>
					<path fill="#6B6B6B" d="M376.606,191.455c-0.579-1.148-0.294-2.366,0.923-3.95c0.681-0.886,0.564-1.937-0.326-2.959
						l0.377-0.328c1.049,1.203,1.175,2.512,0.346,3.592c-1.085,1.412-1.354,2.466-0.874,3.421L376.606,191.455z"/>
					<path fill="#6B6B6B" d="M381.854,194.353l-0.481-0.136c0.35-1.238,1.383-1.943,3.35-2.288c1.1-0.193,1.725-1.046,1.759-2.402
						l0.5,0.013c-0.041,1.596-0.833,2.646-2.173,2.881C383.056,192.729,382.145,193.325,381.854,194.353z"/>
				</g>
				<g id="StinkLines2_2_">
					<path fill="#6B6B6B" d="M372.499,194.334c-0.196-1.271-1.136-2.098-3.046-2.679c-1.068-0.327-1.584-1.249-1.453-2.598
						l-0.498-0.049c-0.154,1.588,0.503,2.728,1.805,3.125c1.702,0.519,2.534,1.221,2.697,2.277L372.499,194.334z"/>
					<path fill="#6B6B6B" d="M376.785,191.324c0.905-0.913,1.01-2.16,0.341-4.042c-0.374-1.053,0.061-2.017,1.224-2.714
						l-0.257-0.429c-1.369,0.821-1.893,2.027-1.438,3.31c0.596,1.678,0.526,2.764-0.225,3.523L376.785,191.324z"/>
					<path fill="#6B6B6B" d="M381.65,193.814l0.039,0.499c1.283-0.1,2.177-0.974,2.901-2.835c0.405-1.04,1.365-1.485,2.701-1.252
						l0.086-0.493c-1.573-0.274-2.758,0.296-3.252,1.564C383.479,192.955,382.716,193.731,381.65,193.814z"/>
				</g>
				<circle id="pivot_3_" cx="377.075" cy="204.5" r="4"/>
			</g>
		</g>
		<circle id="pivot_9_" cx="377.075" cy="295" r="4"/>
	</g>
</g>
</svg>
