<?xml version="1.0" encoding="utf-8"?>
<!-- Generator: Adobe Illustrator 15.1.0, SVG Export Plug-In . SVG Version: 6.00 Build 0)  -->
<!DOCTYPE svg PUBLIC "-//W3C//DTD SVG 1.1//EN" "http://www.w3.org/Graphics/SVG/1.1/DTD/svg11.dtd">
<svg version="1.1" id="Layer_1" xmlns="http://www.w3.org/2000/svg" xmlns:xlink="http://www.w3.org/1999/xlink" x="0px" y="0px"
	 width="600px" height="600px" viewBox="0 0 600 600" enable-background="new 0 0 600 600" xml:space="preserve">
<g id="ShoppingCart">
	<path d="M512.776,403.932l25.537,2.188c1.386,0.125,2,1.17,2,2.274l-1.499,12.292c0,1.104-0.896,2-2,2H517.55
		c-1.104,0-2.182-0.015-2.651-1.401l-4.123-15.353C510.433,404.827,511.672,403.932,512.776,403.932z"/>
	<path d="M506,400.028L512.833,425h21.646c0,0,3.396,1.792-0.146,4.25h-24.065l-7.376-25.386l-5.558-0.123
		c0,0-2.667-2.86,0.333-4.38L506,400.028z"/>
	<circle cx="515.188" cy="434.188" r="3.5"/>
	<circle cx="531.031" cy="434.219" r="3.469"/>
</g>
<g id="Bag">
	<path d="M420.637,414.843v-1.274c0-2.26,1.832-4.091,4.091-4.091s4.091,1.832,4.091,4.091v1.208h14.847v-1.043
		c0-2.314,1.876-4.19,4.19-4.19s4.19,1.876,4.19,4.19v0.977h6.665v-3.913c0-2.916-2.363-5.279-5.279-5.279h-34.84
		c-2.916,0-5.279,2.363-5.279,5.279v4.045H420.637z"/>
	<path d="M452.03,417.253c-0.083,2.242-1.913,4.037-4.174,4.037c-2.216,0-4.012-1.726-4.161-3.905h-14.908
		c-0.165,2.108-1.909,3.773-4.059,3.773s-3.894-1.665-4.059-3.773h-7.356v14.727c0,2.915,2.363,5.279,5.279,5.279h34.84
		c2.916,0,5.279-2.364,5.279-5.279v-14.858H452.03z"/>
	<path d="M428.423,403.209c0,0,7.159-4.817,14.319,0.066l3.629,0.033c0,0-1.386-4.982-10.524-5.246c0,0-9.337-0.132-11.317,5.081
		L428.423,403.209z"/>
	<path d="M424.827,411.523c1.257,0,2.276,1.02,2.276,2.276v3.102c0,1.257-1.02,2.276-2.276,2.276c-1.257,0-2.277-1.019-2.277-2.276
		V413.8C422.55,412.543,423.57,411.523,424.827,411.523z"/>
	<path d="M447.922,411.59c1.221,0,2.21,0.989,2.21,2.21v3.233c0,1.221-0.99,2.211-2.21,2.211s-2.21-0.99-2.21-2.211V413.8
		C445.711,412.579,446.701,411.59,447.922,411.59z"/>
</g>
<g id="PieChart">
	<path d="M524.672,329l18.028-11.635c-3.984-5.662-10.564-9.365-18.013-9.365c-7.434,0-14.002,3.688-17.989,9.332L524.672,329z"/>
	<path d="M544.096,319.622l-17.909,11.332v21.021c7.375-0.497,13.756-4.625,17.367-10.61
		C547.586,334.679,547.725,326.382,544.096,319.622z"/>
	<path d="M523.125,330.953l-17.874-11.281c-3.723,6.98-3.423,15.53,0.925,22.265c3.697,5.727,9.98,9.627,17.198,10.052
		L523.125,330.953z"/>
</g>
<path id="BarChart" d="M285.922,348.837h-10.666c0.009-0.092,0.028-0.181,0.028-0.274v-37.786c0-1.527-1.238-2.766-2.766-2.766
	h-4.627c-1.527,0-2.766,1.239-2.766,2.766v37.786c0,0.094,0.019,0.183,0.028,0.274h-2.912c0.001-0.028,0.008-0.054,0.008-0.083
	v-23.986c0-1.528-1.238-2.766-2.766-2.766h-4.436c-1.527,0-2.766,1.238-2.766,2.766v23.986c0,0.028,0.007,0.054,0.008,0.083h-3.267
	v-19.085c0-1.528-1.238-2.766-2.766-2.766h-4.052c-1.528,0-2.766,1.238-2.766,2.766v19.085h-10.638
	c-1.111,0-2.012,0.901-2.012,2.012c0,1.112,0.901,2.013,2.012,2.013h57.119c1.111,0,2.012-0.901,2.012-2.013
	C287.935,349.738,287.034,348.837,285.922,348.837z"/>
<g id="House">
	<path d="M452.583,145.435l-12.848-13.088c-3.723-3.962-7.205,0-7.205,0l-10.446,10.326c-7.855,7.553-3.886,9.193-2.401,9.525
		v14.412c0,2.761,2.239,5,5,5h6.647v-11.527c0,0-0.48-1.321,2.281-1.321s5.644,0,5.644,0s1.321-0.12,1.321,1.561
		c0,1.681,0.12,11.287,0.12,11.287h6.407c2.761,0,5-2.239,5-5v-15.237C456.501,150.729,452.583,145.435,452.583,145.435z"/>
	<path d="M442.497,132.587l7.565,7.084v-9.246c0,0,0.24-1.561-1.681-1.561h-4.323c0,0-1.561-0.36-1.561,1.321
		S442.497,132.587,442.497,132.587z"/>
</g>
<g id="Woman">
	<path d="M520.131,223.569c0-3.205,2.383-5.188,5.188-5.188s5.188,1.983,5.188,5.188c0,3.206-2.383,5.188-5.188,5.188
		C522.514,228.757,520.131,226.775,520.131,223.569L520.131,223.569z"/>
	<path d="M541.504,247.63c-0.696,0.696-3.299-1.315-5.583-3.343c-1.618-1.438-3.075-2.884-3.578-3.381
		c-0.845,1.983-1.351,3.27-1.519,3.859c4.64,5.062,7.424,8.964,8.353,11.706c0.506,1.604,0.759,2.89,0.759,3.86
		c0,1.698-3.492,2.421-4.493,2.594c0.253,1.012,0.38,1.751,0.38,2.214c0,2.574-0.359,3.86-1.076,3.86
		c-0.886,0-2.257-1.876-4.113-5.631h-0.063c-1.383,0.099-9.078,0.105-10.44,0c-1.898,3.755-3.29,5.631-4.176,5.631
		c-0.718,0-1.076-1.286-1.076-3.86c0-0.463,0.126-1.202,0.379-2.214c-1.728-0.317-4.556-0.835-4.556-2.594
		c0-0.97,0.253-2.256,0.759-3.86c0.927-2.784,3.733-6.707,8.416-11.769c-0.379-1.266-0.886-2.531-1.519-3.796
		c-1.175,1.175-2.254,2.205-3.238,3.089c-0.917,0.825-5.05,4.507-5.922,3.635c-0.857-0.857,1.507-5.23,2.264-6.724
		c1.054-2.193,2.572-4.366,4.556-6.518c2.319-2.615,4.26-3.923,5.821-3.923h7.023c1.56,0,3.521,1.308,5.885,3.923
		c1.939,2.151,3.458,4.325,4.556,6.518c1.603,3.249,2.404,5.273,2.404,6.074C541.749,246.98,541.695,247.439,541.504,247.63z"/>
</g>
<g id="Man">
	<path d="M449.264,241.313c-3.379-6.716-6.167-10.075-8.365-10.075h-10.136c-2.239,0-5.028,3.358-8.365,10.075
		c-0.627,1.239-2.943,5.549-2.223,6.446c0.45,0.562,1.634-0.23,2.223-0.645c1.669-1.099,3.887-3.032,6.656-5.801
		c1.058,2.036,1.627,3.705,1.709,5.007c0,1.099-0.571,3.318-1.709,6.655c-2.239,6.716-3.358,10.624-3.358,11.723
		c0,2.483,0.345,3.725,1.038,3.725c0.854,0,2.198-1.791,4.03-5.373l5.007-10.075c0.04,0,1.75,3.338,5.129,10.014
		c1.832,3.624,3.175,5.434,4.03,5.434c0.651,0,0.977-1.241,0.977-3.725c0-1.139-1.147-5.047-3.44-11.723
		c-1.126-3.337-1.688-5.556-1.688-6.655c0.082-1.302,0.637-2.971,1.667-5.007c0.993,0.968,1.916,1.834,2.769,2.598
		c0.858,0.769,5.344,4.75,6.159,3.935C452.223,246.997,450.006,242.816,449.264,241.313z"/>
	<path d="M435.771,229.59c2.896,0,5.007-1.913,5.007-5.007c0-3.093-2.11-5.007-5.007-5.007c-2.897,0-5.007,1.914-5.007,5.007
		C430.764,227.677,432.873,229.59,435.771,229.59z"/>
</g>
<g id="Printer">
	<rect x="56.02" y="397.96" width="22.047" height="16.906"/>
	<rect x="55.822" y="430.783" width="22.64" height="6.92"/>
	<path d="M83.645,409.329h-3.122l-0.282,7.514H53.845v-7.514H50.54c-2.761,0-5,2.239-5,5v13.431c0,2.761,2.239,5,5,5h3.519
		L54,432.688v-3.75h26.438l0.058,3.822h3.149c2.761,0,5-2.239,5-5v-13.431C88.645,411.568,86.406,409.329,83.645,409.329z"/>
</g>
<g id="Flag">
	<path d="M247.256,400.885v19.871c0,0,18.686-9.491,16.412,0.593c0,0,11.072-3.46,13.248-2.966v-19.575
		c0,0-9.491,1.087-12.556,2.669C264.36,401.478,266.14,393.272,247.256,400.885z"/>
	<path d="M243.252,397.326c1.338,0,2.422,1.084,2.422,2.422v35.689c0,1.338-1.084,2.422-2.422,2.422
		c-1.337,0-2.422-1.084-2.422-2.422v-35.689C240.831,398.41,241.915,397.326,243.252,397.326z"/>
</g>
<g id="Pencil">
	<path d="M357.948,306.907c0.915,0.039,2.229,0.273,2.88,0.682c-8.74,8.765-17.482,17.533-26.222,26.298c-0.025,0-0.05,0-0.076,0
		c-1.238,0.076-2.476,0.151-3.713,0.227C339.86,325.046,348.905,315.976,357.948,306.907z"/>
	<path d="M363.481,308.878c1.591,1.439,3.183,2.88,4.774,4.32c-3.107,3.107-6.215,6.215-9.322,9.322
		c-5.886,5.911-11.773,11.823-17.658,17.734c-0.912-0.107-3.306-0.392-3.865-0.985c-0.278-1.162-0.556-2.324-0.833-3.486
		C345.544,326.815,354.514,317.845,363.481,308.878z"/>
	<path d="M369.62,315.85c0.381,0.426,0.863,2.185,0.53,2.956c-8.917,8.942-17.836,17.887-26.752,26.829c-0.025,0-0.051,0-0.076,0
		c-0.076-1.111-0.151-2.223-0.227-3.334C351.935,333.484,360.779,324.666,369.62,315.85z"/>
	<path d="M332.484,336.768c0.531,0,1.061,0,1.592,0c0.328,1.667,0.657,3.334,0.985,5.002c1.793,0.379,3.588,0.758,5.381,1.137
		c0.076,1.642,0.152,3.284,0.228,4.926c-2.678,0.833-5.356,1.667-8.033,2.501c-1.154-2.382-3.442-5.133-6.063-5.987
		c0.833-2.476,1.667-4.952,2.501-7.427C330.21,336.869,331.347,336.818,332.484,336.768z"/>
	<path d="M325.663,346.999c1.795,0.698,3.482,2.484,4.32,4.168c-0.808,0.252-1.617,0.505-2.425,0.758
		C324.056,352.597,324.933,348.689,325.663,346.999z"/>
</g>
<path id="StarRounded" d="M64.76,308c8.212-0.041,4.97,9.646,10.555,11.875c1.344,0.536,3.242,0.049,4.889,0.311
	c3.625,0.575,7.496,0.753,8.071,4.346c0.961,6.005-7.63,8.063-8.615,11.952c-1.072,4.234,5.691,12.999-1.009,15.057
	c-5.697,1.75-8.499-4.127-12.651-4.812c-4.715-0.778-7.877,8.189-14.203,4.346c-5.093-3.094,1.453-10.254,0-14.979
	c-1.157-3.762-7.79-4.707-8.692-9.779c-0.896-5.034,4.061-5.545,7.761-6.131c2.296-0.364,4.795,0.364,6.209-0.776
	c3.003-2.422,2.682-8.287,5.821-10.633C63.518,308.518,64.139,308.259,64.76,308z"/>
<path id="Clip" d="M331.385,79.907l14.53-14.569c0.428-0.429,0.431-1.129,0.002-1.557c-0.429-0.428-1.121-0.431-1.549-0.002
	l-14.541,14.579l-6.298,6.325c-2.92,2.92-5.717,2.922-8.802,0.005c-2.523-2.755-2.382-5.516,0.486-8.385l27.032-27.032
	c2.073-2.073,4.821-0.667,5.828,0.34c0.742,0.679,1.161,1.626,1.183,2.632c0.024,1.065-0.402,2.091-1.199,2.889L327.82,75.369
	c-2.093,2.093-3.008,1.178-3.663,0.523c-0.565-0.564-1.617-1.617,0.209-3.443l12.732-12.698c0,0,0.759-0.773,0.753-0.769
	c0.394-0.432,0.394-1.101-0.024-1.518c-0.418-0.418-1.083-0.424-1.513-0.026c0.004-0.005-13.502,13.458-13.502,13.458
	c-2.793,2.793-1.496,5.263-0.209,6.549c2.486,2.486,5.204,1.042,6.769-0.523l20.238-20.238c1.226-1.226,1.879-2.821,1.842-4.491
	c-0.037-1.602-0.715-3.122-1.862-4.169c-1.89-1.891-5.934-3.269-8.897-0.305L313.661,74.75c-3.654,3.654-3.835,7.838-0.497,11.478
	c3.971,3.758,8.184,3.742,11.918,0.007L331.385,79.907z"/>
<g id="Arrows">
	<polygon points="155.516,237.672 172.789,233.899 172.789,224.767 190.658,239.458 172.987,254.151 172.987,243.628 
		155.317,241.643 	"/>
	<polygon points="169.017,248.195 169.017,251.769 151.743,254.945 151.743,264.475 134.073,250.18 151.147,236.083 
		151.346,245.018 	"/>
</g>
<g id="Talk">
	<path d="M279.083,50.25L279,65.167c0,0-0.25,8.083-8.917,8.083h-12.167l-5.417,5.583l8.917,0.083l12.25,12.667l0.417-13
		c0,0,9.583,0.667,9.583-7.833s0-12.583,0-12.583S284.083,53.083,279.083,50.25z"/>
	<path d="M268.5,42.167h-26.417c-4.418,0-8,3.582-8,8v13c0,4.03,2.967,8,8.672,8L242.833,83l13.221-11.833H268.5
		c4.418,0,8-3.582,8-8v-13C276.5,45.749,272.918,42.167,268.5,42.167z"/>
</g>
<path id="Heart" d="M525.092,138.175c-6.24-14.563-23.978-11.166-24.095,5.737c-0.065,9.284,8.446,12.754,14.113,16.465
	c5.495,3.6,9.406,8.523,10.019,10.619c0.525-2.054,4.881-7.117,9.967-10.72c5.562-3.939,14.178-7.182,14.113-16.465
	C549.092,126.866,531.046,124.192,525.092,138.175z"/>
<g id="Settings">
	<circle cx="66.601" cy="66.874" r="5.625"/>
	<path d="M90.509,74.384l1.067-6.058l-6.011-1.061c0.062-2.429-0.342-4.79-1.136-6.985l5.194-3.001l-3.073-5.327l-5.135,2.967
		c-1.145-1.454-2.475-2.765-4.006-3.843l2.451-5.259l-5.571-2.6l-2.415,5.183c-1.476-0.438-3.121-0.81-5.599-0.796l-0.982-5.573
		l-6.053,1.068l0.972,5.518c-1.815,0.623-3.523,1.51-5.064,2.63l-3.953-3.956l-4.346,4.349l3.977,3.979
		c-1.092,1.524-1.984,3.214-2.601,5.055l-5.567-0.982l-1.067,6.058l5.629,0.993c-0.002,0.506,0.03,1.006,0.068,1.505h10.092
		c-1.004-6.233,4.439-11.548,10.605-10.46c4.972,0.877,8.292,5.622,7.415,10.597c-0.877,4.975-5.618,8.297-10.59,7.42
		c-3.902-0.688-6.776-3.762-7.413-7.456H47.291c0.157,1.925,0.595,3.789,1.292,5.537l-5.052,2.919l3.073,5.327l5.161-2.981
		c1.176,1.396,2.527,2.647,4.069,3.668l-2.539,5.449l5.571,2.6l2.57-5.516c1.694,0.452,3.407,0.685,5.36,0.644l1.067,6.057
		l6.053-1.068l-1.077-6.11c1.69-0.608,3.286-1.44,4.735-2.483l4.396,4.399l4.346-4.35l-4.393-4.396
		c1.036-1.433,1.892-3.016,2.51-4.734L90.509,74.384z"/>
</g>
<g id="goggles">
	<path d="M158.339,58.176h-3.904v-3.778c0-1.391-1.128-2.519-2.519-2.519s-2.519,1.128-2.519,2.519v3.778h-3.778
		c-1.391,0-2.519,1.128-2.519,2.519s1.127,2.519,2.519,2.519h3.778v3.904c0,1.391,1.127,2.519,2.519,2.519s2.519-1.128,2.519-2.519
		v-3.904h3.904c1.391,0,2.519-1.128,2.519-2.519S159.73,58.176,158.339,58.176z"/>
	<path d="M165.841,75.903l2.227-2.226c1.377-1.377,0.839-3.391,2.342-1.889l10.598,10.597c1.377,1.377,1.377,3.61,0,4.987
		l-2.227,2.227c-1.377,1.377-3.61,1.377-4.987,0l-10.597-10.598C161.443,77.248,164.464,77.28,165.841,75.903z"/>
	<path d="M151.979,43.063c-9.789,0-17.94,8.007-17.669,18.187h5.667c-0.286-6.884,5.211-12.394,11.876-12.394
		c6.573,0,11.901,5.328,11.901,11.901c0,6.573-5.329,11.901-11.901,11.901c-6.373,0-11.561-5.013-11.872-11.309h-5.667
		c0.315,9.496,8.093,17.102,17.665,17.102c9.772,0,17.694-7.922,17.694-17.695C169.674,50.985,161.752,43.063,151.979,43.063z"/>
</g>
<path id="Tag" d="M360.496,149.917l-21.656-21.656c-1.171-1.171-18.175-2.563-19.347-1.391l-5.009,4.413
	c-0.475,0.475-0.626,3.48-0.561,6.967h7.428c-0.753-2.331,1.009-4.541,3.295-4.541c1.921,0,3.478,1.557,3.478,3.478
	s-1.557,3.478-3.478,3.478c-1.511,0-2.784-0.969-3.264-2.315h-7.458c0.101,5.104,0.662,11.19,1.354,11.882l22.451,22.451
	c1.171,1.171,3.071,1.171,4.243,0l13.333-13.333h-10.537l-4.72,4.568l-16.495-15.502l12.322-12.123l16.496,15.7l-7.499,7.257h10.533
	l5.09-5.09C361.667,152.988,361.667,151.089,360.496,149.917z"/>
<path id="Anchor" d="M279.857,157.285c-0.394-2.552-0.819-5.099-1.227-7.648c-0.147-0.923-0.379-1.761-1.38-2.067
	c-1.102-0.337-1.843,0.532-2.558,1.203c-1.879,1.764-3.759,3.527-5.64,5.29c-1.35,1.087-1.207,2.678,0.028,3.403
	c0.595,0.35,1.364,0.501,1.969,0.705c-0.806,2.181-2.094,4.147-3.831,5.703c-1.671,1.497-4.215,3.057-6.507,3.231
	c0.004-9.819,0.008-19.641,0.011-29.46c2.611-1.078,3.919-3.542,3.919-6.019c0-2.345-1.172-4.702-3.52-5.907
	c-3.97-2.039-9.632,0.812-9.553,5.533h3.892c0.188-1.201,0.952-2.086,2.296-2.347c2.401-0.236,4.135,2.653,2.357,4.498
	c-1.733,1.798-4.909,0.514-4.664-2.051h-3.886c-0.02,2.647,1.212,4.979,4.025,6.293c0.006,9.836,0.012,19.675,0.017,29.511
	c-2.005-0.299-3.871-1.104-5.491-2.264c-2.325-1.664-4.146-4.055-5.148-6.721c0.527-0.175,1.186-0.315,1.745-0.582
	c1.227-0.585,1.644-1.834,0.737-2.996c-0.628-0.804-7.468-7.032-6.86-6.555c-0.658-0.564-1.348-0.649-1.967-0.4
	c-0.593,0.238-1.03,0.796-1.145,1.51c0,0-0.695,4.421-1.388,8.271c-0.431,2.396,1.232,3.12,2.244,2.88
	c0.578-0.187,1.156-0.373,1.734-0.559c0.928,3.832,3.992,7.327,7.116,9.569c3.321,2.384,7.304,3.42,11.351,3.42
	c4.69-0.252,8.938-2.042,12.19-5.004c2.318-2.112,4.131-4.819,5.239-7.991c0.57,0.187,1.141,0.373,1.711,0.559
	C278.672,160.543,280.384,159.944,279.857,157.285C279.81,156.975,279.993,157.971,279.857,157.285z"/>
<g id="Document">
	<path d="M166.652,138.318c0,1.291,0.839,1.852,2.159,1.843l9.819-0.07l-11.978-12.52V138.318z"/>
	<path d="M164.66,160.462c-0.133,0.87-0.878,1.538-1.785,1.538h-10.438c-1.001,0-1.813-0.812-1.813-1.813s0.812-1.479,1.813-1.479
		h10.438c1.08,0,1.905,0.55,1.795,1.654h14.038v-6.175h-5.477c-0.095,0.912-0.857,1.625-1.793,1.625H152.5
		c-1.001,0-1.813-0.812-1.813-1.813s0.812-1.479,1.813-1.479h18.938c1.038,0,1.856,0.507,1.804,1.566h5.467v-6.275h-5.646
		c0,0.932-0.755,1.354-1.688,1.354H152.5c-0.932,0-1.688-0.422-1.688-1.354s0.755-1.688,1.688-1.688h18.875
		c0.898,0,1.625,0.703,1.677,1.587h5.656v-6.087c0,0-6.072,0.137-10.021,0.02c-3.45-0.102-4.007-0.235-4.041-3.081
		c-0.043-3.625,0-11.022,0-11.022h-15.261c-2.209,0-4,1.791-4,4v36.779c0,2.209,1.791,4,4,4h25.324c2.209,0,4-1.791,4-4v-7.857
		H164.66z"/>
</g>
<g id="Lock">
	<path d="M57.808,138.689c0.563-4.445,4.303-7.882,8.844-7.882s8.281,3.438,8.844,7.882h5.351
		c-0.632-7.532-6.792-13.447-14.311-13.447c-7.518,0-13.679,5.915-14.311,13.447H57.808z"/>
	<path d="M79.834,141.969H52.422c-3.314,0-6,2.686-6,6v12.118h16.924v-1.892c-0.719-0.691-1.171-1.659-1.171-2.735
		c0-2.099,1.701-3.8,3.8-3.8s3.8,1.702,3.8,3.8c0,1.04-0.42,1.981-1.096,2.667v4.359c0,1.473-1.194,2.666-2.666,2.666
		c-1.473,0-2.666-1.193-2.666-2.666v-2.299H46.422v7.08c0,3.313,2.686,6,6,6h27.413c3.314,0,6-2.687,6-6v-19.298
		C85.834,144.655,83.148,141.969,79.834,141.969z"/>
</g>
<g id="CreditCard_1_">
	<path id="_x3C_Path_x3E__1_" d="M76.5,238.188v13.063l-6.125-6.625l-6.25,7v-26.5H76.5v12.962h7.375v-9.712c0-3.313-2.687-6-6-6
		h-21.25v43.5h21.25c3.313,0,6-2.687,6-6v-21.688H76.5z"/>
	<path d="M55,222.375h-0.375c-3.314,0-6,2.687-6,6v31.5c0,3.313,2.686,6,6,6H55V222.375z"/>
</g>
<g id="Camera">
	<circle cx="258.188" cy="250.59" r="7.602"/>
	<path id="_x3C_Path_x3E__2_" d="M278.54,237.188v1.218c0,1.104,0.105,1-1,1h-8.104c-1.104,0-2-0.896-2-2v-2.488
		c0-1.104-0.104-1,1-1h8.104c1.105,0,2,0.896,2,2v1.17h4.874v-2.559c0-2.762-2.238-5-5-5h-29.559c0.14-0.492,0.085-2.984,0.085-3.52
		c0-1.104-0.896-2-2-2h-7.911c-1.105,0-2,0.896-2,2c0,0.536-0.054,3.028,0.085,3.52c-3.949,0-5.702,2.496-5.702,5v1.559h16.562
		c0-1.447,1.151-2.492,2.467-2.492c1.364,0,2.469,1.105,2.469,2.469s-1.105,2.469-2.469,2.469c-1.322,0-2.391-1.041-2.457-2.346
		h-16.571v13.9h15.805c0.215-5.934,5.081-10.682,11.067-10.682c6.124,0,11.088,4.964,11.088,11.088s-4.964,11.088-11.088,11.088
		c-6.184,0-11.252-5.082-11.072-11.394h-15.8v9.589c0,2.762,2.238,5,5,5h42.001c2.762,0,5-2.238,5-5v-22.589H278.54z"/>
</g>
<g id="Tool">
	<path d="M332.854,221.547c-1.662,0-3.246,0.322-4.71,0.885l7.368,7.368c0.763,0.763,0.763,2,0,2.762l-4.089,4.15
		c-0.763,0.763-2,0.763-2.762,0l-7.655-7.655c-0.809,1.704-1.275,3.602-1.275,5.614c0,7.248,5.875,13.124,13.124,13.124
		s13.124-5.875,13.124-13.124S340.103,221.547,332.854,221.547z"/>
	<path d="M365.745,256.794l-15.739-15.861c-0.657-0.657-1.379-0.9-2.109-0.864c-0.768,1.933-1.93,3.746-3.494,5.31
		c-1.405,1.405-3.015,2.472-4.727,3.235c0.048,0.616,0.315,1.219,0.873,1.776l8.898,8.967h7.014
		c0.001-1.537,1.246-2.785,2.787-2.785c1.651,0,2.953,1.433,2.769,3.094c-0.154,1.401-1.341,2.479-2.769,2.479
		c-1.475,0-2.722-1.151-2.777-2.688h-6.924l6.741,6.793c1.526,1.526,4,1.526,5.525,0l3.933-3.933
		C367.271,260.794,367.271,258.32,365.745,256.794z"/>
</g>
<g id="Phone">
	<path d="M419.59,325.209c0,0,4.865-7.876,15.779-7.876c0,0,11.309-0.263,16.831,8.021h13.675c0,0,3.156-13.412-30.243-13.938
		c0,0-29.336-0.157-30.256,13.781L419.59,325.209z"/>
	<path d="M418.557,326.932h-13.063c0,0-0.039,4.865,7.613,4.859C413.107,331.791,417.335,331.948,418.557,326.932z"/>
	<path d="M453.375,326.75h12.5c0,0,0.125,5.125-7.375,5.25C458.5,332,453.375,332.125,453.375,326.75z"/>
	<path d="M455.224,340.87c-1.578-23.011-19.198-21.564-19.198-21.564c-10.568-0.426-15.388,5.832-17.652,12.436h8.258
		c0.08-4.563,4.184-8.241,9.243-8.241c5.108,0,9.25,3.75,9.25,8.375s-4.142,8.375-9.25,8.375c-4.985,0-9.248-3.622-9.248-8.409
		h-8.288c-1.205,3.554-1.676,7.199-1.905,9.949c-0.658,7.889,6.443,7.363,6.443,7.363s15.779,0.131,24.721,0.131
		S455.224,340.87,455.224,340.87z"/>
</g>
<path id="RSS" d="M177.5,397.125h-31.375c-2.761,0-5,2.239-5,5v6.816h6.125v-4.858c30.333,0,28.311,27.417,28.311,27.417h-5.357
	c-0.083-24.745-22.954-22.458-22.954-22.458h-6.125v9.687h6.125v-4.593c18.737,0,18.198,17.365,18.198,17.365h-5.032
	c0.25-14.167-13.167-12.667-13.167-12.667c0-0.008-6.117-0.005-6.125-0.005v15.297c0,2.761,2.239,5,5,5H177.5c2.761,0,5-2.239,5-5
	v-32C182.5,399.364,180.261,397.125,177.5,397.125z"/>
<polygon id="FilmRoll" points="366.985,408.794 366.985,398.013 363.979,398.013 363.979,401.298 360.589,401.298 360.589,398.013 
	356.68,398.013 356.68,403.959 336.106,403.959 336.106,398.013 332.734,398.013 332.734,401.298 329.345,401.298 329.345,398.013 
	325.974,398.013 325.974,408.794 329.345,408.794 329.345,405.583 332.734,405.583 332.734,408.895 325.974,408.895 
	325.974,416.391 329.345,416.391 329.345,413.18 332.734,413.18 332.734,416.491 325.974,416.491 325.974,424.12 329.345,424.12 
	329.345,420.908 332.734,420.908 332.734,424.22 325.974,424.22 325.974,431.61 329.345,431.61 329.345,428.399 332.734,428.399 
	332.734,431.71 325.974,431.71 325.974,438.991 329.345,438.991 329.345,435.733 332.734,435.733 332.734,438.991 336.384,438.991 
	336.384,432.736 346.43,432.736 346.43,428.006 336.245,428.006 336.245,408.77 356.819,408.77 356.819,428.006 346.53,428.006 
	346.53,432.736 356.958,432.736 356.958,438.991 360.589,438.991 360.589,435.733 363.979,435.733 363.979,438.991 366.985,438.991 
	366.985,431.71 360.589,431.71 360.589,428.399 363.979,428.399 363.979,431.61 366.985,431.61 366.985,424.22 360.589,424.22 
	360.589,420.908 363.979,420.908 363.979,424.12 366.985,424.12 366.985,416.385 360.589,416.385 360.589,413.074 363.979,413.074 
	363.979,416.285 366.985,416.285 366.985,408.895 360.589,408.895 360.589,405.583 363.979,405.583 363.979,408.794 "/>
<g id="Badge_1_">
	<path d="M530.492,48.068c0-5.389-5.61-5.167-5.61-5.167c-5.979,0-5.832,5.167-5.832,5.167c-3.281,0-4.651,2.453-4.604,4.745
		c0.041,2.008,1.169,3.892,3.054,3.892c0,0,11.958,0,14.911,0c1.169,0,3.039-1.324,3.057-3.949
		C535.488,49.802,533.365,47.589,530.492,48.068z"/>
	<path id="_x3C_Path_x3E_" d="M529.447,66.984h14.37c0.842,0,1.53,0.367,1.639,1.136h5.08V55.352c0-1.534-1.244-2.778-2.778-2.778
		h-10.098c0.573,7.143-4.657,6.788-4.657,6.788h-15.797c-5.242,0-5.151-5.445-5.048-6.788h-10.272c-1.534,0-2.778,1.244-2.778,2.778
		v12.585h11.103c0.093-2.385,2.042-4.294,4.449-4.294c2.467,0,4.466,2,4.466,4.466c0,2.467-2,4.466-4.466,4.466
		c-2.478,0-4.509-2.027-4.458-4.538h-11.093v9.587h6.804v-2.244c0,0-0.074-1.993,4.651-3.1l4.208,3.617l3.47-3.469
		c0,0,5.241,0.443,5.241,3.617v4.725H505.91v-3.044h-6.804v8.782c0,1.534,1.244,2.778,2.778,2.778h45.873
		c1.534,0,2.778-1.244,2.778-2.778v-7.351h-12.892c-0.047,0.793-0.715,1.151-1.542,1.151h-6.84c-0.856,0-1.55-0.38-1.55-1.236
		c0-0.856,0.694-1.236,1.55-1.236h6.84c0.851,0,1.54,0.376,1.549,1.221h12.884v-5.244h-4.916c-0.031,0.856-0.742,1.254-1.618,1.254
		h-14.665c-0.896,0-1.624-0.413-1.624-1.31c0-0.897,0.728-1.31,1.624-1.31h14.665c0.881,0,1.594,0.402,1.619,1.266h4.915V68.22
		h-5.07c0.075,0.972-0.67,1.458-1.649,1.458h-14.37c-0.917,0-1.661-0.43-1.661-1.347C527.786,67.414,528.53,66.984,529.447,66.984z"
		/>
</g>
<g id="Scissors">
	<path d="M177.202,308.083l-15.717,20.307l-16.551-21.141c0,0-5.146,6.398-0.278,13.213c2.583,3.616,7.162,9.189,10.893,13.625h3.88
		c0.139-1.017,1.002-1.803,2.057-1.803c1.152,0,2.086,0.934,2.086,2.086s-0.934,2.086-2.086,2.086c-1.163,0-2.181-0.972-2.067-2.27
		h-3.786c3.261,3.876,5.853,6.86,5.853,6.86l17.386-22.115C178.871,318.932,181.653,313.786,177.202,308.083z"/>
	<path d="M156.323,345.062c0.109,2.396-1.819,4.331-4.157,4.331c-2.304,0-4.173-1.868-4.173-4.172c0-2.305,1.869-4.173,4.173-4.173
		c2.216,0,4.011,1.732,4.147,3.914h3.754c-0.277-4.204-3.766-7.53-8.041-7.53c-4.455,0-8.067,3.612-8.067,8.067
		c0,4.456,3.612,8.067,8.067,8.067c4.55,0,8.299-3.788,8.045-8.504H156.323z"/>
	<path d="M171.013,336.875c-4.477,0-8.107,3.616-8.134,8.087h4.183c0.064-2.248,1.897-4.053,4.16-4.053
		c2.305,0,4.173,1.868,4.173,4.173c0,2.304-1.868,4.172-4.173,4.172c-2.243,0-4.17-1.796-4.17-4.192h-4.172
		c0.027,4.471,3.658,8.086,8.134,8.086c4.494,0,8.137-3.643,8.137-8.137C179.149,340.518,175.506,336.875,171.013,336.875z"/>
</g>
<g id="Key">
	<path d="M457.911,79.034l-13.825-14.398l-2.23,3.717l0.037,0.002l13.158,13.825l-0.095,1.431l-2.384,0.095l-12.339-13.002
		c-2.028,2.386-4.442,3.659-4.442,3.659l0.286,5.816l2.765,3.051h7.438l-0.095,7.056l6.579,0.572c0,0,0.667-0.667,4.768-4.672
		c1.457-1.423,1.927-2.738,1.927-3.842C459.456,80.342,457.911,79.034,457.911,79.034z"/>
	<path d="M426.821,42.837c-3.036,0-5.857,0.906-8.212,2.462c-2.976,1.967-5.206,4.971-6.182,8.497h5.532
		c0.054-2.57,2.146-4.64,4.729-4.64c2.617,0,4.739,2.122,4.739,4.74c0,2.617-2.122,4.739-4.739,4.739
		c-2.618,0-4.74-2.122-4.74-4.739h-5.548c-1.377,5.121,0.037,10.114,3.118,13.671c2.724,3.143,6.749,5.166,11.301,5.166
		c4.437,0,8.421-1.933,11.159-5.002c2.357-2.642,3.789-6.127,3.789-9.946c0-3.908-1.5-7.466-3.955-10.129
		C435.083,44.693,431.168,42.837,426.821,42.837z"/>
</g>
</svg>
