<?xml version="1.0" encoding="iso-8859-1"?>
<!-- Generator: Adobe Illustrator 15.1.0, SVG Export Plug-In . SVG Version: 6.00 Build 0)  -->
<!DOCTYPE svg PUBLIC "-//W3C//DTD SVG 1.1//EN" "http://www.w3.org/Graphics/SVG/1.1/DTD/svg11.dtd">
<svg version="1.1" id="LordArthrits" xmlns="http://www.w3.org/2000/svg" xmlns:xlink="http://www.w3.org/1999/xlink" x="0px"
	 y="0px" width="1000px" height="1000px" viewBox="0 0 1000 1000" enable-background="new 0 0 1000 1000" xml:space="preserve">
<g id="Segmented">
	<rect id="UVarea" width="1000" height="1000"/>
	<g id="RightForearm">
		<circle id="pivot_14_" fill="#FFFFFF" cx="129.334" cy="475.166" r="3.5"/>
		<path id="RightForearm_1_" fill="#FFFFFF" d="M89.75,469c3.279-5.465,16-9,21-8.5s22.25,6.75,31,20.5c-1.25,7.75-3,16.25-3,16.25
			c4.5,7,12.5,15,15.75,18.75c-18,10.25-28,28.75-35.25,27.75c-1,4.5,0,7-4.5,10c3,4,5.25,11.5,3.5,15.25s-10,19-10,19l-10.5,1.5
			c-1.25,5.75-4.25,13.25-12.25,10.75c-0.75-1-2.75-3.75-2.75-3.75s-5,2.25-12-5.25c-5.5-0.5-8.75-3-8.75-3l-4.5-6.75
			c-5.75-1.5-7-2.75-8.5-5.25S43,562,42.5,553c3.75-11.75,26.5-30.75,38.75-34.5C82.25,504.25,83,480.25,89.75,469z"/>
	</g>
	<g id="RightArm_1_">
		<circle id="pivot_13_" fill="#FFFFFF" cx="319.334" cy="507.166" r="3.5"/>
		<path id="RightArm" fill="#FFFFFF" d="M299.333,448.667c17,0,45.666,10,48.333,44.667S328.667,555,305.333,555
			S268,540.001,256.667,515.334c-5.333-3.334-14-13.001-19.333-19.334c-4.833,0.375-16.564,0.917-23.083-6.75
			c-5.353-6.294-7.514-15.822-3.181-24.34c4.636-9.114,16.934-10.645,24.806-8.66c6.148,1.55,10.875,7,11.458,9.417
			c1.792-1.167,4-1.667,4-1.667c5,0,11.667,0.333,11.667,0.333C272,455.667,284.667,448.667,299.333,448.667z"/>
	</g>
	<g id="RightFootTip_1_">
		<circle id="pivot_12_" fill="#FFFFFF" cx="119.334" cy="712.666" r="3.5"/>
		<path id="RightFootTip" fill="#FFFFFF" d="M113,688.667c1.667,12.666,3.667,24.666,20,39.333c0,1.333-24,24-24,24
			c-15.333,2.333-25,0.333-35-12.667c-0.333-5.666-1-10.666-1-10.666L113,688.667z"/>
	</g>
	<g id="RightFoot_1_">
		<circle id="pivot_11_" fill="#FFFFFF" cx="162.834" cy="612.666" r="3.5"/>
		<path id="RightFoot" fill="#FFFFFF" d="M178.333,606L177,589c0,0-17-20.333-22.333-25c-7.333-1-20-2.667-35,16.333
			c-0.667,2.334-1,5-1,5s-0.333,0.001-4.667,4.334s-4.667,21-0.667,28s15,15.333,21.333,10.333
			c5.333,2.667,10.667,4.999,14.667,3.333C154.479,615.893,164.3,608.264,178.333,606z"/>
	</g>
	<g id="RightKnee_1_">
		<circle id="pivot_10_" fill="#FFFFFF" cx="217.834" cy="782.666" r="3.5"/>
		<path id="RightKnee" fill="#FFFFFF" d="M151,726.333c-3.368-7.513-5-19.666,2-24.333s16.333-6.666,25,5.667
			s27.333,28.666,27.333,28.666l25,18.334c-1,9.333-10,48.333-10,48.333c-20.667,7.333-31.333,8.333-31.333,8.333L171,794
			C171,794,167.667,759,151,726.333z"/>
	</g>
	<g id="RightLeg_1_">
		<path id="RightLeg" fill="#FFFFFF" d="M307.333,667c7.333-13,22.667-32.667,30-38.667c0-3,0.667-7.333,0.667-7.333l12-27.667
			c0,0,15.334-14.667,41.333-10c4.333,5.667,9,11.667,9,11.667L403,626c0,0,16.999,17.001,13.333,29.667
			c-17,8.666-20.333,25.999-38,35.666s-44,17.001-71.667,1.334C305.667,678.667,307.333,667,307.333,667z"/>
		<circle id="pivot_9_" fill="#FFFFFF" cx="396.334" cy="627.666" r="3.5"/>
	</g>
	<g id="LeftFootTip_1_">
		<circle id="pivot_8_" fill="#FFFFFF" cx="933.334" cy="587.166" r="3.5"/>
		<path id="LeftFootTip" fill="#FFFFFF" d="M949.25,595c0,0-32.75-20.25-32-22c1.75-9,5.75-26.5,8.75-30s8.5-13.75,32.75-8.5
			L949.25,595z"/>
	</g>
	<g id="LeftFoot_1_">
		<circle id="pivot_7_" fill="#FFFFFF" cx="894.834" cy="705.166" r="3.5"/>
		<path id="LeftFoot" fill="#FFFFFF" d="M892.75,722.75c0,0,3-31.5,7-40.5c8.5-3.75,17.5-7,17.5-7s3.75-10.5,20.25-6
			c12.75,4.5,11.25,18,10,25.25s0.5,10,0.5,10l-8.25,36.25c-15.75-0.25-21.25,1.25-30.75-4S895.5,726.5,892.75,722.75z"/>
	</g>
	<g id="LeftKnee_1_">
		<circle id="pivot_6_" fill="#FFFFFF" cx="808.334" cy="570.666" r="3.5"/>
		<path id="LeftKnee" fill="#FFFFFF" d="M816.25,600.25c-4-4-5.75-7-6.25-9.75c2-16,0.25-43.75,0.25-43.75c3.75-6.5,7-12,7-12
			l17.75-11.5l21.75,11.5l15.5,22.75l26.25,27.25v5c4.75,3.25,11.5,14.25,8,21s-11.75,12.25-20.75,5.75
			c-0.75,1.25-5.25,1.75-5.25,1.75l-33-15.75L816.25,600.25z"/>
	</g>
	<g id="LeftLeg_1_">
		<circle id="pivot_5_" fill="#FFFFFF" cx="648.334" cy="603.166" r="3.5"/>
		<path id="LeftLeg" fill="#FFFFFF" d="M629.75,613.75c-5.5-14,3.319-45.363,30-59c22.5-11.5,55.75-10.5,59.75,4.5
			c4.772,17.898-14.75,45.5-27,55.5S643.985,649.985,629.75,613.75z"/>
	</g>
	<g id="Hips_1_">
		<circle id="pivot_4_" fill="#FFFFFF" cx="513.334" cy="679.666" r="3.5"/>
		<path id="Hips" fill="#FFFFFF" d="M469,687.5c2.464,41.88,36.25,65.25,64,59.75l5,15.25l39.5,10.5l9-12v-16.5
			c0,0-21.25-47-25.75-54.25l-3.5-3.25c0,0-1.75-12.25-9.5-23.25S515.5,645,498,651.25S468,670.5,469,687.5z"/>
	</g>
	<g id="Chest_1_">
		<circle id="pivot_3_" fill="#FFFFFF" cx="513.334" cy="579.666" r="3.5"/>
		<path id="Chest" fill="#FFFFFF" d="M442,472l37.5-3.5c13.5-6.5,36-17,48.5-20.5c18.5,16.5,37.5,39.5,44.5,47
			c-7,13-12.5,23-12.5,23c0,11.5,1.5,35-5,38c1,8,3,16,3,16s-3.5,7-35.5,13.5s-45,6-53.5,4.5c-14.5-17-20-21.5-28.5-35
			c-7-1.5-23-7-26.5-42.5S442,472,442,472z"/>
	</g>
	<g id="LeftForearm">
		<circle id="pivot_2_" fill="#FFFFFF" cx="798.334" cy="414.667" r="3.5"/>
		<path id="LeftForearm_1_" fill="#FFFFFF" d="M754,414.5l1-43.5c-10.5-2-17.5-13-19-16s-1-8.5-1-8.5l-6.5-10.5
			c2.5-11.5,6.5-26,8-32s9.5-3.5,12-3.5c2.5-3.5,9-8,14-5c4.5-4.5,10.5-5,16-2c4-5,10.5-5,16.5-1.5c5.5,7,8.5,12,8.5,12
			s3.5,14.5,3.5,28s-4,26.5-4,26.5c4,10.5,18.5,27,25,33.5c-2,18-14,35-34.5,37.5S760.5,422.5,754,414.5z"/>
	</g>
	<g id="LeftArm_1_">
		<path id="LeftArm" fill="#FFFFFF" d="M602.5,422.5c15.356-11.68,37.5-12,50.5-6.5c11-4,23.5-11,23.5-11l8.5,4.5c0-6,3-10,7.5-13
			s19.5-5,26.5,8.5s3,23.5-2.5,27s-13,5-18.5,1.5c2,5,2,5,2,5L686,456c0,16-4.5,36.5-25.5,48s-53,6-66.5-9.5
			C583.425,482.358,567,449.5,602.5,422.5z"/>
		<circle id="pivot_1_" fill="#FFFFFF" cx="626.834" cy="475.667" r="3.5"/>
	</g>
	<g id="Head_1_">
		<path id="Head" fill="#FFFFFF" d="M374.5,304.5c-0.999-24.98,16-55.5,50-64.5c12-20,17-22.5,20.5-25.5c10.5,4.5,42.5,23.5,55,40
			c7.5,18.5,6,37.5,6,37.5c-7.5,7-11,11-11,12.5s5,6,10,7c1,3.5-2,10.5-7,14c5,4,6,7.5,3,11c6,5,9.5,22.5,10.5,26.5
			c-4,0.5-5-0.5-11-4c1.5,4,1.5,4,1.5,4l-10.019,0.97c0,0,1.853,12.53,0.353,15.697s-39.833,0.167-46.5-1.167
			s-7.12-7.41-13.434-6.634c-11.042,1.358-21.308,0.532-24.9-0.366C396,361.5,376,342,374.5,304.5z"/>
		<circle id="pivot" fill="#FFFFFF" cx="466.833" cy="375.667" r="3.5"/>
	</g>
</g>
<g id="Posed_1_">
	<rect id="UVarea_1_" width="1000" height="1000"/>
	<g id="Hips_3_">
		<g id="LeftLeg_3_">
			<circle id="pivot_20_" fill="#FFFFFF" cx="548.334" cy="603.166" r="3.5"/>
			<path id="LeftLeg_4_" fill="#FFFFFF" d="M529.75,613.75c-5.5-14,3.319-45.363,30-59c22.5-11.5,55.75-10.5,59.75,4.5
				c4.772,17.898-14.75,45.5-27,55.5S543.985,649.985,529.75,613.75z"/>
			<g id="LeftKnee_3_">
				<circle id="pivot_21_" fill="#FFFFFF" cx="608.334" cy="570.666" r="3.5"/>
				<path id="LeftKnee_4_" fill="#FFFFFF" d="M616.25,600.25c-4-4-5.75-7-6.25-9.75c2-16,0.25-43.75,0.25-43.75c3.75-6.5,7-12,7-12
					l17.75-11.5l21.75,11.5l15.5,22.75l26.25,27.25v5c4.75,3.25,11.5,14.25,8,21s-11.75,12.25-20.75,5.75
					c-0.75,1.25-5.25,1.75-5.25,1.75l-33-15.75L616.25,600.25z"/>
				<g id="LeftFoot_3_">
					<circle id="pivot_22_" fill="#FFFFFF" cx="694.834" cy="605.166" r="3.5"/>
					<path id="LeftFoot_4_" fill="#FFFFFF" d="M692.75,622.75c0,0,3-31.5,7-40.5c8.5-3.75,17.5-7,17.5-7s3.75-10.5,20.25-6
						c12.75,4.5,11.25,18,10,25.25s0.5,10,0.5,10l-8.25,36.25c-15.75-0.25-21.25,1.25-30.75-4S695.5,626.5,692.75,622.75z"/>
					<g id="LeftFootTip_3_">
						<circle id="pivot_23_" fill="#FFFFFF" cx="733.334" cy="587.166" r="3.5"/>
						<path id="LeftFootTip_4_" fill="#FFFFFF" d="M749.25,595c0,0-32.75-20.25-32-22c1.75-9,5.75-26.5,8.75-30s8.5-13.75,32.75-8.5
							L749.25,595z"/>
					</g>
				</g>
			</g>
		</g>
		<circle id="pivot_19_" fill="#FFFFFF" cx="513.334" cy="579.666" r="3.5"/>
		<path id="Hips_4_" fill="#FFFFFF" d="M469,587.5c2.464,41.88,36.25,65.25,64,59.75l5,15.25l39.5,10.5l9-12v-16.5
			c0,0-21.25-47-25.75-54.25l-3.5-3.25c0,0-1.75-12.25-9.5-23.25S515.5,545,498,551.25S468,570.5,469,587.5z"/>
		<g id="Chest_3_">
			<g id="LeftArm_3_">
				<path id="LeftArm_4_" fill="#FFFFFF" d="M502.5,422.5c15.356-11.68,37.5-12,50.5-6.5c11-4,23.5-11,23.5-11l8.5,4.5
					c0-6,3-10,7.5-13s19.5-5,26.5,8.5s3,23.5-2.5,27s-13,5-18.5,1.5c2,5,2,5,2,5L586,456c0,16-4.5,36.5-25.5,48s-53,6-66.5-9.5
					C483.425,482.358,467,449.5,502.5,422.5z"/>
				<circle id="pivot_16_" fill="#FFFFFF" cx="526.834" cy="475.667" r="3.5"/>
				<g id="LeftForearm_2_">
					<circle id="pivot_17_" fill="#FFFFFF" cx="598.334" cy="414.667" r="3.5"/>
					<path id="LeftForearm_3_" fill="#FFFFFF" d="M554,414.5l1-43.5c-10.5-2-17.5-13-19-16s-1-8.5-1-8.5l-6.5-10.5
						c2.5-11.5,6.5-26,8-32s9.5-3.5,12-3.5c2.5-3.5,9-8,14-5c4.5-4.5,10.5-5,16-2c4-5,10.5-5,16.5-1.5c5.5,7,8.5,12,8.5,12
						s3.5,14.5,3.5,28s-4,26.5-4,26.5c4,10.5,18.5,27,25,33.5c-2,18-14,35-34.5,37.5S560.5,422.5,554,414.5z"/>
				</g>
			</g>
			<circle id="pivot_18_" fill="#FFFFFF" cx="513.334" cy="579.666" r="3.5"/>
			<g id="Head_3_">
				<path id="Head_4_" fill="#FFFFFF" d="M374.5,404.5c-0.999-24.98,16-55.5,50-64.5c12-20,17-22.5,20.5-25.5
					c10.5,4.5,42.5,23.5,55,40c7.5,18.5,6,37.5,6,37.5c-7.5,7-11,11-11,12.5s5,6,10,7c1,3.5-2,10.5-7,14c5,4,6,7.5,3,11
					c6,5,9.5,22.5,10.5,26.5c-4,0.5-5-0.5-11-4c1.5,4,1.5,4,1.5,4l-10.019,0.97c0,0,1.853,12.53,0.353,15.697
					s-39.833,0.167-46.5-1.167s-7.12-7.41-13.434-6.634c-11.042,1.358-21.308,0.532-24.9-0.366C396,461.5,376,442,374.5,404.5z"/>
				<circle id="pivot_15_" fill="#FFFFFF" cx="466.833" cy="475.667" r="3.5"/>
			</g>
			<path id="Chest_4_" fill="#FFFFFF" d="M442,472l37.5-3.5c13.5-6.5,36-17,48.5-20.5c18.5,16.5,37.5,39.5,44.5,47
				c-7,13-12.5,23-12.5,23c0,11.5,1.5,35-5,38c1,8,3,16,3,16s-3.5,7-35.5,13.5s-45,6-53.5,4.5c-14.5-17-20-21.5-28.5-35
				c-7-1.5-23-7-26.5-42.5S442,472,442,472z"/>
			<g id="RightArm_3_">
				<circle id="pivot_28_" fill="#FFFFFF" cx="419.334" cy="507.166" r="3.5"/>
				<path id="RightArm_4_" fill="#FFFFFF" d="M399.333,448.667c17,0,45.666,10,48.333,44.667S428.667,555,405.333,555
					S368,540.001,356.667,515.334c-5.333-3.334-14-13.001-19.333-19.334c-4.833,0.375-16.564,0.917-23.083-6.75
					c-5.353-6.294-7.514-15.822-3.181-24.34c4.636-9.114,16.934-10.645,24.806-8.66c6.148,1.55,10.875,7,11.458,9.417
					c1.792-1.167,4-1.667,4-1.667c5,0,11.667,0.333,11.667,0.333C372,455.667,384.667,448.667,399.333,448.667z"/>
				<g id="RightForearm_2_">
					<circle id="pivot_29_" fill="#FFFFFF" cx="329.334" cy="475.166" r="3.5"/>
					<path id="RightForearm_3_" fill="#FFFFFF" d="M289.75,469c3.279-5.465,16-9,21-8.5s22.25,6.75,31,20.5
						c-1.25,7.75-3,16.25-3,16.25c4.5,7,12.5,15,15.75,18.75c-18,10.25-28,28.75-35.25,27.75c-1,4.5,0,7-4.5,10
						c3,4,5.25,11.5,3.5,15.25s-10,19-10,19l-10.5,1.5c-1.25,5.75-4.25,13.25-12.25,10.75c-0.75-1-2.75-3.75-2.75-3.75
						s-5,2.25-12-5.25c-5.5-0.5-8.75-3-8.75-3l-4.5-6.75c-5.75-1.5-7-2.75-8.5-5.25S243,562,242.5,553
						c3.75-11.75,26.5-30.75,38.75-34.5C282.25,504.25,283,480.25,289.75,469z"/>
				</g>
			</g>
		</g>
		<g id="RightLeg_3_">
			<path id="RightLeg_4_" fill="#FFFFFF" d="M407.333,667c7.333-13,22.667-32.667,30-38.667c0-3,0.667-7.333,0.667-7.333l12-27.667
				c0,0,15.334-14.667,41.333-10c4.333,5.667,9,11.667,9,11.667L503,626c0,0,16.999,17.001,13.333,29.667
				c-17,8.666-20.333,25.999-38,35.666s-44,17.001-71.667,1.334C405.667,678.667,407.333,667,407.333,667z"/>
			<circle id="pivot_24_" fill="#FFFFFF" cx="496.334" cy="627.666" r="3.5"/>
			<g id="RightKnee_3_">
				<circle id="pivot_25_" fill="#FFFFFF" cx="417.834" cy="682.666" r="3.5"/>
				<path id="RightKnee_4_" fill="#FFFFFF" d="M351,626.333c-3.368-7.513-5-19.666,2-24.333s16.333-6.666,25,5.667
					s27.333,28.666,27.333,28.666l25,18.334c-1,9.333-10,48.333-10,48.333c-20.667,7.333-31.333,8.333-31.333,8.333L371,694
					C371,694,367.667,659,351,626.333z"/>
				<g id="RightFoot_3_">
					<circle id="pivot_26_" fill="#FFFFFF" cx="362.834" cy="612.666" r="3.5"/>
					<path id="RightFoot_4_" fill="#FFFFFF" d="M378.333,606L377,589c0,0-17-20.333-22.333-25c-7.333-1-20-2.667-35,16.333
						c-0.667,2.334-1,5-1,5s-0.333,0.001-4.667,4.334s-4.667,21-0.667,28s15,15.333,21.333,10.333
						c5.333,2.667,10.667,4.999,14.667,3.333C354.479,615.893,364.3,608.264,378.333,606z"/>
					<g id="RightFootTip_3_">
						<circle id="pivot_27_" fill="#FFFFFF" cx="319.334" cy="612.666" r="3.5"/>
						<path id="RightFootTip_4_" fill="#FFFFFF" d="M313,588.667c1.667,12.666,3.667,24.666,20,39.333c0,1.333-24,24-24,24
							c-15.333,2.333-25,0.333-35-12.667c-0.333-5.666-1-10.666-1-10.666L313,588.667z"/>
					</g>
				</g>
			</g>
		</g>
	</g>
</g>
</svg>
