<?xml version="1.0" encoding="utf-8"?>
<!-- Generator: Adobe Illustrator 15.0.0, SVG Export Plug-In . SVG Version: 6.00 Build 0)  -->
<!DOCTYPE svg PUBLIC "-//W3C//DTD SVG 1.1//EN" "http://www.w3.org/Graphics/SVG/1.1/DTD/svg11.dtd">
<svg version="1.1" id="Layer_1" xmlns="http://www.w3.org/2000/svg" xmlns:xlink="http://www.w3.org/1999/xlink" x="0px" y="0px"
	 width="800px" height="600px" viewBox="0 0 800 600" enable-background="new 0 0 800 600" xml:space="preserve">
<path d="M468.472,317.229c-1.246-5.049-9.052-13.83-12.304-17.06c-5.656-5.618-10.359-12.259-13.15-19.823
	c-3.479-9.425-4.676-19.566-9.199-28.589c-4.199-7.677-11.563-13.281-19.818-15.966c-10.453-3.399-21.206-1.734-29.654,3.516
	c-5.829,3.623-11.04,8.213-17.12,11.452c-9.072,4.83-19.058,7.334-28.821,10.282c-6.591,1.99-13.496,3.503-19.354,7.27
	c-3.826,2.459-7.042,6.737-6.612,11.556c0.544,6.092,4.41,11.276,9.029,14.958c9.754,7.774,21.065,13.327,32.578,17.985
	c-9.06,14.83-14.983,31.83-16.347,49.264c0.042,0.963,0.98,1.572,1.899,1.377c1.054-0.439,1.03-1.602,1.078-2.545
	c4.782,3.42,55.021,1.752,58.531,0.029c1.09,1.355,2.536-0.52,1.895-1.387c-1.091-2.395-2.369-4.756-2.716-7.402
	c-1.224-7.691,0.742-15.482,3.202-22.729c15.914,4.129,32.279,7.391,48.796,6.988c5.559-0.133,11.546-1.553,15.495-5.758
	C469.211,327.096,469.594,321.77,468.472,317.229z"/>
<path fill="#F17922" d="M467.734,320.85c-0.029-2.385-1.256-5.475-2.484-7.508c-4.719-7.318-11.256-12.875-16.541-19.736
	c-5.04-6.46-8.113-14.035-10.451-21.816c-1.875-6.386-3.264-12.994-6.392-18.923c-2.521-4.438-6.122-8.045-10.452-10.706
	c-12.575-8.299-27.952-7.466-39.116,0.356c-7.86,5.546-16.087,10.767-25.164,14.104c-9.593,3.17-19.298,5.793-28.918,9.233
	c-3.714,1.479-7.661,3.106-10.596,5.931c-1.973,2.076-3.756,4.737-3.585,7.732c-0.31,6.24,4.25,11.482,8.955,15.019
	c9.717,7.155,20.39,13.01,31.58,17.522c0.608-0.961,1.23-1.912,1.857-2.855c1.869-2.721,3.805-5.389,5.826-7.994
	c-5.431-2.438-16.845-8.622-16.961-8.71c-5.255-3.523-14.12-10.424-13.017-16.701c-1.826,0.229-4.582,1.13-5.708,2.816
	c-0.871,2.016,2.342,5.588,2.202,5.463c-2.229-0.925-3.854-3.518-2.941-5.904c0.852-1.888,3.117-2.405,4.913-2.959
	c6.421-1.388,13.04-0.749,19.528-0.22c23.465,3.416,50.587,8.023,72.466,18.866c8.852,4.354,18.211,9.029,25.316,15.98
	c2.971,2.881,6.082,6.061,7.001,10.25c0.456,1.826-0.659,2.998-2.182,3.855c-2.478,1.4-4.847,1.502-7.61,1.775
	c-3.754,0.339-13.76-0.49-13.546-1.471c6.569,1.064,12.987,1.207,19.532-0.256c1.863-0.432,2.869-2.037,2.475-4.143
	c-1.408,1.1-7.836,1.734-11.842,1.832c-5.05,0.095-21.246-2.008-34.69-5.576c-3.252,7.263-4.577,10.333-5.126,12.414
	c15.153,3.945,30.775,6.617,46.482,6.355c10.188-0.13,19.446-3.843,19.146-13.902C467.704,320.933,467.721,320.892,467.734,320.85z"
	/>
<g>
	<path fill="#F3BB32" d="M382.298,242.517c4.374-3.064,8.994-5.377,14.875-5.787c4.125,0.181,8.23,0.604,11.258,3.415
		c1.887,1.633,3.178,4.731,1.314,6.869c-2.838,3.007-7.349,1.862-10.91,3.159c-6.983,2.611-12.724,7.513-18.958,11.458
		c-5.126,3.202-11.141,4.407-16.974,5.612c-4.134,0.798-8.761,0.75-12.207,3.508c-1.302,1.108-0.961,2.879-0.347,4.249
		c-6.514-0.53-13.162-1.181-19.61,0.213c-1.796,0.554-4.061,1.071-4.913,2.959c-0.914,2.387,0.712,4.979,2.941,5.904
		c0.752,0.672,1.874,5.728-4.462,2.899c-5.501-2.453-8.992-9.438-6.686-15.19c2.935-2.824,6.882-4.452,10.596-5.931
		c9.621-3.44,19.326-6.063,28.918-9.233C366.211,253.284,374.438,248.063,382.298,242.517z"/>
</g>
<g>
	<path fill="#D05A27" d="M314.035,279.518c2.13,6.076,6.74,10.917,12.134,14.277c9.594,6.021,19.64,11.414,30.258,15.408
		c-0.627,0.943-1.249,1.895-1.857,2.855c-11.19-4.512-21.862-10.367-31.58-17.522C318.284,291,313.725,285.758,314.035,279.518z"/>
	<path fill="#D05A27" d="M467.532,319.531c0.73,3.684-1.063,8.697-4.005,11.066c-4.121,3.48-9.775,4.213-14.982,4.279
		c-15.707,0.262-31.329-2.41-46.482-6.355c0.292-1.107,0.664-2.193,1.127-3.232c13.668,3.379,27.578,6.322,41.691,7.244
		c3.299,0.244,6.605-0.221,9.838-0.848C461.849,330.053,466.365,326.43,467.532,319.531z"/>
</g>
<g>
	<path fill="#EEE814" d="M334.545,276.011c4.202-0.854,9.05-0.144,13.601,0.273c7.524,0.689,15.031,1.674,22.459,3.068
		c1.278,0.104,1.918,1.353,2.648,2.234c2.302,3.276,4.006,6.958,5.224,10.771c-2.99-0.207-5.991-0.171-8.943,0.395
		c-10.119-5.862-20.785-10.715-31.64-15.049C336.278,277.127,334.509,276.736,334.545,276.011z"/>
	<path fill="#EEE814" d="M332.178,276.273c12.553,4.876,25.137,10.119,36.315,17.723c-0.554,0.561-1.108,1.132-1.656,1.704
		c-7.178-1.103-14.393-1.99-21.546-3.201c-3.525-2.363-6.953-4.896-10.009-7.836C332.933,282.278,331.135,278.573,332.178,276.273z"
		/>
	<path fill="#EEE814" d="M372.748,279.737c10.283,2.069,20.48,4.566,30.465,7.8c-3.232,2.527-5.96,5.74-9.277,8.103
		c-4.646-1.518-9.407-2.715-14.283-3.141C378.002,287.937,375.92,283.439,372.748,279.737z"/>
	<path fill="#EEE814" d="M395.518,296.236c2.68-2.983,5.619-5.717,8.627-8.359c9.333,3.032,18.453,6.873,26.916,11.854
		c-8.852-0.47-17.595,1.089-26.361,2.027C401.935,299.462,398.842,297.6,395.518,296.236z"/>
	<path fill="#EEE814" d="M347.465,293.478c6.738,1.075,14.562,2.286,18.313,3.446c-1.175,1.424-2.35,2.854-3.525,4.285
		C357.181,298.933,351.908,296.888,347.465,293.478z"/>
	<path fill="#EEE814" d="M405.794,302.682c8.878-1.441,17.888-2.703,26.897-2.033c7.057,3.722,13.357,8.853,18.648,14.82
		c-6.995-2.418-14.307-3.637-21.539-5.072c-6.898-1.35-13.784-2.734-20.693-4.012C408.102,305.063,406.982,303.834,405.794,302.682z
		"/>
	<path fill="#EEE814" d="M409.807,307.572c13.563,2.482,27.26,4.439,40.534,8.145c2.431,0.357,3.446,2.895,3.38,4.135
		c-2.605,1.453-7.449,1.832-11.842,1.832c-3.531,0.066-7.014-0.596-10.526-0.791c-3.215-1.418-6.112-3.432-9.247-5.018
		c-3.951-2.051-8.092-3.695-12.171-5.473C410.253,309.494,410.221,308.553,409.807,307.572z"/>
	<path fill="#EEE814" d="M407.188,316.107c0.707-1.662,1.474-3.287,2.337-4.865c6.601,2.777,13.292,5.475,19.435,9.162
		C421.611,319.521,414.342,318.006,407.188,316.107z"/>
</g>
<path fill="#B28C3F" d="M408.541,309.557c0.462-0.902-0.115-1.875-0.531-2.66c-1.399-2.258-3.543-3.902-5.588-5.541
	c-0.801,0.766-0.779,0.746,0,0c-14.737-10.523-30.113-7.753-31.165-8.127c-2.076,0.463-3.129,2.497-4.445,3.958
	c-6.033,7.255-11.201,15.238-15.281,23.755c-6.167,12.432-10.447,26.002-10.855,39.963c4.782,3.42,55.021,1.752,58.531,0.029
	c-3.793-5.502-4.072-12.699-3.074-19.109C397.783,330.258,403.719,320.004,408.541,309.557z"/>
<path fill="#E5C377" d="M371.257,293.228c0.74,0.496,16.324-2.184,31.165,8.127c-12.071,11.545-21.17,34.947-18.172,60.895
	c-3.75,0.833-39.726,0.57-40.083-0.417C344.819,350.677,344.899,327.242,371.257,293.228z"/>
<g>
	<path fill="#F0EECC" d="M378.039,293.338c4.176,0.347,8.31,1.102,12.322,2.313c-3.834,7.885-2.572,1.445-14.873,28.565
		c-2.151,4.509-6.266,18.406-13.154,18.406c-8.976,0,0.276-22.849,4.43-30.801C369.93,305.314,373.625,299.75,378.039,293.338z"/>
</g>
<path fill="#ED1C24" d="M430.213,260.094c1.384-0.853,2.478,1.907,2.682,2.442c0.469,1.231,1.037,3.256,0.053,4.137
	c-1.271,1.138-2.282-0.713-2.753-1.95C429.906,263.965,429.23,260.698,430.213,260.094z"/>
<path fill="#ED1C24" d="M424.979,267.177c1.25-0.934,2.354-0.076,2.977,1.132c0.623,1.214,0.926,3.295-0.167,4.212
	c-1.315,1.104-2.695-0.337-3.325-1.943C424.002,269.4,424.018,268.078,424.979,267.177z"/>
<path fill="#ED1C24" d="M432.271,272.541c2.563-1.819,4.583,1.57,5.617,4.634c0.42,1.245,1.996,6.804-0.15,7.978
	c-2.261,1.237-4.608-2.814-5.593-4.663C431.384,279.058,429.918,274.411,432.271,272.541z"/>
</svg>
