<?xml version="1.0" encoding="utf-8"?>
<!-- Generator: Adobe Illustrator 15.1.0, SVG Export Plug-In . SVG Version: 6.00 Build 0)  -->
<!DOCTYPE svg PUBLIC "-//W3C//DTD SVG 1.1//EN" "http://www.w3.org/Graphics/SVG/1.1/DTD/svg11.dtd">
<svg version="1.1" id="Layer_1" xmlns="http://www.w3.org/2000/svg" xmlns:xlink="http://www.w3.org/1999/xlink" x="0px" y="0px"
	 width="1024px" height="683px" viewBox="0 0 1024 683" enable-background="new 0 0 1024 683" xml:space="preserve">
<path fill="#FF0000" d="M154.5,416.667c2.667-10,198.667-8,209.333,0s4,157.333,0,162c0,0-170.583-7.917-206.584-3.667
	C160.787,549.617,152.204,425.28,154.5,416.667z"/>
<g>
	<path fill="#FF9600" d="M318.93,339.54c-8.351-15.83-22.17-28.25-37.16-37.81c-25.27-16.13-56.069-22.43-85.7-20.08
		c-44.577,3.536-92.173,19.408-107.81,61.14c-16.7,44.196,3.986,102.36,26.991,143.44c17.359,31,58.899,89.76,96.97,107.06
		c22.386,9.742,38.396-1.221,41.779-18.29c3.54-17.898,1.689-31.24-2.67-49.33c-1.635-6.808-5.646-17.073-3.333-23.313
		c-13.03-16.557-30.109-51.567-39.168-70.666c-3.029-1.007-4.506-4.522-5.799-7.249c-4.72-9.971-9.359-19.959-14-29.971
		c-3.749-8.123-0.379-14.151,6.331-15.471c8.54-1.67,17.611,0.432,24.801,5.26c7.739,5.2,12.399,14.83,11.239,24.16
		c-0.68,5.53-2.229,11.17-5.81,15.621c-5.71,7.102-13.096,8.864-16.761,7.648c9.039,19.057,26.13,54.101,39.168,70.666
		c2.511-6.793,8.393-11.515,13.973-15.775c13.97-10.23,51.99-32.29,64.03-88.08C329.67,379.311,328.25,357.2,318.93,339.54z"/>
</g>
</svg>
