<?xml version="1.0" encoding="utf-8"?>
<!-- Generator: Adobe Illustrator 15.1.0, SVG Export Plug-In . SVG Version: 6.00 Build 0)  -->
<!DOCTYPE svg PUBLIC "-//W3C//DTD SVG 1.1//EN" "http://www.w3.org/Graphics/SVG/1.1/DTD/svg11.dtd">
<svg version="1.1" id="Layer_1" xmlns="http://www.w3.org/2000/svg" xmlns:xlink="http://www.w3.org/1999/xlink" x="0px" y="0px"
	 width="2048px" height="1152px" viewBox="0 0 2048 1152" enable-background="new 0 0 2048 1152" xml:space="preserve">
<g id="Outline">
	<path fill="#090C0D" d="M451.161,270.724c22.414,0,44.72,4.02,66.093,10.986c25.294,8.245,50.584,21.331,72.123,35.732
		c20.834,13.93,40.988,30.755,59.469,47.635c16.778,15.326,32.851,31.437,48.314,48.074c26.371-15.049,52.654-30.368,80.566-42.438
		c13.298-5.749,27.065-10.704,41.531-12.285c8.008-0.875,42.379-3.396,54.322,1.052c4.102,10.338-0.167,52.671-1.229,61.725
		c-2.145,18.278-4.789,38.318-15.231,53.965c-11.785,18.06-27.691,33.324-43.631,47.682c-16.834,15.163-34.584,29.271-52.619,42.969
		c10.512,16.886,20.573,34.095,29.36,51.95c8.532,17.339,13.216,36.765,16.561,55.711c5.399,30.588,3.275,72.291-0.911,89.536
		c-7.904,32.562-21.028,65.527-46.88,86.723c4.551,12.688,9.634,25.605,13.401,38.788c3.499,12.243,6.497,25.648,5.814,37.352
		c-0.684,11.704-5.048,21.705-16.275,27.138c-10.188,3.726-21.551,2.727-32.793-0.936c-16.2-5.277-32.149-16.084-43.978-26.252
		c-16.841-14.479-31.311-31.997-45.588-48.92c-13.663,1.524-27.353,3.382-41.109,3.774c-13.105,0.375-26.328-1.377-39.346,0.814
		c-25.548,4.301-49.038,18.521-70.041,32.938c-21.799,14.962-42.554,31.372-64.471,46.176
		c-15.421,10.417-31.332,20.884-47.935,29.716c-15.532,8.263-32.251,15.93-49.242,16.84c-11.803,0.633-20.685-1.347-26.221-11.738
		c-6.508-12.214-3.137-27.825,2.007-40.735c3.568-8.956,8.476-17.513,13.776-24.866c-19.366-9.075-38.627-17.967-56.064-30.482
		c-16.575-11.896-32.677-25.192-45.417-41.235c-12.763-16.071-21.875-34.658-29.231-53.73
		c-8.016-20.783-11.845-42.406-16.098-64.181c-21.172-5.819-42.405-11.574-63.471-17.763c-20.103-5.905-40.501-12.593-57.099-25.8
		c-8.58-6.658-13.82-16.988-15.56-27.578c-2.1-12.972,7.74-25.2,19.51-29.45c26.32-9.891,54.74-10.949,82.229-15.431
		c-7.346-17.267-13.221-34.438-15.588-53.126c-2.316-18.29-2.009-36.995,1.928-55.045c2.806-14.809,7.748-29.247,14.875-42.543
		c8.303-15.486,20.313-30.578,34.839-42.264c15.938-12.822,33.405-20.679,51.853-27.469c2.958-1.09,8.038-9.301,35.152-37.897
		c13.169-13.89,26.894-27.179,42.178-38.844c19.702-15.038,47.17-34.83,84.643-46.487
		C404.801,274.555,426.529,270.724,451.161,270.724z"/>
	<path fill="#090C0D" d="M757.27,361.35c4-1.78,8.302-2.99,12.722-2.74c-2.203,3.592-7.186,4.751-10.837,6.219
		c-4.827,1.94-9.534,4.18-14.071,6.724c-4.534,2.542-8.897,5.389-13.037,8.535c-4.235,3.221-7.942,7.322-13.085,9.102
		c2.535-7.064,9.281-11.088,15.04-15.28C741.099,368.611,749.2,364.9,757.27,361.35C761.27,359.57,749.2,364.9,757.27,361.35z"/>
	<path fill="#090C0D" d="M722,364.86c1.29-0.92,2.89-0.87,4.41-0.9c-2.215,4.287-7.328,5.628-10.521,8.96
		c-3.697,2.505-5.843,7.23-10.397,8.45c0.34-1.47,0.568-3.06,1.72-4.15C711.57,372.48,716.51,368.24,722,364.86
		C723.29,363.94,716.51,368.24,722,364.86z"/>
	<path fill="#090C0D" d="M97.33,609.032c-2.044-0.029-30.051-4.76-30.79-4.933c5.164-1.201,10.686-1.543,16.004-0.796
		C87.863,604.051,92.979,605.885,97.33,609.032z"/>
	<path fill="#090C0D" d="M39.44,627.48c13.716-3.791,31.935-7.295,45.58-1.58c-4.676,1.283-9.396,1.025-14.19,1.132
		c-5.134,0.112-10.267,0.43-15.368,1.032c-5.094,0.603-10.157,1.488-15.132,2.741c-4.798,1.209-9.362,3.242-14.38,3.242
		C29.71,630.59,34.64,628.91,39.44,627.48C49.39,624.73,34.64,628.91,39.44,627.48z"/>
	<path fill="#090C0D" d="M61.9,716.67c14.05,4.63,27.92,9.811,41.36,16.011c-8.23,0.222-16.26-2.011-23.89-4.898
		C72.94,725.2,66.21,722.37,61.9,716.67C75.95,721.3,66.21,722.37,61.9,716.67z"/>
	<path fill="#090C0D" d="M76.66,742.6c3.095,0.83,5.88,2.461,8.65,4.021c3.326,1.917,7.079,3.029,10.23,5.26
		C88.34,751.689,81.37,747.96,76.66,742.6C79.76,743.431,81.37,747.96,76.66,742.6z"/>
</g>
<g id="Color">
	<path fill="#D2A263" d="M37.06,297.13c5.2-5.13,13.18-5.5,20.02-4.75c10.228,1.143,19.288,6.451,27.908,11.708
		c9.079,5.537,17.842,11.749,26.054,18.504c8.256,6.793,15.909,14.376,23.192,22.194c5.44,5.84,12.732,12.68,16.392,20.402
		c1.481,3.126,3.149,6.873,0.785,9.237c-1.427,1.427-4.21,2.379-8.706,0.781c-5.547-1.971-7.543-4.59-20.713-14.528
		c-10.259-7.742-20.847-15.034-32.2-21.093c-9.685-5.169-19.671-8.713-30.247-11.59c-8.714-2.37-20.099-3.868-25.105-12.476
		C30.71,309.84,32.04,301.61,37.06,297.13C42.26,292,32.04,301.61,37.06,297.13z"/>
	<path fill="#D2A263" d="M170.83,313.2c6.76,8.28,11.22,18.35,13.2,28.83c0.625,3.553,0.39,9.499-2.141,12.029
		c-3.068,3.068-9.177-0.146-11.849-4.01c-3.223-5.117-5.904-10.729-10.371-14.919c-3.917-3.675-8.742-6.656-11.279-11.561
		c-2.93-5.28-1.06-13.05,4.68-15.56C159.069,304.958,166.399,308.131,170.83,313.2z"/>
	<path fill="#D2A263" d="M49.06,398.97c5.27-6.96,14.68-8.89,22.94-8.91c9.822,0.265,19.626,1.726,29.106,4.348
		c10.181,2.816,25.468,8.293,32.149,16.525c1.846,2.274,2.659,4.989,1.205,7.557c-1.419,2.505-4.47,3.39-7.42,2.79
		c-5.084-2.212-19.532-5.159-30.293-5.328c-11.055-0.174-21.774,2.048-32.716,2.857c-5.459,0.36-11.53-1.278-14.91-5.858
		C46.02,408.91,46.43,403.13,49.06,398.97C54.33,392.01,46.43,403.13,49.06,398.97z"/>
	<path fill="#FEFEFD" d="M324.549,414.32c21.638,7.427,42.424,20.681,57.478,35.734c14.381,14.38,22.613,27.773,28.688,41.342
		c7.871,17.58,12.632,36.64,12.632,64.227c0,15.41-1.858,30.819-5.865,45.698c-13.942,5.377-24.703,14.105-32.312,26.899
		c-3.386,5.641-5.401,11.993-6.442,18.465c-1.138,7.078-1.098,19.335-1.098,19.335c-10.92,10.021-24.398,16.75-37.939,22.512
		c-20.671,8.75-43.299,12.02-65.641,12.1c-18.82-0.56-37.59-4.58-55.06-11.59c-15.779-6.879-30.784-15.748-43.825-27.032
		c-12.694-10.984-25.015-23.604-32.276-38.937c-10.345-21.076-15.303-39.907-17.079-59.006c-1.456-15.661-0.734-31.12,2.104-46.173
		c3.057-16.215,8.962-33.949,18.01-48.915c7.585-12.547,17.554-24.214,28.837-33.151c9.989-7.915,25.146-16.455,41.788-22.183
		c17.435-6.001,37.715-8.573,53.811-8.573C289.182,405.071,308.229,408.719,324.549,414.32z"/>
	<path fill="#2F85A9" d="M369,970.833l-36.5,1.417l-25.22-9.991c4.108-10.528,10.108-20.198,16.818-29.239
		c14.436,4.545,29.682,5.944,44.72,6.726c15.381,0.798,30.834,0.794,46.172-0.735C404.167,947.167,378.423,965.557,369,970.833z"/>
	<path fill="#FAE3B7" d="M721.333,630.653c-9.566-10.052-20.012-19.2-31.13-27.663c-20.758-15.803-39.279-24.86-48.214-27.146
		L586,642l-46.738,3.243c-11.537,2.073-23.299,2.88-35.016,2.43l-39.437,2.736c-8.241,7.54-16.14,15.736-20.309,26.591
		c-4.5,13.11-4.75,34.5-9.75,37.75c-13,1.25-23.353-5.997-32.75-13.25c-4.363-3.367-11.129-10.706-15.25-17.25L335,709l-85-2.5
		l-13.162-5.054c-8.133,11.892-12.414,25.979-15.709,39.873c-1.733,9.396-2.661,18.84-2.948,28.292L316,879l422.5-93.5
		l8.894-122.679C734.682,645.264,727.107,636.721,721.333,630.653z"/>
	<path fill="#2F85A9" d="M214.633,754.1c0.325-3.031,0.703-6.059,1.167-9.081c3.07-15.818,8.43-31.329,16.57-45.288
		c-11.026-2.812-22.218-7.465-32.551-13.239L214.633,754.1z"/>
	<path fill="#2F85A9" d="M169.58,722.573c0.325-17.652,1.702-35.514,6.39-52.515c-13.56-11.13-26.29-23.711-35.32-38.858
		c-29.125,4.785-61.483,6.484-81.093,14.184c-10.771,4.227-17.703,10.262-18.157,19.607c0.389,6.006,2.315,11.938,5.502,17.071
		L169.58,722.573z"/>
	<g>
		<path fill="#2F85A9" d="M712.416,847.373c0.157-0.156,0.319-0.305,0.474-0.463C715.859,843.836,713.88,845.865,712.416,847.373z"
			/>
		<path fill="#2F85A9" d="M754.5,907.75l-31.21-69.092c-3.778,2.326-7.305,5.047-10.4,8.252c-2.53,2.589-1.676,1.702-0.474,0.463
			c-7.861,7.817-17.988,12.327-28.136,16.424c-11.277,4.554-22.897,8.277-34.759,10.971c10.757,14.951,22.368,29.303,35.716,41.748
			L726.5,928.25L754.5,907.75z"/>
	</g>
	<path fill="#2F85A9" d="M736.5,535.5l115-79l7.978-91.743c-13.252-0.135-26.522-0.189-39.714,1.218
		c-21.129,2.253-49.894,16.009-68.301,25.959c-19.351,10.462-37.842,22.389-56.392,34.365
		c-24.601-25.849-49.625-51.648-76.353-75.624c-19.326-17.337-39.304-33.33-62.546-45.121c-22.889-11.612-47.322-21.123-72.461-26.5
		c-14.259-3.05-28.5-3.825-42.711-2.985c-20.585,1.217-44.987,6.237-65.973,13.809c-14.823,5.349-32.694,13.471-63.232,36.621
		c-14.545,11.025-28.151,22.862-40.755,36.069c-12.453,13.049-24.193,26.749-35.981,40.394c22.247-4.32,45.832-4.42,68.453-0.035
		c20.265,3.929,39.754,11.456,56.817,22.775c15.75,9.729,29.25,22.74,40.44,37.438c9.585-20.052,21.47-34.944,33.807-46.058
		c22.279-20.069,51.629-31.786,74.859-33.542c23.491-1.778,49.342,4.783,69.86,14.899c18.497,9.12,35.041,22.097,47.842,38.392
		c13.431,17.819,21.157,40.834,23.228,62.9c1.073,11.438,1.458,23.227-0.306,34.605c-1.671,10.772-3.926,22.585-9.061,32.303
		c8.839,4.531,18.347,7.457,27.1,12.271c8.752,4.813,17.051,10.41,25.058,16.368c15.878,11.816,30.543,25.003,43.378,40.089
		c1.654,1.944,3.288,3.908,4.9,5.891L736.5,535.5z"/>
	<path fill="#FEFEFD" d="M428.648,568.209c-0.873,13.312-4.5,33.686-4.511,33.748c0.001,0.001,0.001,0.002,0.002,0.003l0.034,0.065
		c1.171,2.197,6.33,7.562,8.758,9.813c5.276,4.792,11.456,9.055,17.968,11.701c2.551-5.276,5.074-10.672,7.888-15.965
		c5.362-10.203,9.671-16.004,20.499-27.614c11.412-12.239,24.343-23.047,38.342-32.21c0.001,0,0.001-0.001,0.002-0.001
		c-3.794-4.063-11.27-12.034-11.27-25.289c0-9.239,3.887-18.406,10.916-25.435c8.344-8.343,20.012-12.558,31.475-12.558
		c9.089,0,18.145,2.651,25.48,8.153c7.948,5.66,13.089,14.66,14.51,24.269c17.955-3.652,47.172-5.344,54.893-4.05
		c0.001,0,0.003,0,0.004,0c0.021-8.19-0.792-16.352-2.379-24.359c-2.378-11.995-6.494-23.643-12.149-34.521
		c-6.23-12.719-16.302-23.019-26.95-32.15c-11.62-9.93-25.45-16.908-39.61-22.47c-21.222-7.778-41.932-10.526-62.465-7.03
		c-21.107,3.594-42.591,13.722-62.68,32.595c-14.039,13.188-22.516,26.422-31.714,45.006c7.18,11.538,12.979,24.023,16.896,37.062
		C428.332,526.097,429.933,548.622,428.648,568.209z"/>
	<path fill="#7F4315" d="M533.753,486.924c13.41-4.532,29.036-2.886,40.479,5.696c7.948,5.66,13.09,14.66,14.51,24.27
		c8.934-1.72,17.99-2.734,27.063-3.343c9.104-0.609,18.744-1.677,27.837-0.707c3.021,0.11,5.631,1.67,7.5,3.99
		c0.492,10.136-1.265,20.216-3.596,30.042c-4.988,21.031-15.364,40.402-30.186,56.474c-13.477,14.611-30.627,26.496-50.747,34.423
		c-29.7,11.133-62.73,13-93.562,5.683c-11.851,9.345-22.015,19.522-27.51,33.83c-2.287,6.665-3.305,13.664-4.431,20.594
		c-2.413,14.857-3.32,16.606-5.609,17.876c-6.098,3.384-22.315-5.081-27.054-8.005c-9.044-5.582-16.515-13.106-22.188-22.076
		c-2.479-4.34-6.736-13.189-7.51-21.17c-1.207-12.479-0.16-25.319,6.42-36.279c7.498-12.609,17.857-20.979,31.45-26.561
		c3.005-1.16,5.755-2.098,7.52,0.3l0.353,0.69c7.02,8.897,15.819,16.59,26.41,20.89c3.807-7.882,7.467-15.863,12.073-23.322
		c4.523-7.323,10.458-13.978,16.314-20.258c11.412-12.239,24.344-23.046,38.342-32.21c-3.794-4.063-11.271-12.034-11.271-25.29
		C506.359,507.504,516.548,492.737,533.753,486.924z"/>
</g>
<g id="Shading">
	<path fill="#48B2D5" d="M494.521,294.424c10.508,3.045,24.378,7.85,37.748,13.42c12.018,5.007,23.63,10.633,32.031,16.155
		c-8.001-3.065-13.571-7.761-33.708-13.683c-12.046-3.542-24.458-5.774-36.953-6.947c-13.097-1.072-26.258-0.598-39.253,1.184
		c-18.922,2.594-38.639,8.105-57.54,16.608c-21.67,9.748-41.921,23.019-60.022,38.71c-14.588,12.646-27.781,26.865-39.194,42.078
		c-11.77-2.182-23.73-2.19-35.65-2.03c15.938-20.741,34.242-40.686,54.758-57.798c20.1-16.766,42.323-30.814,66.524-40.23
		c21.336-8.299,46.148-14.878,69.24-14.618C467.159,287.438,479.343,290.025,494.521,294.424z"/>
	<path fill="#48B2D5" d="M809.04,390c-14.799,9.68-29.542,19.508-43.862,29.903c-9.793,7.109-19.388,14.483-28.668,22.257
		c-3.16-4.771-7.26-8.79-11.49-12.602c10.141-7.779,21.467-14.336,33.229-20.062C769.051,404.238,797.171,392.12,809.04,390z"/>
	<path fill="#48B2D5" d="M67.81,650.76c22.75-7.949,46.97-9.56,70.69-12.647c1.31,4.64,4.24,8.5,7.51,11.938
		c-7.023-1.763-14.309-1.028-21.464-1.107c-7.832-0.089-15.918,1.207-23.721,1.932c-15.827,1.469-31.718,3.448-46.964,8.117
		C57.33,654.63,62.79,652.7,67.81,650.76C90.56,642.811,62.79,652.7,67.81,650.76z"/>
	<path fill="#08447B" d="M868.07,364.82c-0.102,17.066-1.041,34.127-2.79,51.104c-3.378,32.789-7.834,44.819-15.802,57.213
		c-10.454,16.26-27.082,31.838-46.502,48.898c-16.747,14.715-34.357,28.424-52.196,41.786c7.31,11.785,14.875,23.714,21.746,35.998
		c8.171,14.608,15.362,29.718,19.976,45.682c4.282,14.815,7.359,29.98,9.138,45.3c1.874,16.131,0.097,32.495-0.971,48.62
		c-16.711-33.279-25.147-48.874-31.952-59.844c-11.225-18.097-32.989-45.565-32.989-45.565c0.629-8.616-0.343-18.104-3.607-40.459
		c-1.974-13.513-4.583-27.085-7.824-40.671c-4.115-17.249-9.188-34.269-15.127-50.978c-6.385-17.968-13.718-35.586-21.886-52.813
		c-6.061-12.785-12.683-25.553-19.711-38.116c-12.587-22.507-14.458-23.25-16.575-29.69c9.341,8.928,18.432,18.114,27.396,27.42
		c6.068,6.298,12.139,12.514,17.746,19.156c7.072,8.376,13.582,17.709,20.768,31.935c7.199,14.25,12.932,29.247,19.13,44.017
		c16.232-5.961,32.763-11.915,48.598-18.869c22.723-9.98,30.533-17.574,41.612-28.739c10.6-11.812,16.82-26.84,20.79-42.05
		c3.8-16.2,5.12-32.88,4.89-49.49C857.727,364.66,863.082,364.718,868.07,364.82z"/>
	<path fill="#08447B" d="M41.49,667.66c8.987,6.057,16.744,13.366,26.322,18.618c10.001,5.483,20.795,9.354,31.728,12.515
		c23.065,6.667,46.686,9.705,70.38,13.157c-0.16,6.75-0.41,13.489-0.35,20.239c-20.697-5.858-41.546-11.314-62.15-17.486
		c-18.714-5.605-37.667-11.771-53.149-24.083C47.15,685.061,43,676.431,41.49,667.66C48.36,672.29,43,676.431,41.49,667.66z"/>
	<path fill="#08447B" d="M210.7,691.54c-4.64,5.008,6.867,40.679,6.867,44.503c-3.757,16.57-4.591,37.633-3.779,54.529
		c1.021,21.215,4.665,42.281,9.122,63.027c-9.269-12.366-17.658-24.6-24.024-38.744c-6.457-14.348-11.518-29.154-14.95-44.51
		c-3.499-15.651-7.075-31.66-7.803-47.72c-0.748-16.515,1.076-33.055,4.147-49.266C189.699,680.547,200.106,686.338,210.7,691.54z"
		/>
	<path fill="#08447B" d="M732.09,834.009c7.197,5.433,9.667,12.863,13.468,16.664c1.826,1.826,4.156,3.2,7.072,2.835
		c4.875,13.212,10.188,26.277,14.301,39.757c4.057,13.287,8.146,28.119,4.35,41.943c-2.709,6.82-8.709,12.96-16.25,13.95
		c-7.972,1.42-16.222,0.271-23.709-2.67c-18.552-6.736-40.712-22.951-48.771-32.63c7.993,2.32,16.382,4.704,26.398,4.704
		c7.345,0,18.598-1.362,24.654-5.934c4.97-3.753,8.391-9.902,7.078-21.551c-2.021-18.338-11.431-34.708-22.061-49.389
		C722.737,838.525,727.362,836.104,732.09,834.009z"/>
	<path fill="#E2DCDB" d="M396.22,466.55c6.819,8.535,11.979,18.211,16.091,28.318c6.688,16.428,11.362,35.175,11.362,60.534
		c0,15.634-2.032,31.273-6.103,45.999c-8.013,3.163-16.166,7.771-22.48,13.659c-5.855,6.321-10.902,13.698-13.802,21.854
		c-2.431,6.838-4.542,20.312-2.596,28.198c-10.842,10.438-24.53,17.29-38.222,23.188c-15.342,6.632-31.789,10.154-48.401,11.626
		c-21.354,1.895-43.107,0.422-70.328-9.655c-23.108-9.511-43.189-22.88-60.875-41.646c-14.399-15.281-22.337-31.617-28.778-52.656
		c-6.778-22.143-9.347-45.718-5.648-68.526c1.494,16.622,3.245,39.938,16.734,67.472c7.591,15.494,17.795,29.666,30.496,41.418
		c15.9,14.725,35.562,25.462,56.556,30.859c21.227,5.459,40.927,4.964,61.738,0.125c12.493-2.902,24.633-7.348,36.076-13.125
		c27.96-13.209,50.89-36.851,62.94-65.358c4.516-10.229,7.661-21.126,9.645-32.304c3.497-19.716,3.373-40.297,0.757-59.588
		C400.366,489.449,396.23,466.959,396.22,466.55C406.63,479.58,396.31,469.89,396.22,466.55z"/>
	<path fill="#08447B" d="M452.438,931.813c-9.271,6.471-19.888,14.19-29.478,20.72c-10.147,6.909-20.305,13.813-30.776,20.226
		c-11.17,6.841-26.441,15.94-39.268,21.379c-9.574,4.06-14.374,5.221-24.875,6.793c-5.81,0.511-12.39,1.021-17.33-2.671
		c-4.73-3.989-8.03-10.02-7.84-16.3c-0.083-4.725,0.773-9.311,2.147-13.765c1.423-4.616,3.402-9.089,5.463-13.425
		c2.446,3.142,5.428,5.824,8.769,7.926c4.443,2.796,9.519,4.563,14.81,5.014c8.773,0.893,17.314-0.881,25.433-3.976
		c6.955-2.652,14.471-6.502,22.491-12.019c5.497-3.779,12.148-8.674,15.267-11.935c4.973-0.047,9.948-0.171,14.926-0.626
		c4.826-0.44,12.646-1.347,20.326-2.583C440.457,935.29,448.263,933.654,452.438,931.813z"/>
	<path fill="#E2DCDB" d="M468.76,592.32c-7.66,9.38-12.49,20.59-17.83,31.35c-5.568-2.75-10.816-5.355-15.537-9.473
		c-4.416-3.854-8.155-8.27-12.152-12.527c2.84-10.109,4.38-20.56,5.1-31.01C440.78,579.585,454.012,587.943,468.76,592.32z"/>
	<path fill="#F5C283" d="M636.3,577.37c0.62-1.16,1.37-2.3,2.67-2.76c0.8,0.25,2.4,0.77,3.2,1.02
		c-4.99,17.24-13.64,33.48-26.07,46.511c-15.29,16.359-35.479,27.58-56.76,34.142c-13.232,4.582-27.18,6.743-41.112,7.713
		c-15.032,1.046-29.23-0.438-44.168-2.043c-6.215,3.537-11.47,10.752-14.87,16.884c-8.258,14.887-8.64,28.159-20.51,31.236
		c3.669-17.866,3.535-27.579,9.554-39.442c8.27-16.304,16.074-18.104,24.717-27.646c14.523,3.738,29.575,5.176,44.548,4.506
		c15.974-0.715,31.859-3.826,46.921-9.098c15.963-5.994,30.986-14.867,43.849-26.143C619.548,602.362,629.166,590.629,636.3,577.37
		C636.92,576.21,621.03,605.75,636.3,577.37z"/>
	<path fill="#F5C283" d="M799.03,755.05c-2.915,12.32-6.315,24.816-10.847,36.79c-4.193,11.077-9.354,21.709-15.993,31.343
		c-6.019,8.732-13.252,16.646-22.081,23.327c-4.03-6.59-7.932-13.729-14.4-18.25c-5.1-3.21-10.92,0.4-15.479,2.921
		c-9.5,4.767-15.44,14.374-24.979,19.079c-11.528,5.94-23.741,10.457-36.165,14.126c-25.813,7.623-52.979,7.994-79.658,9.188
		c-13.083,0.586-25.495,2.237-38.001,6.272c-12.15,3.922-23.689,9.015-34.836,15.232c-16.824,9.387-33.348,20.698-51.445,27.695
		c-9.615,3.719-21.63,6.331-33.953,7.973c-20.38,2.714-35.08,2.223-46.363,1.835c-15.337-0.525-37.462-1.726-48.913-6.582
		c-9.534-4.044-19.088-8.398-28.438-13.12c-20.563-10.387-26.381-14.683-37.649-23.714c-13.253-10.622-26.949-22.968-28.098-24.608
		c-5.189-19.699-9.685-39.642-12.052-59.896c-2.3-19.683-3.76-41.778,1.112-61.202c5.745,13.763,12.767,26.976,20.916,39.456
		c8.797,13.476,19.415,26.837,31.184,38.604c12.333,12.333,26.418,23.412,41.141,30.439c17.898-13.712,26.849-23.669,62.993-43.539
		c22.221-12.217,45.663-22.306,69.596-30.65c24.213-8.441,49.051-15.017,74.233-19.822c24.611-4.696,49.55-7.702,74.554-9.105
		c21.837-1.226,43.662-1.09,65.425,0.194c21.803,1.286,43.545,3.726,65.178,7.103c3.045-10.849,4.999-22.252,6.499-33.637
		c1.563-11.854,3.195-27.1,3.926-40.672c0.862-16.026,0.664-27.946,1.006-32.231c10.386,13.189,19.555,27.016,27.992,41.274
		c6.508,10.999,12.551,22.196,18.414,33.616C789.022,734.57,794.032,744.778,799.03,755.05z"/>
	<path fill="#F5C283" d="M380.188,671.594c2.146,7.823,5.146,13.74,10.181,19.996c-9.371,4.712-15.299,10.131-35.704,16.728
		c-12.556,4.06-25.617,6.561-38.787,7.394c-14.067,0.084-27.996,0.28-41.94-1.846c-13.253-2.021-26.309-5.445-38.759-10.437
		c0.589-0.857,1.16-1.729,1.73-2.59c29.056,7.126,58.127,6.441,84.455-0.337C343.444,694.815,363.595,684.842,380.188,671.594z"/>
	<path fill="#FEFEFD" d="M42.83,301.87c-3.03,2.02-3.58,6.35-2.26,9.53c4.065,7.085,16.055,8.048,23.108,9.988
		c9.896,2.722,19.239,6.149,28.323,10.956c18.592,9.837,34.217,23.12,51.298,35.166c-10.662-15.34-24.687-29.302-39.236-40.962
		c-7.366-5.902-15.154-11.267-23.203-16.192c-8.127-4.973-16.979-10.56-26.861-10.426C50.27,300.02,45.98,299.43,42.83,301.87
		C39.8,303.89,45.98,299.43,42.83,301.87z"/>
	<path fill="#FEFEFD" d="M155.39,314.42c2.11,0.04,4.44-0.41,6.311,0.86c3.97,2.38,6.36,6.53,8.6,10.43c3.76,6.6,5.97,14.01,7,21.52
		c-3.237-4.431-5.594-9.445-8.996-13.762c-3.66-4.645-9.019-7.531-12.634-12.178C154.28,319.23,155.28,316.68,155.39,314.42
		C157.5,314.46,155.28,316.68,155.39,314.42z"/>
	<path fill="#FEFEFD" d="M56.6,401.6c4.92-3.85,11.46-3.71,17.38-3.59c17.62-0.2,34.61,5.812,50.18,13.61
		c-10.443,0.583-20.915-3.177-31.425-3.329c-10.673-0.154-21.077,3.08-31.764,2.768c-2.01-0.21-4.51-0.368-5.69-2.278
		C54.58,406.43,54.31,403.17,56.6,401.6C61.52,397.75,54.31,403.17,56.6,401.6z"/>
	<path fill="#A85D13" d="M364.855,556.762c-0.639,8.739-3.461,16.908-7.931,23.944c-4.995,7.862-12.047,14.311-20.413,18.561
		c-7.037,3.576-15.001,5.597-23.452,5.597c-8.339,0-16.67-2.008-24.318-6.085c-7.996-4.267-14.801-10.585-19.642-18.335
		c-4.6-7.365-7.425-16.024-7.812-25.447c-0.337-8.276,1.291-16.172,4.468-23.243c3.971-8.846,10.507-16.667,19.016-22.221
		c8.418-5.495,18.552-8.624,29.479-8.403c9.666,0.194,18.643,3.045,26.276,7.824c8.937,5.595,16.031,13.833,20.232,23.544
		C363.962,539.901,365.483,548.163,364.855,556.762z"/>
	<path fill="#AF6E35" d="M420.204,606.711c-16.111,5.972-23.905,14.531-29.877,24.577c-5.256,8.754-7.167,19.333-5.857,32.363
		c0.452,4.495,4.714,15.238,6.933,18.927c5.323,8.852,12.888,15.656,21.724,20.857c8.694,5.118,13.714,7.325,16.689,7.396
		c4.958,0.117,4.237-5.7,5.387-13.867c1.028-7.313,2.203-14.869,4.737-21.834c2.56-6.665,5.938-13.062,10.394-18.66
		c4.003-5.03,9.075-8.678,13.714-13.044c0.001-0.002,5.184-3.327-4.5-9.246c-8.518-5.206-10.683-3.39-23.734-12.764
		C429.887,617.16,424.44,612.186,420.204,606.711z"/>
	<path fill="#FAE3B7" d="M586.6,523.46c13.646-2.899,43.494-7.076,57.102-4.45c-1.53,11.19-2.23,22.602-5.63,33.44
		c-5.302,17.03-14.393,32.979-26.932,45.729c-12.37,13.159-27.658,23.489-44.26,30.562c-17.3,6.894-35.725,10.22-54.299,10.899
		c-19.922,0.729-38.539-5.518-57.231-11.57c6.229-13.099,12.42-25.95,21.808-37.128c9.063-10.791,19.627-20.371,30.785-28.943
		C531.166,544.154,558.039,530.36,586.6,523.46C602.84,520.01,572.65,526.83,586.6,523.46z"/>
</g>
<g id="Overlay">
	<path fill="#F37C00" d="M306.33,507.4c10.14-1.46,20.78,0.438,29.65,5.63c11.68,6.52,20.05,18.488,22.438,31.63
		c1.67,10.16,0.32,20.938-4.7,30.01c-6.148,11.761-17.71,20.5-30.688,23.28c-13.91,3.229-29.17-0.69-39.95-10.021
		c-10.35-8.801-16.35-22.359-16.11-35.921c0.33-10.76,4.4-21.39,11.55-29.46C285.62,514.42,295.67,509.01,306.33,507.4
		C316.47,505.94,295.67,509.01,306.33,507.4z"/>
	<path fill="#F37C00" d="M549.03,490.04c9.979,0.47,20.238,4.22,26.858,11.95c4.062,4.42,6.021,10.188,7.23,15.96
		c-21.036,5.258-42.194,14.708-60.42,26.34c-3.732-3.13-6.667-7.178-8.509-11.667c-2.977-7.258-3.001-14.822,1.092-23.022
		c2.976-5.96,7.786-10.852,13.743-14.215C535.078,491.968,542.105,490.22,549.03,490.04z"/>
	<path fill="#DD951D" d="M394.7,664.14c-3.82-18.14,3.8-38.55,19.188-49.079c2.479,4.975,5.079,9.998,8.94,14.062
		c3.864,4.514,9.119,7.478,13.398,11.54c-9.43,5.271-17.13,13.91-20.06,24.43c-3.09,9.04-1.93,18.682-2.01,28.04
		C404.78,685.92,397.26,675.83,394.7,664.14C390.88,646,397.26,675.83,394.7,664.14z"/>
	<path fill="#F5C283" d="M545.98,600.061c35.68-6.33,69.55-24.58,93.27-52.141c-0.93,6.36-3.62,12.26-6.14,18.11
		c-12.82,29.148-38.44,51.479-67.592,63.5c-17.407,6.605-35.869,10.031-54.482,10.383c-19.321,0.363-37.856-5.424-55.877-11.833
		c5.47-11.67,10.85-23.563,18.93-33.7C496.945,602.873,522.063,604.034,545.98,600.061C581.66,593.73,522.15,604.02,545.98,600.061z
		"/>
</g>
<g id="EyesCore">
	<path fill="#090C0D" d="M557.67,516.37c2.01,2.898,1.54,6.6,0.19,9.67c-4.362,2.002-8.152,3.919-10.691,4.972
		c-2.419,0.082-4.868,0.261-7.619-2.16c-2.508-2.208-3.938-5.226-3.37-8.599c0.573-3.399,3.108-6.601,7.161-8.073
		C548.402,510.343,554.737,511.571,557.67,516.37z"/>
	<path fill="#090C0D" d="M327.84,549.24c2.01,7.35-2.398,15.688-9.66,18.068c-7.56,2.95-16.85-1.52-19.38-9.198
		c-3.12-7.74,1.74-17.28,9.681-19.61C316.466,535.685,325.957,540.986,327.84,549.24z"/>
</g>
</svg>
