<?xml version="1.0" encoding="utf-8"?>
<!-- Generator: Adobe Illustrator 15.0.0, SVG Export Plug-In . SVG Version: 6.00 Build 0)  -->
<!DOCTYPE svg PUBLIC "-//W3C//DTD SVG 1.1//EN" "http://www.w3.org/Graphics/SVG/1.1/DTD/svg11.dtd">
<svg version="1.1" xmlns="http://www.w3.org/2000/svg" xmlns:xlink="http://www.w3.org/1999/xlink" x="0px" y="0px" width="2048px"
	 height="1152px" viewBox="0 0 2048 1152" enable-background="new 0 0 2048 1152" xml:space="preserve">
<g id="Outline">
	<path fill="#090C0D" d="M429.09,272.06c44.73-5.5,90.11,6.44,129.57,27.27c32.54,16.57,61.25,39.57,88.22,63.96
		c17.45,15.9,34.21,32.57,50.28,49.86c18.35-10.47,36.63-21.09,55.47-30.66c18.86-9.2,37.98-18.55,58.62-23
		c18.11-2.85,36.52-2.52,54.8-2.42c2.71-0.1,5.06,1.49,7.53,2.41c0.96,2.42,2.35,4.84,2.12,7.54c-0.47,21.38-1.56,42.79-4.63,63.98
		c-2.42,15.24-5.22,31.09-13.95,44.17c-8.94,13.7-20.35,25.58-32.05,36.93c-20.16,19.32-41.99,36.85-64.2,53.72
		c10.24,16.45,20.04,33.23,28.68,50.59c6.67,13.109,10.68,27.35,14.08,41.609c2.97,12.811,5.13,25.82,6.26,38.931
		c0.69,18.399-0.45,51.402-4.01,66.069c-6.85,28.216-17.26,55.721-36.69,77.201c-3.07,3.5-6.59,6.569-10.19,9.52
		c7.08,19.74,14.86,39.46,18.12,60.279c1.08,6.601,1.15,13.331,0.72,19.99c-0.61,9.801-7.16,18.78-15.9,23.01
		c-12.42,4.541-26.19,1.92-38.13-2.89c-17.25-7.03-32.37-18.41-46.08-30.86c-14.2-12.72-25.9-27.839-38.15-42.359
		c-13.16,1.47-26.312,3.16-39.54,3.72c-15.678,0.663-31.74-2.061-47.09,2.24c-13.83,3.87-27.192,9.073-39.82,16.319
		c-20.594,11.817-39.56,26.261-58.68,40.32c-21.32,15.71-43.24,30.63-66.1,44c-13.22,7.34-26.38,15.13-40.83,19.851
		c-10.5,3.04-21.77,5.229-32.64,2.989c-6.84-1.229-11.8-6.8-14.62-12.83c-3.11-5.609-3.04-12.289-2.39-18.479
		c1.34-11.63,6.57-22.25,11.33-32.78c1.979-4.51,4.939-8.46,7.8-12.43c-15.62-7.32-31.4-14.44-46.08-23.54
		c-16.77-11.319-33.011-23.836-46.88-38.38c-12.268-12.865-22.1-28.16-29.56-44.43c-5.48-11.561-10.15-23.5-14.01-35.69
		c-4.44-15.63-7.17-31.67-10.28-47.59c-19.1-5.25-38.11-10.811-57.23-16c-12-3.25-23.78-7.261-35.41-11.64
		c-10.07-3.791-19.51-9.221-27.93-15.921c-8.58-6.659-13.82-16.989-15.56-27.579c-2.1-12.971,7.74-25.2,19.51-29.45
		c26.32-9.89,54.74-10.95,82.229-15.43c-4.57-10.741-8.9-21.62-11.97-32.891c-5.66-24.63-7.1-50.48-1.69-75.28
		c3.68-19.42,11.033-38.203,22.17-54.61c23.69-34.9,52.69-47.9,80.41-58.04c15.83-17.66,31.57-35.45,48.41-52.17
		c13.35-13.54,28.57-25.07,44.07-36.01c13.43-9.29,27.39-17.91,42.25-24.75C381.48,280.65,405.22,275.05,429.09,272.06z"/>
	<path fill="#090C0D" d="M757.27,361.35c4-1.78,8.3-2.99,12.72-2.74c-1.76,2.87-5.24,3.95-8.19,5.19
		c-12.85,4.83-24.9,11.74-35.26,20.77c-2.2,2.02-4.75,3.64-7.58,4.62c2.54-7.08,9.27-11.08,15.04-15.28
		C741.1,368.61,749.2,364.9,757.27,361.35z"/>
	<path fill="#090C0D" d="M722,364.86c1.29-0.92,2.89-0.87,4.41-0.9c-2.19,4.24-7.31,5.61-10.521,8.96
		c-3.72,2.52-5.88,7.24-10.399,8.45c0.34-1.47,0.57-3.06,1.72-4.15C711.57,372.48,716.51,368.24,722,364.86z"/>
	<path fill="#090C0D" d="M66.54,604.1c10.27-2.39,22.05-1.39,30.79,4.931c-6.23-0.091-12.15-2.29-18.31-2.9
		C74.84,605.61,70.65,605.061,66.54,604.1z"/>
	<path fill="#090C0D" d="M39.44,627.48c9.95-2.75,20.27-4.25,30.6-4.2c5.07,0.22,10.25,0.64,14.98,2.62
		c-2.62,0.72-5.32,1.09-8.04,1.09c-14.84-0.11-29.9,1.23-44.04,5.98c-2.24,0.799-4.61,1.079-6.99,1.079
		C29.71,630.59,34.64,628.91,39.44,627.48z"/>
	<path fill="#090C0D" d="M61.9,716.67c14.05,4.63,27.92,9.811,41.36,16.011c-8.23,0.22-16.26-2.011-23.89-4.9
		C72.94,725.2,66.21,722.37,61.9,716.67z"/>
	<path fill="#090C0D" d="M76.66,742.6c3.1,0.831,5.88,2.461,8.65,4.021c3.33,1.92,7.08,3.03,10.23,5.26
		C88.34,751.689,81.37,747.96,76.66,742.6z"/>
</g>
<g id="Color">
	<path fill="#2F85A9" d="M405.27,281.21c23.16-5.05,47.3-7.88,70.82-3.64c18.88,3.31,37.19,9.29,54.92,16.5
		c14.68,6.05,29.04,12.95,42.65,21.14c13.96,8.75,26.63,19.37,39.06,30.14c28.94,25.41,55.81,53.06,82.351,80.95
		c17.55-11.33,35.08-22.74,53.3-32.98c11.89-6.37,24.1-12.16,36.54-17.37c10.19-4.13,20.62-8.01,31.55-9.59
		c17.06-2.15,34.28-1.66,51.43-1.52c-0.01,18.41-1.16,36.83-3.15,55.14c-1.42,11.82-3.17,23.68-6.68,35.09
		c-4.34,14.6-14.59,26.35-24.54,37.47c-25.04,26.6-53.71,49.47-82.94,71.25c9.93,15.78,19.44,31.84,28.15,48.33
		c5.17,9.71,9.75,19.771,12.78,30.37c4.79,15.899,8.19,32.23,10.07,48.73c1.84,16.049-0.13,32.18-1,48.219
		c-4.05-9.06-8.72-17.819-13.2-26.67c-6.53-12.609-13.15-25.22-21.13-36.979c-10.69-16.109-21.89-31.97-34.89-46.319
		c-9.34-10.61-20.04-19.931-31.07-28.74c-14.12-11.05-29.07-21.351-45.64-28.38c-4.51-2.01-9.26-3.46-13.65-5.71
		c2.51-4.75,4.11-9.92,5.4-15.12c2.87-11.32,5.31-22.94,4.74-34.69c-0.05-14.49-1.4-29.16-5.91-43c-4.27-13.07-9.77-25.96-18.09-37
		c-8.76-11.15-19.34-20.87-31.04-28.86c-15.33-9.8-32.25-17.26-50.02-21.27c-19.59-4.71-40.62-4.98-59.86,1.43
		c-23.9,7.35-61.72,25.37-85.45,75.01c-11.19-14.7-24.69-27.71-40.44-37.44c-21.48-14.25-46.68-22.32-72.23-24.9
		c-8.96-1.41-18.07-0.57-27.1-0.8c-8.7,0.34-17.39,1.3-25.94,2.96c16.63-19.25,33.21-38.66,51.76-56.11
		c19.29-16.75,39.77-32.32,62-44.99C366.27,291.75,385.7,285.67,405.27,281.21z"/>
	<g>
		<path fill="#D2A263" d="M37.06,297.13c5.2-5.13,13.18-5.5,20.02-4.75c10.74,1.2,20.12,6.95,29.14,12.46
			c12.439,7.91,24.47,16.61,35.08,26.89c9.2,8.84,18.08,18.06,25.8,28.24c2.77,3.12,4.7,6.95,5.48,11.05
			c0.48,2.2-1.51,4.3-3.56,4.74c-3.36,1-6.53-0.91-9.75-1.57c-19.54-15.59-39.54-31.27-62.81-40.94c-9.07-3.37-18.49-5.63-27.8-8.18
			c-5.53-1.62-11.22-4.391-14.22-9.55C30.71,309.84,32.04,301.61,37.06,297.13z M42.83,301.87c-3.03,2.02-3.58,6.35-2.26,9.53
			c2.06,3.59,6.16,5.26,9.939,6.4c10.68,3.041,21.61,5.44,31.86,9.8c10.71,4.87,20.87,10.88,30.69,17.34
			c10.46,7.01,19.96,15.32,30.24,22.57c-6.86-9.87-15.2-18.59-23.74-27.02c-13.25-13.46-28.77-24.54-45.1-33.93
			c-6.26-3.59-13.1-6.73-20.46-6.63C50.27,300.02,45.98,299.43,42.83,301.87z"/>
	</g>
	<path fill="#FEFEFD" d="M42.83,301.87c3.15-2.44,7.44-1.85,11.17-1.94c7.36-0.1,14.2,3.041,20.46,6.63
		c16.33,9.39,31.85,20.47,45.1,33.93c8.54,8.43,16.88,17.15,23.74,27.02c-10.28-7.25-19.78-15.56-30.24-22.57
		c-9.82-6.46-19.98-12.47-30.69-17.34c-10.25-4.36-21.18-6.76-31.86-9.8c-3.78-1.14-7.88-2.81-9.939-6.4
		C39.25,308.22,39.8,303.89,42.83,301.87z"/>
	<g>
		<path fill="#D2A263" d="M153.07,308.01c6.189-3.149,13.53,0.351,17.76,5.19c6.76,8.28,11.22,18.35,13.2,28.83
			c0.73,4.149-0.02,8.46-1.51,12.37c-4.54,2.36-9.81-0.49-12.48-4.35c-2.57-4.08-4.8-8.4-7.81-12.2
			c-4.18-5.17-10.71-8.23-13.84-14.28C145.46,318.29,147.33,310.52,153.07,308.01z M155.39,314.42c-0.11,2.26-1.11,4.81,0.28,6.87
			c2.77,3.56,6.7,5.95,9.88,9.12c5,4.79,7.71,11.29,11.75,16.82c-1.03-7.51-3.24-14.92-7-21.52c-2.24-3.9-4.63-8.05-8.6-10.43
			C159.83,314.01,157.5,314.46,155.39,314.42z"/>
	</g>
	<path fill="#FEFEFD" d="M155.39,314.42c2.11,0.04,4.44-0.41,6.311,0.86c3.97,2.38,6.36,6.53,8.6,10.43c3.76,6.6,5.97,14.01,7,21.52
		c-4.04-5.53-6.75-12.03-11.75-16.82c-3.18-3.17-7.11-5.56-9.88-9.12C154.28,319.23,155.28,316.68,155.39,314.42z"/>
	<g>
		<path fill="#D2A263" d="M49.06,398.97c5.27-6.96,14.68-8.89,22.94-8.91c19.67,0.53,39.27,5.86,56.33,15.7
			c3.49,3.21,7.6,7.56,6.13,12.73c-1.97,2.1-4.47,3.39-7.42,2.79c-4.46-1.94-9.37-2.33-14.11-3.18
			c-8.589-1.29-17.25-2.93-25.959-2.13c-7.67,0.76-15.25,2.27-22.94,2.84c-5.459,0.36-11.53-1.28-14.91-5.86
			C46.02,408.91,46.43,403.13,49.06,398.97z M56.6,401.6c-2.29,1.57-2.02,4.83-1.32,7.18c1.18,1.91,3.68,2.07,5.69,2.28
			c8.56,0.25,16.97-1.72,25.45-2.54c11.07-1.01,22.03,1.46,32.92,3.08c1.6,0.15,3.209,0.11,4.819,0.02
			c-15.569-7.8-32.56-13.81-50.18-13.61C68.06,397.89,61.52,397.75,56.6,401.6z"/>
	</g>
	<path fill="#FEFEFD" d="M498.57,392.48c21.42-4.33,43.68-0.58,63.979,6.86c14.16,5.56,27.99,12.54,39.61,22.47
		c10.65,9.13,20.72,19.43,26.95,32.15c9.43,18.14,14.58,38.42,14.53,58.88c-5.53-0.59-11.08-0.03-16.61,0.14
		c-12.84,0.46-25.67,1.48-38.29,3.91c-1.42-9.61-6.561-18.61-14.51-24.27c-17.73-13.3-45.51-9.94-59.52,7.25
		c-7.97,9.35-10.63,23-6.09,34.5c1.77,5.18,5.33,9.44,9.01,13.38c-20.41,13.36-38.53,30.2-52.99,49.86
		c-5.41,8.18-9.49,17.13-13.74,25.93c-10.59-4.3-19.39-11.99-26.41-20.89l-0.351-0.69c-0.2-4.37,1.42-8.529,2.061-12.8
		c3.22-19.2,3.86-38.89,1.3-58.21c-2.37-21.69-10.32-42.58-21.81-61.04C420,441,431,429.5,450.11,413.91
		C464.63,403.65,481.27,396.49,498.57,392.48z"/>
	<path fill="#FEFEFD" d="M56.6,401.6c4.92-3.85,11.46-3.71,17.38-3.59c17.62-0.2,34.61,5.81,50.18,13.61
		c-1.61,0.09-3.22,0.13-4.819-0.02c-10.89-1.62-21.85-4.09-32.92-3.08c-8.48,0.82-16.89,2.79-25.45,2.54
		c-2.01-0.21-4.51-0.37-5.69-2.28C54.58,406.43,54.31,403.17,56.6,401.6z"/>
	<g>
		<path fill="#FEFEFD" d="M249.56,406.44c20.63-2.73,41.73-1.38,61.82,4.07c17.82,4.21,34.66,11.98,49.72,22.37
			c17.07,11.31,31.32,26.65,42.19,43.96c9.3,16.23,16.08,34.12,18.33,52.77c3.14,23.85,2.13,48.43-4.14,71.71l-0.86,0.34
			c-5.24,2.15-10.13,5.08-14.94,8.05c-7.189,4.39-12.27,11.38-16.51,18.511c-6.58,10.96-7.86,24.189-7.29,36.71l-0.25,1.089
			c-10.92,10.021-24.4,16.75-37.94,22.511c-20.67,8.75-43.3,12.02-65.64,12.1c-18.82-0.56-37.59-4.58-55.06-11.59
			c-16.68-7.271-32.5-16.771-46.04-28.99c-11.791-10.68-23.18-22.45-30.061-36.979c-9.66-19.68-16.25-41.1-17.25-63.09
			c-2.15-25.78,2.41-51.94,12.44-75.75c4.03-9.45,9.66-18.13,15.83-26.32c6.32-8.27,13.32-16.1,21.47-22.61
			c10.57-8.14,22.63-14.11,34.95-19.08C222.86,411.14,236.07,407.66,249.56,406.44z M306.41,501.61
			c-16.36,1.87-31.37,12.38-39.02,26.91c-5.54,10.13-7.38,22.2-5.319,33.55c2.38,14.41,11.42,27.46,23.839,35.081
			c10.69,6.6,23.86,9.21,36.23,6.869c15.081-2.5,28.78-12.25,36.16-25.64c5.86-10.31,8.08-22.76,5.82-34.43
			c-2.44-14.94-12.06-28.52-25.23-35.94C329.18,502.41,317.51,499.96,306.41,501.61z"/>
	</g>
	<g>
		<path fill="#7F4315" d="M514.71,499.87c14.01-17.19,41.79-20.55,59.52-7.25c7.95,5.66,13.09,14.66,14.51,24.27
			c12.62-2.43,25.45-3.45,38.29-3.91c5.53-0.17,11.08-0.73,16.61-0.14c3.02,0.11,5.63,1.67,7.5,3.99
			c0.57,11.75-1.87,23.37-4.74,34.69c-1.29,5.2-2.89,10.37-5.4,15.12c-1.33,2.42-2.57,4.88-3.73,7.38c0.73,0.25,2.17,0.74,2.89,0.99
			l-0.95,0.11c-0.39,0.05-1.17,0.13-1.55,0.18c-14.82,28.74-41.15,50.69-71.05,62.47c-29.7,11.131-62.73,13-93.56,5.681
			c-3.64,2.87-6.72,6.41-10.46,9.18c-8,6.29-13.44,15.25-17.05,24.65c-3.6,10.489-4.04,21.71-6.74,32.42
			c-0.68,2.819-0.786,4.655-3.3,6.05c-5.414,3.004-12.19-1.12-17.86-3.27c-5.46-2.28-10.593-5.336-15.26-8.931
			c-6.88-5.3-11.82-11.079-16.12-17.88c-2.48-4.34-6.738-13.191-7.51-21.17c-1.207-12.479-0.16-25.319,6.42-36.279
			c4.24-7.131,9.32-14.121,16.51-18.511c4.811-2.97,9.7-5.899,14.94-8.05c3.005-1.16,5.755-2.098,7.52,0.3l0.351,0.69
			c7.02,8.899,15.82,16.59,26.41,20.89c4.25-8.8,8.33-17.75,13.74-25.93c14.46-19.66,32.581-36.5,52.99-49.86
			c-3.68-3.94-7.24-8.2-9.01-13.38C504.08,522.87,506.74,509.22,514.71,499.87z M520.79,501.8c-5.28,5.37-8.36,12.72-8.77,20.21
			c0.07,8.54,4.16,16.81,10.68,22.28c7.24-4.62,14.82-8.65,22.56-12.38c-0.4-0.18-1.2-0.53-1.59-0.71
			c5.15,0.37,10.08-2.28,14.19-5.16c8.5-2.43,16.66-5.94,25.26-8.09c-1.21-5.77-3.17-11.54-7.23-15.96
			c-6.62-7.73-16.88-11.48-26.86-11.95C538.64,490.31,528.01,494.11,520.79,501.8z M586.6,523.46
			c-13.95,3.37-27.38,8.65-40.35,14.74c-17.26,8.15-33.09,19.11-47.7,31.34c-11.84,10.49-23.28,21.79-31.51,35.42
			c-4.29,7.5-7.98,15.31-11.69,23.11c11.58,3.75,23.17,7.63,35.12,10.06c9.4,1.32,18.959,2.19,28.44,1.011
			c16.41-0.75,32.71-4.32,47.97-10.4c16.6-7.07,31.89-17.4,44.26-30.56c12.54-12.75,21.63-28.701,26.93-45.73
			c3.399-10.84,4.1-22.25,5.63-33.44c-2.54-0.49-5.09-1-7.67-0.93C619.44,518.44,602.84,520.01,586.6,523.46z"/>
	</g>
	<path fill="#F37C00" d="M520.79,501.8c7.22-7.69,17.85-11.49,28.24-11.76c9.98,0.47,20.24,4.22,26.86,11.95
		c4.06,4.42,6.02,10.19,7.23,15.96c-8.6,2.15-16.76,5.66-25.26,8.09c1.35-3.07,1.82-6.77-0.19-9.67c-4.7-7.69-18.1-6.2-21.05,2.32
		c-2.22,5.33,1.99,10.92,7.05,12.51c0.39,0.18,1.19,0.53,1.59,0.71c-7.74,3.73-15.32,7.76-22.56,12.38
		c-6.521-5.47-10.61-13.74-10.68-22.28C512.43,514.52,515.51,507.17,520.79,501.8z"/>
	<g>
		<path fill="#A85D13" d="M306.41,501.61c11.1-1.65,22.77,0.8,32.48,6.4c13.17,7.42,22.79,21,25.23,35.94
			c2.26,11.67,0.04,24.12-5.82,34.43c-7.38,13.39-21.08,23.14-36.16,25.64c-12.37,2.341-25.54-0.27-36.23-6.869
			c-12.419-7.62-21.459-20.67-23.839-35.081c-2.061-11.35-0.22-23.42,5.319-33.55C275.04,513.99,290.05,503.48,306.41,501.61z
			 M306.33,507.4c-10.66,1.61-20.71,7.02-27.81,15.15c-7.15,8.07-11.22,18.7-11.55,29.46c-0.24,13.56,5.76,27.12,16.11,35.921
			c10.78,9.329,26.04,13.25,39.95,10.02c12.98-2.78,24.541-11.52,30.69-23.28c5.02-9.07,6.37-19.85,4.7-30.01
			c-2.39-13.14-10.76-25.11-22.44-31.63C327.11,507.84,316.47,505.94,306.33,507.4z"/>
	</g>
	<g>
		<path fill="#F37C00" d="M306.33,507.4c10.14-1.46,20.78,0.44,29.65,5.63c11.68,6.52,20.05,18.49,22.44,31.63
			c1.67,10.16,0.32,20.94-4.7,30.01c-6.15,11.761-17.71,20.5-30.69,23.28c-13.91,3.23-29.17-0.69-39.95-10.02
			c-10.35-8.801-16.35-22.361-16.11-35.921c0.33-10.76,4.4-21.39,11.55-29.46C285.62,514.42,295.67,509.01,306.33,507.4z
			 M308.48,538.5c-7.94,2.33-12.8,11.87-9.68,19.61c2.53,7.68,11.82,12.15,19.38,9.2c7.26-2.38,11.67-10.72,9.66-18.07
			C325.96,541,316.48,535.68,308.48,538.5z"/>
	</g>
	<path fill="#090C0D" d="M536.62,518.69c2.95-8.52,16.35-10.01,21.05-2.32c2.01,2.9,1.54,6.6,0.19,9.67
		c-4.11,2.88-9.04,5.53-14.19,5.16C538.61,529.61,534.4,524.02,536.62,518.69z"/>
	<path fill="#FAE3B7" d="M586.6,523.46c16.24-3.45,32.84-5.02,49.43-5.38c2.58-0.07,5.13,0.44,7.67,0.93
		c-1.53,11.19-2.23,22.6-5.63,33.44c-5.3,17.03-14.391,32.98-26.93,45.73c-12.37,13.159-27.66,23.489-44.26,30.56
		c-15.26,6.08-31.56,9.65-47.97,10.4c-9.48,1.18-19.04,0.31-28.44-1.011c-11.95-2.43-23.541-6.31-35.12-10.06
		c3.71-7.801,7.4-15.61,11.69-23.11c8.23-13.63,19.67-24.93,31.51-35.42c14.61-12.23,30.44-23.19,47.7-31.34
		C559.22,532.11,572.65,526.83,586.6,523.46z"/>
	<path fill="#090C0D" d="M308.48,538.5c8-2.82,17.48,2.5,19.36,10.74c2.01,7.35-2.4,15.69-9.66,18.07
		c-7.56,2.95-16.85-1.52-19.38-9.2C295.68,550.37,300.54,540.83,308.48,538.5z"/>
	<path fill="#FAE3B7" d="M637.66,575.3c0.38-0.05,1.16-0.13,1.55-0.18c3.6,0.39,6.85,2.14,10.19,3.44
		c14.26,5.83,27.25,14.31,39.56,23.489c10.37,7.82,20.32,16.23,29.5,25.44c11.21,11.32,20.74,24.13,29.99,37.05
		c7.76,11.06,15.39,22.24,21.88,34.1c10.15,18.471,19.44,37.41,28.59,56.391c-4.91,23.989-12.85,47.75-26.8,68.08
		c-6.14,8.8-13.49,16.739-22,23.29c-3.41-5.881-6.99-11.82-12.04-16.45c-2.16-2.02-5.06-3.66-8.12-3.05
		c-4.49,0.919-8.44,3.41-12.34,5.71c-7.99,4.79-13.39,12.93-21.76,17.2c-10.88,5.779-22.51,10.029-34.24,13.729
		c-14.1,4.649-28.87,6.58-43.61,7.76c-15.31,1.65-30.7,1.87-46.06,2.561c-17.15,0.659-33.58,6.38-49.271,12.909
		c-24.72,11.391-46.66,28.291-72.29,37.791c-20.54,6.069-42.11,7.879-63.439,8.189c-14.35-0.22-28.78-0.54-42.98-2.78
		c-6.94-1.46-14.26-1.95-20.66-5.27c-16.43-7.65-33.05-15.07-48.57-24.49c-14.14-9.521-26.75-21.1-39.61-32.25
		c-1.15-1.09-2.53-2.029-3.31-3.42c-10.561-39.95-18.291-82.021-10.69-123.22c3.33-14.04,7.66-28.28,15.96-40.25
		c10.15,2.529,20.48,4.36,30.91,5.189c18.87,0.75,37.85-1.41,56.12-6.17c20.22-5.939,39.54-15.27,56.21-28.22
		c0.6,5.069,3.45,9.46,5.93,13.8c4.3,6.801,9.35,13.38,16.12,17.88c4.9,3.271,9.8,6.65,15.26,8.931c5.67,2.149,11.29,4.869,17.48,5
		c1.47-2.471,3-4.961,3.68-7.78c2.7-10.71,3.14-21.931,6.74-32.42c3.61-9.4,9.05-18.36,17.05-24.65c3.74-2.77,6.82-6.31,10.46-9.18
		c30.83,7.319,63.86,5.45,93.56-5.681C596.51,625.99,622.84,604.04,637.66,575.3z"/>
	<path fill="#2F85A9" d="M57.37,646.29c26.76-9.54,55.47-10.521,83.28-15.09c9.03,15.149,21.76,27.73,35.32,38.86
		c-3.24,11.75-4.78,23.899-5.541,36.05c-0.979,8.62-0.93,17.3-0.939,25.97c-21.19-6.12-42.47-11.92-63.68-17.96
		c-17.26-5.601-35.23-10.8-49.74-22.189c-8.63-6.15-13.99-16.44-14.67-26.94C41.83,656.13,49.26,648.95,57.37,646.29z"/>
	<path fill="#2F85A9" d="M180.35,673.45c6.67,5.36,14.14,9.6,21.61,13.75c9.69,5.14,19.74,9.81,30.41,12.53
		c-8.14,13.959-13.5,29.47-16.57,45.289c-5.56,36.211-0.86,73.12,7.1,108.601c-6.33-8.88-13.24-17.439-18.29-27.149
		c-6.14-11.781-11.14-24.121-15.4-36.701c-3.34-9.97-5.37-20.319-7.52-30.6c-2.62-13.6-5.73-27.25-5.51-41.18
		C175.86,703.04,177.58,688.12,180.35,673.45z"/>
	<path fill="#2F85A9" d="M712.89,846.91c5.41-5.6,12.11-9.771,19.24-12.82c4.62,3.729,7.99,8.69,10.92,13.79
		c1.48,2.98,4.71,4.25,7.33,6c0.52-0.1,1.56-0.3,2.08-0.399c7.69,20.729,16.61,41.33,19.82,63.37
		c0.59,8.319,1.11,17.939-4.78,24.649c-3.4,4.42-8.52,7.431-14.13,7.819c-12.13,1.82-23.8-3.079-34.41-8.35
		c-15.4-8.22-29-19.4-41.38-31.619c-10.72-10.36-19.39-22.531-28.06-34.581c14.96-3.399,29.53-8.43,43.51-14.7
		C700.36,856.87,707.28,852.65,712.89,846.91z"/>
	<path fill="#2F85A9" d="M414.99,939.01c12.43-1.449,24.98-2.949,36.919-6.82c-23.439,16.23-46.47,33.221-71.339,47.271
		c-13.36,7.41-26.53,15.9-41.61,19.31c-7.42,1.61-15.13,3.36-22.71,1.86c-6.38-1.24-10.59-7.21-12.54-13.02
		c-1.7-8.55,0.16-17.45,3.57-25.351c4.11-10.529,10.11-20.199,16.82-29.24c9.69,3.05,19.83,4.55,29.9,5.73
		C374.27,940.39,394.72,941.03,414.99,939.01z"/>
	<g id="Layer_4">
		<path fill="#AF6E35" d="M447.639,628.677c-11.889-6.177-21.399-14.165-27.435-21.966c-0.34,0.126-0.694,0.264-0.986,0.377
			l-0.372,0.145c-4.796,1.974-9.366,4.713-14.014,7.583c-6.558,4.005-11.195,10.905-14.505,16.472
			c-5.256,8.754-7.167,19.333-5.857,32.363c0.452,4.496,4.714,15.24,6.931,18.927c4.364,7.255,10.417,13.111,14.3,15.976
			s9.656,6.458,14.164,8.354c0.979,0.373,10.439,4.95,12.801,3.094c1.167-0.917,2.068-10.272,2.8-14.82
			c1.048-6.511,2.132-13.243,4.398-19.848l0.074-0.203c4.498-11.713,10.872-20.869,18.943-27.216l0.137-0.104
			c1.7-1.26,3.318-2.776,5.027-4.384C464.046,643.425,472.5,638,447.639,628.677z"/>
	</g>
</g>
<g id="Shading">
	<g>
		<path fill="#48B2D5" d="M400.92,295.97c14.59-4.82,29.91-6.59,45.06-8.71c9.02-0.8,18.09,0.23,26.95,1.93
			c19.12,3.67,37.641,9.94,55.68,17.18c12.22,5.17,24.57,10.32,35.69,17.63c-5.979-2.29-11.39-5.8-17.42-7.97
			c-16.96-6.98-35.02-10.95-53.24-12.66c-27.37-2.24-55.02,2.27-80.85,11.36c-35.03,12.53-66.36,34.23-92.16,60.86
			c-8.31,8.19-16,17.03-23,26.36c-11.77-2.18-23.73-2.19-35.65-2.03c6.77-8.81,14.1-17.18,21.45-25.51
			c8-8.31,16.19-16.46,24.47-24.5C334.73,325.83,365.99,305.83,400.92,295.97z"/>
		<path fill="#48B2D5" d="M793.57,394.62c5.069-1.79,10.149-3.67,15.47-4.62c-24.92,16.3-49.68,33.02-72.53,52.16
			c-3.16-4.77-7.26-8.79-11.49-12.6c11.17-8.57,23.84-14.91,36.4-21.15C771.85,403.18,782.65,398.72,793.57,394.62z"/>
		<path fill="#48B2D5" d="M67.81,650.76c22.75-7.949,46.97-9.56,70.69-12.649c1.31,4.64,4.24,8.5,7.51,11.939
			c-7.53-1.89-15.33-0.91-23-1.14c-23.16,2.189-46.75,3.22-69.15,10.08C57.33,654.63,62.79,652.7,67.81,650.76z"/>
	</g>
	<g>
		<path fill="#08447B" d="M851.93,364.66c5.38,0,10.76,0.05,16.14,0.16c-0.11,18.71-1.23,37.43-3.32,56.03
			c-1.84,14.09-3.79,28.42-9.33,41.62c-6.13,13.02-15.94,23.83-25.68,34.24c-24.14,24.8-51.311,46.4-78.96,67.11
			c9.93,16.01,19.61,32.18,28.36,48.861c5.061,9.509,9.48,19.38,12.46,29.759c5.06,16.801,8.57,34.08,10.39,51.531
			c1.13,15.159-0.32,30.329-1.32,45.449c-11.57-23.04-22.62-46.5-37.29-67.78c-7.58-11.29-15.52-22.35-24.12-32.89
			c-1.2-1.561-2.77-2.9-3.53-4.74c0.49-6.699-0.59-13.34-1.1-20c-4.15-41.91-14.33-83.13-29.27-122.479
			c-13.96-37.06-32.1-72.44-52.81-106.16c-0.68-1.3-1.1-2.72-1.55-4.09c15.17,14.5,29.7,29.7,44.09,44.979
			c5.33,6.68,10.54,13.51,14.84,20.91c11.05,17.71,18.07,37.48,26.11,56.64c7.46-2.74,14.71-6.01,22.21-8.65
			c18.15-6.55,36.58-13.29,52.36-24.65c5.9-3.96,10.66-9.29,15.64-14.31c10.6-11.81,16.82-26.84,20.79-42.05
			C850.84,397.95,852.16,381.27,851.93,364.66z"/>
		<path fill="#08447B" d="M41.49,667.66c6.87,4.63,12.75,10.6,19.93,14.811c15.04,9.729,32.37,15.049,49.59,19.409
			c19.35,4.92,39.21,7.2,58.91,10.07c-0.16,6.75-0.41,13.489-0.35,20.239c-18.161-5.14-36.3-10.34-54.51-15.3
			c-11.76-3.2-23.31-7.12-34.71-11.409c-9.42-3.51-18.22-8.61-26.08-14.86C47.15,685.061,43,676.431,41.49,667.66z"/>
		<path fill="#08447B" d="M180.28,673.36c9.41,7.18,19.81,12.97,30.42,18.18c-0.37,0.399-1.1,1.2-1.46,1.6
			c1.35,14.16,3.89,28.28,8.75,41.69c-2.88,12.15-4.27,24.641-4.38,37.13c-0.86,27.511,3.54,54.83,9.3,81.64
			c-6.97-9.3-14.16-18.56-19.38-28.989c-6.47-12.87-11.83-26.311-16.06-40.07c-3.791-13.58-6.3-27.46-8.94-41.29
			C174.07,720.15,175.93,696.32,180.28,673.36z"/>
		<path fill="#08447B" d="M718.62,841.689c4.11-3.159,8.73-5.579,13.47-7.68c4.97,3.75,8.28,9.13,11.41,14.4
			c1.49,2.62,4.52,3.68,6.87,5.37c0.57-0.07,1.69-0.2,2.26-0.271c7.21,19.54,15.43,38.9,19.2,59.49c1.18,7.33,1.43,15-0.55,22.21
			c-2.709,6.82-8.709,12.96-16.25,13.95c-7.97,1.42-16.22,0.271-23.709-2.67c-16.03-5.82-30.15-15.84-42.95-26.93
			c-2.07-1.78-4.08-3.61-5.82-5.7c9.61,2.97,19.12,7.2,29.4,6.93c8.81-0.439,16.95-4.7,23.67-10.2c4.85-5.12,5.82-12.76,5.06-19.51
			C738.66,872.74,729.25,856.37,718.62,841.689z"/>
		<path fill="#08447B" d="M449.58,931.681c0.87,0.119,1.57,0.449,2.09,0.989c-8.63,5.13-16.33,11.67-24.74,17.16
			c-14.56,9.9-29.07,19.93-44.4,28.63c-10.13,5.65-20.05,11.76-30.77,16.28c-7.53,3.27-15.63,4.979-23.72,6.19
			c-5.81,0.509-12.39,1.02-17.33-2.671c-4.73-3.99-8.03-10.02-7.84-16.3c-0.17-9.62,3.56-18.67,7.61-27.19
			c5.7,7.32,14.31,12.15,23.58,12.94c15.14,1.54,29.59-4.86,42.37-12.29c6.78-4.359,13.35-9.08,19.521-14.28
			c-6.85-0.38-13.84,0.841-20.58-0.85c8.54-0.63,17.12-0.05,25.67-0.3c16.45-0.98,32.88-3,48.87-7.06L449.58,931.681z"/>
	</g>
	<g>
		<path fill="#E2DCDB" d="M396.22,466.55c10.41,13.03,16.95,28.72,21.81,44.54c5.84,22.08,6.58,45.32,3.94,67.94
			c-0.9,7.55-2.37,15.03-4.4,22.37l-0.85,0.35c-7.68,3.53-15.4,7.5-21.63,13.311c-7.81,8.43-14.2,18.739-15.94,30.27
			c-1,6.5-2.06,13.29-0.46,19.78c-10.84,10.439-24.53,17.29-38.22,23.189c-20.59,8.9-43.17,12.2-65.47,12.46
			c-18.17-0.38-36.24-4.189-53.26-10.49c-17.98-7.399-34.95-17.529-49.39-30.619c-11.83-10.69-23.09-22.631-29.9-37.23
			c-8.13-16.92-14.24-35.02-16.2-53.76c-1.33-13.69-2.02-27.59,0.19-41.22c0.57,6.34,1.07,12.7,2.04,19.01
			c4.64,33.771,20.01,66.58,45.19,89.88c25.44,23.56,60.51,36.91,95.26,34.52c20.55-1.539,40.73-7.379,59.11-16.66
			c27.96-13.209,50.89-36.85,62.94-65.359c7.48-16.94,11.05-35.39,12.13-53.81c0.15-8.98,0.27-17.98-0.25-26.94
			c-1.45-10.6-2.57-21.27-5.15-31.67C396.87,473.19,396.31,469.89,396.22,466.55z"/>
		<path fill="#E2DCDB" d="M428.34,570.66c12.42,8.91,25.66,17.279,40.42,21.66c-7.66,9.38-12.49,20.59-17.83,31.35
			c-4.09-2.02-8.33-3.84-12-6.58c-5.66-4.32-10.54-9.529-15.2-14.89l-0.49-0.53C426.08,591.561,427.62,581.11,428.34,570.66z"/>
	</g>
	<g>
		<path fill="#DD951D" d="M394.7,664.14c-3.82-18.14,3.8-38.55,19.189-49.079c2.48,4.979,5.07,9.989,8.94,14.06
			c3.87,4.521,9.12,7.479,13.4,11.54c-9.43,5.271-17.13,13.91-20.06,24.43c-3.09,9.04-1.93,18.68-2.01,28.04
			C404.78,685.92,397.26,675.83,394.7,664.14z"/>
	</g>
	<path fill="#F5C283" d="M545.98,600.061c35.68-6.33,69.55-24.581,93.27-52.141c-0.93,6.36-3.62,12.26-6.14,18.11
		c-12.82,29.15-38.44,51.479-67.59,63.5c-14.86,5.64-30.59,9.22-46.5,9.85c-9.56,1.13-19.22,0.38-28.7-1.02
		c-11.94-2.591-23.661-6.19-35.161-10.28c5.47-11.67,10.85-23.561,18.93-33.7l0.19,0.07C497.06,602.88,522.15,604.02,545.98,600.061
		z"/>
	<path fill="#F5C283" d="M636.3,577.37c0.62-1.16,1.37-2.3,2.67-2.76c0.8,0.25,2.4,0.77,3.2,1.02
		c-4.99,17.24-13.64,33.48-26.07,46.511c-15.29,16.359-35.48,27.58-56.76,34.14c-14.21,4.92-29.24,7.05-44.21,7.909
		c-13.73,1.631-27.48-0.779-41.07-2.239c-3.76,2.14-6.46,5.68-9.33,8.83c-7.43,8.56-10.52,19.68-15.23,29.76
		c-2.13,4.5-5.92,8.26-10.82,9.53c1.83-8.91,2.91-17.96,4.94-26.82c1.72-7.8,5.45-15.02,9.99-21.54
		c5.28-7.39,13.3-12.06,19.34-18.729c30.02,7.729,62.29,5.619,91.47-4.59C594.38,627.141,621.03,605.75,636.3,577.37z"/>
	<path fill="#F5C283" d="M737.44,649.6c9.34,11.86,17.84,24.36,25.98,37.07c13.31,22.011,24.37,45.28,35.61,68.38
		c-2.55,10.78-4.8,21.671-8.77,32.04c-8.15,22.66-20.66,44.67-40.15,59.42c-4.03-6.59-7.93-13.729-14.4-18.25
		c-5.1-3.21-10.92,0.4-15.48,2.921c-9.51,4.77-15.43,14.369-24.98,19.079c-12.44,6.41-25.7,11.171-39.15,14.99
		c-15.95,4.689-32.64,5.721-49.12,7.05c-11.3,1.311-22.71,0.7-34.03,1.69c-14.38,0.23-28.29,4.399-41.64,9.41
		c-18.17,6.609-34.27,17.55-51.06,26.919c-12.09,6.381-24.1,13.511-37.6,16.491c-19.21,4.42-38.98,6.06-58.66,6.06
		c-15.331-0.49-30.79-0.681-45.86-3.87c-4.56-0.931-9.29-1.47-13.49-3.59c-16.88-7.841-33.97-15.42-49.91-25.091
		c-12.84-8.599-24.35-18.979-36.01-29.079c-2.291-2.26-5.14-4.04-6.99-6.68c-9.52-36.141-16.84-73.74-12.54-111.24
		c0.4-3.311,0.79-6.631,1.6-9.86c12.82,30.71,32,58.69,55.86,81.88c11.3,10.32,23.51,20,37.38,26.62
		c6.37-4.88,12.18-10.529,18.8-15.12c15.49-12.029,32.37-22.119,49.63-31.369c66.56-34.801,141.17-52.98,215.98-56.79
		c9.82-0.971,19.7-0.37,29.55-0.511c32.83-0.55,65.61,2.91,98.02,7.97c2.02-7.2,2.96-14.62,4.39-21.939
		c3.06-18.27,5.49-36.69,6.04-55.22C737.8,669.23,736.66,659.38,737.44,649.6z"/>
	<path fill="#F5C283" d="M328.357,698.54c18.62-6.03,38.255-16.106,51.83-26.946c2.146,7.823,5.146,13.74,10.18,19.996
		c-5.43,2.73-10.4,6.28-15.92,8.83c-18.3,8.779-38.32,14.01-58.57,15.29c-8.34,0.05-16.69,0.029-25.03-0.021
		c-19.02-1.229-37.95-5.159-55.669-12.26c0.589-0.859,1.16-1.73,1.73-2.59c10.48,2.57,21.14,4.561,31.93,5.21
		C288.888,706.66,309.127,704.35,328.357,698.54z"/>
</g>
</svg>
