<?xml version="1.0" encoding="utf-8"?>
<!-- Generator: Adobe Illustrator 15.1.0, SVG Export Plug-In . SVG Version: 6.00 Build 0)  -->
<!DOCTYPE svg PUBLIC "-//W3C//DTD SVG 1.1//EN" "http://www.w3.org/Graphics/SVG/1.1/DTD/svg11.dtd">
<svg version="1.1" id="Layer_1" xmlns="http://www.w3.org/2000/svg" xmlns:xlink="http://www.w3.org/1999/xlink" x="0px" y="0px"
	 width="595.281px" height="841.89px" viewBox="0 0 595.281 841.89" enable-background="new 0 0 595.281 841.89"
	 xml:space="preserve">
<path fill="#EA5B0C" d="M243.22,514.343c-1.618-0.439-3.347-0.668-5.158-0.668c-10.014,0-20.658,8.109-20.658,23.135
	c0,6.48,2.313,12.129,6.126,16.051l-4.421,13.664l3.776,2.52c3.46,2.307,8.733,3.688,14.106,3.688
	c6.325,0,11.954-1.924,15.851-5.412l0.094-0.086c4.449-4.16,6.521-10.275,6.521-19.244v-18.811c0-3.932,0.071-6.34,0.245-8.309
	l0.575-6.527H243.22L243.22,514.343z M241.567,538.953c0,0.566-0.087,1.027-0.181,1.311c-0.38,1.184-1.274,1.859-2.454,1.859
	c-3.223,0-3.571-3.949-3.571-5.646c0-1.043,0.175-6.248,3.638-6.248c0.51,0,1.865,0,2.5,2.059c0.074,0.244,0.068,0.569,0.068,0.846
	V538.953z"/>
</svg>
