<?xml version="1.0" encoding="utf-8"?>
<!-- Generator: Adobe Illustrator 15.1.0, SVG Export Plug-In . SVG Version: 6.00 Build 0)  -->
<!DOCTYPE svg PUBLIC "-//W3C//DTD SVG 1.1//EN" "http://www.w3.org/Graphics/SVG/1.1/DTD/svg11.dtd">
<svg version="1.1" xmlns="http://www.w3.org/2000/svg" xmlns:xlink="http://www.w3.org/1999/xlink" x="0px" y="0px"
	 width="595.281px" height="841.89px" viewBox="0 0 595.281 841.89" enable-background="new 0 0 595.281 841.89"
	 xml:space="preserve">
<g id="Layer_2">
	<rect x="9.14" y="152.445" stroke="#FFFFFF" stroke-miterlimit="10" width="563" height="568"/>
</g>
<g id="Layer_1">
	<g id="boom">
		<path fill="#EA5B0C" d="M354.128,425.107c0,0,13.643,6.486,61.945,22.725l-30.547-35.021l-16.154-22.484
			c-4.33-6.03-3.91-8.84,2-13.335l61.146-33.27l-63.295-10.21c-7.074-2.256-8.115-4.65-4.938-11.363l9.609-20.292l13.639-28.796
			l-52.838,23.126c-6.805,2.975-9.303,1.909-11.861-5.061L308.8,252.897l-22.994,31.229c-4.404,5.979-7.215,6.457-13.344,2.264
			l-49.181-33.647l11.976,50.15c1.726,7.223,0.212,8.974-7.183,8.313c0,0-67.965-14.895-69.336-15.018l49.938,49.781
			c4.747,5.712,4.286,8.209-2.189,11.847l-40.317,27.016c0,0,41.889,8.694,54.063,11.49c7.237,1.662,8.284,3.881,4.975,10.524
			l-35.487,61.342l59.175-30.055c6.798-2.984,9.352-1.941,12.112,4.953l5.365,13.398l8.862,22.137l22.304-31.721
			c4.271-6.076,6.996-6.508,12.935-2.051l37.588,28.217c-0.068-1.248-2.098-37.596-2.318-41.566
			C345.332,424.097,347.095,422.751,354.128,425.107z"/>
		<polygon fill="#FFED00" points="306.001,273.635 314.941,322.13 368.621,291.105 337.005,343.141 390.08,349.926 339.632,378.966 
			386.042,427.595 327.412,400.764 337.802,453.242 300.662,414.416 277.912,457.865 269.25,410.246 215.654,443.369 
			252.642,386.357 184.962,379.745 241.751,357.963 196.145,317.375 257.656,331.336 236.132,272.922 284.195,316.401 		"/>
		<polygon fill="#FFFFFF" points="301.346,302.688 306.681,337.14 332.843,326.285 323.884,349.633 352.64,357.548 328.548,374.198 
			342.242,395.912 314.876,389.173 323.882,424.433 298.574,400.869 283.204,425.58 275.415,396.705 251.895,406.776 
			260.686,381.495 235.109,374.563 256.285,361.26 239.582,340.496 270.375,341.588 262.028,310.244 287.854,330.556 		"/>
	</g>
	<g id="Text">
		<g id="a">
			<path fill="#EA5B0C" d="M200.848,559.478c-10.332,0-15.906-7.885-15.906-15.303c0-2.377,0.572-7.771,5.208-12.049l-4.14-12.209
				l4.027-2.518c3.786-2.365,8.848-3.725,13.89-3.725c11.469,0,18.316,7.174,18.316,19.188v12.115c0,2.762,0.139,5.135,0.401,6.865
				l1.044,6.898h-17.55C204.452,559.224,202.671,559.478,200.848,559.478z"/>
			<path fill="#FDEB1A" d="M218.689,552.443c-0.292-1.928-0.446-4.508-0.446-7.465v-12.115c0-9.793-5.084-15.188-14.316-15.188
				c-4.249,0-8.648,1.166-11.77,3.115l-1.342,0.84l2.689,7.932l2.172-1.471c1.912-1.293,4.671-2.064,7.4-2.064h0.113
				c2.196,0,4.685,0.502,5.152,4.131c-12.36,0.438-19.4,5.492-19.4,14.018c0,5.617,4.09,11.305,11.906,11.305
				c3.179,0,6.179-0.969,8.568-2.689l0.224,1.951h9.397L218.689,552.443z"/>
			<path fill="#FFFFFF" d="M200.848,551.478c-5.461,0-7.906-3.668-7.906-7.303c0-5.676,4.538-8.215,9.478-9.301h0.511
				c-6.509,1.51-8.098,5.313-8.098,8.631c0,4.561,3.009,7.621,7.488,7.621c0.664,0,1.294-0.051,1.892-0.148
				C203.244,551.285,202.125,551.478,200.848,551.478z"/>
			<path fill="#EA5B0C" d="M208.554,541.832c0,2.605-2.538,5.295-6.233,5.295c-1.591,0-3.488-0.627-3.488-3.621
				c0-3.344,3.269-5.121,9.721-5.293V541.832L208.554,541.832z"/>
			<path fill="#FFFFFF" d="M213.208,550.742l-0.469-4.082h-1.73c0.528-0.779,0.925-1.592,1.192-2.377
				c0.292-0.971,0.353-1.869,0.353-2.451l-0.147-7.693h0.014v-2.682c0-5.904-3.451-9.43-9.23-9.43h-0.133
				c-2.586,0-5.161,0.539-7.37,1.516l-0.036-0.104c2.365-1.115,5.347-1.762,8.275-1.762c6.942,0,10.316,3.658,10.316,11.188v12.113
				c0,2.148,0.074,4.078,0.222,5.766h-1.257V550.742z"/>
		</g>
		<g id="g">
			<path fill="#EA5B0C" d="M243.22,514.343c-1.618-0.439-3.347-0.668-5.158-0.668c-10.014,0-20.658,8.109-20.658,23.135
				c0,6.48,2.313,12.129,6.126,16.051l-4.421,13.664l3.776,2.52c3.46,2.307,8.733,3.686,14.106,3.686
				c6.325,0,11.954-1.922,15.851-5.412l0.094-0.086c4.449-4.16,6.521-10.275,6.521-19.244v-18.809c0-3.932,0.071-6.34,0.245-8.309
				l0.575-6.527H243.22z M241.567,538.953c0,0.566-0.087,1.027-0.181,1.311c-0.38,1.182-1.274,1.859-2.454,1.859
				c-3.223,0-3.571-3.949-3.571-5.646c0-1.043,0.175-6.248,3.638-6.248c0.51,0,1.865,0,2.5,2.057l0.043,0.141
				c0.01,0.096,0.025,0.303,0.025,0.705V538.953z"/>
			<path fill="#FDEB1A" d="M246.584,518.343l-0.08,1.949c-1.922-1.457-4.645-2.617-8.442-2.617c-8.278,0-16.658,6.572-16.658,19.135
				c0,10.146,6.788,17.797,15.788,17.797c3.172,0,6.08-0.887,8.394-2.488c-0.39,5.375-3.146,7.994-8.394,7.994
				c-4.449,0-7.361-1.598-8.407-2.283l-2.193-1.439l-2.746,8.486l1.259,0.84c2.786,1.859,7.341,3.014,11.886,3.014
				c5.339,0,10.02-1.559,13.212-4.422c3.633-3.395,5.253-8.43,5.253-16.32v-18.809c0-4.057,0.075-6.564,0.26-8.66l0.192-2.176
				H246.584z M241.567,538.953c0,0.566-0.087,1.027-0.181,1.311c-0.38,1.182-1.274,1.859-2.454,1.859
				c-3.223,0-3.571-3.949-3.571-5.646c0-1.043,0.175-6.248,3.638-6.248c0.51,0,1.865,0,2.5,2.057l0.043,0.141
				c0.01,0.096,0.025,0.303,0.025,0.705V538.953z"/>
			<path fill="#FFFFFF" d="M228.624,563.103c2.193,1.01,5.298,1.627,8.367,1.627c2.521,0,7.239-0.438,10.513-3.369
				c2.724-2.549,3.953-6.682,3.953-13.371v-18.809c0-2.904,0.039-5.053,0.127-6.836h-1.161l-0.201,4.887h-2.279
				c0.494,0.816,0.898,1.721,1.2,2.699c0.369,1.008,0.423,2.188,0.423,3.199v5.822c0,0.941-0.099,2.361-0.571,3.777
				c-0.284,0.883-0.665,1.705-1.129,2.455h1.768v5.549c0,8.502-4.535,13.379-12.442,13.379c-2.938,0-5.86-0.611-8.34-1.713
				L228.624,563.103z"/>
			<path fill="#FFFFFF" d="M238.062,521.677c-6.291,0-12.658,5.197-12.658,15.135c0,7.994,4.958,13.797,11.788,13.797
				c1.577,0,3.035-0.273,4.318-0.793c-0.825,0.201-1.688,0.309-2.578,0.309c-6.921,0-11.571-5.484-11.571-13.646
				c0-8.389,4.786-14.248,11.638-14.248c1.895,0,3.647,0.461,5.165,1.313C242.781,522.474,240.823,521.677,238.062,521.677z"/>
			<path fill="#EA5B0C" d="M245.352,531.203c-0.484-1.563-2.003-4.975-6.353-4.975c-4.64,0-7.638,4.023-7.638,10.248
				c0,4.451,1.983,9.646,7.571,9.646c2.899,0,5.357-1.818,6.262-4.635c0.242-0.729,0.372-1.621,0.372-2.535v-5.822
				C245.566,532.507,245.542,531.724,245.352,531.203z M241.567,538.953c0,0.566-0.087,1.027-0.181,1.311
				c-0.38,1.182-1.274,1.859-2.454,1.859c-3.223,0-3.571-3.949-3.571-5.646c0-1.043,0.175-6.248,3.638-6.248
				c0.51,0,1.865,0,2.5,2.057l0.043,0.141c0.01,0.096,0.025,0.303,0.025,0.705V538.953z"/>
		</g>
		<g id="e">
			<path fill="#EA5B0C" d="M276.747,559.478c-13.117,0-21.93-9.002-21.93-22.398c0-13.561,8.913-23.402,21.194-23.402
				c13.392,0,19.387,10.646,19.387,21.195c0,2.945-0.335,5.441-1.282,8.742h-2.313l2.841,11.188
				C289.695,557.037,285.427,559.478,276.747,559.478z"/>
			<path fill="#FDEB1A" d="M276.747,555.478c-10.892,0-17.93-7.223-17.93-18.398c0-11.424,7.07-19.402,17.194-19.402
				c11.357,0,15.387,9.264,15.387,17.195c0,1.32-0.076,2.316-0.24,3.135l-0.321,1.607h-22.23c0.973,6.248,5.903,7.246,8.944,7.246
				c5.251,0,7.262-1.109,10.328-2.449l2.063,8.125C287.905,553.455,284.006,555.478,276.747,555.478z"/>
			<path fill="#FFFFFF" d="M276.011,521.677c-7.892,0-13.194,6.189-13.194,15.402c0,8.881,5.338,14.398,13.93,14.398
				c3.7,0,6.503-0.609,8.472-1.287l-0.089-0.352c-1.813,0.563-4.222,1.02-7.58,1.02c-7.95,0-12.973-5.063-13.11-13.211l-0.035-2.033
				h22.982c0.007-0.23,0.01-0.48,0.01-0.744C287.397,532.667,286.849,521.677,276.011,521.677z"/>
			<path fill="#FDEB1A" d="M285.672,535.398h-21.408c0.853-7.428,3.805-13.506,11.278-13.506c6.586,0,10.284,5.074,10.166,11.541
				L285.672,535.398z"/>
			<path fill="#EA5B0C" d="M268.988,531.398h12.571c-0.209-1.264-0.699-2.814-1.822-3.957c-1.022-1.041-2.394-1.549-4.195-1.549
				C271.474,525.894,269.722,529.095,268.988,531.398z"/>
		</g>
		<g id="T">
			<polygon fill="#EA5B0C" points="283.529,501.628 283.529,518.582 297.251,518.582 297.251,558.742 315.14,558.742 
				315.14,518.582 328.929,518.582 328.929,501.628 			"/>
			<polygon fill="#FDEB1A" points="311.14,554.742 301.251,554.742 301.251,514.582 287.529,514.582 287.529,505.628 
				324.929,505.628 324.929,514.582 311.14,514.582 			"/>
			<polygon fill="#FDFDFD" points="305.251,550.742 307.14,550.742 307.14,510.582 320.929,510.582 320.929,509.628 
				291.529,509.628 291.529,510.582 305.251,510.582 			"/>
		</g>
		<g id="o">
			<path fill="#EA5B0C" d="M336.716,513.677c-12.785,0-22.063,9.73-22.063,23.135c0,13.135,9.053,22.666,21.527,22.666
				c10.998,0,22.131-7.969,22.131-23.201C358.312,523.181,349.23,513.677,336.716,513.677z M336.449,543.06
				c-2.477,0-3.773-3.244-3.773-6.449c0-0.666,0.109-6.516,3.906-6.516c3.664,0,3.705,6.318,3.705,6.381
				C340.287,540.23,338.636,543.06,336.449,543.06z"/>
			<path fill="#FFFFFF" d="M350.31,536.275c0,10.04-6.49,14.77-13.2,15.17l-0.029-0.4c6.43-0.369,11.21-6.51,11.21-14.569
				c0-6.92-3.67-14.38-11.71-14.38c-0.261,0-0.511,0.01-0.75,0.02l-0.03-0.41c0.3-0.02,0.609-0.029,0.92-0.029
				C344.85,521.675,350.31,527.544,350.31,536.275z"/>
			<path fill="#FFFFFF" d="M337.11,551.445c-0.31,0.02-0.62,0.03-0.93,0.03c-7.96,0-13.53-6.03-13.53-14.66
				c0-8.73,5.24-14.69,13.15-15.11l0.03,0.41c-7.66,0.45-11.15,7.73-11.15,14.5c0,8.37,4.95,14.45,11.77,14.45
				c0.21,0,0.421-0.01,0.631-0.021L337.11,551.445z"/>
			<g>
				<path fill="#FDEB1A" d="M336.581,522.095c-0.261,0-0.511,0.01-0.75,0.02c-7.66,0.45-11.15,7.73-11.15,14.5
					c0,8.37,4.95,14.45,11.77,14.45c0.21,0,0.421-0.01,0.631-0.021c6.43-0.369,11.21-6.51,11.21-14.569
					C348.291,529.555,344.621,522.095,336.581,522.095z M336.449,543.06c-2.477,0-3.773-3.244-3.773-6.449
					c0-0.666,0.109-6.516,3.906-6.516c3.664,0,3.705,6.318,3.705,6.381C340.287,540.23,338.636,543.06,336.449,543.06z"/>
				<path fill="#FDEB1A" d="M336.72,517.675c-10.64,0-18.07,7.869-18.07,19.14c0,10.81,7.37,18.66,17.53,18.66
					c8.729,0,18.13-6.011,18.13-19.2C354.31,525.325,347.081,517.675,336.72,517.675z M337.11,551.445
					c-0.31,0.02-0.62,0.03-0.93,0.03c-7.96,0-13.53-6.03-13.53-14.66c0-8.73,5.24-14.69,13.15-15.11
					c0.3-0.02,0.609-0.029,0.92-0.029c8.13,0,13.59,5.869,13.59,14.6C350.31,546.315,343.82,551.044,337.11,551.445z"/>
			</g>
			<path fill="#EA5B0C" d="M336.582,526.095c-6.24,0-7.906,6.609-7.906,10.516c0,6.057,3.271,10.449,7.773,10.449
				c4.543,0,7.838-4.449,7.838-10.584C344.287,532.886,342.677,526.095,336.582,526.095z M336.449,543.06
				c-2.477,0-3.773-3.244-3.773-6.449c0-0.666,0.109-6.516,3.906-6.516c3.664,0,3.705,6.318,3.705,6.381
				C340.287,540.23,338.636,543.06,336.449,543.06z"/>
		</g>
		<g id="o_1_">
			<path fill="#EA5B0C" d="M373.39,513.445c-12.785,0-22.063,9.73-22.063,23.135c0,13.135,9.053,22.666,21.527,22.666
				c10.998,0,22.131-7.969,22.131-23.201C394.986,522.949,385.904,513.445,373.39,513.445z M373.123,542.828
				c-2.477,0-3.773-3.244-3.773-6.449c0-0.666,0.109-6.516,3.906-6.516c3.664,0,3.705,6.318,3.705,6.381
				C376.96,539.998,375.31,542.828,373.123,542.828z"/>
			<path fill="#FFFFFF" d="M386.984,536.042c0,10.04-6.49,14.77-13.2,15.17l-0.029-0.4c6.43-0.369,11.21-6.51,11.21-14.569
				c0-6.92-3.67-14.38-11.71-14.38c-0.261,0-0.511,0.01-0.75,0.02l-0.03-0.41c0.3-0.02,0.609-0.029,0.92-0.029
				C381.524,521.443,386.984,527.312,386.984,536.042z"/>
			<path fill="#FFFFFF" d="M373.784,551.212c-0.31,0.02-0.62,0.03-0.93,0.03c-7.96,0-13.53-6.03-13.53-14.66
				c0-8.73,5.24-14.69,13.15-15.11l0.03,0.41c-7.66,0.45-11.15,7.73-11.15,14.5c0,8.37,4.95,14.45,11.77,14.45
				c0.21,0,0.421-0.01,0.631-0.021L373.784,551.212z"/>
			<g>
				<path fill="#FDEB1A" d="M373.254,521.863c-0.261,0-0.511,0.01-0.75,0.02c-7.66,0.45-11.15,7.73-11.15,14.5
					c0,8.37,4.95,14.45,11.77,14.45c0.21,0,0.421-0.01,0.631-0.021c6.43-0.369,11.21-6.51,11.21-14.569
					C384.964,529.323,381.294,521.863,373.254,521.863z M373.123,542.828c-2.477,0-3.773-3.244-3.773-6.449
					c0-0.666,0.109-6.516,3.906-6.516c3.664,0,3.705,6.318,3.705,6.381C376.96,539.998,375.31,542.828,373.123,542.828z"/>
				<path fill="#FDEB1A" d="M373.394,517.443c-10.64,0-18.07,7.869-18.07,19.14c0,10.81,7.37,18.66,17.53,18.66
					c8.729,0,18.13-6.011,18.13-19.2C390.984,525.092,383.754,517.443,373.394,517.443z M373.784,551.212
					c-0.31,0.02-0.62,0.03-0.93,0.03c-7.96,0-13.53-6.03-13.53-14.66c0-8.73,5.24-14.69,13.15-15.11
					c0.3-0.02,0.609-0.029,0.92-0.029c8.13,0,13.59,5.869,13.59,14.6C386.984,546.083,380.494,550.812,373.784,551.212z"/>
			</g>
			<path fill="#EA5B0C" d="M373.255,525.863c-6.24,0-7.906,6.609-7.906,10.516c0,6.057,3.271,10.449,7.773,10.449
				c4.543,0,7.838-4.449,7.838-10.584C380.96,532.654,379.351,525.863,373.255,525.863z M373.123,542.828
				c-2.477,0-3.773-3.244-3.773-6.449c0-0.666,0.109-6.516,3.906-6.516c3.664,0,3.705,6.318,3.705,6.381
				C376.96,539.998,375.31,542.828,373.123,542.828z"/>
		</g>
		<g id="l">
			<rect x="390.484" y="499.22" fill="#EA5B0C" width="17.891" height="59.521"/>
			<rect x="394.484" y="503.22" fill="#FDEB1A" width="9.891" height="51.521"/>
			<rect x="398.484" y="507.22" fill="#FFFFFF" width="1.891" height="43.521"/>
		</g>
		<g id="s">
			<path fill="#EA5B0C" d="M419.173,559.478c-4.365,0-8.793-1.131-12.146-3.104l-4.125-2.428l5.141-16.16
				c-2.557-3.131-3.102-6.398-3.102-8.605c0-8.838,7.385-15.504,17.178-15.504c4.203,0,8.279,1.088,11.182,2.984l3.854,2.52
				l-4.521,13.775c3.051,2.846,4.59,6.439,4.59,10.75C437.222,552.992,429.8,559.478,419.173,559.478z"/>
			<path fill="#FDEB1A" d="M419.173,555.478c-3.674,0-7.359-0.93-10.117-2.553l-1.375-0.809l2.65-8.336l2.164,1.281
				c1.555,0.922,4.27,1.998,6.811,1.998c1.93,0,4.227-0.488,4.227-2.818c0-1.33-0.334-2.396-4.658-4.02
				c-8.207-2.982-9.934-7.65-9.934-11.041c0-6.666,5.543-11.506,13.178-11.506c3.396,0,6.758,0.873,8.994,2.334l1.283,0.84
				l-2.686,8.178l-2.166-1.367c-0.967-0.609-2.975-1.633-5.561-1.633c-2.102,0-3.355,0.902-3.355,2.418
				c0,1.209,0.479,1.969,4.83,3.695c4.17,1.559,9.764,4.469,9.764,11.564C433.222,550.748,427.576,555.478,419.173,555.478z"/>
			<path fill="#FFFFFF" d="M412.494,550.181c1.951,0.824,4.344,1.297,6.68,1.297c6.197,0,10.049-2.979,10.049-7.771
				c0-3.652-2.086-5.92-7.201-7.83c-4.063-1.613-7.393-3.271-7.393-7.432c0-3.092,2.303-6.416,7.355-6.416
				c2.158,0,4.021,0.51,5.455,1.098l0.146-0.451c-1.348-0.553-3.234-0.998-5.469-0.998c-5.402,0-9.178,3.086-9.178,7.506
				c0,3.07,2.463,5.523,7.318,7.289c3.527,1.324,7.271,3.117,7.271,7.771c0,3.145-2.154,6.816-8.225,6.816
				c-2.334,0-4.705-0.643-6.631-1.449L412.494,550.181z"/>
		</g>
		<g id="R">
			<path fill="#EA5B0C" d="M191.545,549.904c-0.603-1.363-2.141-7.563-2.918-10.883c-0.671-2.936-1.652-5.268-2.797-7.115
				c3.078-3.229,4.822-7.516,4.822-12.297c0-5.125-2.009-9.891-5.528-13.088c-3.952-3.566-9.376-5.229-17.072-5.229
				c-7.598,0-12.496,1.078-17.178,1.93v55.52h17.823v-19.514c1.512,0.113,1.988,0.568,2.725,3.994
				c1.834,8.563,2.957,10.945,3.553,12.408c0.523,1.285,1.709,3.111,1.709,3.111l19.622,0.006
				C196.308,558.75,192.583,552.25,191.545,549.904z M168.698,522.779v-4.934c4.131,0.049,4.131,1.332,4.131,2.365
				C172.83,521.908,171.439,522.771,168.698,522.779z"/>
			<path fill="#FDEB1A" d="M188.02,551.794c-0.835-1.553-1.986-6.303-3.292-11.881c-0.875-3.83-2.382-6.699-4.498-8.574
				c4.034-2.566,6.423-6.814,6.423-11.729c0-4-1.532-7.688-4.208-10.119c-3.172-2.863-7.746-4.197-14.392-4.197
				c-3.828,0-8.248,0.371-11.536,0.969l-1.643,0.301V530v24.742h9.823v-19.545h3.413c3.878,0.146,5.949,1.26,7.224,7.188
				c1.741,8.125,2.597,10.318,3.147,11.32l0.57,1.037h10.555L188.02,551.794z M168.698,522.779v-4.934
				c4.131,0.049,4.131,1.332,4.131,2.365C172.83,521.908,171.439,522.771,168.698,522.779z"/>
			<path fill="#FFFFFF" d="M181.56,550.742c-0.452-1.301-1.185-3.922-2.315-9.197c-1.529-7.109-4.711-10.107-11.058-10.348h-7.489
				v19.545h-1.823V530v-20.066c2.814-0.398,6.183-0.639,9.178-0.639c5.597,0,9.318,1.006,11.707,3.162
				c1.838,1.67,2.893,4.277,2.893,7.152c0,4.438-2.62,7.994-7.012,9.529c3.251-1.793,5.188-4.949,5.188-8.928
				c0-6.49-4.626-10.365-12.375-10.365c-2.746,0-4.974,0.189-6.271,0.535l-1.485,0.396V521v9.779h7.958
				c2.066,0,3.939-0.342,5.563-0.977v2.867l1.334,0.471c2.579,0.912,4.305,3.418,5.278,7.676c1.082,4.619,1.854,7.766,2.523,9.926
				H181.56z"/>
			<path fill="#EA5B0C" d="M168.454,513.845c-1.711,0-2.924,0.076-3.756,0.162V521h-0.001v5.779h3.958
				c5.042,0,8.174-2.516,8.174-6.566C176.829,515.988,174.011,513.845,168.454,513.845z M168.698,522.779v-4.934
				c4.131,0.049,4.131,1.332,4.131,2.365C172.83,521.908,171.439,522.771,168.698,522.779z"/>
		</g>
	</g>
	<g id="tool">
		<path fill="#EA5B0C" d="M365.925,314.182l-3.967-6.534l-17.057,17.056l-9.23-1.375l-1.375-9.231l17.057-17.056l-6.533-3.967
			c-4.074-2.473-8.572-3.727-13.371-3.727c-8.525,0-17.545,4.13-24.744,11.331c-10.02,10.019-11.146,21.662-9.738,29.58
			c-8.426,4.595-16.385,10.684-24.205,18.503c-7.812,7.812-13.896,15.764-18.491,24.183c-1.838-0.336-3.759-0.512-5.678-0.512
			c-6.225,0-15.426,1.782-23.914,10.27c-11.621,11.621-14.606,26.583-7.604,38.115l3.967,6.533l17.056-17.055l9.232,1.375
			l1.375,9.232l-17.056,17.057l6.534,3.967c4.073,2.473,8.571,3.727,13.371,3.727c0.001,0,0.001,0,0.002,0
			c8.523,0,17.542-4.129,24.743-11.33c10.019-10.02,11.146-21.663,9.736-29.581c8.427-4.596,16.386-10.685,24.207-18.503
			c7.813-7.814,13.896-15.766,18.49-24.183c1.838,0.335,3.76,0.511,5.678,0.511c6.225,0,15.426-1.782,23.914-10.269
			C369.943,340.676,372.927,325.715,365.925,314.182z"/>
		<path fill="#FFFFFF" d="M362.507,316.257l-1.322-2.178l-14.879,14.878l-14.154-2.108l-2.107-14.155l14.877-14.877l-2.178-1.322
			c-3.438-2.088-7.238-3.146-11.295-3.146c-7.473,0-15.461,3.703-21.916,10.159c-10.201,10.201-10.007,22.188-7.966,28.86
			c-9.087,4.546-17.602,10.849-25.976,19.224c-8.373,8.372-14.675,16.885-19.221,25.973c-2.37-0.734-5.066-1.13-7.777-1.13
			c-5.469,0-13.566,1.579-21.085,9.098c-10.272,10.272-13.025,23.308-7.013,33.211l1.322,2.178l14.877-14.877l14.156,2.108
			l2.108,14.155l-14.878,14.879l2.178,1.322c3.438,2.086,7.238,3.145,11.295,3.146c0.001,0,0.001,0,0.002,0
			c7.471,0,15.458-3.703,21.914-10.16c10.202-10.202,10.006-22.188,7.964-28.86c9.089-4.546,17.604-10.85,25.977-19.223
			c8.375-8.375,14.678-16.888,19.221-25.973c2.371,0.733,5.066,1.129,7.777,1.129c5.469,0,13.564-1.578,21.086-9.098
			C365.765,339.197,368.519,326.161,362.507,316.257z"/>
		<path fill="#00A19A" d="M278.949,401.618c10.076-4.773,18.915-11.491,27.046-19.623c8.131-8.132,14.85-16.971,19.623-27.047
			c5.74,2.387,18.031,3.536,28.461-6.894c8.662-8.662,12.727-20.86,6.717-30.759l-13.789,13.789l-16.617-2.475l-2.475-16.617
			l13.789-13.789c-9.9-6.011-22.098-1.945-30.76,6.717c-10.43,10.43-9.281,22.72-6.895,28.461
			c-10.076,4.773-18.916,11.491-27.046,19.623c-8.132,8.131-14.849,16.97-19.622,27.047c-5.741-2.388-18.031-3.536-28.461,6.894
			c-8.662,8.662-12.728,20.859-6.718,30.759l13.789-13.788l16.617,2.475l2.475,16.617l-13.789,13.789
			c9.9,6.01,22.097,1.945,30.759-6.717C282.484,419.649,281.336,407.358,278.949,401.618z"/>
	</g>
</g>
</svg>
