<?xml version="1.0" encoding="iso-8859-1"?>
<!-- Generator: Adobe Illustrator 15.0.0, SVG Export Plug-In . SVG Version: 6.00 Build 0)  -->
<!DOCTYPE svg PUBLIC "-//W3C//DTD SVG 1.1//EN" "http://www.w3.org/Graphics/SVG/1.1/DTD/svg11.dtd">
<svg version="1.1" id="Layer_1" xmlns="http://www.w3.org/2000/svg" xmlns:xlink="http://www.w3.org/1999/xlink" x="0px" y="0px"
	 width="192.334px" height="152px" viewBox="0 0 192.334 152" enable-background="new 0 0 192.334 152" xml:space="preserve">
<g id="S" display="none">
	<path id="_x31__58_" display="inline" d="M113.015,85.845c0,12.833-12.569,19.261-25.439,19.261c-8.146,0-14.958-1.29-23.479-5.07
		V89.467h0.597c6.637,5.522,15.874,8.353,22.968,8.353c8.036,0,16.577-2.814,16.577-10.781c0-6.186-2.896-8.897-15.277-10.739
		c-11.066-1.641-24.481-3.974-24.481-18.792c0-11.973,11.842-18.153,23.82-18.153c8.092,0,15.654,1.599,22.158,4.432v9.971h-0.597
		c-5.337-4.52-14.175-7.116-21.604-7.116c-10.645,0-15,5.315-15,10.057c0,8.518,6.656,9.368,17.002,11.122
		C103.053,69.989,113.015,72.77,113.015,85.845z"/>
</g>
<g id="T" display="none">
	<polygon id="_x31__57_" display="inline" points="115.069,48.005 92.399,48.005 92.399,103.955 83.962,103.955 83.962,48.005 
		61.292,48.005 61.292,40.505 115.069,40.505 	"/>
</g>
<g id="V" display="none">
	<polygon id="_x31__55_" display="inline" points="116.936,40.505 93.84,103.955 82.59,103.955 59.494,40.505 68.527,40.505 
		88.428,96.327 108.328,40.505 	"/>
</g>
<g id="W" display="none">
	<polygon id="_x31__54_" display="inline" points="127.439,40.505 110.948,103.955 101.445,103.955 88.108,51.286 75.068,103.955 
		65.779,103.955 48.99,40.505 57.64,40.505 70.978,93.26 84.103,40.505 92.668,40.505 105.92,93.771 119.173,40.505 	"/>
</g>
<g id="X" display="none">
	<polygon id="_x31__53_" display="inline" points="115.253,40.505 93.35,71.868 115.21,103.955 105.452,103.955 88.151,77.834 
		70.424,103.955 61.22,103.955 83.336,72.251 61.731,40.505 71.447,40.505 88.535,66.286 106.006,40.505 	"/>
</g>
<g id="Y" display="none">
	<polygon id="_x31__52_" display="inline" points="114.806,40.505 92.476,76.129 92.476,103.955 84.039,103.955 84.039,77.024 
		61.625,40.505 70.957,40.505 88.3,68.885 105.814,40.505 	"/>
</g>
<g id="Z" display="none">
	<polygon id="_x31__51_" display="inline" points="113.207,103.955 63.691,103.955 63.691,96.115 102.597,48.005 65.14,48.005 
		65.14,40.505 112.27,40.505 112.27,48.133 72.981,96.455 113.207,96.455 	"/>
</g>
<g id="c_1_" display="none">
	<path id="_x31__96_" display="inline" d="M108.562,100.973c-5.041,2.416-9.665,4.049-15.255,4.049
		c-14.48,0-23.352-8.708-23.352-24.801c0-16.271,9.917-24.971,23.352-24.971c5.294,0,10.688,1.65,15.255,3.963v8.906h-0.426
		c-4.345-3.385-9.709-5.923-15.17-5.923c-10.327,0-14.701,7.785-14.701,18.025c0,10.288,4.441,17.854,14.701,17.854
		c5.504,0,10.905-2.473,15.17-5.922h0.426V100.973z"/>
</g>
<g id="f" display="none">
	<path id="_x31__45_" display="inline" d="M104.996,45.406c-0.377,0-4.736-1.193-7.628-1.193c-3.438,0-5.93,0.76-7.479,2.28
		c-2.454,2.408-2.322,7.14-2.322,9.865h14.446v6.733h-14.19v40.865h-8.011V63.09H74.4v-6.733h5.412
		c0-5.359,0.443-10.533,4.219-14.595c2.812-3.025,6.875-4.539,12.187-4.539c2.511,0,5.146,0.162,8.778,0.853V45.406z"/>
</g>
<g id="h" display="none">
	<path id="_x31__43_" display="inline" d="M108.285,103.955h-8.012V76.854c0-9.07-1.162-14.19-10.056-14.19
		c-4.794,0-9.932,2.849-13.721,5.752v35.539h-8.011V37.65h8.011v23.991c4.606-3.82,9.994-6.605,15.979-6.605
		c10.878,0,15.81,7.059,15.81,18.025V103.955z"/>
</g>
<g id="i" display="none">
	<rect id="_x31__42_" x="83.697" y="40.08" display="inline" width="9.034" height="8.309"/>
	<rect id="_x32__7_" x="84.209" y="56.357" display="inline" width="8.011" height="47.598"/>
</g>
<g id="j" display="none">
	<path id="_x32__6_" display="inline" d="M96.747,105.105c0,11.336-6.331,16.875-15.682,16.875c-2.124,0-6.506-0.468-9.162-1.193
		v-7.627c0.432,0,4.471,1.662,7.585,1.662c8.458,0,9.247-4.816,9.247-13.381V63.09h-9.929v-6.733h17.94V105.105z"/>
	<rect id="_x31__41_" x="88.225" y="40.08" display="inline" width="9.034" height="8.309"/>
</g>
<g id="k" display="none">
	<path id="_x31__40_" display="inline" d="M113.484,103.955h-10.568l-19.09-20.838l-5.199,4.943v15.895h-8.011V37.65h8.011v42.527
		l23.139-23.82h10.1L89.749,78.346L113.484,103.955z"/>
</g>
<g id="l" display="none">
	<path id="_x31__39_" display="inline" d="M92.22,103.955h-8.011V37.65h8.011V103.955z"/>
</g>
<g id="m" display="none">
	<path id="_x31__38_" display="inline" d="M123.114,103.955h-8.011V76.854c0-8.966-0.653-14.19-9.546-14.19
		c-4.868,0-9.605,2.985-13.465,5.966c0.167,1.282,0.298,3.116,0.298,4.858v30.467H84.38V76.854c0-2.102-0.093-4.098-0.277-5.987
		c-0.622-6.333-3.501-8.203-9.269-8.203c-4.756,0-9.408,2.872-13.167,5.752v35.539h-8.011V56.357h8.011v5.284
		c4.589-3.807,9.465-6.605,15.426-6.605c6.657,0,11.148,3.033,13.295,7.713c5.391-4.54,10.46-7.713,17.429-7.713
		c10.82,0,15.298,7.12,15.298,18.025V103.955z"/>
</g>
<g id="n" display="none">
	<path id="_x31__37_" display="inline" d="M108.285,103.955h-8.012V76.854c0-9.013-1.135-14.19-10.056-14.19
		c-4.794,0-9.932,2.849-13.721,5.752v35.539h-8.011V56.357h8.011v5.284c4.606-3.82,9.994-6.605,15.979-6.605
		c10.878,0,15.81,7.059,15.81,18.025V103.955z"/>
</g>
<g id="r" display="none">
	<path id="_x31__33_" display="inline" d="M106.992,65.093c-0.058,0-3.604-0.81-7.883-0.81c-3.279,0-7.73,0.939-13.807,5.88v33.792
		h-8.011V56.357h8.011v7.031c4.852-3.899,9.691-7.031,15.852-7.031c2.538,0,3.045,0.068,5.838,0.511V65.093z"/>
</g>
<g id="s" display="none">
	<path id="_x31__32_" display="inline" d="M107.368,90.234c0,10.194-9.825,14.871-20.113,14.871c-6.348,0-12.408-1.661-17.087-4.006
		v-8.99c0.001,0,8.607,6.221,17.77,6.221c5.653,0,11.25-1.42,11.25-7.072c0-4.569-3.105-5.683-7.841-6.734
		c-8.5-1.899-20.965-2.457-20.965-14.786c0-9.681,9.231-14.531,19.218-14.531c5.878,0,12.194,1.675,15.894,3.579v8.565
		c-0.003,0-7.94-5.369-16.491-5.369c-4.859,0-10.44,1.703-10.44,6.69c0,5.189,4.116,6.307,12.592,7.883
		C98.369,77.897,107.368,79.796,107.368,90.234z"/>
</g>
<g id="t" display="none">
	<path id="_x31__31_" display="inline" d="M103.619,103.529c-2.827,0.748-6.732,1.363-9.673,1.363
		c-10.474,0-14.872-5.799-14.872-16.49V63.09h-5.412v-6.733h5.412V42.679h8.011v13.679h16.534v6.733H87.085l0.049,25.245
		c0.25,7.959,3.28,9.526,8.899,9.526c3.132,0,7.264-1.533,7.585-1.533V103.529z"/>
</g>
<g id="u" display="none">
	<path id="_x31__30_" display="inline" d="M107.944,103.955h-8.012v-5.283c-2.699,2.131-5.283,3.764-7.755,4.9
		c-2.471,1.135-5.199,1.705-8.181,1.705c-5,0-8.892-1.527-11.676-4.582c-2.784-3.053-4.176-7.535-4.176-13.443V56.357h8.011v27.102
		c0,2.414,0.113,4.482,0.341,6.199c0.227,1.721,0.709,3.189,1.449,4.412c0.767,1.25,1.761,2.158,2.983,2.727
		c1.221,0.568,2.997,0.852,5.327,0.852c2.073,0,4.339-0.539,6.796-1.619c2.457-1.078,4.752-2.457,6.882-4.133V56.357h8.012V103.955z
		"/>
</g>
<g id="v" display="none">
	<polygon id="_x31__29_" display="inline" points="111.438,56.357 92.178,103.955 84.124,103.955 64.991,56.357 73.684,56.357 
		88.428,94.24 103.044,56.357 	"/>
</g>
<g id="w" display="none">
	<polygon id="_x31__28_" display="inline" points="120.259,56.357 107.858,103.955 100.444,103.955 88.214,67.266 76.07,103.955 
		68.698,103.955 56.169,56.357 64.521,56.357 73.257,93.217 85.146,56.357 91.751,56.357 103.938,93.217 112.205,56.357 	"/>
</g>
<g id="x" display="none">
	<polygon id="_x31__27_" display="inline" points="111.481,103.955 101.382,103.955 87.874,85.674 74.28,103.955 64.948,103.955 
		83.527,80.22 65.119,56.357 75.218,56.357 88.641,74.339 102.106,56.357 111.481,56.357 92.774,79.794 	"/>
</g>
<g id="y" display="none">
	<polygon id="_x31__26_" display="inline" points="111.438,56.357 83.655,121.512 75.09,121.512 83.954,101.654 64.991,56.357 
		73.684,56.357 88.3,91.64 103.044,56.357 	"/>
</g>
<g id="z" display="none">
	<polygon id="_x31__25_" display="inline" points="107.688,103.955 69.252,103.955 69.252,98.032 96.993,63.047 69.849,63.047 
		69.849,56.357 106.964,56.357 106.964,62.067 79.096,97.18 107.688,97.18 	"/>
</g>
<g id="_x21_" display="none">
	<polygon id="_x31__24_" display="inline" points="92.987,40.505 91.879,86.484 84.635,86.484 83.442,40.505 	"/>
	<rect id="_x32__5_" x="83.868" y="94.964" display="inline" width="8.693" height="8.991"/>
</g>
<g id="_x2A_" display="none">
	<polygon id="_x31__17_" display="inline" points="108.924,66.158 106.197,70.845 90.771,61.769 91.027,77.109 85.53,77.109 
		85.743,61.769 70.36,70.888 67.59,66.2 83.825,57.379 67.59,48.559 70.36,43.872 85.786,52.948 85.53,37.65 91.027,37.65 
		90.729,52.948 106.197,43.914 108.924,48.602 92.731,57.337 	"/>
</g>
<g id="_x28_" display="none">
	<path id="_x31__8_" display="inline" d="M101.766,121.512h-9.759c-11.382-13.055-15.895-26.791-15.895-41.931
		c0-15.03,4.442-28.795,15.895-41.931h9.759v0.426c-10.76,9.694-18.153,24.962-18.153,41.505c0,16.454,7.371,31.848,18.153,41.504
		V121.512z"/>
</g>
<g id="_x29_" display="none">
	<path id="_x31__9_" display="inline" d="M100.316,79.581c0,8.551-1.393,16.235-4.176,23.053c-2.784,6.818-6.69,13.11-11.718,18.878
		h-9.758v-0.427c2.187-1.96,4.382-4.354,6.583-7.18c2.201-2.827,4.14-5.987,5.816-9.481c1.761-3.636,3.16-7.471,4.198-11.506
		c1.037-4.033,1.555-8.479,1.555-13.337c0-4.659-0.526-9.091-1.577-13.295c-1.051-4.204-2.443-8.054-4.176-11.548
		c-1.79-3.607-3.729-6.768-5.816-9.481c-2.088-2.712-4.283-5.106-6.583-7.18V37.65h9.758c5.028,5.768,8.934,12.06,11.718,18.877
		C98.924,63.345,100.316,71.03,100.316,79.581z"/>
</g>
<g id="_x2D_" display="none">
	<rect id="_x31__10_" x="74.919" y="72.336" display="inline" width="26.591" height="7.713"/>
</g>
<g id="_x5F_" display="none">
	<rect id="_x31__11_" x="60.292" y="111.625" display="inline" width="55.823" height="5.114"/>
</g>
<g id="_x2B_" display="none">
	<polygon id="_x31__16_" display="inline" points="114.975,79.581 91.751,79.581 91.751,102.805 84.677,102.805 84.677,79.581 
		61.454,79.581 61.454,72.763 84.677,72.763 84.677,49.539 91.751,49.539 91.751,72.763 114.975,72.763 	"/>
</g>
<g id="_x3D_" display="none">
	<rect id="_x32__2_" x="62.945" y="63.814" display="inline" width="50.539" height="6.818"/>
	<rect id="_x31__15_" x="62.945" y="81.711" display="inline" width="50.539" height="6.818"/>
</g>
<g id="_x5B_" display="none">
	<polygon id="_x31__14_" display="inline" points="100.742,120.659 78.584,120.659 78.584,37.65 100.742,37.65 100.742,43.744 
		85.999,43.744 85.999,114.565 100.742,114.565 	"/>
</g>
<g id="_x5D_" display="none">
	<polygon id="_x31__13_" display="inline" points="97.845,120.659 75.686,120.659 75.686,114.565 90.43,114.565 90.43,43.744 
		75.686,43.744 75.686,37.65 97.845,37.65 	"/>
</g>
<g id="_x22_" display="none">
	<polygon id="_x32__4_" display="inline" points="85.027,61.47 79.317,61.47 67.77,37.65 77.997,37.65 	"/>
	<polygon id="_x31__22_" display="inline" points="102.243,61.47 96.533,61.47 84.985,37.65 95.212,37.65 	"/>
</g>
<g id="_x3B_" display="none">
	<polygon id="_x32__1_" display="inline" points="96.438,91.811 84.422,119.722 78.2,119.722 85.615,91.811 	"/>
	<rect id="_x31__12_" x="83.144" y="56.357" display="inline" width="10.184" height="12.145"/>
</g>
<g id="_x2C_" display="none">
	<polygon id="_x31__7_" display="inline" points="96.844,91.811 84.827,119.722 78.605,119.722 86.02,91.811 	"/>
</g>
<g id="_x2E_" display="none">
	<rect id="_x31__6_" x="83.122" y="91.812" display="inline" width="10.185" height="12.145"/>
</g>
<g id="_x3C_" display="none">
	<polygon id="_x31__5_" display="inline" points="112.503,100.673 63.329,78.813 63.329,73.529 112.503,51.668 112.503,59.339 
		73.726,76.171 112.503,93.003 	"/>
</g>
<g id="_x3E__1_" display="none">
	<polygon id="_x31__4_" display="inline" points="113.1,78.814 63.925,100.675 63.925,93.005 102.702,76.173 63.925,59.341 
		63.925,51.67 113.1,73.531 	"/>
</g>
<g id="_x2F_" display="none">
	<polygon id="_x31__3_" display="inline" points="105.701,37.649 75.148,116.908 67.776,116.908 98.201,37.649 	"/>
</g>
<g id="_x3F_" display="none">
	<path id="_x31_" display="inline" d="M107.24,55.42c0,10.804-7.933,16.412-17.513,21.903v9.588h-7.628V73.914
		c8.453-4.808,16.449-8.692,16.449-17.854c0-6.64-5.094-9.545-11.676-9.545c-5.628,0-11.523,2.083-15.213,4.389h-0.426V42.21
		c3.884-1.499,10.688-2.983,16.235-2.983C98.288,39.228,107.24,44.609,107.24,55.42z"/>
	<rect id="_x32_" x="81.716" y="94.965" display="inline" width="8.693" height="8.991"/>
</g>
<g id="_x5C_" display="none">
	<polygon id="_x31__2_" display="inline" points="108.658,116.908 101.286,116.908 70.733,37.637 78.233,37.637 	"/>
</g>
<g id="_x26_" display="none">
	<path id="_x31__18_" display="inline" d="M105.251,88.273c4.146-7.531,4.688-14.612,4.688-23.053h-8.31
		c0,8.57,0.302,13.808-1.278,18.324l-15.8-15.416l-7.798,2.557l20.359,19.848c-3.495,5.187-9.066,7.798-14.403,7.798
		c-9.106,0-13.977-5.726-13.977-13.849c0-6.67,3.328-11.543,8.011-13.807l7.798-2.557c7.807-2.658,12.656-7.489,12.656-15.767
		c0-8.545-7.88-13.167-16.491-13.167c-11.133,0-17.642,7.042-17.642,14.744c0,6.57,2.858,10.107,8.821,14.01l8.479-2.897
		c-5.069-3.056-8.948-5.75-8.948-11.496c0-4.914,3.454-9.034,8.863-9.034c4.845,0,8.565,3.117,8.565,8.693
		c0,5.805-2.593,9.744-8.48,11.846l-8.479,2.897c-7.482,4.375-11.889,9.982-11.889,18.579c0,11.526,9.044,18.75,20.582,18.75
		c8.77,0,15.171-4.239,20.539-10.866l9.759,9.545h10.482L105.251,88.273z"/>
</g>
<g id="_x25_" display="none">
	<polygon id="_x32__3_" display="inline" points="101.34,40.505 68.102,103.955 75.133,103.955 108.371,40.505 	"/>
	<path id="_x33_" display="inline" d="M78.926,58.104c0-11.376-4.41-18.792-15.639-18.792c-11.211,0-15.682,7.468-15.682,18.834
		c0,11.431,4.334,18.792,15.672,18.792v-5.667c-7.236,0-8.087-5.876-8.087-13.125c0-7.278,0.889-13.167,8.097-13.167
		c7.108,0,8.054,5.939,8.054,13.125c0,7.155-0.875,13.167-8.054,13.167v5.667C74.621,76.939,78.926,69.302,78.926,58.104z"/>
	<path id="_x31__19_" display="inline" d="M128.824,86.355c0-11.376-4.409-18.792-15.639-18.792
		c-11.211,0-15.682,7.468-15.682,18.835c0,11.43,4.334,18.792,15.672,18.792v-5.667c-7.236,0-8.087-5.877-8.087-13.125
		c0-7.279,0.89-13.167,8.097-13.167c7.108,0,8.054,5.939,8.054,13.125c0,7.155-0.874,13.168-8.054,13.168v5.667
		C124.52,105.19,128.824,97.554,128.824,86.355z"/>
</g>
<g id="_x24_" display="none">
	<path id="_x31__20_" display="inline" d="M91.24,72.868l-5.028-0.725c-6.332-1.353-10.781-2.878-10.781-9.139
		c0-5.512,5.331-8.071,10.781-8.48v17.599l5.028,0.725V54.482c8.681,0.558,16.406,5.369,16.406,5.369v-8.352
		c-3.988-1.606-10.55-3.079-16.406-3.196V36.798h-5.028v11.59c-9.904,0.806-18.834,5.909-18.834,15.724
		c0,11.131,9.737,13.421,18.834,15.235l5.028,0.725c9.19,1.742,10.611,4.647,10.611,8.798c0,6.078-4.561,8.259-10.611,8.863V80.092
		l-5.028-0.725v18.452C76.641,97.453,70.75,94,67.079,91.896v8.438c5.681,2.608,12.827,3.744,19.133,3.793v15.212h5.028v-15.426
		c9.794-0.948,18.665-6.334,18.665-16.149C109.904,77.428,101.479,74.574,91.24,72.868z"/>
</g>
<g id="_x23_" display="none">
	<polygon id="_x31__21_" display="inline" points="115.614,64.24 115.614,58.487 102.915,58.487 107.39,40.505 101.893,40.505 
		97.419,58.487 85.913,58.487 90.388,40.505 84.891,40.505 80.416,58.487 65.8,58.487 65.8,64.24 78.925,64.24 75.004,80.263 
		60.814,80.263 60.814,86.016 73.513,86.016 69.081,103.955 74.578,103.955 84.379,64.155 96.055,64.155 92.05,80.348 
		80.413,80.348 79.01,86.016 90.516,86.016 86.083,103.955 91.581,103.955 96.013,86.016 110.628,86.016 110.628,80.263 
		97.504,80.263 101.424,64.24 	"/>
</g>
<g id="_x40_" display="none">
	<path id="_x31__23_" display="inline" d="M117.617,97.265c4.218-6.016,6.647-13.576,6.647-21.562
		c0-22.179-13.464-36.477-35.326-36.477c-20.704,0-36.859,16.131-36.859,37.158c0,22.454,15.639,37.201,36.689,37.201
		c6.156,0,10.548-0.552,15.085-1.534V106c-4.723,1.351-10.095,1.961-15.043,1.961c-18.549,0-30.723-12.867-30.723-31.491
		c0-17.487,12.824-31.491,30.894-31.491c19.106,0,29.488,12.438,29.488,30.979c0,4.762-1.146,12.152-3.622,16.577h-10.355v-35.88
		h-6.775v2.045c-4.496-2.282-7.262-2.813-10.653-2.813c-9.063,0-17.769,7.47-17.769,21.178c0,11.033,4.787,20.539,15.724,20.539
		c5.11,0,8.614-1.98,12.688-5.283l-0.085-5.753c-3.043,2.324-7.035,4.432-10.899,4.432c-7.918,0-10.184-6.208-10.184-14.062
		c0-8.318,3.545-14.744,11.718-14.744c3.491,0,6.108,0.798,9.375,2.301v22.073l0.085,5.753l1.15,4.942H117.617z"/>
</g>
<g id="q" display="none">
	<path id="_x31__34_" display="inline" d="M100.018,56.357l-0.511,2.045c-4.685-2.537-8.33-3.367-12.827-3.367
		c-11.133,0-21.051,9.215-21.051,25.269c0,12.98,5.599,24.588,18.579,24.588c6.028,0,10.68-2.333,15.289-6.307l-0.01-6.732
		c-3.815,3.01-8.646,5.412-13.489,5.412c-9.438,0-12.102-7.939-12.102-17.344c0-10.003,4.141-17.684,14.19-17.684
		c4.294,0,7.384,0.874,11.42,2.685v56.589h8.011V56.357H100.018z"/>
</g>
<g id="p" display="none">
	<path id="_x31__35_" display="inline" d="M92.603,55.036c-5.796,0-11.19,2.534-15.681,6.307v-4.986h-8.011v65.154h8.021V68.076
		c3.898-2.97,8.735-5.412,13.626-5.412c9.446,0,11.975,7.725,11.975,17.131c0,10.247-4.079,17.896-14.19,17.896
		c-4.443,0-7.22-0.76-11.4-2.643v6.52c4.461,2.446,8.221,3.324,12.807,3.324c10.985,0,21.051-8.977,21.051-25.311
		C110.799,66.493,105.688,55.036,92.603,55.036z"/>
</g>
<g id="o" display="none">
	<path id="_x31__36_" display="inline" d="M88.235,55.036c-14.368,0-21.988,10.636-21.988,25.142c0,14.515,7.609,25.1,21.968,25.1
		v-6.904c-9.99,0-13.702-8.167-13.702-18.195c0-10.228,3.53-18.238,13.721-18.238c10.105,0,13.679,8.05,13.679,18.238
		c0,9.961-3.676,18.195-13.679,18.195v6.904c14.256,0,21.945-10.603,21.945-25.1C110.181,65.745,102.549,55.036,88.235,55.036z"/>
</g>
<g id="g" display="none">
	<path id="_x31__44_" display="inline" d="M100.018,56.357l-0.511,2.045c-4.865-2.667-8.089-3.367-12.827-3.367
		c-11.144,0-21.051,9.075-21.051,24.673c0,12.898,5.642,23.521,18.537,23.521c5.721,0,9.529-1.111,15.331-5.752v-6.605
		c-3.753,2.886-8.628,4.943-13.456,4.943c-9.513,0-12.145-6.804-12.145-16.277c0-9.98,4.378-17.301,14.19-17.301
		c4.136,0,7.702,1.002,11.42,2.685v25.951v6.605c0,7.239,1.086,17.301-13.722,17.301c-6.582,0-6.582,0-15.17-3.025v8.182
		c5.083,1.428,9.847,2.045,14.488,2.045c15.723,0,22.414-7.849,22.414-23.438V56.357H100.018z"/>
</g>
<g id="e" display="none">
	<path id="_x31__46_" display="inline" d="M109.946,76.641c0-13.241-6.686-21.605-20.07-21.605
		c-13.286,0-23.139,9.117-23.139,25.397c0,15.916,9.484,24.631,25.141,24.631c6.034,0,11.521-1.645,17.131-4.006v-8.736
		c0,0-8.14,5.752-17.216,5.752c-10.539,0-16.927-6.316-16.927-17.086v-6.137c0.665-7.309,5.822-13.21,14.583-13.21
		c8.521,0,12.642,4.801,12.698,13.21H74.876v6.137h35.07V76.641z"/>
</g>
<g id="d" display="none">
	<path id="_x31__47_" display="inline" d="M99.507,37.65v20.625c-4.741-2.465-8.263-3.239-12.742-3.239
		c-11.085,0-21.136,9.208-21.136,25.483c0,13.039,5.442,24.758,18.537,24.758c5.941,0,10.814-2.405,15.331-6.307v-6.734
		c-3.769,2.974-8.635,5.412-13.414,5.412c-9.606,0-12.187-7.698-12.187-17.301c0-10.063,4.192-17.982,14.232-17.982
		c4.341,0,7.402,0.779,11.378,2.557v39.033h8.011V37.65H99.507z"/>
</g>
<g id="b" display="none">
	<path id="_x31__49_" display="inline" d="M92.603,55.036c-6.067,0-10.934,2.4-15.681,6.307V37.65h-8.011v66.305h7.5l0.511-2.215
		v-6.393V68.076c3.867-3.006,8.862-5.412,13.721-5.412c9.512,0,11.889,7.87,11.889,17.344c0,10.456-3.819,18.066-14.19,18.066
		c-3.772,0-6.497-0.514-11.41-2.727v6.393c5.081,2.8,8.781,3.537,13.03,3.537c12.907,0,20.837-11.565,20.837-25.482
		C110.799,66.779,105.718,55.036,92.603,55.036z"/>
</g>
<g id="R" display="none">
	<path id="_x31__59_" display="inline" d="M94.828,76.214c8.171-3.165,12.954-9.405,12.954-18.451
		c0-13.323-10.605-17.258-23.82-17.258h-17.77v63.45h8.438V47.749h9.929c8.261,0,14.403,2.422,14.403,10.611
		c0,10.13-6.048,13.337-15.81,13.337H74.64v7.031h11.879l21.221,25.227h10.952L94.828,76.214z"/>
</g>
<g id="Q" display="none">
	<path id="_x31__60_" display="inline" d="M106.438,112.843c-3.854-0.956-6.037-3.753-6.248-9.825
		c12.272-4.896,17.514-17.502,17.514-30.766c0-21.534-11.942-33.067-29.488-33.067c-17.667,0-29.445,11.767-29.445,33.067
		c0,14.702,5.561,24.637,14.532,29.519c6.048,3.291,13.75,4.034,18.738,3.207v-7.279c0,0-7.875,2.033-15.145-2.912
		c-6.418-4.366-9.347-12.771-9.347-22.535c0-14.518,6.308-25.781,20.71-25.781c14.438,0,20.667,11.472,20.667,25.781
		c0,12.867-4.987,22.874-16.875,25.447v7.279c0.417,8.246,4.693,13.314,11.259,15.05c4.624,1.223,11.052,0.636,15.673-0.519v-7.756
		C113.752,113.503,109.11,113.505,106.438,112.843z"/>
</g>
<g id="P" display="none">
	<path id="_x31__61_" display="inline" d="M87.639,40.505H70.424v63.45h8.438v-23.65v-7.201V47.749h8.352
		c9.311,0,15.937,2.834,15.937,12.145c0,9.857-7.182,13.21-17.173,13.21h-7.116v7.201h8.437c16.787,0,24.63-9.504,24.63-20.624
		C111.929,45.817,101.566,40.505,87.639,40.505z"/>
</g>
<g id="C_1_" display="none">
	<path id="_x31__74_" display="inline" d="M115.274,99.353c-4.389,1.916-11.36,5.753-21.563,5.753
		c-20.417,0-31.064-12.691-31.064-32.812c0-20.748,12.046-32.939,31.107-32.939c7.897,0,14.396,2.022,21.52,5.582v10.014h-0.64
		c-6.479-5.425-13.051-8.395-21.434-8.395c-14.688,0-21.775,11.052-21.775,25.738c0,14.771,7.581,25.525,21.86,25.525
		c8.323,0,15.357-2.928,21.392-8.353h0.597V99.353z"/>
</g>
<g id="F" display="none">
	<polygon id="_x31__71_" display="inline" points="112.184,48.005 80.097,48.005 80.097,65.902 107.667,65.902 107.667,73.402 
		80.097,73.402 80.097,103.955 71.659,103.955 71.659,40.505 112.184,40.505 	"/>
</g>
<g id="G" display="none">
	<path id="_x31__70_" display="inline" d="M115.827,99.268c-6.954,3.193-15.612,5.923-23.267,5.923
		c-20.69,0-33.28-11.531-33.28-33.024c0-20.263,12.492-32.812,33.28-32.812c8.328,0,15.721,2.13,23.224,5.71v10.014h-0.767
		c-7.337-5.682-14.35-8.522-23.905-8.522c-14.769,0-23.054,10.342-23.054,25.354c0,17.166,9.888,25.994,24.118,25.994
		c5.58,0,11.311-1.237,15.299-2.897V79.453H90.473v-7.415h25.354V99.268z"/>
</g>
<g id="H" display="none">
	<polygon id="_x31__69_" display="inline" points="112.482,103.955 104.045,103.955 104.045,72.891 72.384,72.891 72.384,103.955 
		63.946,103.955 63.946,40.505 72.384,40.505 72.384,65.391 104.045,65.391 104.045,40.505 112.482,40.505 	"/>
</g>
<g id="J" display="none">
	<path id="_x31__67_" display="inline" d="M100.168,87.464c0,11.436-7.633,17.386-18.75,17.386c-2.579,0-7.925-0.516-11.165-1.235
		V95.73h0.469c4.781,1.636,7.549,1.875,9.545,1.875c10.351,0,11.463-4.604,11.463-13.337V47.238H78.308v-6.733h21.86V87.464z"/>
</g>
<g id="K" display="none">
	<polygon id="_x31__66_" display="inline" points="117.511,103.955 106.56,103.955 81.461,75.703 75.154,82.436 75.154,103.955 
		66.717,103.955 66.717,40.505 75.154,40.505 75.154,73.615 105.963,40.505 116.19,40.505 87.853,70.334 	"/>
</g>
<g id="L" display="none">
	<polygon id="_x31__65_" display="inline" points="112.529,103.955 72.389,103.955 72.389,40.505 80.826,40.505 80.826,96.455 
		112.529,96.455 	"/>
</g>
<g id="M" display="none">
	<polygon id="_x31__64_" display="inline" points="116.467,103.955 108.03,103.955 108.03,49.283 90.389,86.484 85.36,86.484 
		67.846,49.283 67.846,103.955 59.963,103.955 59.963,40.505 71.468,40.505 88.386,75.831 104.749,40.505 116.467,40.505 	"/>
</g>
<g id="N" display="none">
	<polygon id="_x31__63_" display="inline" points="112.504,103.955 102.063,103.955 71.979,47.195 71.979,103.955 64.096,103.955 
		64.096,40.505 77.178,40.505 104.62,92.322 104.62,40.505 112.504,40.505 	"/>
</g>
<g id="U" display="none">
	<path id="_x31__56_" display="inline" d="M112.567,78.473c0,4.603-0.505,8.615-1.513,12.038c-1.009,3.424-2.663,6.271-4.964,8.544
		c-2.188,2.159-4.745,3.736-7.671,4.729c-2.926,0.994-6.335,1.492-10.227,1.492c-3.978,0-7.443-0.526-10.397-1.577
		c-2.955-1.051-5.44-2.6-7.458-4.645c-2.301-2.329-3.956-5.142-4.964-8.438c-1.009-3.295-1.513-7.343-1.513-12.145V40.505h8.438
		v38.394c0,3.438,0.234,6.151,0.703,8.14s1.257,3.792,2.365,5.411c1.25,1.848,2.947,3.239,5.092,4.177
		c2.145,0.938,4.723,1.406,7.734,1.406c3.039,0,5.625-0.462,7.755-1.385c2.131-0.923,3.836-2.323,5.114-4.198
		c1.107-1.619,1.896-3.473,2.364-5.561s0.703-4.68,0.703-7.776V40.505h8.438V78.473z"/>
</g>
<g id="O" display="none">
	<path id="_x31__62_" display="inline" d="M88.215,39.184c-17.668,0-29.445,11.766-29.445,33.067
		c0,21.705,12.117,33.025,29.436,33.025l0.043-7.287c-14.396,0-20.7-11.4-20.7-25.738c0-14.517,6.308-25.781,20.71-25.781
		c14.436,0,20.667,11.471,20.667,25.781c0,14.371-6.3,25.738-20.667,25.738l-0.043,7.287c19.608,0,29.488-13.91,29.488-33.025
		C117.703,50.717,105.762,39.184,88.215,39.184z"/>
</g>
<g id="I" display="none">
	<polygon id="_x31__68_" display="inline" points="100.742,103.955 75.687,103.955 75.687,97.478 83.996,97.478 83.996,46.982 
		75.687,46.982 75.687,40.505 100.742,40.505 100.742,46.982 92.433,46.982 92.433,97.478 100.742,97.478 	"/>
</g>
<g id="E" display="none">
	<polygon id="_x31__72_" display="inline" points="110.948,103.955 69.146,103.955 69.146,40.505 110.948,40.505 110.948,48.005 
		77.583,48.005 77.583,65.391 110.948,65.391 110.948,72.891 77.583,72.891 77.583,96.455 110.948,96.455 	"/>
</g>
<g id="A" display="none">
	<polygon id="_x31__1_" display="inline" points="93.84,40.505 82.59,40.505 59.494,103.955 68.059,103.955 88.001,47.877 
		99.123,79.026 76.953,79.026 74.367,86.281 101.723,86.271 107.944,103.955 116.936,103.955 	"/>
</g>
<g id="&#xD5;" display="none">
	<path id="_x32__28_" display="inline" d="M88.215,39.184c-17.668,0-29.445,11.766-29.445,33.067
		c0,21.705,12.117,33.025,29.436,33.025l0.043-7.287c-14.396,0-20.7-11.4-20.7-25.738c0-14.517,6.308-25.781,20.71-25.781
		c14.436,0,20.667,11.471,20.667,25.781c0,14.371-6.3,25.738-20.667,25.738l-0.043,7.287c19.608,0,29.488-13.91,29.488-33.025
		C117.703,50.717,105.762,39.184,88.215,39.184z"/>
	<path id="_x31__104_" display="inline" d="M106.239,23.054c-0.524,7.247-3.527,13.04-10.823,13.04
		c-7.804,0-9.308-6.903-14.403-6.903c-3.421,0-4.424,3.668-4.603,7.074h-5.582c0.372-7.032,3.768-12.997,10.781-12.997
		c7.127,0,9.607,6.69,14.403,6.69c3.291,0,4.589-3.602,4.729-6.903H106.239z"/>
</g>
<g id="&#xD4;" display="none">
	<path id="_x32__27_" display="inline" d="M88.215,39.184c-17.668,0-29.445,11.766-29.445,33.067
		c0,21.705,12.117,33.025,29.436,33.025l0.043-7.287c-14.396,0-20.7-11.4-20.7-25.738c0-14.517,6.308-25.781,20.71-25.781
		c14.436,0,20.667,11.471,20.667,25.781c0,14.371-6.3,25.738-20.667,25.738l-0.043,7.287c19.608,0,29.488-13.91,29.488-33.025
		C117.703,50.717,105.762,39.184,88.215,39.184z"/>
	<polygon id="_x31__50_" display="inline" points="102.958,36.775 96.183,36.775 88.3,25.866 80.459,36.775 73.854,36.775 
		83.57,20.625 93.243,20.625 	"/>
</g>
<g id="&#xD3;" display="none">
	<path id="_x32__26_" display="inline" d="M88.215,39.184c-17.668,0-29.445,11.766-29.445,33.067
		c0,21.705,12.117,33.025,29.436,33.025l0.043-7.287c-14.396,0-20.7-11.4-20.7-25.738c0-14.517,6.308-25.781,20.71-25.781
		c14.436,0,20.667,11.471,20.667,25.781c0,14.371-6.3,25.738-20.667,25.738l-0.043,7.287c19.608,0,29.488-13.91,29.488-33.025
		C117.703,50.717,105.762,39.184,88.215,39.184z"/>
	<polygon id="_x31__92_" display="inline" points="101.808,20.625 90.175,36.562 83.825,36.562 91.453,20.625 	"/>
</g>
<g id="&#xCD;" display="none">
	<polygon id="_x32__19_" display="inline" points="100.742,103.955 75.687,103.955 75.687,97.478 83.996,97.478 83.996,46.982 
		75.687,46.982 75.687,40.505 100.742,40.505 100.742,46.982 92.433,46.982 92.433,97.478 100.742,97.478 	"/>
	<polygon id="_x31__99_" display="inline" points="101.808,20.625 90.175,36.562 83.825,36.562 91.453,20.625 	"/>
</g>
<g id="&#xC8;" display="none">
	<polygon id="_x32__24_" display="inline" points="110.948,103.955 69.146,103.955 69.146,40.505 110.948,40.505 110.948,48.005 
		77.583,48.005 77.583,65.391 110.948,65.391 110.948,72.891 77.583,72.891 77.583,96.455 110.948,96.455 	"/>
	<polygon id="_x31__84_" display="inline" points="93.456,36.562 87.106,36.562 75.473,20.625 85.828,20.625 	"/>
</g>
<g id="&#xCA;" display="none">
	<polygon id="_x32__21_" display="inline" points="110.948,103.955 69.146,103.955 69.146,40.505 110.948,40.505 110.948,48.005 
		77.583,48.005 77.583,65.391 110.948,65.391 110.948,72.891 77.583,72.891 77.583,96.455 110.948,96.455 	"/>
	<polygon id="_x31__101_" display="inline" points="105.448,36.775 98.682,36.775 90.802,25.866 82.961,36.775 76.356,36.775 
		86.072,20.625 95.745,20.625 	"/>
</g>
<g id="&#xC9;" display="none">
	<polygon id="_x32__22_" display="inline" points="110.948,103.955 69.146,103.955 69.146,40.505 110.948,40.505 110.948,48.005 
		77.583,48.005 77.583,65.391 110.948,65.391 110.948,72.891 77.583,72.891 77.583,96.455 110.948,96.455 	"/>
	<polygon id="_x31__100_" display="inline" points="101.808,20.625 90.175,36.562 83.825,36.562 91.453,20.625 	"/>
</g>
<g id="&#xDC;" display="none">
	<path id="_x33__2_" display="inline" d="M104.13,40.505c0,31.211,0,38.607,0,38.607c0,11.924-4.014,18.92-15.937,18.92
		c-12.054,0-15.895-7.164-15.895-19.134V40.505h-8.438v37.968c0,17.229,7.396,26.804,24.332,26.804
		c17.117,0,24.374-9.681,24.374-26.804c0,0,0-7.006,0-37.968H104.13z"/>
	<rect id="_x32__31_" x="63.861" y="29.895" display="inline" width="8.438" height="7.495"/>
	<rect id="_x31__87_" x="104.13" y="29.895" display="inline" width="8.438" height="7.495"/>
</g>
<g id="&#xDA;" display="none">
	<path id="_x33__4_" display="inline" d="M104.13,40.505c0,31.211,0,38.607,0,38.607c0,11.924-4.014,18.92-15.937,18.92
		c-12.054,0-15.895-7.164-15.895-19.134V40.505h-8.438v37.968c0,17.229,7.396,26.804,24.332,26.804
		c17.117,0,24.374-9.681,24.374-26.804c0,0,0-7.006,0-37.968H104.13z"/>
	<polygon id="_x31__91_" display="inline" points="101.808,20.625 90.175,36.562 83.825,36.562 91.453,20.625 	"/>
</g>
<g id="&#xC3;" display="none">
	<polygon id="_x32__29_" display="inline" points="93.84,40.505 82.59,40.505 59.494,103.955 68.059,103.955 88.001,47.877 
		99.123,79.026 76.953,79.026 74.367,86.281 101.723,86.271 107.944,103.955 116.936,103.955 	"/>
	<path id="_x31__83_" display="inline" d="M106.239,23.054c-0.524,7.247-3.527,13.04-10.823,13.04
		c-7.804,0-9.308-6.903-14.403-6.903c-3.421,0-4.424,3.668-4.603,7.074h-5.582c0.372-7.032,3.768-12.997,10.781-12.997
		c7.127,0,9.607,6.69,14.403,6.69c3.291,0,4.589-3.602,4.729-6.903H106.239z"/>
</g>
<g id="&#xC2;" display="none">
	<polygon id="_x32__23_" display="inline" points="93.84,40.505 82.59,40.505 59.494,103.955 68.059,103.955 88.001,47.877 
		99.123,79.026 76.953,79.026 74.367,86.281 101.723,86.271 107.944,103.955 116.936,103.955 	"/>
	<polygon id="_x31__103_" display="inline" points="102.958,36.775 96.183,36.775 88.3,25.866 80.459,36.775 73.854,36.775 
		83.57,20.625 93.243,20.625 	"/>
</g>
<g id="&#xC0;" display="none">
	<polygon id="_x32__30_" display="inline" points="93.84,40.505 82.59,40.505 59.494,103.955 68.059,103.955 88.001,47.877 
		99.123,79.026 76.953,79.026 74.367,86.281 101.723,86.271 107.944,103.955 116.936,103.955 	"/>
	<polygon id="_x31__89_" display="inline" points="92.636,36.562 86.286,36.562 74.653,20.625 85.008,20.625 	"/>
</g>
<g id="&#xC1;" display="none">
	<polygon id="_x32__32_" display="inline" points="93.84,40.505 82.59,40.505 59.494,103.955 68.059,103.955 88.001,47.877 
		99.123,79.026 76.953,79.026 74.367,86.281 101.723,86.271 107.944,103.955 116.936,103.955 	"/>
	<polygon id="_x31__82_" display="inline" points="101.808,20.625 90.175,36.562 83.825,36.562 91.453,20.625 	"/>
</g>
<g id="&#xC7;" display="none">
	<path id="_x31__48_" display="inline" d="M93.201,46.556c8.383,0,14.954,2.969,21.434,8.395h0.64V44.937
		c-7.123-3.56-13.622-5.582-21.52-5.582c-19.062,0-31.107,12.191-31.107,32.939c0,18.424,8.933,30.61,26.114,32.536l-4.937,10.314
		h6.35l7.472-10.237c8.089-0.803,13.829-3.896,17.627-5.555v-9.886h-0.597c-6.034,5.425-13.068,8.353-21.392,8.353
		c-14.279,0-21.86-10.755-21.86-25.525C71.426,57.608,78.513,46.556,93.201,46.556z"/>
</g>
<g id="&#xE7;" display="none">
	<path display="inline" d="M92.965,62.195c5.461,0,10.826,2.539,15.17,5.923h0.426v-8.906c-4.566-2.313-9.961-3.963-15.255-3.963
		c-13.435,0-23.352,8.7-23.352,24.971c0,14.354,7.071,22.812,18.871,24.478l-5,10.446h6.35l7.67-10.508
		c3.696-0.614,7.102-1.932,10.717-3.664v-8.82h-0.426c-4.266,3.449-9.666,5.922-15.17,5.922c-10.26,0-14.701-7.565-14.701-17.854
		C78.264,69.98,82.638,62.195,92.965,62.195z"/>
</g>
<g id="&#xFC;" display="none">
	<path id="_x33__1_" display="inline" d="M107.944,103.955h-8.012v-5.283c-2.699,2.131-5.283,3.764-7.755,4.9
		c-2.471,1.135-5.199,1.705-8.181,1.705c-5,0-8.892-1.527-11.676-4.582c-2.784-3.053-4.176-7.535-4.176-13.443V56.357h8.011v27.102
		c0,2.414,0.113,4.482,0.341,6.199c0.227,1.721,0.709,3.189,1.449,4.412c0.767,1.25,1.761,2.158,2.983,2.727
		c1.221,0.568,2.997,0.852,5.327,0.852c2.073,0,4.339-0.539,6.796-1.619c2.457-1.078,4.752-2.457,6.882-4.133V56.357h8.012V103.955z
		"/>
	<rect id="_x32__8_" x="99.933" y="45.732" display="inline" width="8.012" height="6.893"/>
	<rect id="_x31__76_" x="68.144" y="45.732" display="inline" width="8.011" height="6.893"/>
</g>
<g id="&#xFA;" display="none">
	<path id="_x33__5_" display="inline" d="M107.944,103.955h-8.012v-5.283c-2.699,2.131-5.283,3.764-7.755,4.9
		c-2.471,1.135-5.199,1.705-8.181,1.705c-5,0-8.892-1.527-11.676-4.582c-2.784-3.053-4.176-7.535-4.176-13.443V56.357h8.011v27.102
		c0,2.414,0.113,4.482,0.341,6.199c0.227,1.721,0.709,3.189,1.449,4.412c0.767,1.25,1.761,2.158,2.983,2.727
		c1.221,0.568,2.997,0.852,5.327,0.852c2.073,0,4.339-0.539,6.796-1.619c2.457-1.078,4.752-2.457,6.882-4.133V56.357h8.012V103.955z
		"/>
	<polygon id="_x31__88_" display="inline" points="101.488,32.537 89.855,48.474 83.505,48.474 91.133,32.537 	"/>
</g>
<g id="&#xF4;" display="none">
	<path id="_x32__10_" display="inline" d="M88.235,55.036c-14.368,0-21.988,10.636-21.988,25.142c0,14.515,7.609,25.1,21.968,25.1
		v-6.904c-9.99,0-13.702-8.167-13.702-18.195c0-10.228,3.53-18.238,13.721-18.238c10.105,0,13.679,8.05,13.679,18.238
		c0,9.961-3.676,18.195-13.679,18.195v6.904c14.256,0,21.945-10.603,21.945-25.1C110.181,65.745,102.549,55.036,88.235,55.036z"/>
	<polygon id="_x31__80_" display="inline" points="102.766,48.687 95.991,48.687 88.108,37.778 80.267,48.687 73.662,48.687 
		83.378,32.537 93.051,32.537 	"/>
</g>
<g id="&#xF3;_1_" display="none">
	<polygon id="_x31__97_" display="inline" points="101.488,32.537 89.855,48.474 83.505,48.474 91.133,32.537 	"/>
	<path id="_x32__25_" display="inline" d="M88.235,55.036c-14.368,0-21.988,10.636-21.988,25.142c0,14.515,7.609,25.1,21.968,25.1
		v-6.904c-9.99,0-13.702-8.167-13.702-18.195c0-10.228,3.53-18.238,13.721-18.238c10.105,0,13.679,8.05,13.679,18.238
		c0,9.961-3.676,18.195-13.679,18.195v6.904c14.256,0,21.945-10.603,21.945-25.1C110.181,65.745,102.549,55.036,88.235,55.036z"/>
</g>
<g id="&#xF5;" display="none">
	<path id="_x32__18_" display="inline" d="M88.235,55.036c-14.368,0-21.988,10.636-21.988,25.142c0,14.515,7.609,25.1,21.968,25.1
		v-6.904c-9.99,0-13.702-8.167-13.702-18.195c0-10.228,3.53-18.238,13.721-18.238c10.105,0,13.679,8.05,13.679,18.238
		c0,9.961-3.676,18.195-13.679,18.195v6.904c14.256,0,21.945-10.603,21.945-25.1C110.181,65.745,102.549,55.036,88.235,55.036z"/>
	<path id="_x31__86_" display="inline" d="M106.239,34.965c-0.524,7.247-3.527,13.04-10.823,13.04
		c-7.804,0-9.308-6.903-14.403-6.903c-3.421,0-4.424,3.668-4.603,7.074h-5.582c0.372-7.032,3.768-12.997,10.781-12.997
		c7.127,0,9.607,6.69,14.403,6.69c3.291,0,4.589-3.602,4.729-6.903H106.239z"/>
</g>
<g id="&#xED;" display="none">
	<polygon id="_x31__81_" display="inline" points="100.666,32.537 89.034,48.474 82.684,48.474 90.312,32.537 	"/>
	<rect id="_x32__11_" x="83.835" y="56.357" display="inline" width="8.011" height="47.598"/>
</g>
<g id="&#xEA;" display="none">
	<path id="_x32__9_" display="inline" d="M109.946,76.641c0-13.241-6.686-21.605-20.07-21.605c-13.286,0-23.139,9.117-23.139,25.397
		c0,15.916,9.484,24.631,25.141,24.631c6.034,0,11.521-1.645,17.131-4.006v-8.736c0,0-8.14,5.752-17.216,5.752
		c-10.539,0-16.927-6.316-16.927-17.086v-6.137c0.665-7.309,5.822-13.21,14.583-13.21c8.521,0,12.642,4.801,12.698,13.21H74.876
		v6.137h35.07V76.641z"/>
	<polygon id="_x31__78_" display="inline" points="104.236,48.687 97.461,48.687 89.578,37.778 81.737,48.687 75.132,48.687 
		84.848,32.537 94.521,32.537 	"/>
</g>
<g id="&#xE8;" display="none">
	<polygon id="_x31__77_" display="inline" points="94.563,48.474 88.214,48.474 76.581,32.537 86.936,32.537 	"/>
	<path id="_x32__12_" display="inline" d="M109.946,76.641c0-13.241-6.686-21.605-20.07-21.605
		c-13.286,0-23.139,9.117-23.139,25.397c0,15.916,9.484,24.631,25.141,24.631c6.034,0,11.521-1.645,17.131-4.006v-8.736
		c0,0-8.14,5.752-17.216,5.752c-10.539,0-16.927-6.316-16.927-17.086v-6.137c0.665-7.309,5.822-13.21,14.583-13.21
		c8.521,0,12.642,4.801,12.698,13.21H74.876v6.137h35.07V76.641z"/>
</g>
<g id="&#xE9;" display="none">
	<path id="_x32__13_" display="inline" d="M109.946,76.641c0-13.241-6.686-21.605-20.07-21.605
		c-13.286,0-23.139,9.117-23.139,25.397c0,15.916,9.484,24.631,25.141,24.631c6.034,0,11.521-1.645,17.131-4.006v-8.736
		c0,0-8.14,5.752-17.216,5.752c-10.539,0-16.927-6.316-16.927-17.086v-6.137c0.665-7.309,5.822-13.21,14.583-13.21
		c8.521,0,12.642,4.801,12.698,13.21H74.876v6.137h35.07V76.641z"/>
	<polygon id="_x31__79_" display="inline" points="103.129,32.537 91.496,48.474 85.146,48.474 92.774,32.537 	"/>
</g>
<g id="&#xE1;" display="none">
	<polygon id="_x31__85_" display="inline" points="101.808,32.537 90.175,48.474 83.825,48.474 91.453,32.537 	"/>
	<path id="_x32__17_" display="inline" d="M86.169,55.207c-5.276,0-11.777,1.155-15.511,2.173v8.139
		c0.041,0,8.674-3.239,15.468-3.239c8.794,0,12.784,2.063,12.784,10.227c-4.659,0.228-9.02,0.569-13.082,1.023
		c-11.159,1.249-19.389,5.435-19.389,16.618c0,9.034,6.957,15.129,15.383,15.129c9.15,0,13.334-3.849,17.078-6.393v-6.648
		c-4.273,3.299-8.797,5.584-14.18,5.584c-5.986,0-10.014-2.166-10.014-8.225c0-6.158,4.994-8.489,11.127-9.449
		c3.604-0.569,11.114-1.048,13.077-1.162v13.252v6.648v5.07h7.969v-32.3C106.879,59.158,98.707,55.207,86.169,55.207z"/>
</g>
<g id="&#xE0;" display="none">
	<polygon id="_x31__93_" display="inline" points="93.456,48.474 87.106,48.474 75.473,32.537 85.828,32.537 	"/>
	<path id="_x32__16_" display="inline" d="M86.169,55.207c-5.276,0-11.777,1.155-15.511,2.173v8.139
		c0.041,0,8.674-3.239,15.468-3.239c8.794,0,12.784,2.063,12.784,10.227c-4.659,0.228-9.02,0.569-13.082,1.023
		c-11.159,1.249-19.389,5.435-19.389,16.618c0,9.034,6.957,15.129,15.383,15.129c9.15,0,13.334-3.849,17.078-6.393v-6.648
		c-4.273,3.299-8.797,5.584-14.18,5.584c-5.986,0-10.014-2.166-10.014-8.225c0-6.158,4.994-8.489,11.127-9.449
		c3.604-0.569,11.114-1.048,13.077-1.162v13.252v6.648v5.07h7.969v-32.3C106.879,59.158,98.707,55.207,86.169,55.207z"/>
</g>
<g id="&#xE3;" display="none">
	<path id="_x31__94_" display="inline" d="M106.239,34.965c-0.524,7.247-3.527,13.04-10.823,13.04
		c-7.804,0-9.308-6.903-14.403-6.903c-3.421,0-4.424,3.668-4.603,7.074h-5.582c0.372-7.032,3.768-12.997,10.781-12.997
		c7.127,0,9.607,6.69,14.403,6.69c3.291,0,4.589-3.602,4.729-6.903H106.239z"/>
	<path id="_x32__14_" display="inline" d="M86.169,55.207c-5.276,0-11.777,1.155-15.511,2.173v8.139
		c0.041,0,8.674-3.239,15.468-3.239c8.794,0,12.784,2.063,12.784,10.227c-4.659,0.228-9.02,0.569-13.082,1.023
		c-11.159,1.249-19.389,5.435-19.389,16.618c0,9.034,6.957,15.129,15.383,15.129c9.15,0,13.334-3.849,17.078-6.393v-6.648
		c-4.273,3.299-8.797,5.584-14.18,5.584c-5.986,0-10.014-2.166-10.014-8.225c0-6.158,4.994-8.489,11.127-9.449
		c3.604-0.569,11.114-1.048,13.077-1.162v13.252v6.648v5.07h7.969v-32.3C106.879,59.158,98.707,55.207,86.169,55.207z"/>
</g>
<g id="&#xE2;" display="none">
	<polygon id="_x31__95_" display="inline" points="102.958,48.687 96.183,48.687 88.3,37.778 80.459,48.687 73.854,48.687 
		83.57,32.537 93.243,32.537 	"/>
	<path id="_x32__15_" display="inline" d="M86.169,55.207c-5.276,0-11.777,1.155-15.511,2.173v8.139
		c0.041,0,8.674-3.239,15.468-3.239c8.794,0,12.784,2.063,12.784,10.227c-4.659,0.228-9.02,0.569-13.082,1.023
		c-11.159,1.249-19.389,5.435-19.389,16.618c0,9.034,6.957,15.129,15.383,15.129c9.15,0,13.334-3.849,17.078-6.393v-6.648
		c-4.273,3.299-8.797,5.584-14.18,5.584c-5.986,0-10.014-2.166-10.014-8.225c0-6.158,4.994-8.489,11.127-9.449
		c3.604-0.569,11.114-1.048,13.077-1.162v13.252v6.648v5.07h7.969v-32.3C106.879,59.158,98.707,55.207,86.169,55.207z"/>
</g>
<g id="a" display="none">
	<path id="_x31__90_" display="inline" d="M86.169,55.207c-5.276,0-11.777,1.155-15.511,2.173v8.139
		c0.041,0,8.674-3.239,15.468-3.239c8.794,0,12.784,2.063,12.784,10.227c-4.659,0.228-9.02,0.569-13.082,1.023
		c-11.159,1.249-19.389,5.435-19.389,16.618c0,9.034,6.957,15.129,15.383,15.129c9.15,0,13.334-3.849,17.078-6.393v-6.648
		c-4.273,3.299-8.797,5.584-14.18,5.584c-5.986,0-10.014-2.166-10.014-8.225c0-6.158,4.994-8.489,11.127-9.449
		c3.604-0.569,11.114-1.048,13.077-1.162v13.252v6.648v5.07h7.969v-32.3C106.879,59.158,98.707,55.207,86.169,55.207z"/>
</g>
<g id="D_1_" display="none">
	<path id="_x31__73_" display="inline" d="M78.968,40.505H63.116v63.45h8.428v-7.244l0.01-48.962h7.926
		c17.593,0,28.423,6.899,28.423,24.417c0,17.739-10.463,24.545-28.423,24.545h-7.926v7.244h7.585
		c26.301,0,37.584-13.022,37.584-31.661C116.723,52.963,105.375,40.505,78.968,40.505z"/>
</g>
<g id="B" display="none">
	<path display="inline" d="M100.828,67.862v-0.341c5.214-2.607,8.438-6.859,8.438-12.784c0-12.595-11.235-14.233-23.65-14.233
		H66.823v63.45h8.438v-7.201V73.146V66.03V47.707h10.056c8.036,0,15.17,0.145,15.17,8.139c0,8.578-5.761,10.184-14.318,10.184
		H75.271v7.116h13.243c10.272,0,17.386,1.179,17.386,11.633c0,10.64-9.106,11.975-19.474,11.975H75.271v7.201h14.052
		c13.961,0,25.354-5.731,25.354-19.517C114.677,75.355,109.149,69.571,100.828,67.862z"/>
</g>
<g id="space" display="none">
	<rect x="78.25" y="40.505" display="inline" fill="#FFFFFF" width="25" height="63.45"/>
</g>
<g id="_x31__75_" display="none">
	<path display="inline" d="M115.246,103.954H80.9v-6.478h13.21V54.95H80.9v-5.795c7.623,0,14.322-1.323,14.787-8.863h6.605v57.186
		h12.954V103.954z"/>
</g>
<g id="_x32__20_" display="none">
	<path display="inline" d="M118.869,103.954H75.915v-8.906c9.333-8.001,12.419-10.48,17.343-15.298
		c7.378-7.147,14.232-13.588,14.232-22.67c0-7.153-5.238-10.525-12.357-10.525c-8.907,0-17.636,5.54-17.642,5.54v-8.949
		c3.971-1.958,11.479-3.963,17.854-3.963c11.844,0,20.837,5.769,20.837,17.471c0,9.144-4.27,15.114-12.955,23.564
		c-4.716,4.63-8.484,7.956-18.493,16.448h34.133V103.954z"/>
</g>
<g id="_x33__3_" display="none">
	<path display="inline" d="M117.973,85.162c0,10.981-8.063,20.113-23.01,20.113c-6.703,0-14.09-1.867-18.792-4.006v-8.906
		c0.01,0,9.387,5.54,18.622,5.54c8.536,0,14.489-4.581,14.489-13.381c0-10.894-8.008-11.462-18.452-11.462v-7.074
		c8.976,0,17.173-1.607,17.173-10.61c0-6.566-5.818-8.821-12.357-8.821c-8.791,0-17.639,5.54-17.642,5.54v-8.906
		c4.02-1.981,11.532-4.005,17.854-4.005c10.932,0,20.795,4.313,20.795,15.298c0,12.318-12.527,14.77-12.527,14.787
		C112.618,70.685,117.973,76.098,117.973,85.162z"/>
</g>
<g id="_x34_" display="none">
	<polygon display="inline" points="110.9,79.281 110.9,40.504 103.059,40.504 72.335,76.298 72.335,86.1 102.709,86.1 
		102.709,79.281 78.131,79.281 102.719,50.646 102.719,79.281 102.719,86.1 102.719,103.954 110.9,103.954 110.9,86.1 120.316,86.1 
		120.316,79.281 	"/>
</g>
<g id="_x35_" display="none">
	<path display="inline" d="M104.872,65.638c8.327,2.229,13.485,7.861,13.485,18.161c0,10.212-6.575,21.477-23.182,21.477
		c-6.935,0-13.729-1.665-18.153-3.708v-8.991c0.068,0,9.211,5.327,17.982,5.327c9.726,0,14.702-5.733,14.702-14.147
		c0-6-2.98-9.272-7.594-10.854c-6.457-2.213-15.652-1.079-22.363,0.286V40.504h38.182v7.458H87.974v16.875
		C96.318,64.062,101.409,64.711,104.872,65.638z"/>
</g>
<g id="_x36_" display="none">
	<path display="inline" d="M98.798,63.43c-5.291,0-9.538,1.07-15.075,4.432l-0.042,6.051c4.695-2.561,8.639-3.494,13.115-3.494
		c9.836,0,14.361,4.801,14.361,13.295c0,9.818-5.36,14.616-13.253,14.616c-8.136,0-15.89-6.274-14.232-24.417l0.042-6.051
		c1.143-12.464,8.247-21.221,20.965-21.221c4.543,0,8.924,1.79,8.949,1.79v-8.139c-2.041-0.646-4.57-1.153-9.543-0.94
		c-20.052,0.854-29.192,15.682-29.192,36.735c0,16.558,6.672,29.19,22.926,29.19c11.965,0,21.989-8.547,21.989-21.903
		C119.807,69.982,110.924,63.43,98.798,63.43z"/>
</g>
<g id="_x37_" display="none">
	<polygon display="inline" points="119.039,50.007 90.318,103.954 81.199,103.954 111.752,47.961 75.617,47.961 75.617,40.504 
		119.039,40.504 	"/>
</g>
<g id="_x38_" display="none">
	<path display="inline" d="M107.055,70.418l-5.283-2.301c-8.471-2.438-17.249-5.98-17.249-13.338c0-6.377,5.823-9.46,12.23-9.46
		c6.645,0,12.486,3.378,12.486,9.971c0,6.007-2.528,9.541-7.457,12.827l5.283,2.301c5.644-2.959,10.568-8.685,10.568-15.212
		c0-10.788-10.093-16.15-20.838-16.15c-10.766,0-20.837,6.096-20.837,16.704c0,7.132,3.896,10.598,10.023,14.318l5.369,1.96
		c12.222,4.47,19.208,5.948,19.208,15.042c0,7.93-5.916,11.975-13.678,11.975c-8.138,0-14.02-5.523-14.02-13.253
		c0-6.107,3.449-11.023,8.479-13.764l-5.369-1.96c-6.868,3.094-11.718,8.774-11.718,16.363c0,12.253,10.235,18.963,22.542,18.963
		c12.005,0,22.543-7.314,22.543-19.134C119.338,78.154,114.516,73.616,107.055,70.418z"/>
</g>
<g id="_x39_" display="none">
	<path display="inline" d="M95.857,39.226c-11.93,0-21.988,8.51-21.988,21.903c0,13.32,8.802,19.943,21.008,19.943
		c5.458,0,9.767-1.235,15.076-4.432l0.041-6.051c-4.042,2.311-8.751,3.494-13.114,3.494c-9.646,0-14.361-4.511-14.361-13.295
		c0-9.679,5.429-14.616,13.253-14.616c6.539,0,10.955,3.685,13.04,9.801c1.945,5.721,1.24,13.616,1.191,14.616l-0.041,6.051
		c-0.568,6.619-2.637,11.811-6.201,15.574c-3.564,3.765-8.487,5.646-14.765,5.646c-4.712,0-8.933-1.79-8.949-1.79v8.14
		c2.316,0.772,5.218,0.979,7.67,0.979c9.405,0,17.694-2.946,23.438-10.142c5.849-7.276,7.627-17.377,7.627-26.633
		C118.783,51.564,112.266,39.226,95.857,39.226z"/>
</g>
<g id="_x30_" display="none">
	<path display="inline" d="M96.837,39.226c-11.884,0-21.945,6.184-21.945,33.067c0,26.888,10.027,32.982,21.936,32.982v-7.031
		c-12.752,0-13.286-13.163-13.286-25.951c0-12.793,0.603-26.036,13.295-26.036c12.325,0,13.295,12.583,13.295,25.951
		c0,14.991-1.476,26.037-13.295,26.037v7.031c17.918,0,21.946-15.135,21.946-33.068C118.783,45.554,108.729,39.226,96.837,39.226z"
		/>
</g>
</svg>
