<?xml version="1.0" encoding="UTF-8" standalone="no"?>
<!-- Created with Inkscape (http://www.inkscape.org/) -->

<svg
   xmlns:dc="http://purl.org/dc/elements/1.1/"
   xmlns:cc="http://creativecommons.org/ns#"
   xmlns:rdf="http://www.w3.org/1999/02/22-rdf-syntax-ns#"
   xmlns:svg="http://www.w3.org/2000/svg"
   xmlns="http://www.w3.org/2000/svg"
   xmlns:sodipodi="http://sodipodi.sourceforge.net/DTD/sodipodi-0.dtd"
   xmlns:inkscape="http://www.inkscape.org/namespaces/inkscape"
   width="210mm"
   height="297mm"
   id="svg2"
   version="1.1"
   inkscape:version="0.48.3.1 r9886"
   sodipodi:docname="robot2.svg">
  <defs
     id="defs4" />
  <sodipodi:namedview
     id="base"
     pagecolor="#ffffff"
     bordercolor="#666666"
     borderopacity="1.0"
     inkscape:pageopacity="0.0"
     inkscape:pageshadow="2"
     inkscape:zoom="2.18"
     inkscape:cx="382.44681"
     inkscape:cy="598.26748"
     inkscape:document-units="px"
     inkscape:current-layer="layer1"
     showgrid="false"
     inkscape:window-width="1920"
     inkscape:window-height="1018"
     inkscape:window-x="-8"
     inkscape:window-y="-8"
     inkscape:window-maximized="1" />
  <metadata
     id="metadata7">
    <rdf:RDF>
      <cc:Work
         rdf:about="">
        <dc:format>image/svg+xml</dc:format>
        <dc:type
           rdf:resource="http://purl.org/dc/dcmitype/StillImage" />
        <dc:title></dc:title>
      </cc:Work>
    </rdf:RDF>
  </metadata>
  <g
     inkscape:label="Calque 1"
     inkscape:groupmode="layer"
     id="layer1">
    <g
       id="g3200"
       transform="translate(95.871561,6.8807339)">
      <path
         style="fill:#fcf11d"
         d="m 283.65579,563.65045 c -3.73392,-1.60905 -4.63546,-4.6641 -3.91735,-13.27481 0.36096,-4.32822 1.36778,-9.96512 2.23737,-12.52646 2.1809,-6.42369 1.30673,-11.12599 -4.17697,-22.46865 -5.52589,-11.42989 -6.76451,-19.22966 -3.98418,-25.08879 1.66688,-3.51269 1.65559,-3.71501 -0.34958,-6.26417 -3.17193,-4.03245 -3.78376,-9.07416 -1.42437,-11.73727 1.06913,-1.20674 2.67128,-4.12836 3.56035,-6.49248 1.43373,-3.81242 1.45385,-4.75937 0.17793,-8.37572 -0.79122,-2.24253 -1.43857,-5.78079 -1.43857,-7.86279 l 0,-3.78545 -5.75,-0.39919 c -3.1625,-0.21956 -6.47773,-0.73473 -7.36718,-1.14484 -1.29792,-0.59845 -1.85117,0.18361 -2.80243,3.96143 -1.69655,6.73757 -3.75024,10.26249 -8.88893,15.25672 -3.8872,3.77792 -4.35689,4.6537 -3.35565,6.25694 1.5363,2.46001 1.42834,6.95964 -0.21904,9.12924 -1.12723,1.48457 -0.90391,2.56208 1.53181,7.39092 1.59498,3.16208 2.84174,7.24327 2.82946,9.26206 -0.0283,4.64986 -2.87539,10.86613 -7.2118,15.74609 -4.39928,4.95069 -5.08286,6.9495 -3.3055,9.66539 0.791,1.20868 1.739,4.08239 2.10668,6.38603 0.58837,3.68636 0.35403,4.47986 -1.95496,6.61976 -1.4429,1.33724 -5.43349,3.19325 -8.86796,4.12446 -3.43448,0.93122 -10.22048,3.04212 -15.08,4.69091 -9.30914,3.15849 -13.42836,3.18532 -16.9145,0.11016 -3.98754,-3.51745 -0.42373,-13.23372 4.85396,-13.23372 1.35235,0 2.70202,-0.6338 2.99928,-1.40844 0.29726,-0.77465 1.97063,-1.97247 3.71861,-2.66184 1.74798,-0.68937 4.07815,-2.05059 5.17815,-3.02495 1.1,-0.97435 3.19322,-2.22355 4.6516,-2.776 3.56678,-1.35112 4.37627,-6.49088 2.81312,-17.86154 -1.07028,-7.78537 -1.01065,-9.27119 0.53246,-13.26723 1.8559,-4.80604 2.00573,-6.64445 0.95426,-11.70824 -0.71765,-3.45609 1.14329,-7.33253 5.99688,-12.49188 2.18667,-2.32441 2.39481,-3.08227 1.49589,-5.44661 -1.49722,-3.93799 -1.22229,-17.93029 0.47539,-24.19458 0.79615,-2.93772 1.21988,-5.93461 0.94162,-6.65975 -0.80265,-2.09167 2.31257,-7.14835 6.25753,-10.15731 1.99147,-1.51897 3.11694,-2.92973 2.50105,-3.13503 -2.10343,-0.70114 -1.27804,-5.83036 1.10967,-6.89579 l 2.22948,-0.99482 -2.16056,-1.15629 c -1.63687,-0.87603 -3.38745,-0.8731 -7.22235,0.0121 -4.92625,1.13711 -7.58251,0.84741 -15.97222,-1.74198 -2.23842,-0.69086 -2.34965,-0.5483 -1.6894,2.16531 2.37658,9.76775 2.10315,10.38444 -10.34757,23.33761 -7.57108,7.87662 -9.06685,9.96103 -9.06685,12.63499 0,3.96402 -3.63238,6.69381 -8.30523,6.2415 -2.67883,-0.2593 -3.63511,-1.11672 -5.92141,-5.30924 -3.25754,-5.97354 -3.4692,-10.21571 -0.77336,-15.5 1.44858,-2.83946 2.00658,-5.9302 2.02386,-11.21016 0.046,-14.07055 2.67628,-19.0657 10.61194,-20.1534 2.49083,-0.34141 5.67743,-1.52427 7.08135,-2.62859 1.40391,-1.10432 3.3164,-2.00785 4.24998,-2.00785 1.43662,0 1.63042,-0.80784 1.26139,-5.25785 -0.54858,-6.61515 1.07375,-12.75949 4.41852,-16.73453 2.42601,-2.88314 2.48758,-3.20138 0.94847,-4.90208 -2.40797,-2.66077 -0.39912,-3.79649 7.57609,-4.28319 5.34694,-0.32631 7.03464,-0.84355 8.5,-2.60505 1.26166,-1.51662 4.30814,-2.7519 9.8284,-3.98519 6.33845,-1.41608 8.20502,-2.24887 8.98713,-4.0097 0.54292,-1.22232 1.74361,-2.22241 2.66821,-2.22241 5.26304,0 6.4916,-3.23023 1.84466,-4.85015 -3.62862,-1.26495 -3.96669,-4.17133 -0.82562,-7.09768 1.1959,-1.11415 2.7429,-3.67949 3.43778,-5.70075 1.11122,-3.23234 1.02667,-4.13905 -0.70197,-7.52747 l -1.96539,-3.85247 2.7776,-1.08585 c 1.52768,-0.59722 6.48023,-1.32862 11.00566,-1.62533 l 8.22806,-0.53948 3.86855,3.88959 c 4.4252,4.44927 8.41243,13.97411 8.10081,19.35151 -0.33238,5.73555 -0.15079,6.03808 3.62418,6.03808 1.95231,0 4.82956,0.66186 6.39388,1.4708 4.0121,2.07474 9.05646,7.35047 9.05646,9.47185 0,1.99401 1.92574,1.80439 13.4601,-1.32541 3.27805,-0.88948 7.66555,-1.61724 9.75,-1.61724 l 3.7899,0 0,7.27749 c 0,5.02225 -0.49092,7.97838 -1.58416,9.5392 -1.27181,1.81577 -1.3704,2.87491 -0.5,5.37173 1.3442,3.85598 1.38528,10.1929 0.096,14.81158 -0.97953,3.50905 -4.76735,8.38212 -7.20858,9.27391 -1.01401,0.37042 -1.03776,0.75825 -0.10701,1.74735 0.96306,1.02344 2.16886,0.85287 6.18538,-0.875 6.17529,-2.65653 9.47688,-2.70584 13.52814,-0.20202 2.61437,1.61577 10.66295,10.40613 11.77506,12.86028 0.17334,0.38251 2.20865,1.92678 4.52291,3.43171 3.26607,2.12387 4.46425,3.68881 5.3539,6.99273 1.69211,6.284 0.71728,13.72188 -2.0971,16.00083 -2.90622,2.35332 -7.6434,1.52757 -10.46455,-1.8241 -1.69869,-2.01812 -3.95672,-2.68579 -14.98788,-4.43171 -11.1452,-1.76397 -13.37977,-2.43106 -15.75,-4.70189 -1.51917,-1.45545 -2.77619,-3.57458 -2.79339,-4.70918 -0.0172,-1.1346 -1.13809,-4.31291 -2.49086,-7.06291 -2.88576,-5.86635 -3.01339,-7.29042 -0.92117,-10.27749 0.85619,-1.22238 1.41869,-2.2328 1.25,-2.24538 -0.16868,-0.0126 -3.9067,-0.16497 -8.3067,-0.33866 -4.4,-0.1737 -8.7875,-0.66155 -9.75,-1.08413 -1.35605,-0.59536 -1.74999,-0.29401 -1.74999,1.33867 0,1.15884 -0.41356,2.10699 -0.91902,2.10699 -0.50545,0 -1.36746,2.10262 -1.91556,4.6725 -0.93331,4.37599 -0.83688,4.79809 1.51957,6.65167 2.82187,2.21969 6.66989,10.2926 5.67408,11.90386 -0.35602,0.57604 -0.72782,4.92289 -0.82623,9.65966 -0.23084,11.11057 -2.66441,18.84414 -7.74667,24.61789 -4.0384,4.58787 -4.11095,5.76782 -0.51395,8.35956 1.49408,1.07653 1.82414,2.35035 1.5612,6.02532 -0.31305,4.37551 -0.0772,4.89173 3.8608,8.45083 7.21037,6.51658 8.45184,16.19028 3.80626,29.65871 -2.72724,7.90677 -2.75397,15.69338 -0.0652,19 2.581,3.17412 3.76331,9.87348 2.43709,13.80942 -0.68394,2.02982 -1.27252,5.46339 -1.30794,7.63016 -0.0542,3.3134 -0.55555,4.22712 -3.15441,5.74861 -3.5964,2.1055 -13.92306,3.23275 -17.09462,1.86604 z M 273.34042,331.09622 c 0,-0.93333 -0.94444,-1.5 -2.5,-1.5 -2.85343,0 -3.38032,1.6233 -0.75,2.31067 3.01232,0.78721 3.25,0.72792 3.25,-0.81067 z"
         id="path3214"
         inkscape:connector-curvature="0" />
      <path
         style="fill:#eab317"
         d="m 283.65579,563.65045 c -3.73392,-1.60905 -4.63546,-4.6641 -3.91735,-13.27481 0.36096,-4.32822 1.36778,-9.96512 2.23737,-12.52646 2.1809,-6.42369 1.30673,-11.12599 -4.17697,-22.46865 -5.52589,-11.42989 -6.76451,-19.22966 -3.98418,-25.08879 1.66688,-3.51269 1.65559,-3.71501 -0.34958,-6.26417 -3.17844,-4.04073 -3.78466,-9.07584 -1.41316,-11.73727 1.07529,-1.20674 2.70939,-4.21908 3.63134,-6.69408 2.702,-7.25361 3.22146,-7.75638 5.33768,-5.16618 2.42385,2.96675 8.40596,3.93684 10.62052,1.72229 4.6527,-4.65271 6.61968,-20.92107 4.21814,-34.88712 -0.92977,-5.40705 -1.40537,-10.11614 -1.05687,-10.46463 2.27221,-2.27222 9.64266,9.7593 7.53456,12.29942 -0.66124,0.79674 -0.85025,2.76085 -0.46387,4.82043 0.86377,4.60431 -1.08376,16.76073 -3.63543,22.69227 -1.12349,2.61161 -3.36005,6.01048 -4.97014,7.55304 -3.57336,3.4235 -3.59656,3.86191 -0.35356,6.68166 2.18244,1.8976 2.52461,2.92697 2.25,6.7687 -0.30171,4.22074 -0.0369,4.79014 3.87035,8.32141 7.21037,6.51658 8.45184,16.19028 3.80626,29.65871 -2.72724,7.90677 -2.75397,15.69338 -0.0652,19 2.581,3.17412 3.76331,9.87348 2.43709,13.80942 -0.68394,2.02982 -1.27252,5.46339 -1.30794,7.63016 -0.0542,3.3134 -0.55555,4.22712 -3.15441,5.74861 -3.5964,2.1055 -13.92306,3.23275 -17.09462,1.86604 z m -80.81537,-18.77347 c -3.39605,-0.82734 -5.5,-3.42893 -5.5,-6.80089 0,-4.13181 3.38619,-8.47987 6.60396,-8.47987 1.35235,0 2.70202,-0.6338 2.99928,-1.40844 0.29726,-0.77465 1.97063,-1.97247 3.71861,-2.66184 1.74798,-0.68937 4.07815,-2.05059 5.17815,-3.02495 1.1,-0.97435 3.19322,-2.22355 4.6516,-2.776 3.56678,-1.35112 4.37627,-6.49088 2.81312,-17.86154 -1.07028,-7.78537 -1.01065,-9.27119 0.53246,-13.26723 1.83562,-4.75352 1.9639,-6.35593 0.9617,-12.01299 -0.53338,-3.01075 -0.0745,-4.25818 3.20938,-8.72535 2.10746,-2.8668 4.43485,-5.44991 5.17198,-5.74026 1.86495,-0.73456 3.15976,0.26088 3.15976,2.42921 0,1.16518 1.0015,2.08394 2.75,2.52279 4.04602,1.0155 7.29285,-3.46693 10.66072,-14.71772 1.52265,-5.08661 3.17136,-9.49739 3.66381,-9.80174 0.49244,-0.30435 1.16165,-1.88484 1.48712,-3.51219 0.43246,-2.16232 0.0318,-3.60454 -1.48852,-5.35742 -1.14415,-1.31923 -3.04911,-5.05569 -4.23323,-8.30327 -1.18412,-3.24757 -3.43252,-7.27445 -4.99643,-8.94862 -4.32274,-4.62751 -3.22316,-10.06658 1.65653,-8.19407 0.825,0.31659 1.48419,0.41496 1.46487,0.21862 -0.0193,-0.19635 -0.84248,-3.24428 -1.82924,-6.77319 -1.22554,-4.38284 -2.00352,-5.87044 -2.45493,-4.6941 -0.36346,0.94715 0.01,3.3269 0.82923,5.28832 1.89875,4.54434 1.88839,4.60552 -0.55801,3.29625 -1.47497,-0.78938 -3.50373,-0.7951 -7.25,-0.0204 -4.14168,0.85642 -6.40287,0.76196 -11.09423,-0.46344 -3.24077,-0.84651 -6.13958,-1.29184 -6.4418,-0.98962 -0.30222,0.30222 -0.0132,2.03263 0.64231,3.84536 2.48627,6.87567 1.30526,9.16192 -11.66403,22.57961 -6.75011,6.98348 -8.14417,8.97508 -8.14417,11.63499 0,3.43182 -3.18053,6.43927 -6.80983,6.43927 -3.64438,0 -7.96787,-7.27024 -8.40984,-14.1417 -0.27357,-4.25322 -0.208,-4.35638 2.71967,-4.27865 2.97505,0.079 4.82314,-1.24778 3.875,-2.7819 -0.27117,-0.43876 -1.5003,-0.79775 -2.73141,-0.79775 -2.12859,0 -2.22257,-0.33108 -1.91615,-6.75 0.89947,-18.84221 2.56338,-22.46975 10.82605,-23.60228 2.5361,-0.34761 5.75974,-1.53555 7.16366,-2.63987 1.40391,-1.10432 3.3164,-2.00785 4.24998,-2.00785 1.43662,0 1.63042,-0.80784 1.26139,-5.25785 -0.54259,-6.54295 1.09425,-12.86095 4.26859,-16.47621 l 2.4286,-2.76594 -2.172,4.46151 c -1.62495,3.33779 -2.1823,6.36022 -2.21286,12 -0.0388,7.15955 0.077,7.55517 2.30261,7.87029 1.36374,0.19308 3.03599,1.59296 4,3.34848 3.65863,6.66264 5.06996,7.81972 9.53799,7.81972 2.32996,0 4.99064,-0.5625 5.91261,-1.25 1.54461,-1.15178 1.46141,-1.68185 -1.05887,-6.74601 -2.61964,-5.26384 -2.73519,-6.13885 -2.73519,-20.71313 0,-12.19823 0.29783,-15.51519 1.50128,-16.71955 0.8257,-0.82634 5.1007,-2.31785 9.5,-3.31446 6.32223,-1.43224 8.20562,-2.27783 8.98585,-4.03444 0.56132,-1.26375 1.8808,-2.22241 3.05887,-2.22241 1.13946,0 2.94525,-0.64565 4.01287,-1.43479 1.8492,-1.36683 1.76353,-1.50954 -1.80887,-3.01342 -4.88076,-2.05464 -4.82134,-4.24515 0.25277,-9.31927 3.38724,-3.38724 4.86105,-4.11 9.58419,-4.70012 3.06978,-0.38354 5.84354,-0.43524 6.1639,-0.11487 0.32036,0.32036 -0.16753,0.58247 -1.08419,0.58247 -0.91667,0 -1.66667,0.45 -1.66667,1 0,0.55 0.4132,1 0.91821,1 0.50502,0 1.63002,0.27315 2.5,0.60699 1.04665,0.40163 1.58179,0.0514 1.58179,-1.03519 0,-1.34513 0.37045,-1.44391 2.04806,-0.54608 1.35763,0.72658 1.85325,1.70986 1.4702,2.91676 -0.35625,1.12243 0.009,2.04581 0.95194,2.40771 2.74869,1.05477 1.85368,-4.95615 -1.25619,-8.43671 l -2.786,-3.11807 -5.39551,1.6023 c -8.33569,2.47543 -9.32896,2.23008 -11.83241,-2.92277 l -2.19845,-4.52507 2.74918,-1.07504 c 1.51205,-0.59128 6.45181,-1.31782 10.97724,-1.61453 l 8.22806,-0.53948 3.86855,3.88959 c 4.4252,4.44927 8.41243,13.97411 8.10081,19.35151 -0.33437,5.77 -0.16562,6.0371 3.82452,6.05339 2.0625,0.008 4.425,0.45153 5.25,0.98469 1.05049,0.67888 -0.52277,0.97396 -5.25,0.98469 -5.07334,0.0115 -6.75,0.35896 -6.75,1.39881 0,0.97299 2.00288,1.58893 6.75,2.07581 3.7125,0.38077 7.82962,0.94882 9.14915,1.26234 1.81488,0.43121 2.20098,0.24938 1.5854,-0.74665 -0.44757,-0.72419 0.37117,-0.45231 1.81942,0.60415 3.28666,2.39755 3.37509,5.24427 0.25481,8.20261 -3.0327,2.8753 -4.22934,8.44258 -5.12299,23.83441 -0.66912,11.52474 -0.5993,12.22032 1.43038,14.25 1.5801,1.5801 3.36645,2.13343 6.88383,2.13228 6.84635,-0.002 11.10474,-2.54664 14.75689,-8.81727 1.70379,-2.92536 3.56938,-5.62536 4.14575,-6 2.46026,-1.59918 3.2747,-4.86032 2.19484,-8.78846 -0.58857,-2.14099 -1.36184,-4.11772 -1.71838,-4.39272 -0.35653,-0.275 -1.54394,-2.23621 -2.63867,-4.35824 -2.1601,-4.18714 -8.05402,-9.64176 -10.41827,-9.64176 -0.92918,0 -1.12177,-0.34981 -0.52216,-0.94843 1.40532,-1.40299 12.29629,-4.05157 16.6601,-4.05157 l 3.7899,0 0,7.27749 c 0,5.02225 -0.49092,7.97838 -1.58416,9.5392 -1.27181,1.81577 -1.3704,2.87491 -0.5,5.37173 2.71097,7.7767 0.73461,16.94314 -4.63922,21.51689 -2.91323,2.47949 -3.49633,3.47498 -2.57505,4.39626 0.92127,0.92127 2.3207,0.70495 6.18007,-0.95531 8.93258,-3.84269 13.46364,-2.31284 20.87452,7.04798 2.31028,2.91817 4.92033,6.05181 5.80011,6.96364 1.47026,1.52382 1.43158,1.7112 -0.47834,2.31739 -1.14286,0.36273 -2.07793,1.05262 -2.07793,1.5331 0,1.60945 2.07251,2.17634 3.53107,0.96584 2.30427,-1.91237 4.27504,-0.40797 5.51942,4.2133 1.47502,5.47781 0.80001,15.65694 -1.12005,16.89018 -2.18492,1.40336 -7.195,-0.0162 -9.43044,-2.672 -1.69869,-2.01812 -3.95672,-2.68579 -14.98788,-4.43171 -11.01251,-1.74297 -13.39606,-2.44667 -15.67156,-4.62673 -3.20683,-3.07234 -4.52732,-10.20048 -2.94874,-15.91761 1.18972,-4.30881 0.0404,-6.71452 -2.71493,-5.68297 -1.46097,0.54696 -1.50017,0.41054 -0.30445,-1.05944 0.75485,-0.92798 1.20485,-1.71971 1,-1.75942 -0.20484,-0.0397 -3.52244,-0.17458 -7.37244,-0.29972 -3.85,-0.12514 -8.2375,-0.59144 -9.75,-1.03622 -2.38617,-0.70169 -2.75,-0.52974 -2.75,1.29972 0,1.15963 -0.42961,2.10841 -0.95469,2.10841 -0.52507,0 -1.25875,1.6875 -1.63039,3.75 -0.8854,4.91376 -2.05839,6.25 -5.48647,6.25 -2.03027,0 -3.54537,0.94227 -5.37756,3.34439 -1.40299,1.83942 -2.55089,3.64634 -2.55089,4.01539 0,0.36904 -1.56313,3.02657 -3.47363,5.9056 -2.30595,3.47497 -3.74107,7.08348 -4.2692,10.73462 l -0.79556,5.5 -5.4808,-0.0435 c -3.01445,-0.0239 -6.21596,-0.38947 -7.11447,-0.81234 -1.34356,-0.63233 -2.00194,0.44089 -3.70751,6.04348 -1.14061,3.74679 -2.88046,7.55201 -3.86633,8.45604 -0.98588,0.90402 -3.34569,3.29464 -5.24403,5.31247 -2.96871,3.15557 -3.28345,3.93793 -2.25,5.59275 1.56946,2.51311 1.48075,6.99959 -0.1817,9.18903 -1.12723,1.48457 -0.90391,2.56208 1.53181,7.39092 1.59498,3.16208 2.84174,7.24327 2.82946,9.26206 -0.0283,4.64986 -2.87539,10.86613 -7.2118,15.74609 -4.39928,4.95069 -5.08286,6.9495 -3.3055,9.66539 0.791,1.20868 1.739,4.08239 2.10668,6.38603 0.58995,3.69625 0.35626,4.47779 -1.9887,6.65103 -1.57347,1.45824 -5.80203,3.31669 -10.36796,4.5567 -4.24092,1.15176 -10.86076,3.2118 -14.71076,4.57788 -7.05206,2.50226 -8.34559,2.69701 -12,1.80673 z m 30.83308,-18.04532 c 0.72492,-0.39694 -4.58339,-4.23544 -5.85725,-4.23544 -0.26171,0 -0.47583,1.0875 -0.47583,2.41667 0,3.24519 2.4455,3.9475 6.33308,1.81877 z m 12.66692,-52.73544 c 0,-0.825 -0.87344,-1.5 -1.94098,-1.5 -2.326,0 -3.58631,1.62162 -1.81525,2.33564 2.38833,0.96288 3.75623,0.65857 3.75623,-0.83564 z m 39.32667,-69.38334 c 0.31716,-1.58583 0.8722,-4.06083 1.23341,-5.5 0.3739,-1.48975 0.23442,-2.61666 -0.32386,-2.61666 -0.53933,0 -1.26214,1.76066 -1.60625,3.91258 -0.34411,2.15192 -0.89976,4.62692 -1.2348,5.5 -0.33503,0.87308 -0.16725,1.58742 0.37284,1.58742 0.5401,0 1.24149,-1.2975 1.55866,-2.88334 z m -70.08018,-6.60757 c -0.26691,-1.39625 -0.84917,-2.76353 -1.2939,-3.03839 -1.38342,-0.855 -2.18415,3.54536 -0.9219,5.06628 1.67269,2.01547 2.79277,0.99037 2.2158,-2.02789 z m 47.25351,-33.50909 1.55136,-3 -3.52568,0 c -3.69107,0 -4.21162,0.8498 -2.4905,4.06574 1.44847,2.70649 2.66419,2.4163 4.46482,-1.06574 z m 11.29224,-15.58227 c 0.38927,-0.58499 1.60776,-1.41336 2.70776,-1.84083 1.89515,-0.73648 1.86894,-0.82819 -0.5,-1.74947 -1.67164,-0.6501 -5.03867,-0.58096 -10.16175,0.20868 -6.25925,0.96476 -7.75721,1.546 -8.18328,3.17527 -0.49437,1.89048 -0.10621,1.97547 7.45399,1.63214 4.38654,-0.1992 8.29402,-0.84081 8.68328,-1.42579 z m -40.26823,79.42253 c -0.7853,-1.94911 1.38908,-6.54664 4.37361,-9.24761 2.72303,-2.4643 2.66403,-2.09778 -0.80126,4.97822 -2.14344,4.37684 -3.07871,5.4946 -3.57235,4.26939 z m -18.84133,-63.6384 c -2.37017,-2.61901 -0.36238,-4.20908 5.26732,-4.17145 3.87135,0.0259 4.25169,0.19539 2.55,1.13657 -1.1,0.60839 -2.93644,1.95169 -4.08097,2.98511 -2.01524,1.8196 -2.13326,1.82117 -3.73635,0.0498 z"
         id="path3212"
         inkscape:connector-curvature="0" />
      <path
         style="fill:#ea0101"
         d="m 283.68964,563.17854 c -2.17875,-0.96971 -3.35411,-2.32812 -3.80988,-4.4032 -0.74317,-3.38363 1.01749,-17.97438 2.65755,-22.02335 1.93123,-4.76781 0.88285,-10.29061 -3.76583,-19.83813 -5.99571,-12.31408 -7.2305,-18.57732 -5.00432,-25.38348 1.54755,-4.73136 1.55421,-5.29773 0.0814,-6.92519 -0.88221,-0.97483 -2.07085,-3.46315 -2.64143,-5.5296 -0.88356,-3.19998 -0.74418,-4.1538 0.93981,-6.43152 1.08747,-1.47088 2.9813,-5.00837 4.2085,-7.86109 1.22721,-2.85272 2.55613,-5.18676 2.95316,-5.18676 0.39702,0 1.51373,0.875 2.48157,1.94445 0.96784,1.06945 3.17508,2.08195 4.90499,2.25 2.49537,0.24241 3.21451,0.82212 3.4803,2.80555 0.18427,1.375 1.48309,3.71364 2.88629,5.19697 2.16283,2.28636 2.45536,3.29672 1.92136,6.63618 -0.58262,3.64351 -0.36696,4.13977 2.87294,6.61096 7.92185,6.04229 9.61031,16.5606 4.86527,30.30822 -2.87214,8.32134 -2.83696,15.98124 0.0883,19.21356 0.84198,0.93037 1.53087,2.47324 1.53087,3.42859 0,0.95535 0.47626,2.62691 1.05837,3.71458 0.78124,1.45976 0.6404,3.41531 -0.53788,7.46846 -0.87794,3.01999 -1.32515,5.92952 -0.99382,6.46563 3.18963,5.16094 -12.4181,10.99266 -20.17745,7.53917 z m -84.34922,-20.58232 c -2.77983,-2.77983 -2.57572,-7.51519 0.45454,-10.54545 1.35001,-1.35 3.38913,-2.45455 4.53139,-2.45455 1.14226,0 2.32005,-0.6338 2.61731,-1.40844 0.29726,-0.77465 1.97063,-1.98455 3.71861,-2.68867 1.74798,-0.70413 4.57063,-2.32033 6.27254,-3.59156 1.70192,-1.27123 3.78317,-2.31133 4.625,-2.31133 2.29448,0 2.89378,-4.99323 2.15925,-17.99035 -0.56012,-9.91112 -0.40317,-12.06154 1.09128,-14.95148 1.51655,-2.93269 1.57786,-3.88336 0.46744,-7.24797 -1.50289,-4.55381 -0.21225,-8.14965 5.0945,-14.19371 3.70038,-4.2145 4.57905,-4.43141 5.53553,-1.36649 0.90547,2.90143 2.21868,3.71584 6.0221,3.73469 2.3322,0.0116 3.37394,0.63963 4.25,2.56236 1.56305,3.43054 1.46361,5.13125 -0.49376,8.44481 -1.57499,2.66626 -1.5512,2.93147 0.49661,5.53484 2.88562,3.66847 4.3917,9.67753 3.56857,14.23812 -0.87265,4.83491 -1.7554,6.45864 -7.03555,12.94125 -4.76266,5.84725 -5.04724,6.82153 -2.84356,9.73506 0.81104,1.07229 1.4682,4.06106 1.4682,6.67742 0,6.05208 -2.18877,7.9004 -12.74329,10.76113 -4.26619,1.15632 -10.12404,3.00643 -13.01744,4.11136 -6.93093,2.64678 -13.59777,2.65046 -16.23927,0.009 z m 34.25,-14.98635 c 1.82214,-0.0332 0.46908,-1.98184 -2.6566,-3.82604 l -3.4066,-2.00994 -0.55155,2.10913 c -0.73169,2.79799 1.20592,4.99166 3.79489,4.29638 1.13842,-0.30573 2.40736,-0.56202 2.81986,-0.56953 z m 12.75,-53.51365 c 0,-2.74183 -2.64781,-3.45219 -4.80965,-1.29035 -0.9462,0.9462 -0.71752,1.48296 1.05,2.46457 3.23643,1.79737 3.75965,1.63395 3.75965,-1.17422 z m -58.58731,-30.05877 c -1.46939,-2.50732 -2.8932,-6.52472 -3.16404,-8.92755 -0.48943,-4.34222 -0.47197,-4.37074 2.87127,-4.69123 4.43835,-0.42547 5.49329,-3.82245 1.18708,-3.82245 l -2.83966,0 0.66524,-9.90149 c 0.36588,-5.44582 0.97028,-11.29033 1.34311,-12.98781 0.88026,-4.00782 4.8947,-7.1107 9.19966,-7.1107 1.8731,0 4.66179,-0.92872 6.1971,-2.06382 1.53531,-1.1351 3.64455,-2.18903 4.68721,-2.34206 1.65541,-0.24296 1.90748,-1.21737 1.98834,-7.68618 0.069,-5.51826 0.63735,-8.42829 2.2281,-11.40794 2.50144,-4.68543 2.85996,-4.26655 0.7239,0.84576 -0.84527,2.02301 -1.5,6.62475 -1.5,10.54267 0,6.91636 0.0157,6.95611 3.00832,7.6134 1.65457,0.3634 3.52005,1.63666 4.14551,2.82945 1.10079,2.0993 1.07399,2.1127 -0.83706,0.41872 -2.44852,-2.1704 -3.92129,-2.223 -4.70978,-0.16821 -1.16389,3.03303 -0.58716,4.94342 2.321,7.68826 3.38834,3.19804 5.52509,8.78861 4.66652,12.20941 -0.51214,2.04054 -7.19523,9.83292 -17.99155,20.97788 -1.84104,1.90048 -2.97017,4.19508 -3.09766,6.29499 -0.22101,3.64025 -2.74557,6.16592 -6.21315,6.21587 -1.57973,0.0228 -2.9679,-1.26514 -4.87946,-4.52697 z m 11.58731,-11.06367 c 0,-3.10657 -0.21362,-3.44516 -1.5,-2.37756 -1.55144,1.28758 -2.00112,4.16555 -0.83333,5.33333 1.50779,1.5078 2.33333,0.46204 2.33333,-2.95577 z m 62.28754,11.01791 c -2.06954,-1.0365 -4.00786,-3.26087 -5.44814,-6.25219 -1.22963,-2.5538 -2.80193,-5.21832 -3.49399,-5.92115 -0.69206,-0.70283 -2.24134,-3.97396 -3.44284,-7.26918 -1.2015,-3.29522 -3.5124,-7.28954 -5.13534,-8.87627 -3.79081,-3.70622 -3.40835,-6.57737 0.87584,-6.5749 l 3.09306,0.002 -1.36807,-3.87751 c -0.75243,-2.13265 -1.36806,-5.39595 -1.36806,-7.2518 0,-1.85585 -0.44143,-3.37427 -0.98095,-3.37427 -1.5829,0 -2.21798,4.34658 -1.07451,7.35413 1.45451,3.82566 1.41142,3.88316 -1.69454,2.26083 -9.32394,-4.87017 -13.43908,-18.18001 -11.77975,-38.1 0.71713,-8.60908 0.75783,-8.71231 3.96344,-10.0517 1.78138,-0.74431 6.20686,-1.90016 9.83441,-2.56856 5.58614,-1.02929 6.68542,-1.57336 7.18277,-3.55499 0.45136,-1.79836 1.27695,-2.33971 3.56818,-2.33971 1.88131,0 2.98095,0.51387 2.98095,1.39301 0,2.75635 5.93413,3.40778 13.55718,1.48827 2.44355,-0.61529 4.44282,-1.51529 4.44282,-2 0,-0.4847 0.675,-0.88128 1.5,-0.88128 0.825,0 1.5,-0.45 1.5,-1 0,-0.55 1.09234,-1 2.42742,-1 1.39556,0 3.25998,-1.05843 4.386,-2.48993 1.86244,-2.36771 1.98413,-2.39225 2.47896,-0.5 0.40105,1.53362 1.40175,2.00605 4.364,2.06022 3.06134,0.056 3.43657,0.2452 1.84362,0.92971 -1.1,0.47269 -3.4625,0.89106 -5.25,0.92971 -2.06005,0.0446 -3.25,0.57474 -3.25,1.44804 0,1.5032 14.75924,4.31235 17.37775,3.30754 1.45962,-0.56011 4.62225,2.15565 4.62225,3.96914 0,0.54832 -1.05858,1.99142 -2.35239,3.2069 -3.68069,3.45782 -4.82461,9.26876 -5.60699,28.48262 -0.43264,10.6248 -1.15282,18.10936 -1.78012,18.5 -0.57943,0.36083 -1.56743,2.56855 -2.19555,4.90605 -0.83901,3.12229 -1.65001,4.25 -3.05644,4.25 -3.99329,0 -6.66948,2.36988 -11.7153,10.37438 -3.359,5.3286 -5.67207,10.36533 -6.51785,14.19274 l -1.31106,5.93288 -3.98215,0.25219 c -2.19018,0.13871 -5.42776,-0.47182 -7.19461,-1.35672 z m 27.96246,-36.38182 c 4.09954,-0.0204 3.81133,-4.59264 -0.55634,-8.82595 l -3.30634,-3.20463 -1.57792,6.59483 -1.57791,6.59483 2.13425,-0.57271 c 1.17384,-0.31499 3.37176,-0.57885 4.88426,-0.58637 z m -26.77568,-41.96399 c 2.07853,-4.01944 2.06006,-4.04966 -2.47432,-4.04966 -4.55217,0 -4.6258,0.13202 -2.28439,4.09571 2.15187,3.64282 2.85464,3.63602 4.75871,-0.0461 z m 94.71918,74.22487 c -1.26858,-0.23564 -2.78667,-1.4823 -3.37355,-2.77034 -1.11735,-2.45234 -0.6088,-2.31599 -20.63125,-5.53143 -4.74599,-0.76217 -8.18533,-1.92827 -9.80235,-3.32345 -3.31034,-2.8562 -4.56175,-8.73301 -3.20587,-15.05526 0.94732,-4.41722 0.85684,-5.15014 -0.80674,-6.53464 -2.64955,-2.20507 -2.52469,-4.64067 0.31584,-6.16087 1.92891,-1.03232 2.83882,-1.04965 4.38586,-0.0835 1.5995,0.9989 3.09375,0.82059 8.27405,-0.98735 7.78599,-2.71733 10.48431,-1.90474 16.86237,5.07808 9.6296,10.54266 9.7545,10.83589 5.28814,12.41535 -0.59421,0.21013 -0.44926,1.02086 0.35719,1.99788 1.21038,1.46638 1.58602,1.48397 3.47251,0.16262 2.92035,-2.04549 3.24354,-1.92613 4.7712,1.76198 1.2494,3.01632 1.92878,17.11074 0.87132,18.07662 -0.94967,0.86743 -4.53169,1.37171 -6.77872,0.95431 z m -4.9804,-10.27313 c 0.34443,-2.34671 -0.0846,-3.34238 -1.97326,-4.57991 -1.32735,-0.86971 -2.63072,-1.36395 -2.89637,-1.0983 -0.47889,0.4789 3.36019,8.67681 4.06335,8.67681 0.2014,0 0.56423,-1.34937 0.80628,-2.9986 z m -54.4206,-2.7514 c -2.91168,-3.10151 -4.52003,-8.68233 -2.80724,-9.74089 1.61239,-0.99651 3.5627,0.99779 5.95695,6.09133 3.08465,6.56231 1.40828,8.50472 -3.14971,3.64956 z m -64.7925,0.70034 c 0,-1.71194 2.73545,-6.48646 4.59668,-8.02317 0.95071,-0.78494 1.52724,-0.97717 1.28118,-0.42717 -0.24606,0.55 -1.2681,2.9125 -2.2712,5.25 -1.69213,3.94312 -3.60666,5.64197 -3.60666,3.20034 z m 97.60568,-38.65073 c 0.65169,-4.31709 -2.09298,-18.29961 -3.59208,-18.29961 -0.42403,0 -1.30888,-1.29866 -1.96635,-2.88592 -1.41978,-3.42767 -6.69682,-9.03567 -9.53249,-10.13034 -1.84759,-0.71324 -1.76585,-0.87612 0.98524,-1.96308 3.01461,-1.19109 12.48582,-3.00406 15.75,-3.01487 1.49501,-0.005 1.7491,0.97776 1.74384,6.74421 -0.004,4.12781 -0.60569,7.89973 -1.54945,9.70963 -1.2846,2.46352 -1.34924,3.76853 -0.38561,7.7854 1.18622,4.94469 0.65307,12.08207 -1.10215,14.75497 -0.6845,1.04237 -0.79157,0.21851 -0.35095,-2.70039 z M 214.66332,363.99529 c -0.79707,-2.07712 1.32093,-3.36458 5.56665,-3.38376 l 3.38954,-0.0153 -3.68395,2.5 c -4.34782,2.95051 -4.47661,2.97247 -5.27224,0.89907 z m 39.9271,-20.98351 c -1.7875,-0.78171 -3.25,-2.08842 -3.25,-2.90379 0,-0.81538 2.0903,-3.51409 4.64512,-5.99713 5.0268,-4.8856 9.04266,-5.82172 12.79601,-2.98284 2.55498,1.93249 4.55887,1.86469 4.55887,-0.15425 0,-2.41324 2.7924,0.15584 3.18997,2.93486 0.3575,2.49898 3.66157,3.52946 4.92489,1.53598 3.13712,-4.95026 -2.9108,-11.70422 -9.34635,-10.43745 -1.79768,0.35385 -5.61245,0.91033 -8.47727,1.23662 -5.20726,0.59309 -5.20926,0.59221 -6.93999,-3.03716 -2.13134,-4.46949 -1.46214,-5.26185 5.57038,-6.59554 11.75771,-2.2298 17.04054,-0.45635 21.36564,7.17247 2.77237,4.89004 5.17452,13.00215 4.43783,14.98664 -0.47662,1.28394 -0.66019,0.9692 -2.43442,-4.17397 -0.33589,-0.97368 -0.94588,-0.27192 -1.73845,2 -1.17475,3.36743 -1.44506,3.52011 -7.13661,4.03103 -3.25359,0.29206 -7.35577,1.30456 -9.11596,2.25 -3.8015,2.04187 -8.57571,2.09108 -13.04966,0.13453 z"
         id="path3210"
         inkscape:connector-curvature="0" />
      <path
         style="fill:#c50000"
         d="m 288.15511,560.74214 c 0.28487,-2.98709 0.95436,-4.17529 2.8355,-5.0324 5.24951,-2.39183 -0.32115,-4.16999 -6.412,-2.04671 -2.8226,0.98397 -2.99277,1.30212 -2.19123,4.09692 0.47796,1.66656 1.39302,3.66149 2.03347,4.43319 1.22965,1.48163 0.17974,1.88003 -1.68073,0.63777 -2.99242,-1.9981 -3.54334,-5.26807 -2.43012,-14.42374 0.60663,-4.98922 1.68126,-10.17503 2.38806,-11.52402 2.02035,-3.85596 0.40746,-11.81638 -4.24369,-20.94478 -5.95174,-11.68096 -6.96613,-18.49978 -3.94416,-26.51293 0.80935,-2.14609 0.61723,-3.2266 -0.97794,-5.5 -3.02623,-4.31292 -3.48466,-8.75904 -1.1873,-11.51514 l 1.92891,-2.31408 0.0333,5.19098 c 0.0354,5.52087 1.20344,7.24261 3.57707,5.27267 1.00925,-0.8376 1.4562,-3.26082 1.4562,-7.89497 0,-8.5176 1.14184,-10.13796 6.5,-9.22403 3.27415,0.55847 4.06079,1.13349 4.33502,3.16881 0.18427,1.3676 1.48309,3.70018 2.88629,5.18351 2.16283,2.28636 2.45536,3.29672 1.92136,6.63618 -0.58262,3.64351 -0.36696,4.13977 2.87294,6.61096 7.92185,6.04229 9.61031,16.5606 4.86527,30.30822 -2.87214,8.32134 -2.83696,15.98124 0.0883,19.21356 0.84198,0.93037 1.53087,2.47324 1.53087,3.42859 0,0.95535 0.47626,2.62691 1.05837,3.71458 0.78124,1.45976 0.6404,3.41531 -0.53788,7.46846 -0.87794,3.01999 -1.32515,5.92952 -0.99382,6.46563 2.05525,3.32547 -3.2887,7.19619 -11.55578,8.37005 l -4.52911,0.6431 0.37291,-3.91038 z m 3.68531,-19.10162 c 1.8397,-0.7498 1.77976,-0.87304 -0.74776,-1.53756 -1.51127,-0.39734 -3.52366,-0.42469 -4.47198,-0.0608 -1.47671,0.56667 -1.51292,0.79526 -0.25223,1.59253 1.74081,1.10091 2.78234,1.10202 5.47197,0.006 z m -0.0967,-4.2943 c -1.874,-3.27751 -2.65342,-3.78732 -4.036,-2.63989 -2.4075,1.99805 -1.58475,3.88989 1.6917,3.88989 2.16173,0 2.84937,-0.36666 2.3443,-1.25 z m -2.4385,-7.68426 c 1.61209,-3.01223 1.22302,-6.46734 -0.87589,-7.77813 -2.42601,-1.51507 -2.91903,-0.35328 -2.31805,5.46239 0.4747,4.59358 1.55549,5.3772 3.19394,2.31574 z m -5.69042,-30.81574 c -0.61354,-8.32158 -1.60989,-9.95284 -4.76849,-7.80713 -3.8462,2.61281 -0.98172,15.55713 3.44268,15.55713 1.74889,0 1.85253,-0.60585 1.32581,-7.75 z m 5.0013,-7 c 1.90341,-3.48378 1.68952,-3.83693 -1.34142,-2.21482 -1.64483,0.88029 -1.91075,2.03996 -1.77716,7.75 0.14324,6.1221 0.20944,6.3176 0.75,2.21482 0.3261,-2.475 1.39196,-5.9625 2.36858,-7.75 z m -89.38825,50.63743 c -3.89525,-3.89525 -0.3361,-12.88743 5.10091,-12.88743 0.97172,0 2.35749,-0.71177 3.07948,-1.58172 1.28482,-1.54811 4.7259,-3.57626 12.11618,-7.14119 4.63828,-2.23742 5.12418,-4.48637 4.22366,-19.54889 -0.57674,-9.6469 -0.42225,-11.79931 1.05146,-14.64915 1.47657,-2.85537 1.55455,-3.95856 0.5368,-7.59361 -1.26863,-4.53111 -0.77595,-6.3077 3.15317,-11.3703 2.46996,-3.18249 2.35863,-1.40167 -0.14909,2.38486 -2.2832,3.44752 -2.38941,4.34557 -0.9589,8.10809 0.88426,2.3258 1.23636,2.52391 2.33737,1.3151 0.71296,-0.78275 1.82972,-3.86443 2.48169,-6.84818 1.49817,-6.85637 2.77017,-8.58754 4.81058,-6.54713 0.80966,0.80967 2.94274,1.47212 4.74017,1.47212 2.53161,0 3.52958,0.57397 4.42858,2.54705 1.56305,3.43054 1.46361,5.13125 -0.49376,8.44481 -1.57499,2.66626 -1.5512,2.93147 0.49661,5.53484 2.88562,3.66847 4.3917,9.67753 3.56857,14.23812 -0.87265,4.83491 -1.7554,6.45864 -7.03555,12.94125 -4.76266,5.84725 -5.04724,6.82153 -2.84356,9.73506 0.81104,1.07229 1.4682,4.06106 1.4682,6.67742 0,6.10849 -2.18308,7.90282 -13.24329,10.88499 -4.54119,1.22444 -10.41087,3.07455 -13.04373,4.11136 -6.56025,2.58339 -13.10882,2.48926 -15.82555,-0.22747 z m 7.11257,-6.44915 c 0,-0.81433 -5.48873,-0.41478 -6.94314,0.50542 -1.19683,0.75723 -1.23038,1.38005 -0.19656,3.64904 l 1.24659,2.73596 2.94655,-3.22607 c 1.62061,-1.77434 2.94656,-3.42329 2.94656,-3.66435 z m 11.40269,-6.54128 c 4.14034,-4.60504 5.01211,-6.897 2.62336,-6.897 -1.01757,0 -9.02605,9.87579 -9.02605,11.13063 0,1.95773 2.06196,0.59431 6.40269,-4.23363 z m 15.01552,-1.50399 c 2.39306,-0.9183 1.92734,-1.99158 -1.82481,-4.2054 l -3.4066,-2.00994 -0.525,2.00762 c -1.07165,4.09799 1.37735,5.88812 5.75641,4.20772 z m -1.06026,-29.14301 c 0.27101,-0.9625 0.81038,-3.31857 1.19862,-5.23571 0.38823,-1.91714 1.39634,-3.99059 2.24022,-4.60765 1.26146,-0.9224 0.84641,-1.251 -2.33373,-1.84759 -3.10429,-0.58237 -4.12427,-0.37528 -5.16556,1.04878 -1.34091,1.83379 -1.80966,10.54668 -0.63083,11.7255 1.30699,1.307 4.20681,0.63736 4.69128,-1.08333 z m 14.64205,-24.75 c 0,-2.74183 -2.64781,-3.45219 -4.80965,-1.29035 -0.9462,0.9462 -0.71752,1.48296 1.05,2.46457 3.23643,1.79737 3.75965,1.63395 3.75965,-1.17422 z m -58.58731,-30.05877 c -1.46939,-2.50732 -2.8932,-6.52472 -3.16404,-8.92755 -0.48943,-4.34222 -0.47197,-4.37074 2.87127,-4.69123 4.43835,-0.42547 5.49329,-3.82245 1.18708,-3.82245 l -2.83966,0 0.66753,-9.93562 c 1.05475,-15.69897 3.36711,-20.06438 10.62813,-20.06438 1.82489,0 4.57414,-0.92872 6.10945,-2.06382 1.53531,-1.1351 3.64455,-2.18903 4.68721,-2.34206 1.65541,-0.24296 1.90748,-1.21737 1.98834,-7.68618 0.069,-5.51826 0.63735,-8.42829 2.2281,-11.40794 2.50144,-4.68543 2.85996,-4.26655 0.7239,0.84576 -0.84527,2.02301 -1.5,6.62475 -1.5,10.54267 0,6.91636 0.0157,6.95611 3.00832,7.6134 1.65457,0.3634 3.52005,1.63666 4.14551,2.82945 1.10079,2.0993 1.07399,2.1127 -0.83706,0.41872 -2.44852,-2.1704 -3.92129,-2.223 -4.70978,-0.16821 -1.16389,3.03303 -0.58716,4.94342 2.321,7.68826 3.38834,3.19804 5.52509,8.78861 4.66652,12.20941 -0.51214,2.04054 -7.19523,9.83292 -17.99155,20.97788 -1.84104,1.90048 -2.97017,4.19508 -3.09766,6.29499 -0.22101,3.64025 -2.74557,6.16592 -6.21315,6.21587 -1.57973,0.0228 -2.9679,-1.26514 -4.87946,-4.52697 z m 11.58731,-11.06367 c 0,-3.10657 -0.21362,-3.44516 -1.5,-2.37756 -1.55144,1.28758 -2.00112,4.16555 -0.83333,5.33333 1.50779,1.5078 2.33333,0.46204 2.33333,-2.95577 z m -5.2806,-17.89579 c 0.67067,-2.67533 2.58317,-7.05808 4.25,-9.73945 1.66683,-2.68136 3.0306,-5.29531 3.0306,-5.80877 0,-1.42545 -3.60765,-1.11123 -4.88285,0.4253 -1.52059,1.83219 -4.70592,11.24764 -5.60447,16.56612 -1.04298,6.17335 1.59497,4.98612 3.20672,-1.4432 z m 67.24804,28.2801 c -1.90709,-1.28254 -4.30804,-4.11613 -5.33543,-6.29688 -1.02739,-2.18074 -2.17746,-4.18999 -2.5557,-4.46499 -0.63998,-0.46529 -5.07631,-9.51673 -5.07631,-10.35718 0,-0.20844 1.60704,1.13666 3.5712,2.9891 3.8324,3.61442 8.28151,4.45541 10.35475,1.95731 0.64395,-0.77592 1.43293,-3.02592 1.75328,-5 0.54797,-3.37674 0.42257,-3.58923 -2.11821,-3.58923 -4.66875,0 -13.56102,-7.16984 -13.56102,-10.93426 0,-0.64687 3.046,-1.13781 7.75,-1.24912 l 7.75,-0.18338 -8,-0.56662 -8,-0.56662 -0.5,-3.5 c -0.275,-1.925 -1.05427,-4.4 -1.7317,-5.5 -1.06326,-1.72648 -1.37468,-1.79486 -2.27714,-0.5 -1.03357,1.48299 -0.8042,4.75968 0.58458,8.35106 0.67339,1.74139 0.54424,1.76149 -2.17997,0.33928 -6.8074,-3.55392 -10.74925,-11.10741 -11.84113,-22.69034 -0.3106,-3.29487 -0.20858,-4.49767 0.25444,-3 0.83945,2.71524 4.65359,3.93733 6.50625,2.08466 0.77956,-0.77955 0.63927,-1.08466 -0.4987,-1.08466 -1.87073,0 -2.78416,-2.87068 -2.80298,-8.80902 -0.0155,-4.87768 -1.44115,-4.8259 -2.98065,0.10825 -0.79205,2.53854 -0.88612,1.75249 -0.45468,-3.79923 0.87467,-11.25508 0.5334,-10.92522 14.11031,-13.63818 5.11994,-1.02307 6.28885,-1.63597 6.76905,-3.54922 0.44419,-1.7698 1.2801,-2.3126 3.56137,-2.3126 1.98307,0 2.98095,0.50213 2.98095,1.5 0,0.92366 -0.93789,1.5 -2.44098,1.5 -3.65541,0 -4.0162,1.74068 -0.51996,2.50858 2.64337,0.58058 2.8811,0.88536 1.75873,2.25479 -1.13752,1.38791 -0.98905,1.50198 1.20221,0.9237 1.375,-0.36287 5.8525,-0.6659 9.95,-0.67342 8.62219,-0.0158 8.66093,-1.72528 0.05,-2.20637 l -5.5,-0.30728 7.07618,-1.81512 c 4.26915,-1.09509 7.62939,-2.58266 8.47076,-3.75 0.76702,-1.06418 2.38758,-1.93488 3.60124,-1.93488 1.21366,0 3.08802,-1.12047 4.16524,-2.48993 1.86244,-2.36771 1.98413,-2.39225 2.47896,-0.5 0.40105,1.53362 1.40175,2.00605 4.364,2.06022 3.06134,0.056 3.43657,0.2452 1.84362,0.92971 -1.1,0.47269 -3.4625,0.89106 -5.25,0.92971 -4.59732,0.0994 -4.23821,2.65901 0.5,3.56378 2.0625,0.39384 6.36711,0.8634 9.56581,1.04346 8.59546,0.48387 10.84423,3.08517 6.3318,7.32438 -3.68069,3.45782 -4.82461,9.26876 -5.60699,28.48262 -0.43264,10.6248 -1.15282,18.10936 -1.78012,18.5 -0.57943,0.36083 -1.56743,2.56855 -2.19555,4.90605 -0.83901,3.12229 -1.65001,4.25 -3.05644,4.25 -3.99809,0 -6.67216,2.37413 -11.75408,10.43566 -3.31661,5.26121 -5.73398,10.4803 -6.57377,14.19274 -1.32703,5.86639 -1.33172,5.87186 -5.287,6.16847 -2.84485,0.21334 -4.93446,-0.35928 -7.42622,-2.035 z m 28.28256,-35.74822 c 4.1068,-0.0204 3.81062,-4.59332 -0.57265,-8.84175 l -3.32265,-3.22044 -1.10719,4.77427 c -0.60895,2.62585 -1.43966,5.6341 -1.84602,6.68501 -0.63519,1.64271 -0.39955,1.81997 1.67984,1.26365 1.33027,-0.35589 3.65617,-0.65322 5.16867,-0.66074 z m -47.93426,-19.17596 c 3.86159,-2.05487 9.68426,-7.13306 9.68426,-8.44604 0,-0.70049 -0.4196,-1.53294 -0.93245,-1.8499 -0.97008,-0.59954 -10.83754,3.43235 -14.90175,6.08894 -2.23113,1.45838 -2.2574,1.61061 -0.59501,3.44753 2.00119,2.2113 3.66464,2.3986 6.74495,0.75947 z m 16.08052,-17.28039 c 0.63256,-2.52031 -1.07155,-7.5573 -2.55678,-7.5573 -0.46171,0 -0.83948,2.25 -0.83948,5 0,5.43865 2.24821,7.1315 3.39626,2.5573 z m 5.07806,-5.50764 c 2.07853,-4.01944 2.06006,-4.04966 -2.47432,-4.04966 -4.55217,0 -4.6258,0.13202 -2.28439,4.09571 2.15187,3.64282 2.85464,3.63602 4.75871,-0.0461 z m 94.71918,74.22487 c -1.26858,-0.23564 -2.78667,-1.4823 -3.37355,-2.77034 -1.11735,-2.45234 -0.6088,-2.31599 -20.63125,-5.53143 -4.74599,-0.76217 -8.18533,-1.92827 -9.80235,-3.32345 -3.31034,-2.8562 -4.56175,-8.73301 -3.20587,-15.05526 0.94732,-4.41722 0.85684,-5.15014 -0.80674,-6.53464 -2.6314,-2.18997 -2.52989,-4.63788 0.25413,-6.12784 1.88823,-1.01056 2.84182,-1.01816 4.6746,-0.0373 1.92891,1.03232 3.18618,0.88392 7.74919,-0.91465 8.72721,-3.43995 11.8678,-1.78194 23.75925,12.54318 2.29576,2.7656 2.06675,3.60384 -1.31091,4.7983 -0.59421,0.21013 -0.44926,1.02086 0.35719,1.99788 1.21038,1.46638 1.58602,1.48397 3.47251,0.16262 2.92035,-2.04549 3.24354,-1.92613 4.7712,1.76198 1.2494,3.01632 1.92878,17.11074 0.87132,18.07662 -0.94967,0.86743 -4.53169,1.37171 -6.77872,0.95431 z m -4.9804,-10.27313 c 0.34443,-2.34671 -0.0846,-3.34238 -1.97326,-4.57991 -1.32735,-0.86971 -2.63072,-1.36395 -2.89637,-1.0983 -0.47889,0.4789 3.36019,8.67681 4.06335,8.67681 0.2014,0 0.56423,-1.34937 0.80628,-2.9986 z m -19.4744,-10.62873 c 1.23128,-0.33001 3.22251,-2.19187 4.42496,-4.13747 l 2.18626,-3.53746 -2.73072,-2.34887 c -1.5019,-1.29188 -3.71813,-2.40069 -4.92496,-2.46402 -6.92082,-0.36321 -9.69424,1.72592 -9.69424,7.30236 0,3.08621 0.45904,4.06175 2.25,4.78163 2.69754,1.08428 5.45967,1.21568 8.4887,0.40383 z m -34.9462,7.87733 c -2.91168,-3.10151 -4.52003,-8.68233 -2.80724,-9.74089 1.61239,-0.99651 3.5627,0.99779 5.95695,6.09133 3.08465,6.56231 1.40828,8.50472 -3.14971,3.64956 z m -64.7925,0.70034 c 0,-1.71194 2.73545,-6.48646 4.59668,-8.02317 0.95071,-0.78494 1.52724,-0.97717 1.28118,-0.42717 -0.24606,0.55 -1.2681,2.9125 -2.2712,5.25 -1.69213,3.94312 -3.60666,5.64197 -3.60666,3.20034 z m 9.58239,-13.26644 c -2.62168,-1.91701 -1.64658,-5.11681 1.67616,-5.50032 2.94089,-0.33944 3.76484,1.20973 1.1725,2.2045 -1.04275,0.40015 -1.35553,1.27449 -0.93261,2.60699 0.74842,2.35808 0.49257,2.45006 -1.91605,0.68883 z m 88.02329,-25.38429 c 0.60563,-4.01199 -2.00676,-18.11886 -3.57401,-19.29961 -0.36502,-0.275 -2.07089,-2.56891 -3.79084,-5.09757 -1.71994,-2.52867 -4.60513,-5.31337 -6.41154,-6.18824 l -3.28437,-1.59067 2.97754,-1.14409 c 2.979,-1.14464 12.52794,-2.96273 15.61816,-2.97364 2.29445,-0.008 2.49449,11.86537 0.2723,16.16261 -1.31753,2.54782 -1.37787,3.80925 -0.38096,7.96484 1.20934,5.04107 0.69346,12.17321 -1.07533,14.86676 -0.6845,1.04237 -0.79157,0.21851 -0.35095,-2.70039 z M 214.66332,363.99529 c -0.77332,-2.01524 1.29544,-3.3654 5.1771,-3.37879 l 3,-0.0103 -3,2.45907 c -3.55751,2.91605 -4.35971,3.06017 -5.1771,0.93007 z m 46.92642,-20.08826 c 2.17734,-0.56906 3.06348,-3.90998 2.59602,-9.78747 -0.39408,-4.95493 0.89262,-5.79248 4.59579,-2.99154 2.55498,1.93249 4.55887,1.86469 4.55887,-0.15424 0,-2.41325 2.7924,0.15583 3.18997,2.93485 0.3575,2.49898 3.66157,3.52946 4.92489,1.53598 3.13712,-4.95026 -2.9108,-11.70422 -9.34635,-10.43745 -1.79768,0.35385 -5.53445,0.90386 -8.30393,1.22225 -4.96829,0.57116 -5.0612,0.53104 -6.96782,-3.00934 -1.32298,-2.45663 -1.60828,-3.91233 -0.90468,-4.61593 0.56524,-0.56524 4.64712,-1.55524 9.07085,-2.2 9.79616,-1.42781 13.19801,-0.36303 17.408,5.44869 3.01987,4.16882 6.30521,13.83263 5.63907,16.58731 -0.42715,1.76637 -0.40124,1.80527 -2.22745,-3.34392 -0.61637,-1.73791 -0.86933,-1.54135 -1.93032,1.5 -1.17475,3.36743 -1.44506,3.52011 -7.13661,4.03103 -3.25359,0.29206 -7.35577,1.30456 -9.11596,2.25 -1.76019,0.94543 -4.23519,1.66677 -5.5,1.60297 -1.69295,-0.0854 -1.83814,-0.23662 -0.55034,-0.57319 z m 3.69489,-23.50881 2.44421,-3.08734 -4.94421,0.74004 c -6.39378,0.95701 -6.92538,1.35613 -4.85437,3.64458 2.40868,2.66155 4.51425,2.29014 7.35437,-1.29728 z m -4.10756,21.68369 c -0.91839,-1.40427 -1.3676,-11.28807 -0.55019,-12.10548 0.36655,-0.36656 0.92761,0.0141 1.2468,0.84586 0.78678,2.05033 0.13806,12.53589 -0.69661,11.25962 z m -3.73697,-5.73569 c -0.0548,-2.6125 0.35032,-4.75 0.90032,-4.75 1.1573,0 1.1573,3.38634 0,7 -0.65256,2.03762 -0.81908,1.62148 -0.90032,-2.25 z"
         id="path3208"
         inkscape:connector-curvature="0" />
      <path
         style="fill:#a00605"
         d="m 298.9014,558.1543 c -0.97225,-6.4834 -3.33092,-8.08289 -11.70691,-7.93882 -4.70872,0.081 -6.81406,-0.23928 -6.56111,-0.99813 0.56282,-1.68847 10.42122,-2.79497 14.58853,-1.6374 5.0537,1.40377 5.6651,1.27773 3.79983,-0.78338 -0.89576,-0.9898 -2.33264,-3.79494 -3.19306,-6.23363 -0.86042,-2.43869 -2.26045,-5.49629 -3.11118,-6.79467 -1.49333,-2.27911 -1.4661,-2.33541 0.78807,-1.62914 1.28417,0.40235 2.82896,0.9167 3.43288,1.14299 0.71414,0.2676 1.30932,-2.48995 1.70234,-7.88723 0.33237,-4.56427 1.29589,-10.54867 2.14115,-13.29867 2.95887,-9.62651 1.68767,-17.80715 -3.86395,-24.86585 -1.42479,-1.81158 -1.60617,-1.79872 -6.2352,0.44216 -5.10893,2.47319 -9.79108,2.82428 -13.2165,0.99105 -2.58017,-1.38086 -2.91978,-3.63712 -0.37587,-2.49709 0.9625,0.43134 3.29312,0.81698 5.17916,0.85699 3.1151,0.0661 3.65859,-0.37106 5.93441,-4.77312 2.01236,-3.89245 2.27376,-5.17131 1.32863,-6.5 -0.64714,-0.90978 -2.49823,-4.16562 -4.11353,-7.2352 l -2.9369,-5.58106 3.67912,0.59452 c 2.96085,0.47846 3.74452,1.07997 4.01413,3.08106 0.18427,1.3676 1.48309,3.70018 2.88629,5.18351 2.16283,2.28636 2.45536,3.29672 1.92136,6.63618 -0.58262,3.64351 -0.36696,4.13977 2.87294,6.61096 7.92185,6.04229 9.61031,16.5606 4.86527,30.30822 -2.87214,8.32134 -2.83696,15.98124 0.0883,19.21356 0.84198,0.93037 1.53087,2.47324 1.53087,3.42859 0,0.95535 0.47626,2.62691 1.05837,3.71458 0.78124,1.45976 0.6404,3.41531 -0.53788,7.46846 -0.87794,3.01999 -1.32515,5.92952 -0.99382,6.46563 0.92201,1.49184 -0.28661,4.32584 -2.41051,5.65224 -1.73978,1.08651 -1.96285,0.81262 -2.55518,-3.13731 z m -93.9215,-17.25193 c -1.19516,-1.19516 -0.64571,-3.30615 0.86052,-3.30615 0.825,0 1.5,0.64844 1.5,1.44098 0,1.67065 -1.42728,2.79841 -2.36052,1.86517 z m 26.36052,-4.62213 c 0,-0.79792 0.80385,-1.66097 1.78634,-1.9179 2.30851,-0.60369 4.72491,-7.76612 2.62006,-7.76612 -0.77352,0 -1.40389,-0.5625 -1.40082,-1.25 0.0128,-2.86806 2.14356,-8.62889 3.65578,-9.88392 1.43767,-1.19316 1.54595,-1.09463 0.92996,0.84618 -0.43681,1.37627 -0.0954,3.11491 0.91408,4.65564 2.5045,3.82235 1.6656,11.45626 -1.5054,13.69906 -3.70899,2.62332 -7,3.38357 -7,1.61706 z m 9,-22.87858 c 0,-0.34045 1.35,-3.6279 3,-7.30544 3.13189,-6.98039 3.90183,-13.9464 1.9455,-17.60184 -0.87204,-1.62941 -1.86699,-1.90376 -5.75,-1.58548 -2.58253,0.21167 -5.8205,0.0665 -7.1955,-0.32254 -2.25666,-0.63856 -2.04059,-0.82933 2.21976,-1.95988 5.71925,-1.51769 7.14996,-3.05786 6.56197,-7.06405 -0.46281,-3.15334 -0.57066,-3.119 3.96827,-1.26329 0.81103,0.33159 1.25,-0.40444 1.25,-2.09593 0,-2.13194 -0.46754,-2.60699 -2.56574,-2.60699 -1.41116,0 -3.45065,-0.47359 -4.53221,-1.05242 -1.78458,-0.95508 -1.90375,-0.80253 -1.28842,1.64915 0.47869,1.90724 0.34115,2.49336 -0.46779,1.99341 -0.63021,-0.3895 -1.14584,-2.2138 -1.14584,-4.054 l 0,-3.34583 4.25,0.55474 c 2.3375,0.30511 4.59148,1.04979 5.00884,1.65484 1.85727,2.69254 1.9539,6.0496 0.26442,9.18677 -1.72246,3.19842 -1.7132,3.35641 0.35038,5.97983 4.26881,5.42691 4.91097,14.14465 1.50516,20.43351 -1.49852,2.76702 -7.3788,9.78422 -7.3788,8.80544 z m -52.58731,-69.36421 c -1.46939,-2.50732 -2.8932,-6.52472 -3.16404,-8.92755 -0.48943,-4.34222 -0.47197,-4.37074 2.87127,-4.69123 4.6301,-0.44385 5.2874,-3.55711 0.84549,-4.0046 l -3.1551,-0.31785 2.00386,-2.29811 c 1.10213,-1.26395 3.58436,-2.55458 5.51607,-2.86805 2.73334,-0.44356 3.65838,-1.15238 4.17138,-3.1963 1.11445,-4.44035 2.34907,-5.13754 9.09777,-5.13754 5.62795,0 6.53677,-0.27818 7.94863,-2.43294 1.6878,-2.57591 1.07995,-4.90392 -2.29024,-8.77146 -1.19472,-1.37103 -1.26738,-2.3293 -0.3715,-4.89922 1.38427,-3.97091 1.38811,-3.89638 -0.20108,-3.89638 -2.29441,0 -1.46651,-14.67014 1.10048,-19.5 2.49194,-4.68867 2.84975,-4.26504 0.71432,0.84576 -0.84527,2.02301 -1.5,6.62475 -1.5,10.54267 0,6.91636 0.0157,6.95611 3.00832,7.6134 1.65457,0.3634 3.52005,1.63666 4.14551,2.82945 1.10079,2.0993 1.07399,2.1127 -0.83706,0.41872 -2.44852,-2.1704 -3.92129,-2.223 -4.70978,-0.16821 -1.16389,3.03303 -0.58716,4.94342 2.321,7.68826 3.38834,3.19804 5.52509,8.78861 4.66652,12.20941 -0.51214,2.04054 -7.19523,9.83292 -17.99155,20.97788 -1.84104,1.90048 -2.97017,4.19508 -3.09766,6.29499 -0.22101,3.64025 -2.74557,6.16592 -6.21315,6.21587 -1.57973,0.0228 -2.9679,-1.26514 -4.87946,-4.52697 z m 11.58731,-11.06367 c 0,-3.10657 -0.21362,-3.44516 -1.5,-2.37756 -1.55144,1.28758 -2.00112,4.16555 -0.83333,5.33333 1.50779,1.5078 2.33333,0.46204 2.33333,-2.95577 z m 158.1935,6.89697 c -1.26858,-0.23564 -2.78667,-1.4823 -3.37355,-2.77034 -1.11845,-2.45474 -0.56774,-2.30746 -20.77116,-5.55503 -5.89149,-0.94703 -8.03707,-1.7836 -10.25,-3.99653 -3.6671,-3.66709 -3.90246,-6.87998 -0.25648,-3.50099 1.84199,1.70709 5.03563,2.81434 11.59351,4.01951 4.97815,0.91486 9.68411,1.90626 10.45768,2.2031 0.92651,0.35554 1.4065,-0.15918 1.4065,-1.50824 0,-3.5192 1.59365,-3.23483 3.51282,0.62682 l 1.84239,3.70717 0.64598,-3 c 0.50024,-2.32317 0.17816,-3.38781 -1.4276,-4.71894 -1.14048,-0.94542 -2.74859,-1.62042 -3.57359,-1.5 -1.0559,0.15412 -1.5903,-0.8646 -1.80499,-3.44088 -0.43188,-5.18249 2.83749,-8.19891 8.13758,-7.50797 2.10792,0.2748 4.11989,0.78694 4.47104,1.13808 0.60264,0.60265 -1.09928,2.0713 -3.30363,2.85083 -0.59421,0.21013 -0.44926,1.02086 0.35719,1.99788 1.21038,1.46638 1.58602,1.48397 3.47251,0.16262 2.92035,-2.04549 3.24354,-1.92613 4.7712,1.76198 1.2494,3.01632 1.92878,17.11074 0.87132,18.07662 -0.94967,0.86743 -4.53169,1.37171 -6.77872,0.95431 z m -59.401,-13.02453 c -2.91168,-3.10151 -4.52003,-8.68233 -2.80724,-9.74089 1.61239,-0.99651 3.5627,0.99779 5.95695,6.09133 3.08465,6.56231 1.40828,8.50472 -3.14971,3.64956 z m -64.7925,0.70034 c 0,-1.71194 2.73545,-6.48646 4.59668,-8.02317 0.95071,-0.78494 1.52724,-0.97717 1.28118,-0.42717 -0.24606,0.55 -1.2681,2.9125 -2.2712,5.25 -1.69213,3.94312 -3.60666,5.64197 -3.60666,3.20034 z m 44.15062,0.45417 c 0.25281,-0.49748 1.55123,-3.10646 2.88539,-5.79773 1.33416,-2.69127 4.35562,-6.50639 6.71435,-8.47804 2.35873,-1.97166 4.06896,-4.15721 3.8005,-4.85679 -0.26845,-0.69957 -0.0522,-1.27195 0.48052,-1.27195 1.33925,0 1.22139,-5.34723 -0.14805,-6.71667 -0.82222,-0.82222 -0.15392,-2.0794 2.53448,-4.7678 3.5017,-3.50171 3.64727,-3.92464 3.55676,-10.33334 -0.17518,-12.40367 1.69599,-23.25382 4.75986,-27.60047 1.52106,-2.15791 3.32807,-4.10908 4.01557,-4.33593 2.04655,-0.67529 1.42221,1.95866 -1.11394,4.69949 -3.82437,4.13303 -4.70209,8.52478 -5.58138,27.92708 -0.46707,10.30649 -1.27494,18.64791 -1.84015,19 -0.55415,0.3452 -1.52146,2.54014 -2.14958,4.87764 -0.83901,3.12229 -1.65001,4.25 -3.05644,4.25 -3.76332,0 -6.67877,2.22993 -9.85227,7.53566 -1.77216,2.96286 -3.72682,5.69895 -4.34369,6.08019 -0.61686,0.38124 -0.91473,0.28614 -0.66193,-0.21134 z m -11.39715,-9.64409 c -0.25171,-0.75514 -1.78376,-1.1215 -3.92014,-0.93744 -4.32463,0.37258 -10.32889,-2.94682 -12.33,-6.81654 -0.78296,-1.51408 -1.14151,-3.03492 -0.79678,-3.37966 0.34473,-0.34473 3.92678,-0.62678 7.96012,-0.62678 6.89792,0 7.34142,0.13359 7.46951,2.25 l 0.13618,2.25 0.43337,-2.25 c 0.4058,-2.10684 0.93592,-2.25 8.3316,-2.25 7.3652,0 7.84978,0.12927 7.18045,1.91548 -0.81493,2.17473 -7.42371,7.69772 -10.30554,8.61237 -1.05173,0.33381 -1.91224,1.0266 -1.91224,1.53954 0,1.37555 -1.76613,1.13422 -2.24653,-0.30697 z m -25.29978,-14.66441 c -4.17127,-2.58428 -8.209,-7.09601 -6.35051,-7.09601 0.79849,0 2.45272,0.70107 3.67607,1.55793 1.22334,0.85687 2.62963,1.3074 3.12509,1.00119 0.81355,-0.5028 3.51917,5.3507 2.80386,6.06602 -0.16545,0.16545 -1.62998,-0.52266 -3.25451,-1.52913 z m 7.25135,1.2757 c -0.38777,-0.38778 -0.70504,-2.6069 -0.70504,-4.93139 0,-5.0843 0.66318,-5.44032 10.13405,-5.44032 l 6.97047,0 -0.30226,5.25 -0.30226,5.25 -7.54496,0.28837 c -4.14973,0.15861 -7.86223,-0.0289 -8.25,-0.41666 z m 18.54496,-0.034 c -0.75886,-0.30621 -1.25,-2.41011 -1.25,-5.35463 0,-4.52352 0.18525,-4.87831 2.75,-5.26684 l 2.75,-0.41659 -2.67668,-0.14983 c -1.62278,-0.0908 -2.85673,-0.83886 -3.13399,-1.89983 -0.43555,-1.66667 -0.46285,-1.66667 -0.57333,0 -0.10078,1.52031 -1.23162,1.75 -8.616,1.75 -6.70924,0 -8.5,-0.30167 -8.5,-1.43191 0,-1.70496 5.13713,-5.56809 7.40437,-5.56809 2.11137,0 2.02809,-1.5665 -0.16977,-3.1933 -0.97096,-0.71868 -2.29408,-2.50637 -2.94025,-3.97264 -0.9731,-2.2081 -0.91292,-2.76645 0.35047,-3.25126 3.01197,-1.1558 12.25351,-1.82445 15.86136,-1.14762 3.387,0.63541 3.62712,0.90361 3.02375,3.37752 -0.36048,1.47801 -0.8827,3.62701 -1.16049,4.77555 -0.41547,1.71782 0.26305,2.38158 3.82517,3.74197 4.69486,1.79298 11.80539,7.1521 11.80539,8.89757 0,0.5952 -0.87396,0.29126 -1.94214,-0.67542 -1.06817,-0.96669 -2.53067,-1.52196 -3.25,-1.23394 -0.85046,0.34053 -0.69584,0.55128 0.44214,0.60262 1.39719,0.063 1.75,0.99116 1.75,4.6037 0,3.93689 -0.33326,4.65146 -2.5651,5.5 -2.64685,1.00633 -10.97656,1.20405 -13.1849,0.31297 z m 51.46262,-1.64425 c -0.6768,-1.7637 3.49383,-4.21196 5.71992,-3.35773 2.36357,0.90699 1.88041,2.66426 -0.73254,2.66426 -1.265,0 -2.78025,0.48025 -3.36722,1.06722 -0.75629,0.75629 -1.22831,0.6474 -1.62016,-0.37375 z m 12.89722,-14.70382 c 0.51566,-3.90034 -0.0352,-7.65365 -2.23675,-15.23965 -0.31994,-1.10244 0.0352,-1.75 0.95978,-1.75 2.01728,0 4.05229,8.95542 3.24618,14.28541 -0.90736,5.99951 -2.73707,8.51219 -1.96921,2.70424 z m -96.98484,-12.11465 c -0.34375,-1.71875 -0.625,-5.10489 -0.625,-7.52475 0,-3.80271 0.34808,-4.53209 2.5651,-5.375 1.4108,-0.53639 6.1358,-0.97525 10.5,-0.97525 l 7.9349,0 0,5.79388 0,5.79388 -8.30955,2.70612 c -10.58187,3.44614 -11.29742,3.42129 -12.06545,-0.41888 z m 45.875,0.48127 c -14.71128,-3.54353 -13.5,-2.75135 -13.5,-8.82902 0,-4.25951 0.36768,-5.50803 1.75,-5.94246 2.55339,-0.80246 23.03916,-1.12896 23.78899,-0.37914 1.12171,1.12171 -0.72868,13.84118 -2.23232,15.34482 -1.69971,1.69971 -1.96578,1.69444 -9.80667,-0.1942 z m -22.0805,-10.29855 c -1.43488,-2.16826 -2.31471,-4.41826 -1.95517,-5 0.66511,-1.07618 10.53567,-1.5313 10.53567,-0.48579 0,0.80376 -5.10506,9.42807 -5.58083,9.42807 -0.21494,0 -1.56479,-1.77403 -2.99967,-3.94228 z m 5.05482,-1.00806 c 2.07853,-4.01944 2.06006,-4.04966 -2.47432,-4.04966 -4.55217,0 -4.6258,0.13202 -2.28439,4.09571 2.15187,3.64282 2.85464,3.63602 4.75871,-0.0461 z m -25.46424,-5.94204 c -3.21954,-0.89611 -1.9661,-1.66706 7.29937,-4.4896 7.31078,-2.22709 14.48683,-2.25311 11.59688,-0.0421 -2.03577,1.55754 -12.79222,5.44156 -14.74531,5.32435 -0.91356,-0.0548 -2.78148,-0.41154 -4.15094,-0.7927 z m 40.23992,-3.31169 c -2.3375,-1.20447 -4.25,-2.50252 -4.25,-2.88454 0,-2.26417 10.92563,-1.56802 19.89915,1.26792 4.40799,1.39307 2.5928,2.47644 -5.42664,3.23881 -4.91921,0.46764 -6.72204,0.18156 -10.22251,-1.62219 z m -26.78134,-6.57486 c 0.29224,-0.76155 0.53134,-1.57284 0.53134,-1.80286 0,-0.23001 1.35,-0.41821 3,-0.41821 4.35887,0 3.91388,2.6745 -0.53134,3.19345 -2.70616,0.31593 -3.40718,0.0887 -3,-0.97238 z m 31.86951,-1.65994 c 0.37813,-0.98539 -0.29726,-1.56849 -2.14301,-1.85017 l -2.69516,-0.4113 2.67742,-0.14983 c 1.53214,-0.0857 3.51521,-1.21491 4.636,-2.63976 1.86244,-2.36771 1.98413,-2.39225 2.47896,-0.5 0.40105,1.53362 1.40175,2.00605 4.364,2.06022 3.06134,0.056 3.43657,0.2452 1.84362,0.92971 -1.1,0.47269 -3.4625,0.89106 -5.25,0.92971 -2.19098,0.0474 -3.25,0.55907 -3.25,1.57029 0,0.825 -0.72314,1.5 -1.60699,1.5 -0.98725,0 -1.39405,-0.55491 -1.05484,-1.43887 z m -4.64331,-9.50226 c 0.29612,-1.13238 1.11277,-2.05887 1.81478,-2.05887 1.46891,0 2.4934,-2.19944 2.48353,-5.33179 -0.0106,-3.36489 -6.12474,-7.07082 -10.49546,-6.36155 -1.92374,0.31218 -3.49771,0.29793 -3.49771,-0.0317 0,-1.13499 5.08541,-9.27498 5.79215,-9.27125 2.22221,0.0117 7.38473,4.46117 9.49512,8.18359 2.77237,4.89004 5.17452,13.00215 4.43783,14.98664 -0.38372,1.03368 -0.607,0.99532 -1.01274,-0.17397 -2.00228,-5.77035 -1.87337,-5.68873 -3.15868,-2 -0.91292,2.62002 -1.87044,3.57766 -3.80839,3.80887 -2.18157,0.26029 -2.50414,-0.015 -2.05043,-1.75 z m -8.44486,-5.18086 c -2.8875,-1.10978 -5.25,-2.43633 -5.25,-2.9479 0,-1.37467 2.22706,-1.07294 4.44113,0.60169 2.55498,1.93249 4.55887,1.86469 4.55887,-0.15424 0,-1.32879 0.27149,-1.39713 1.5,-0.37756 1.5333,1.27253 2.10468,5.04201 0.75,4.94789 -0.4125,-0.0287 -3.1125,-0.9601 -6,-2.06988 z m -11.25,-1.87801 c 0.825,-0.53316 1.95,-0.96937 2.5,-0.96937 0.55,0 0.325,0.43621 -0.5,0.96937 -0.825,0.53316 -1.95,0.96937 -2.5,0.96937 -0.55,0 -0.325,-0.43621 0.5,-0.96937 z"
         id="path3206"
         inkscape:connector-curvature="0" />
      <path
         style="fill:#661413"
         d="m 300.85078,554.6192 c -1.34564,-2.98411 -1.51433,-4.31327 -0.67567,-5.3238 0.80789,-0.97344 0.81503,-1.64946 0.0258,-2.4387 -0.78925,-0.78925 -0.64405,-1.73138 0.52379,-3.39872 2.1576,-3.0804 2.03972,-4.37389 -0.63427,-6.95942 l -2.25,-2.17556 2.5,0.62295 c 1.375,0.34263 2.8375,0.62911 3.25,0.63662 0.4125,0.008 0.75,0.94323 0.75,2.07939 0,1.13616 0.47626,2.95565 1.05837,4.04332 0.77773,1.4532 0.65471,3.3661 -0.46395,7.21413 -0.83727,2.88011 -1.26105,6.23562 -0.94173,7.45669 0.97052,3.71127 -1.23177,2.47995 -3.14233,-1.7569 z m -96.34369,-15.02298 c 0.50335,-1.51005 2.11144,-1.66567 2.58333,-0.25 0.22917,0.6875 -0.33333,1.25 -1.25,1.25 -0.91667,0 -1.51667,-0.45 -1.33333,-1 z m 32.5,-65.66667 c -0.36667,-0.36666 -0.66667,-2.12384 -0.66667,-3.90484 0,-3.22804 0.0133,-3.23648 4.25,-2.69575 4.95786,0.63278 5.18425,0.75562 4.23202,2.29635 -0.40249,0.65125 -2.19077,0.99024 -4.06784,0.7711 -3.06652,-0.358 -3.30091,-0.19706 -2.77348,1.90438 0.58054,2.31305 0.25486,2.85765 -0.97403,1.62876 z m 49.33333,-8.20165 -3.5,-1.55179 2.87182,-0.36812 c 2.93303,-0.37597 5.14143,0.87434 4.49068,2.54246 -0.19938,0.51108 -1.9375,0.23093 -3.8625,-0.62255 z m -98.58731,-21.69045 c -1.46939,-2.50732 -2.8932,-6.52472 -3.16404,-8.92755 -0.48943,-4.34222 -0.47197,-4.37074 2.87127,-4.69123 2.24709,-0.21541 3.47375,-0.90338 3.69521,-2.07245 0.26138,-1.37978 -0.37155,-1.75338 -2.99181,-1.76597 l -3.32332,-0.016 3.38551,-2.98402 c 4.33895,-3.82441 7.2662,-3.78323 10.94585,0.15398 3.74507,4.00723 5.89998,3.52964 12.99961,-2.88106 3.64148,-3.28813 5.57778,-5.91391 6.10974,-8.28532 0.61295,-2.73239 0.93808,-3.09851 1.52688,-1.71939 1.36784,3.2038 -0.4027,6.53028 -7.48157,14.0563 -3.85706,4.10071 -7.93946,8.63385 -9.07201,10.07365 -3.01287,3.83024 -4.28392,3.33255 -3.53,-1.38219 0.65143,-4.07384 -0.0329,-4.95114 -2.18401,-2.8 -1.61786,1.61786 -1.51466,4.29397 0.22116,5.73457 2.04081,1.69372 1.34912,8.7689 -1.03365,10.57283 -3.56006,2.69524 -6.10868,1.82453 -8.97482,-3.06617 z m 169.82628,-4.16074 c -2.9037,-0.54257 -5.46028,-5.49029 -5.08539,-9.84168 0.31129,-3.61318 -1.9927,-6.34502 -5.40358,-6.40701 -1.32009,-0.024 -1.75,-0.87379 -1.75,-3.45922 0,-4.801 4.03756,-7.97451 8.97313,-7.05283 1.93978,0.36224 3.73884,0.86795 3.99791,1.12381 0.46398,0.45821 -1.5175,1.98672 -3.47104,2.67756 -0.59421,0.21013 -0.44926,1.02086 0.35719,1.99788 1.21038,1.46638 1.58602,1.48397 3.47251,0.16262 2.92035,-2.04549 3.24354,-1.92613 4.7712,1.76198 1.2494,3.01632 1.92878,17.11074 0.87132,18.07662 -0.94376,0.86203 -4.52537,1.37282 -6.73325,0.96027 z m -59.44647,-13.03049 c -2.91168,-3.10151 -4.52003,-8.68233 -2.80724,-9.74089 1.61239,-0.99651 3.5627,0.99779 5.95695,6.09133 3.08465,6.56231 1.40828,8.50472 -3.14971,3.64956 z m -64.7925,0.70034 c 0,-1.71194 2.73545,-6.48646 4.59668,-8.02317 0.95071,-0.78494 1.52724,-0.97717 1.28118,-0.42717 -0.24606,0.55 -1.2681,2.9125 -2.2712,5.25 -1.69213,3.94312 -3.60666,5.64197 -3.60666,3.20034 z m 32.45979,-11.13103 c -0.68224,-3.10401 -0.78358,-3.17337 -1.56245,-1.06931 -1.07668,2.90858 -5.86242,3.05106 -8.39734,0.25 -0.99549,-1.1 -2.3994,-2 -3.1198,-2 -1.71251,0 -3.69151,-3.74636 -2.97094,-5.62414 0.43483,-1.13315 2.10412,-1.40037 7.32052,-1.17186 6.61144,0.28961 6.77101,0.36073 7.39542,3.296 l 0.63817,3 0.11831,-3.25 0.11832,-3.25 7.5,0 c 5.81735,0 7.5,0.31905 7.5,1.42208 0,1.52021 -7.69399,8.57792 -9.35126,8.57792 -0.54519,0 -1.77159,0.70619 -2.72532,1.56931 -1.60621,1.45359 -1.78786,1.32456 -2.46363,-1.75 z m 27.79021,-8.48159 c -0.6875,-0.27741 -1.25,-1.39344 -1.25,-2.48007 0,-1.14056 0.44934,-1.69798 1.06301,-1.31871 0.58466,0.36134 1.93466,-0.13184 3,-1.09597 1.85905,-1.68241 1.93699,-1.66623 1.93699,0.40204 0,1.18525 -0.45,2.15499 -1,2.15499 -0.55,0 -1,0.675 -1,1.5 0,1.54095 -0.57392,1.71578 -2.75,0.83772 z m -45.58333,-4.00439 c -0.36667,-0.36666 -0.66667,-2.37127 -0.66667,-4.45468 0,-3.48257 0.26228,-3.83723 3.25267,-4.39823 1.78897,-0.33561 5.50147,-0.4685 8.25,-0.29531 l 4.99733,0.31489 0.30479,4.75 0.30479,4.75 -7.88812,0 c -4.33847,0 -8.18813,-0.3 -8.55479,-0.66667 z m 17.33333,-4.33333 0,-5 8.5,0 8.5,0 0,3.41821 c 0,6.28088 -0.41636,6.58179 -9.10699,6.58179 l -7.89301,0 0,-5 z m 52.61829,3.19139 c -0.83706,-1.35438 3.9985,-3.55279 6.06425,-2.75702 1.54564,0.59542 1.59312,0.82154 0.31746,1.51192 -2.8653,1.55067 -5.83479,2.13004 -6.38171,1.2451 z m -101.11829,-8.19139 c -0.99549,-1.1 -1.30606,-2 -0.69017,-2 0.61589,0 1.60147,0.9 2.19017,2 0.5887,1.1 0.89928,2 0.69017,2 -0.20911,0 -1.19468,-0.9 -2.19017,-2 z m 66.64568,-0.25 c -0.79903,-0.79629 -4.22908,-1.25 -9.45,-1.25 l -8.19568,0 -0.57674,-3.5 -0.57674,-3.5 -0.42326,3.5 -0.42326,3.5 -8.25,0.29044 c -4.5375,0.15975 -8.25,-0.0993 -8.25,-0.57568 0,-1.41683 4.2968,-4.89448 7.21249,-5.83748 l 2.71249,-0.87728 -2.96249,-3.38551 c -1.62937,-1.86203 -2.96249,-3.96763 -2.96249,-4.6791 0,-1.85293 10.02134,-3.7047 15.55674,-2.87461 4.10189,0.61512 4.54189,0.92573 3.988,2.81531 -0.34242,1.16815 -0.88895,3.58641 -1.2145,5.37391 -0.53704,2.94867 -0.36309,3.25 1.87613,3.25 2.10203,0 13.79363,7.25132 13.79363,8.55504 0,0.74107 -0.53666,0.50808 -1.85432,-0.80504 z m -49.50795,-19.5 c -0.34096,-2.6125 -0.25472,-6.09752 0.19165,-7.74449 0.67471,-2.48952 1.47422,-3.11218 4.74109,-3.69237 5.00554,-0.88898 11.80456,-0.99019 13.84774,-0.20615 1.16086,0.44546 1.57887,1.97558 1.57081,5.75 l -0.011,5.14301 -9.23902,2.78975 c -5.08146,1.53436 -9.51855,2.77186 -9.86019,2.75 -0.34164,-0.0219 -0.90014,-2.17725 -1.2411,-4.78975 z m 43.22376,1.25631 c -11.80208,-2.58192 -10.85885,-1.86475 -10.88373,-8.27536 l -0.0222,-5.73095 -2.04488,2.5 c -1.74618,2.13482 -1.889,2.18094 -0.97777,0.31574 1.627,-3.33026 1.40194,-3.54379 -3.33743,-3.16643 -2.4225,0.19288 -4.19595,0.0132 -3.94098,-0.39931 0.58988,-0.95437 8.77583,-0.98636 9.72419,-0.038 0.3916,0.3916 6.3166,0.57644 13.16667,0.41076 l 12.45467,-0.30122 -0.0136,5.83923 c -0.0215,9.16968 -0.58815,10.36185 -4.85298,10.20916 -1.99835,-0.0716 -6.1707,-0.68517 -9.27188,-1.36361 z m -18.88147,-8.75631 c -1.01828,-2.10127 -0.99195,-2.1277 0.39828,-0.39986 0.86841,1.07929 1.99737,1.53572 2.70967,1.09549 0.78027,-0.48223 0.96348,-0.33789 0.50752,0.39986 -1.0989,1.77806 -2.41641,1.37885 -3.61547,-1.09549 z m -19.23002,-7.46625 c -4.50265,-0.6821 -3.18461,-1.8492 4.66368,-4.12961 13.20622,-3.83723 17.26954,-2.30751 5.81156,2.18787 -3.72612,1.4619 -6.98862,2.59057 -7.25,2.50816 -0.26138,-0.0824 -1.71274,-0.3373 -3.22524,-0.56642 z m 38.5,-3.52099 c -4.87169,-2.47228 -5.25879,-3.33676 -1.79098,-3.99968 2.24675,-0.42949 14.25184,1.39872 19.02456,2.89719 1.9781,0.62105 1.9781,0.62477 0,1.34506 -1.09097,0.39725 -4.45858,0.99047 -7.48358,1.31825 -4.4523,0.48244 -6.30958,0.18512 -9.75,-1.56082 z m 4.75,-7.76276 c 0,-0.55 0.5625,-1.05924 1.25,-1.13164 0.6875,-0.0724 -0.325,-0.46317 -2.25,-0.86836 -3.04516,-0.64098 -3.15206,-0.75383 -0.82258,-0.86836 1.54854,-0.0761 3.50322,-1.18147 4.636,-2.62157 1.86244,-2.36771 1.98413,-2.39225 2.47896,-0.5 0.40105,1.53362 1.40175,2.00605 4.364,2.06022 3.06134,0.056 3.43657,0.2452 1.84362,0.92971 -1.1,0.47269 -3.4625,0.89106 -5.25,0.92971 -2.19098,0.0474 -3.25,0.55907 -3.25,1.57029 0,0.825 -0.675,1.5 -1.5,1.5 -0.825,0 -1.5,-0.45 -1.5,-1 z m -12.43108,-15.42257 c -3.58497,-1.34456 -5.34843,-2.44806 -4.45811,-2.78971 0.81013,-0.31088 2.32763,0.0597 3.37221,0.82352 2.57994,1.8865 4.51698,1.7469 4.51698,-0.32553 0,-1.56967 0.13464,-1.57964 1.59609,-0.11819 0.87785,0.87784 1.44035,2.2797 1.25,3.11523 -0.29673,1.30247 -1.19207,1.20186 -6.27717,-0.70532 z m 1.06798,-10.07358 c 0.32912,-0.85767 1.45213,-2.01632 2.49559,-2.57475 1.45679,-0.77966 2.03848,-0.64713 2.50589,0.5709 0.76326,1.98904 -0.047,2.81964 -3.15695,3.23611 -1.87063,0.25051 -2.30275,-0.0382 -1.84453,-1.23226 z"
         id="path3204"
         inkscape:connector-curvature="0" />
      <path
         style="fill:#292828"
         d="m 204.84042,539.59622 c -0.33992,-0.55 -0.14148,-1 0.44098,-1 0.58246,0 1.05902,0.45 1.05902,1 0,0.55 -0.19844,1 -0.44098,1 -0.24254,0 -0.7191,-0.45 -1.05902,-1 z m 33.25,-69.68933 c -0.9625,-0.25152 -1.75,-0.99007 -1.75,-1.6412 0,-0.78947 1.49916,-1.06465 4.5,-0.82598 4.56178,0.36281 5.79927,1.44396 2.91821,2.54952 -1.70209,0.65315 -2.92156,0.63544 -5.66821,-0.0823 z m 47.75,-4.77456 c -1.65,-0.75552 -2.325,-1.40408 -1.5,-1.44124 2.47347,-0.11141 6,1.07689 6,2.02176 0,1.17762 -0.9194,1.05902 -4.5,-0.58052 z M 187.41847,442.4365 c -1.69293,-3.38785 -3.07805,-7.40934 -3.07805,-8.93664 0,-2.40039 0.43957,-2.81941 3.24181,-3.09028 4.68918,-0.45327 5.19038,-3.79061 0.58151,-3.87217 -2.93897,-0.052 -3.11115,-0.19657 -1.48876,-1.25 1.009,-0.65515 2.76535,-1.97869 3.903,-2.94119 2.837,-2.40022 4.25934,-2.20528 7.22197,0.98978 2.80745,3.02771 3.18061,4.75131 1.29047,5.96053 -3.49688,2.23714 -3.87477,3.9739 -1.67563,7.70116 3.30775,5.60623 0.89581,11.48411 -4.74632,11.56673 -1.67345,0.0245 -2.87842,-1.38197 -5.25,-6.12792 z m 170.16092,-2.54746 c -3.05606,-0.5877 -5.55041,-5.59835 -4.70441,-9.45019 0.50817,-2.31367 0.18501,-3.45523 -1.39476,-4.92701 -1.13089,-1.05359 -2.74142,-1.91562 -3.57893,-1.91562 -2.33929,0 -3.04468,-4.61267 -1.14805,-7.50729 1.37877,-2.10427 2.40885,-2.49271 6.61023,-2.49271 5.0423,0 6.63625,1.33858 2.97695,2.5 -2.27027,0.72056 -2.50435,1.59565 -0.86524,3.23476 0.84634,0.84634 1.712,0.75653 3.40591,-0.35337 3.71965,-2.43721 5.45933,1.16556 5.45933,11.30593 0,7.12548 -0.26209,8.38258 -1.93426,9.2775 -1.06384,0.56935 -2.07634,0.9739 -2.25,0.899 -0.17366,-0.0749 -1.33321,-0.33185 -2.57677,-0.571 z m -59.55042,-13.54282 c -2.81207,-3.78713 -3.77273,-6.99576 -2.6422,-8.825 1.16738,-1.88885 3.30949,0.17317 5.89586,5.67544 3.17924,6.76354 0.9978,8.87518 -3.25366,3.14956 z m -64.68855,1.20034 c 0,-1.64143 2.70337,-6.45927 4.42714,-7.88987 1.20552,-1.0005 1.07687,-0.13369 -0.56739,3.82283 -1.93831,4.66411 -3.85975,6.68874 -3.85975,4.06704 z m 20.23452,-13.73018 c -6.11897,-5.33669 -5.65516,-6.22016 3.26548,-6.22016 l 7.5,0 0,4.38337 c 0,3.70039 -0.35058,4.47732 -2.25,4.98634 -3.55306,0.95219 -4.00352,0.78558 -8.51548,-3.14955 z m 12.43215,2.11317 c -0.36667,-0.36666 -0.66667,-2.37127 -0.66667,-4.45468 0,-3.49231 0.25714,-3.83626 3.294,-4.40598 4.60178,-0.8633 10.97691,-0.19969 11.43296,1.1901 0.20985,0.63952 -1.73258,2.77702 -4.31651,4.75 -4.38208,3.34596 -8.18001,4.48434 -9.74378,2.92056 z m 28.08333,-8.12811 c -2.30757,-0.46398 -2.2648,-3.20522 0.05,-3.20522 0.99,0 2.34,-0.54 3,-1.2 0.93333,-0.93333 1.2,-0.82222 1.2,0.5 0,0.935 -0.417,1.7 -0.92668,1.7 -0.50967,0 -1.07217,0.57534 -1.25,1.27854 -0.17782,0.7032 -1.11082,1.12021 -2.07332,0.92668 z M 247.98111,402.386 c -1.64205,-6.12985 -1.23146,-6.56378 6.93475,-7.32902 4.66617,-0.43725 7.95671,-0.32861 8.56822,0.2829 0.54603,0.54603 0.84958,2.73958 0.67456,4.87456 l -0.31822,3.88178 -7.62297,0.28978 c -7.21369,0.27422 -7.6559,0.16684 -8.23634,-2 z m 17.35931,-1.20799 c 0,-6.22291 0.46827,-6.58179 8.58794,-6.58179 7.0879,0 7.39901,0.0998 8.01992,2.57374 0.35529,1.41556 0.14851,3.66556 -0.45951,5 -1.02758,2.25531 -1.63542,2.42626 -8.62691,2.42626 l -7.52144,0 0,-3.41821 z m 53,1.30317 c 0,-1.5479 4.92111,-3.36385 6.05178,-2.23318 0.66337,0.66337 -0.18318,1.3599 -2.52713,2.07927 -2.05643,0.63114 -3.52465,0.69525 -3.52465,0.15391 z m -102.12756,-8.63496 c -1.24387,-1.58606 -1.2085,-1.62143 0.37756,-0.37756 0.9625,0.75485 1.75,1.54235 1.75,1.75 0,0.82304 -0.82119,0.29331 -2.12756,-1.37244 z m 32.12756,-1.62756 c 0,-1.86742 1.97869,-3.37355 6.47888,-4.93156 l 3.76871,-1.30476 -3.00389,-2.52761 c -1.65215,-1.39019 -3.29458,-3.44347 -3.64986,-4.56285 -0.5348,-1.68502 -0.10373,-2.14368 2.5051,-2.66545 1.73308,-0.34662 6.05936,-0.63021 9.61396,-0.63021 l 6.4629,0 -0.69554,4.25 c -0.38254,2.3375 -0.7596,4.64375 -0.8379,5.125 -0.0783,0.48125 1.65764,1.50441 3.85764,2.27368 2.2,0.76928 5.125,2.27802 6.5,3.35277 l 2.5,1.95408 -7.73095,0.0222 c -7.62715,0.0219 -7.73909,-0.0147 -8.33747,-2.72777 -1.03195,-4.6789 -1.27091,-4.87764 -1.35263,-1.125 -0.0705,3.2362 -0.41412,3.69203 -3.20395,4.25 -5.7903,1.15806 -12.875,0.74395 -12.875,-0.75256 z m -13.58933,-13.99463 c -0.28249,-0.73615 -0.37795,-4.21607 -0.21214,-7.73314 l 0.30147,-6.39467 8,-0.6915 c 10.99173,-0.95011 11.5,-0.72131 11.5,5.17677 l 0,4.85049 -8.25,2.6607 c -4.5375,1.46339 -8.82953,2.84276 -9.53785,3.06526 -0.70832,0.22251 -1.51899,-0.19775 -1.80148,-0.93391 z m 41.23538,-2.63007 c -4.31967,-0.9931 -8.28603,-2.23772 -8.81413,-2.76582 -0.52811,-0.52811 -0.81883,-2.9159 -0.64606,-5.30621 0.38512,-5.32802 1.3092,-5.68541 15.06414,-5.82603 l 9.75,-0.0997 -0.0997,5.25 c -0.15665,8.25059 -0.99955,10.22544 -4.43962,10.40168 -1.62838,0.0834 -6.49498,-0.66085 -10.81465,-1.65394 z m -12.09831,-12.24774 c 0.55789,-1.46539 0.039,-1.77603 -3.19075,-1.91004 l -3.85699,-0.16003 3.37716,-0.41281 c 3.96071,-0.48413 6.18711,1.07349 4.26359,2.98288 -1.00966,1.00225 -1.12719,0.90315 -0.59301,-0.5 z m -26.54774,-4.49935 c 0,-1.06958 13.62755,-5.25065 17.11368,-5.25065 1.74331,0 2.00894,0.27738 1.11844,1.16787 -2.94808,2.94808 -18.23212,6.37069 -18.23212,4.08278 z m 41.15166,-2.63391 c -5.88894,-2.85218 -5.23502,-4.01489 1.842,-3.27519 6.32733,0.66134 15.33252,2.66561 14.72157,3.27656 -0.19876,0.19876 -3.07275,0.73218 -6.38665,1.18539 -5.09566,0.69687 -6.66579,0.51377 -10.17692,-1.18676 z m 4.84834,-10.11674 c 0,-0.275 0.86521,-1.36521 1.92268,-2.42268 1.55826,-1.55826 2.02616,-1.65303 2.46862,-0.5 0.32644,0.85068 2.06625,1.46892 4.32732,1.53768 l 3.78138,0.115 -4,0.82737 c -4.63974,0.9597 -8.5,1.16072 -8.5,0.44263 z m -14,-13.59248 c -4.19646,-1.84713 -3.5815,-1.97232 1.75,-0.35626 1.73225,0.52507 2.25,0.28182 2.25,-1.05707 0,-1.43247 0.26446,-1.51959 1.5,-0.49419 1.81934,1.50992 1.97853,4.02139 0.25,3.94413 -0.6875,-0.0307 -3.275,-0.94721 -5.75,-2.03661 z"
         id="path3202"
         inkscape:connector-curvature="0" />
    </g>
  </g>
</svg>
