<?xml version="1.0" encoding="utf-8"?>
<!-- Generator: Adobe Illustrator 15.1.0, SVG Export Plug-In . SVG Version: 6.00 Build 0)  -->
<!DOCTYPE svg PUBLIC "-//W3C//DTD SVG 1.1//EN" "http://www.w3.org/Graphics/SVG/1.1/DTD/svg11.dtd">
<svg version="1.1" xmlns="http://www.w3.org/2000/svg" xmlns:xlink="http://www.w3.org/1999/xlink" x="0px" y="0px" width="1440px"
	 height="900px" viewBox="0 0 1440 900" enable-background="new 0 0 1440 900" xml:space="preserve">
<g id="Groud" display="none">
	
		<rect x="7.447" y="553.992" display="inline" opacity="0.5" fill="#FFFFFF" stroke="#000000" stroke-width="14.1938" stroke-miterlimit="10" width="1424.108" height="288.603"/>
</g>
<g id="Layer_1">
	<g>
		<path id="Outline_5_" fill="#010100" d="M955.534,343.934c-3.11-5.68-8.851-9.37-14.89-11.31c-3.82-1.03-5.551-4.95-8.551-7.19
			c-6.14-5.54-16.229-5.97-22.68-0.72c-4.029,2.98-6.18,7.71-7.13,12.52c-4.39-1.23-8.8-2.36-13.33-2.94
			c-3.021-0.3-5.271-2.57-7.399-4.51c-9.57-9.28-16-21.14-24.381-31.4c-1.67-2-3.619-3.72-5.58-5.41
			c10.391-8.09,22.98-13.09,32.521-22.29c3.979,0.94,8.01,1.7,12.069,2.3c6.931-8.42,13.5-17.3,17.931-27.33
			c7.46,0.89,15.29-1.16,21.101-5.99c6.188-5.023,9.758-12.656,10.508-20.555c0.818-8.63-1.727-17.577-7.898-23.785
			c0.09-10.9-2.53-21.62-5.96-31.9c-3.841-9.34-10.53-17.34-18.431-23.55c-15.211-12.149-37.751-18.854-54.313-18.382
			c-4.518,0.128-14.236-0.06-24.607,3.333c-27.879,8.68-57.76,11.16-86.619,6.47c-12.771-2.45-25.84-4.41-38.851-3.08
			c-5.42,0.67-11.18,2-15.23,5.9c-4.57,4.48-4.79,11.91-2.22,17.47c2.64,5.31,8.69,7.64,14.24,8.41
			c12.56,1.71,25.12-1.15,37.391-3.55c19.66-3.26,39.67-1.98,59.47-1.11c-5.31,7.68-7.921,16.82-9.479,25.93
			c-2.681,14.87-2.761,30.15-6.551,44.84c-8.85-9.63-20.93-15.16-32.29-21.19c-6.83-3.5-13.069-8.08-20.22-10.94
			c-13.721-5.73-29.33-8.4-43.9-4.5c-9.95,2.64-18.81,9.64-22.79,19.25c-5.08,12.28-4.45,26.46,0.13,38.81
			c4.47,12.29,11.24,23.85,20.37,33.27c0.95,5.37,3.02,10.83,7.41,14.33c3.42,3.06,8.05,4.06,12.5,4.37c0.37,1.4,0.74,2.8,1.12,4.21
			c-10.34,4.73-20.33,11.61-25.8,21.87c-2.66,4.75-3.75,10.17-4.25,15.54c-15.17,13.32-23.5,32.24-37.03,46.96
			c-9.65,0.06-19.44,0.69-28.71,3.58c-11.07,3.32-20.98,9.62-29.83,16.94c-14.19,11.58-26.81,25.69-43.83,33.27
			c-7.6,3.74-16.32,4.87-23.5,9.49c-6.06,3.95-8.89,11.131-10,18.01c-1.87,11,2.54,21.941,0.99,32.971
			c-0.94,8.43-2.97,17.641,1.39,25.5c6.89,12.27,19.23,22.15,33.58,23.49c0,0,6.541-0.022,8.71-0.221
			c5.686-0.519,11.34-2.119,16.44-4.77c3.29-1.76,5.97-5.109,5.86-8.99c0.19-7.43-5.49-13.959-12.23-16.439
			c-3.39-1.189-4.92-4.82-6.37-7.82c-4.52-10.99-3.7-24.01,1.99-34.439c25.84-6.391,52.13-11.441,77.13-20.801
			c14.52-5.08,26.44-15.18,38.34-24.56c18.87-12.66,42.02-18.02,59.29-33.22c8.67,2.59,17.689,3.54,26.68,4.15
			c-11.56,12.33-17.59,28.42-26.649,42.45c-3.421,5.071-7.28,10.37-13.12,12.801c-9.7,4.199-18.31,11.59-22.88,21.219
			c-2.87,5.91-2.83,13.641,1.7,18.721c2.5,2.299,5.62,3.789,8.19,6.02c7.96,6.641,14.88,14.48,23.311,20.561
			c4.42,3.17,9.35,5.82,14.75,6.779c12.56,2.09,25.029,5.621,37.879,5.291c6.33-0.102,12.511-1.58,18.761-2.451
			c5.92-0.869,12.11-4.379,13.931-10.41c2.289-7.41-2.57-15.539-9.551-18.279c-4.84-2.35-10.33-0.721-15.4-1.949
			c-5.24-1.16-10.979,1.299-15.84-1.66c-7.33-4.281-11.64-12.65-12.529-20.91c-0.67-3.15,2.01-5.43,3.81-7.6
			c11.03-11.691,25.19-19.651,37.95-29.221c6.83-5.2,13.779-10.26,20.24-15.93c6.57-5.94,12.879-12.83,15.449-21.52
			c2.711-9.11-0.129-18.94-4.859-26.87c-7.551-11.87-19.1-20.39-30.551-28.21c5.281-5.12,11.971-8.27,18.511-11.44
			c9.86,12.93,19.771,26.22,33.069,35.85c13.86,10.18,30.82,15.66,47.9,16.74c6.42,0.1,12.52,3.06,18.99,2.27
			c15.4-1.21,28.609-12.61,34.58-26.48C959.014,361.863,960.084,351.883,955.534,343.934z"/>
		<g id="Color_7_">
			<path fill="#5CBA00" d="M834.584,127.744c20.24-6.49,42.721-3.82,61.84,5.01c13.83,6.53,26.521,17.04,32.68,31.33
				c3.211,9.44,5.65,19.28,5.98,29.28c-6.79-4-15.119-3.71-22.369-1.21c-7.171,2-12.73,7.53-16.371,13.84
				c-1.369-5.29-3.479-10.66-7.629-14.38c-9.881-8.85-25.25-12.08-37.271-5.74c-12.421,6.33-21.021,20.47-19.271,34.55
				c1.07,10.23,8.51,19.39,18.36,22.41c14.95,4.75,32.29-1.39,41.521-13.94c2.209,8.89,10.719,14.25,19.16,16.22
				c-4.041,9.09-10.041,17.09-16.191,24.84c-9.889-1.14-19.049-5.55-28.939-6.69c-7.58-1.25-15.24-0.31-22.859-0.41
				c0,0.68,0,2.04,0.01,2.72c3.57,0.07,7.15-0.01,10.72-0.19c9.229-0.4,18.38,1.54,27.13,4.32
				c-13.08,11.49-31.33,16.89-41.439,31.73c0.58,0.42,1.74,1.26,2.31,1.68c2.08-3.04,4.601-5.74,7.34-8.19
				c4.28,3.08,7.39,7.41,10.511,11.59c7.279,9.84,13.619,20.72,23.379,28.4c-2.069,1.19-3.91,2.7-5.569,4.4
				c0.55,0.45,1.659,1.35,2.21,1.8c1.75-1.63,3.54-3.56,6.08-3.78c5.66-0.9,11.04,1.74,16.5,2.76c1.119,2.84,3.18,5.1,5.92,6.47
				c-4.28,7.41-7.2,16.2-5.33,24.79c1.15,5.3,4.87,9.72,9.63,12.19c0.229-0.65,0.681-1.95,0.899-2.6
				c-3.649-2.51-6.979-5.87-7.85-10.39c-1.76-8.78,1.83-17.63,6.61-24.86c1.819-3.44,6.29-3.41,9.67-3.86
				c7.08-0.56,13.13,4.02,17.229,9.34c4.551,5.88,8.5,12.67,9.271,20.2c0.36,5.63-3.819,10.22-7.739,13.73
				c-7.721,6.59-18.41,10.34-28.511,7.97c-7.489-1.57-13.931-6.07-19.38-11.28c-0.65,0.73-1.301,1.44-1.96,2.16
				c2.96,2.7,6.08,5.23,9.47,7.4c-16.529-1.53-32.93-7.01-46.109-17.29c-12.19-9.22-21.371-21.6-30.57-33.65
				c5.96-2.81,11.64-6.32,16.24-11.1c-0.75-0.68-1.49-1.36-2.211-2.05c-10.199,11.49-27.17,13.02-37.59,24.25
				c-17.64-12.19-38.369-21-60.09-20.98c0,0.69-0.01,2.06-0.02,2.75c17.85,0.16,35.369,6.17,50.449,15.51
				c12.67,7.97,25.551,16.18,35.431,27.61c6.03,6.83,10.149,15.62,10.33,24.83c-0.45,10.88-8.181,19.56-15.9,26.45
				c-11.771,10.1-24.45,19.08-37.239,27.84c-8.601,6.131-17.32,12.451-23.871,20.84c-2.699,3.01-1.41,7.361-0.799,10.9
				c2.149,8.41,7.569,16.881,16.149,19.75c3.28,1.32,7.2-0.34,10.21,1.75c3.1,0.391,6.77-0.84,9.391,1.359
				c5.81,4.102,8.799,12.811,4.869,19.141c-2.47,4.061-7.49,5.23-11.9,5.551c-14.609,1.99-28.939-2.42-43.219-4.74
				c-4.49-0.73-8.611-2.85-12.351-5.361c-11.16-7.629-19.49-18.729-30.95-25.969c-4.06-2.711-5.31-8.27-4.25-12.811
				c1.64-6.789,6.5-12.189,11.54-16.76c3.37-3.109,7.36-5.461,11.59-7.189c6.11-2.551,10.27-8.011,13.85-13.341
				c8.5-13,14.189-27.79,24.24-39.77c4.719-5.72,11.14-10.21,18.51-11.64c-0.131-0.7-0.391-2.1-0.521-2.81
				c-5.47,1.05-10.329,3.75-14.79,6.96c-19.539,0.07-39.65-5.4-55.12-17.74c-9.13-7.32-17.15-16.6-21.17-27.73
				c-2.9-9.09-3.8-19.61,0.86-28.27c5.03-9.96,14.65-16.57,24.49-21.22c3.77,6.1,12.36,10.46,19.19,6.91
				c6.391-4.27,7.99-12.5,8.85-19.61c2.961,2.88,6.73,5.63,11.111,5.14c4.569-0.13,7.949-3.97,9.5-7.96
				c1.829-4.05,1.68-8.59,1.359-12.91c4.96,0.61,9.97,1.15,14.96,0.64c0-0.67-0.011-2.01-0.011-2.68
				c-5.189,0.29-10.389-0.01-15.5-0.98c-2.029-8.08-5.289-15.97-10.299-22.67c-3.92-5.34-10.5-7.8-16.771-9.11
				c-0.56-9.82-3.739-19.33-8.5-27.89c-0.64,0.29-1.92,0.86-2.569,1.15c4.5,8.19,7.719,17.21,8.25,26.6
				c-8.131-0.41-16.051,1.68-23.94,3.27c0.08,0.7,0.24,2.09,0.32,2.78c8.97-1.67,18.11-4.51,27.291-2.78
				c5.789,1.14,11.549,4.08,14.739,9.22c5.2,7.97,9.101,17.16,9.49,26.76c-0.04,5.04-1.74,11.2-6.761,13.4
				c-5.199,1.7-10.569-2.68-12.379-7.3c-0.141-5.16-0.621-10.34-2.48-15.2c-0.93,0.23-1.85,0.53-2.74,0.89
				c2.84,7.35,2.82,15.46,1.641,23.16c-1,4.99-2.58,10.55-6.99,13.61c-3.91,2.32-8.58,0.25-11.9-2.18
				c-3.9-2.63-4.48-7.72-5.38-11.95c-4.73-0.05-9.89-0.66-13.43-4.13c-4.13-3.44-5.68-8.83-6.28-13.97
				c-4.55-3.02-7.38-7.91-10.48-12.28c-7.82-12.51-14.36-26.89-13.3-41.98c0.46-8.64,3.22-17.56,9.5-23.77
				c7.14-7.36,17.73-10.01,27.7-10.22c14.12,0.04,28.061,4.52,40.02,11.94c11.011,6.7,23.091,11.58,33.48,19.29
				c6.631,5,12.54,11.85,13.77,20.33c0.681-0.07,2.051-0.22,2.73-0.3c-0.59-4.73-2.59-9.1-5.23-13.03
				c5.461-18.8,4.181-38.84,9.681-57.64c1.88-6.85,5.351-13.22,10.24-18.39c-22.53-0.36-45.29-2.7-67.63,1.41
				c-10.19,2.08-20.541,4.21-31,3.67c-5.67-0.42-12.27-1.64-15.6-6.79c-2.6-4.71-2.49-11.53,1.84-15.2
				c4.05-3.39,9.48-4.33,14.58-4.87c12.17-0.95,24.331,0.9,36.25,3.2C776.244,138.713,806.414,136.403,834.584,127.744z"/>
			<path fill="#5CBA00" d="M859.475,185.954c9.83-2.21,20.39,1.49,27.72,8.15c7.51,7.82,8.45,20.07,4.569,29.86
				c-15.029-11.73-32.819-19.1-50.479-25.87C845.824,192.224,852.174,187.613,859.475,185.954z"/>
			<path fill="#5CBA00" d="M913.424,194.903c5.75-1.93,12.33-2.86,17.99-0.12c4.46,1.98,7.609,5.94,9.689,10.25
				c-15.67,4.61-31.33,9.75-45.81,17.38c1.101-3.58,1.3-7.32,1.75-11.01C899.834,203.974,905.684,197.293,913.424,194.903z"/>
			<path fill="#FFFFFF" d="M835.385,222.483c-1.861-7.52,0.31-15.4,4.17-21.93c10.08,3.6,19.959,7.79,29.549,12.57
				c-4.689,4.93-6.399,12.51-3.67,18.83c1.521,3.65,5.061,5.86,8.58,7.29c-8.17,2.92-17.629,3.59-25.59-0.31
				C841.844,235.833,836.895,229.604,835.385,222.483z"/>
			<path fill="#FFFFFF" d="M916.614,216.083c8.36-3.1,16.8-6.03,25.409-8.35c0.32,1.64,0.631,3.28,0.931,4.93
				c-4.06-0.3-8.37,0.25-11.739,2.7c-5.451,3.72-8.341,11.7-5.061,17.72c1.3,2.66,4.05,3.96,6.63,5.07
				c-5.78,3.9-13.011,6.08-19.931,4.34c-8.379-1.49-17.33-7.08-18.369-16.24C901.354,221.863,909.064,219.054,916.614,216.083z"/>
			<path fill="#F4A800" d="M871.034,234.563c-6.39-4.83-5.101-15.41,0.94-20.03c6.459,3.34,12.629,7.26,18.27,11.88
				c-2.54,3.78-5.82,7.07-9.68,9.5C877.614,237.994,873.674,236.474,871.034,234.563z"/>
			<path fill="#F4A800" d="M934.324,216.684c2.67-1.44,5.76-1.41,8.71-1.37c0.431,7.45-2.41,14.81-7.3,20.37
				c-2.76-0.32-5.811-1.25-7.15-3.91C925.614,226.313,929.064,219.284,934.324,216.684z"/>
			<path fill="#5CBA00" d="M905.294,337.463c0.71-7.97,8.54-14.77,16.63-13.59c4.891,0.33,8.61,3.82,11.92,7.07
				c-10.199-2.67-18.729,5.19-23.879,13.06C907.135,343.083,905.044,340.523,905.294,337.463z"/>
			<path fill="#5CBA00" d="M917.444,339.113c3.59-2.94,7.62-6.52,12.649-5.74c8.92,0.75,18.871,4.14,23.311,12.52
				c4.311,8.14,2.109,17.84-1.67,25.73c-1.36-10.98-7.48-21.07-15.74-28.27C930.914,338.934,923.874,338.164,917.444,339.113z"/>
			<path fill="#5CBA00" d="M637.744,396.014c17.01-14.5,25.39-36.21,41.59-51.46c1.1,15.09,9.1,29.19,20.63,38.81
				c8.2,7.05,17.99,11.96,28.09,15.66c-17.311,14.3-39.791,19.71-58.23,32.16c-11.68,9.4-23.55,19.32-37.94,24.25
				c-23.64,8.779-48.41,13.779-72.86,19.67c-1.98,0.57-4.62,0.631-5.46,2.92c-4.85,8.91-5.83,19.641-3.85,29.5
				c1.22,5.57,3.46,11.35,7.9,15.121c5.11,1.648,9.83,5.119,11.86,10.238c1.32,3.061,1.12,7.07-1.52,9.391
				c-3.19,2.791-7.47,3.711-11.42,4.9c-0.36-6.35-0.89-13.23-5.12-18.34c-4.16-4.98-9.71-8.51-14.45-12.891
				c-0.64,0.689-1.29,1.381-1.95,2.061c4.54,4.25,9.84,7.689,13.98,12.359c4.14,4.811,4.41,11.461,4.77,17.48
				c-8.85,1.32-18.41,0.75-26.17-4.109c-7.28-4.561-13.64-10.961-17.38-18.74c-3.55-7.861-0.67-16.5-0.2-24.67
				c0.89-10.121-2.84-20.131-1.27-30.23c1.05-5.91,3.17-12.189,8.22-15.881c4.97-3.629,11.15-4.839,16.83-6.959
				c10.95-3.8,20.84-10.15,29.67-17.58c13.19-10.82,24.98-23.8,40.53-31.35c10.84-5.54,23.11-7.21,35.13-7.52
				c-1.06,0.98-2.13,1.96-3.2,2.94C636.534,394.494,637.144,395.244,637.744,396.014z"/>
			<path fill="#5CBA00" d="M796.354,507.924c3.591,0.561,7.4,1.24,10.23,3.721c4.21,3.389,6.57,9.859,3.5,14.76
				c-2.029,3.699-6.18,5.27-9.97,6.49c2.06-3.121,3.78-6.682,3.43-10.541C803.604,516.674,800.364,511.674,796.354,507.924z"/>
		</g>
	</g>
</g>
<g id="Layer_2" display="none">
	
		<image display="inline" overflow="visible" opacity="0" width="46" height="44" xlink:href="65F6D2E0.png"  transform="matrix(0.7501 0 0 0.7501 703 433)">
	</image>
	<path id="Outline" display="inline" d="M964.44,363.912c-0.56-3.95-2.5-8.29-6.5-9.76c-3.64-1.34-7.37,0.26-10.71,1.66
		c-2.04-3.21-4.47-6.53-8.24-7.76c-5.35-2-11.22,1.08-14.399,5.43c-4.79,6.32-4.81,14.63-7.55,21.81
		c-3.631,9.016-23.344,21.236-32.851,23.35c-4.985,1.804-26.874-22.423-30.27-26.48c-9.75-11.14-17.681-24.03-29.341-33.38
		c-8.279-6.68-18.31-10.63-28.359-13.79c10.061-7.03,19.87-14.42,29.37-22.19c17.149,5.26,31.54,16.69,48.6,22.12
		c8.95,3.01,18.53,3.59,27.87,2.5c8.84,8.32,21.59,13.02,33.689,10.81c6.611-1.46,10.9-7.31,13.66-13.08
		c4.25-8.86,11.61-16.17,13.94-25.92c1.45-5.86-0.21-12.57-5.05-16.4c-7.58-6.32-16.43-11.44-26.13-13.62
		c-4.841-0.68-8.03-5.14-12.88-5.79c-9.11-1.76-18.2,2.69-24.58,8.96c-4.551-2.29-9.7-2.81-14.68-1.89
		c-7.541-4.44-14.181-10.66-22.871-12.85c11.16-5.72,22.451-11.23,34.19-15.64c4.45-1.75,9.32-0.95,13.95-0.62
		c6.02-6.97,9.37-15.64,13.18-23.89c9.28-1.16,17.95-6.67,22.15-15.14c5.68-11.53,4.6-27.32-5.58-36.06
		c-5.051-18.33-15.13-36.44-31.85-46.45c-15.58-9.26-34.07-12.85-52.041-12.4c-13.076,0.194-26.168,3.139-38.01,8.693
		c-18.086,8.485-17.523,14.063-37.345,24.017v24.97c5.411-2.652,10.939-5.052,16.675-6.93c-5.24,16.88-2.56,34.78-4.93,52.07
		c-6.66-14.28-18.29-25.37-30.33-35.17c6.032-3.385,12.106-6.785,18.335-9.849v-24.968c-6.956,3.471-14.278,6.203-21.815,8.027
		c-10.25,2.25-21,1.12-31.1,4.31c-8.62-4.84-17.68-9.01-27.33-11.36c-10.866-3.947-22.659-3.063-33.493,0.621
		c-14.639,4.976-17.931,10.344-22.757,12.649c-10,2.06-20.94,2.47-29.53,8.66c-7.04,4.86-10.23,13.59-10.55,21.86
		c-0.35,10.53,3.31,21.74,11.59,28.64c3.49,3.11,8.47,3.76,11.78,7.11c4.35,4.11,10.65,6.47,16.6,4.99c4-0.87,7.13-3.65,10.05-6.35
		c3.08,1.35,6.6,2.99,9.92,1.37c7.95-3.36,11.46-12.18,13.05-20.09c7.55,0.34,15.03-1.22,22.06-3.9c2.55,4.65,6.22,8.54,10.37,11.81
		c10.67,8.46,22.54,15.22,33.94,22.63c-2.181,2.98-4.15,6.16-5.261,9.7c-2.578,7.779-6.213,14.665-10.025,20.246
		c-5.798,8.487-12.006,13.959-15.534,14.974c-13.46,4.47-27.97,9.52-37.06,21.07c-7.46,9.45-7.82,23.05-2.02,33.41
		c-5.63,4.99-10.99,10.48-17.83,13.83c-7.52-7.92-16.89-14.34-27.55-17.1c-14.34-4.12-30.25-1.65-43.74-8.84
		c-8.73-4.43-16.91-11.26-27.1-11.63c-5.61-0.41-10.65,2.77-14.35,6.7c-7.01,7.29-13.26,15.66-22.18,20.79
		c-8.34,4.97-17.93,9.39-22.66,18.39c-4.18,7.5-0.32,16.87-4.83,24.22c-1.99,3.28-2.862,6.773-2.862,10.206
		c0,9.917,7.281,19.338,15.952,21.704c3.75,1.2,7.32-0.78,10.3-2.88c3.13,3.38,6.56,7.55,11.56,7.71c3.94,0.32,7.03-2.82,8.85-5.97
		c4.94-8.69,1.42-19.77,7.13-28.18c4.39-6.27,9.56-12.46,16.55-15.91c2.94-1.69,6.28-0.31,9.28,0.45
		c16.47,5.13,30.44,15.65,44.23,25.65c9.9,7.17,20.47,14.33,32.8,16.26c16.35,2.67,32.69-2.28,47.61-8.62
		c15.87-7.06,32.57-13.2,46-24.56c29.741,8.364,39.996,7.124,51.12,16.49c6.77,5.35,10.79,13.17,16.51,19.49
		c7.224,7.709,16.609,13.995,25.772,19.4c13.655,8.056,26.816,14.156,31.588,20.1c6.729,7.66,12.45,16.801,21.729,21.66
		c5.9,3.09,13.381,3.641,19.311,0.32c5.76-3.09,9.529-8.68,12.67-14.23c4.13-7.31,8.58-14.51,14.15-20.82
		c7.369-8.66,16.201-16.17,21.689-26.39c3.112-5.796,2.57-12.93,6.93-18.03C962.681,383.192,965.701,373.412,964.44,363.912z"/>
	<g id="Color" display="inline">
		<path fill="#5BBA00" d="M800.021,127.731c16.7-12.74,38.22-18.26,59.04-17.19c17.54,1.12,35.73,5.66,49.52,17.07
			c11.221,9.27,17.83,22.69,22.681,36.12c-8.431-3.26-18.12-1.92-25.899,2.43c-4.49,2.68-7.951,6.76-10.631,11.19
			c-1.369-5-3.279-10.13-7.109-13.79c-7.9-7.28-19.23-10.95-29.871-8.86c-15.869,3.36-28.189,19.07-27.319,35.33
			c0.16,7.4,3.72,14.54,9.33,19.33c6.59,5.82,15.92,7.67,24.46,6.53c10.141-1.44,20.01-6.51,26.08-14.93
			c3.199,10.5,14.32,16.03,24.65,16.65c-3.16,7.02-6.121,14.25-10.92,20.35c-17.61-0.28-35.271,0.33-52.721,2.85
			c0.11,0.69,0.34,2.06,0.45,2.74c11.28-1.51,22.63-2.54,34.021-2.76c-19.531,8.1-38.48,17.79-55.791,29.98
			c0.4,0.59,1.19,1.77,1.59,2.36c5.69-4.02,11.57-7.78,17.65-11.19c3.58-2.18,8.03-1.19,11.67,0.32c5.54,2.44,10.16,6.46,15.25,9.68
			c-1.63,1.35-3.56,2.51-4.65,4.38c-0.739,2.03,2.16,2.83,3.061,1.01c4.67-4.74,12.189-5.21,18.03-2.51
			c-1.87,3.55-3.64,8.07-1.21,11.82c3.199,5.08,9.77,5.61,15.18,6.13c-5.84,5.78-8.93,13.97-9.4,22.09
			c-0.31,3.39,0.75,6.65,2.11,9.7c-7.58,0.74-15.3,0.06-22.6-2.17c-17.05-5.07-31.341-16.4-48.2-21.96c2.08-1.76,4.3-3.39,6.1-5.45
			c0.2-2.79-2.64-2-3.88-0.63c-12.239,10.52-25.06,20.37-38.399,29.45c-14.61-4.19-28.721-12.74-44.41-11.01
			c6.879,2.813-0.558,1.041,11.48,3.53c8.209,1.54,15.85,5.06,23.739,7.66c12.03,4.38,24.86,7.18,35.63,14.43
			c11.92,7.95,19.86,20.16,28.82,31.05c4.784,5.935,29.433,34.308,36.74,32.38c7.119-1.42,13.42-5.38,19.49-9.21
			c5.409-3.81,11.199-7.6,14.799-13.3c3.99-6.69,3.16-15.08,7.08-21.8c2.08-3.45,5.36-6.6,9.53-7.09c5.74,0.3,9.96,6.05,10.11,11.53
			c0.17,7.13-2.91,13.84-6.32,19.94c-1,1.73-1.71,3.61-2.26,5.53c1.7,0.22,3.25-0.22,3.92-1.91c4.66-7.96,8.77-17,7.6-26.46
			c2.65-1.33,5.69-3.26,8.721-1.89c3.42,1.46,4.31,5.56,4.64,8.89c0.72,9.95-3.8,19.62-10.21,27.01c-0.76,6.58-2.8,13.03-6.46,18.58
			c-5.5,8.96-14.09,15.33-20.54,23.52c-5.38,6.21-9.25,13.49-13.42,20.52c-3.21,5.121-6.859,10.681-12.82,12.811
			c-6.32,2.35-13.42,0.199-18.5-3.891c-6.779-5.319-11.56-12.609-17.13-19.069c-3.61-4.22-8.7-6.69-13.38-9.51
			c-14.279-8.42-29.641-15.6-41.62-27.34c-6.37-6.09-10.3-14.26-16.909-20.13c-4.781-4.22-10.25-7.9-16.471-9.55
			c-16.88-4.45-34.35-6.91-50.609-13.49c-13.681-5.47-27.091-12.09-38.65-21.32c-6.79-5.53-13.13-12.23-16.07-20.64
			c-3.51-9.85-0.01-21.34,7.62-28.28c9.14-8.44,21.18-12.57,32.79-16.36c3.72-1.15,6.25-4.32,9.02-6.87
			c8.44-8.03,13.82-18.7,17.589-29.6c1.16-3.43,2.98-6.61,5.33-9.38c2.69,1.82,5.041,4.23,8.051,5.53c2.47-1.31,0.22-3.53-1.211-4.5
			c-13.369-9.8-28.239-17.42-41.25-27.72c-3.78-3.07-7.57-6.38-9.72-10.85c2.35-1.59,5.41-2.71,6.56-5.53
			c-0.37-0.41-1.1-1.23-1.46-1.64c-8.4,6.44-19.14,9.56-29.67,9.21c-0.04-5.08-0.53-10.78-4.46-14.48c-1.03-1.22-3.4-1.47-3.29,0.67
			c1.64,2.56,3.9,4.93,4.24,8.1c0.92,6.73-0.72,13.78-4.29,19.54c-2.15,3.33-5.22,6.77-9.45,7.04c-5.04-0.77-7.57-5.64-9.84-9.63
			c-0.49-1.44-2.64-1.1-3.06,0.24c0.87,2.98,2.75,5.51,4.41,8.09c-3.29,3.39-7.59,6.44-12.57,5.95
			c-7.38-0.82-13.02-6.79-16.18-13.14c-0.91-1.28-1.39-4.24-3.45-2.65c-0.93,2.23,1.02,4.39,1.55,6.49
			c-9.61-5.59-14.03-17.11-13.93-27.81c-0.17-8.24,3.52-16.93,10.76-21.29c7.62-4.68,16.75-5.38,25.37-6.76
			c4.08-0.29,6.55-3.98,9.87-5.89c11.18-7.19,24.79-11.67,38.16-9.89c9.1,2.17,18.24,4.64,26.62,8.91
			c19.28,9.84,37.88,21.45,53.64,36.4c11.1,10.84,22,24.63,21.41,41c0.9,0.13,1.79,0.09,2.67-0.12c0.79-3.14,0.141-6.4-0.391-9.52
			c-1.109-4.3,0.681-8.57,0.9-12.86c1.771-17.5-1.13-36.05,6.65-52.46c1.01-1.62-0.83-2.35-2.07-2.62
			c-0.63,1.22-1.25,2.45-1.869,3.67c-14.15,3.88-26.671,11.74-39.671,18.27c-8.6-6.76-18-12.37-27.28-18.1
			c9.36-2.29,19.17-1.15,28.5-3.56c12.791-3.13,24.65-9.19,35.74-16.17C794.301,132.822,796.931,129.992,800.021,127.731z"/>
		<path fill="#5BBA00" d="M839.74,169.782c6.28-7.96,16.141-13.72,26.53-12.68c7.44,1,14.89,4.08,20.17,9.54
			c6.66,7.97,7.421,19.56,3.66,29C875.211,183.802,857.351,176.552,839.74,169.782z"/>
		<path fill="#5BBA00" d="M910.341,167.122c5.88-2.16,12.62-3.54,18.59-0.93c4.78,1.89,8.181,6.02,10.399,10.52
			c-15.609,4.6-31.209,9.7-45.649,17.31c1.16-3.8,1.101-7.81,1.99-11.65C898.4,175.722,903.44,169.652,910.341,167.122z"/>
		<path fill="#FFFFFF" d="M833.531,192.042c-1.131-6.92,1.09-13.92,4.6-19.84c10.04,3.77,19.99,7.8,29.54,12.68
			c-5.73,5.37-7.05,15.4-1.9,21.55c1.729,2.09,4.181,3.33,6.63,4.37c-7.359,2.67-15.65,3.48-23.109,0.72
			C840.98,208.572,834.591,200.832,833.531,192.042z"/>
		<path fill="#FFFFFF" d="M911.301,189.102c9.51-3.64,19.13-7.01,28.96-9.7c0.3,1.66,0.59,3.33,0.87,4.99
			c-4.74-0.45-9.971,0.47-13.37,4.06c-3.979,3.55-5.57,9.35-4.16,14.46c1.09,3.41,4.2,5.59,7.37,6.91
			c-6.07,4.02-13.689,5.98-20.84,4.02c-8.02-1.7-16.2-7.2-17.35-15.91C898.531,194.172,904.961,191.672,911.301,189.102z"/>
		<path fill="#F4A800" d="M865.421,198.092c-0.521-4.54,1.68-8.8,4.899-11.85c6.44,3.36,12.631,7.21,18.221,11.86
			c-3.12,4.03-6.69,8.01-11.37,10.21C871.32,209.032,865.431,204.062,865.421,198.092z"/>
		<path fill="#F4A800" d="M932.761,188.372c2.59-1.45,5.66-1.21,8.54-1.25c0.061,7.46-2.53,14.93-7.78,20.31
			c-2.69-0.85-5.78-1.92-6.94-4.77C924.33,197.231,927.671,190.812,932.761,188.372z"/>
		<path fill="#5BBA00" d="M895.631,276.412c6.25-8.17,18.199-13.18,27.92-8.24c-7.221,0.86-14.07,5.65-16.141,12.81
			c-1.029,2.87-0.01,5.81,0.711,8.61c-4.67-0.35-9.99-0.5-13.561-3.97C892.141,282.922,893.781,278.942,895.631,276.412z"/>
		<path fill="#5BBA00" d="M912.351,278.032c3.14-4.79,9.101-7.13,14.7-6.5c10.85,1.14,20.67,6.79,29.01,13.55
			c4.189,3.19,5.62,8.97,4.1,13.92c-2.609,9.33-9.699,16.41-13.779,25.04c-2.391,4.99-6.15,10.11-11.91,11.27
			c-8.109,1.44-16.45-1.08-23.48-5.05c-4.209-2.59-8.43-6.01-10.17-10.78c-1.38-7,0.851-14.31,4.57-20.24
			c1.51-2.56,3.87-4.42,6.48-5.75c4.209,3.09,9.08,5.14,14.189,6.16c0.11-0.69,0.33-2.06,0.439-2.74
			c-5.739-1.41-12.079-3.53-15.199-8.98C909.19,284.872,910.19,280.771,912.351,278.032z"/>
		<path fill="#5BBA00" d="M540.69,315.342c3.45-3.63,8.4-6.38,13.57-5.22c11.78,2.29,20.63,11.55,32.13,14.62
			c13.86,3.73,28.82,2.18,42.23,7.79c7.95,3.46,15.35,8.65,20.52,15.68c8.45-2.53,14.57-9.19,21.02-14.81
			c10.01,13.9,25.25,22.77,40.42,30.02c6.82,3.26,13.98,5.72,20.93,8.69c-12.82,9.98-28.13,15.83-42.88,22.26
			c-13.91,5.9-28.99,10.91-44.31,8.92c-12.31-1.48-22.88-8.6-32.69-15.67c-14.12-10.42-28.61-21.11-45.55-26.41
			c-3.61-0.95-7.63-2.43-11.21-0.6c-7.94,3.5-13.61,10.46-18.49,17.38c-5.45,8.17-2.9,18.67-6.75,27.37
			c-1.32,2.71-3.89,6.04-7.33,5.21c-4.04-1.19-6.62-4.84-9.23-7.89c1.21-7.75-1.47-15.7,1.35-23.24c-3.56-1.28-4.17,2.97-4.42,5.57
			c-0.67,5.8,1.57,11.8-0.44,17.45c-1.1,3.34-5.22,4.12-8.23,3.21c-10.51-3.7-16.68-18.08-9.99-27.6
			c4.34-7.64,0.34-17.34,5.11-24.85c5.11-8.5,14.73-12.16,22.72-17.25C527.531,330.442,533.851,322.532,540.69,315.342z"/>
	</g>
</g>
<g id="Layer_3" display="none">
	<path display="inline" fill="#090F03" d="M930.941,506.736c-5.391-0.98-10.73,1.699-14.541,5.369c-2-2.15-4.279-4.33-7.32-4.76
		c-5.399-1.05-10.359,2.2-14.27,5.55c-1.199,0.78-2.199,2.341-3.811,2.05c-5.709-0.129-11.529-0.879-16.77-3.279
		c-7.55-3.4-13.6-9.17-20.1-14.15c-1.2-1.061-2.82-1.92-3.16-3.6c-3.15-9.961-2.939-20.59-5.609-30.66
		c-2.051-8.71-6.99-16.45-8.73-25.25c-2.03-8.82,0.52-18.22-2.78-26.82c-2.25-5.48-7.569-8.67-12.489-11.45
		c-2.634-1.36-2.129-2.402-14.011-21.08c-5.319-8.361-10.969-16.501-17.69-23.82c3.461-8.9,11.86-14.15,19.371-19.33
		c9.279,7.13,19.43,12.99,29.229,19.36c6.521,4.37,10.94,11.25,17.819,15.16c7.371,4.76,16.17,6.84,24.891,6.84
		c4.54-0.39,8.359,2.68,12.84,2.85c12.939,1.4,25.439-5.77,33.21-15.78c2.21-3.17,6.13-4.38,8.61-7.3c4.68-4.83,4.8-12.55,2.4-18.5
		c-3.75-8.8-11.73-15.66-21-18.04c3.26-8.34-5.92-16.91-14.101-15.04c-7.8,1.59-13.03,8.49-16.08,15.38
		c-5.17-2.36-10.94-3.07-16.55-2.34c-6.82-6.48-11.66-14.63-17.109-22.22c-5.41-7.62-10.841-15.69-19.041-20.59
		c6.271-3.396,13.146-5.847,19.828-8.614c8.33-3.45,16.36-7.391,22.542-14.266c3.21,0.62,6.4,1.49,9.681,1.53
		c2.148-0.732,5.627-3.645,9.41-8.164c3.783-4.519,7.871-10.646,11.239-17.806c4.29-0.85,8.57-2.19,12.11-4.85
		c8.34-5.7,12.5-16.16,11.869-26.07c0.08-8.3-3.84-16.62-10.83-21.27c1.48-13.5-2.42-27.32-10.369-38.27
		c-12.24-17.03-31.439-28.25-51.61-33.17c-21.1-5.1-43.229-1.02-63.229,6.49c-15.541,5.62-29.57,14.5-44.41,21.63
		c-8.04,3.77-16.641,6.61-25.54,7.23c-14.75,1.52-29.6-2.19-44.31,0.25c-5.93,1.02-12.02,2.99-16.5,7.19
		c-3.78,3.5-3.95,9.69-0.84,13.67c4.15,5.42,10.88,7.93,17.26,9.66c12.01,3.02,24.5,0.1,35.84-4.13
		c12.161-4.47,24.14-9.55,36.76-12.6c10.55-2.5,21.32-3.92,32.08-5.18c-5.11,9.64-6.42,20.72-6.2,31.48
		c-0.229,15.13,2.88,30.13,2.101,45.27c-7.49-8.807-30.621-25.724-35.16-28.36c-11-6.54-23.141-11.75-36-12.96
		c-8.36-0.73-17.48,0.39-24.17,5.89c-7.04,5.56-9.96,14.67-10.82,23.29c-1.2,10.52,3.39,20.93,10.29,28.68
		c5.96,6.51,14.03,10.45,21.71,14.52c0.31,4.14,0.58,8.54,2.94,12.11c2.71,4.47,7.51,7.02,12.13,9.11
		c-2.181,2.28-2.84,5.23-2.201,8.31c-4.37,8.7-11.03,16.4-19.04,21.98c-10.38,7.71-18.71,18.69-21.49,31.48
		c-4.77,3.38-8.59,7.9-11.69,12.83c-4.78-7.81-12.39-13.44-20.67-17.11c-12.15-5.66-26.06-8.05-36.6-16.82
		c-10.15-8.47-13.88-21.99-23.21-31.19c-5.61-5.8-13.99-10-22.17-7.92c-8.81,1.92-15.18,8.77-21.31,14.87
		c-6.74,3.3-14.63,5.09-19.86,10.87c-3.67,3.54-3.35,9.09-5.88,13.25c-4.25,5.49-11.67,7.77-14.99,14.09
		c-3.609,7.13-3.069,16.16,0.971,22.99c2.47,4.22,7.59,5.7,12.2,5.06c-0.91,7.23,7.68,12.78,14.01,9.93
		c7.31-5.28,7.07-15.84,13.55-21.77c5.63-4.31,12.88-5.11,19.52-6.92c3.83-1.28,7.6,0.77,10.74,2.78
		c10.88,7.3,18.52,18.15,27.46,27.5c11.01,12.24,20.53,25.85,32.71,37.01c10.69,10.05,24.76,17.95,39.88,16.8
		c18.68-1.25,34.51-12.33,49.33-22.76c9.137,6.091,18.473,11.862,27.881,17.515c14.399,8.655,16.83,9.329,19.579,13.165
		c4.54,6.03,5.67,13.69,8.659,20.48c6.66,16.42,18.66,30.439,22.811,47.92c2.68,10.59-0.391,21.8,2.9,32.279
		c1.9,6.391,7.31,11.601,13.9,12.92c10.5,2.271,21.309,0.371,31.84-0.74c3.229-0.219,6.67-1.379,9.739,0.15
		c7.101,3.08,14.74,4.93,22.479,5.221c11.961,0.56,24.07-3.48,33.24-11.2c3.561-3.32,8.49-4.601,12.03-7.97
		c4.979-4.51,10.021-10.33,9.99-17.42C938.48,510.945,934.73,507.666,930.941,506.736z"/>
	<g id="Color_1_" display="inline">
		<path fill="#5BBA00" d="M772.611,124.656c20.489-10.79,42.899-19.28,66.319-19.56c22.569,0.67,45.25,9.59,61.069,25.93
			c11.25,11.22,18.281,27.06,16.99,43.11c-13.299-4.93-28.379,2.27-35.47,13.94c-0.14-8.88-4.51-17.64-11.71-22.88
			c-10.76-7.48-26.22-8.13-37.02-0.37c-7.86,5.54-13.69,14.16-15.25,23.71c-1.69,9.61,1.729,20.25,9.479,26.38
			c7.97,6.53,19.22,7.78,28.96,5.17c8.02-2.23,15.65-6.55,20.7-13.3c-0.21,5.88,2.851,11.64,7.46,15.21
			c5.35,4.28,12.17,6.34,18.971,6.49c-4.531,8.31-9.761,16.59-17.451,22.33c-15.18-1.64-29.09-10.72-44.689-8.96
			c-1.99,0.46-6.1,0.18-5.01,3.34c0.48,0.11,1.439,0.32,1.92,0.42c12.1-2.7,23.76,2.49,35.14,5.83c-5.8,5.58-13.01,9.39-20.44,12.34
			c-9.42,3.75-18.949,7.37-27.68,12.61c0.26,0.93,0.67,1.78,1.23,2.56c1.66-0.34,3.15-1.21,4.67-1.94
			c5.641,3.26,10.311,7.92,14.22,13.09c7.181,9.51,13.33,19.78,21.15,28.8c-2.65,1.49-7.65,2.33-7.271,6.2
			c0.461,0.08,1.381,0.25,1.84,0.34c7.16-5.22,16.99-5.66,24.961-2.08c0.619,2.72,1.069,6.38,4.31,7.2
			c2.101,0.4,5.89,1.36,6.681-1.43c-1-3.07-7.121,0.41-7.24-3.97c0.569-7.13,5.869-13.39,12.22-16.35
			c5.649-2.87,14.21,2.73,12.45,9.21c-0.23,2.2-2.74,1.95-4.28,2.68c-4.011,1.06-5.86,5.09-7.21,8.62
			c-10.17,0.47-17.37,9.13-22.4,17.09c-3.82,5.24-2.89,13.13,2.01,17.36c4.551,3.86,11.51,4.79,16.951,2.49
			c-0.291-0.55-0.871-1.66-1.16-2.21c-3.91,0.23-8.181,0.7-11.69-1.42c-4.271-2.19-6.78-7.97-4.45-12.38
			c1.96-4.18,4.84-7.85,8.12-11.07c3.62-3.62,8.39-7.22,13.819-6.42c11.07,1.54,20.611,11.1,22.051,22.19
			c0.34,3.03-0.16,6.37-2.641,8.41c-6.439,7.22-15.379,12.72-25.22,13.3c-6.59,0.49-12.659-2.66-18.25-5.77
			c-0.649,0.89-1.31,1.77-1.95,2.67c-6.1-0.33-12.119-1.91-17.51-4.82c-7.25-3.38-11.92-10.17-18.21-14.88
			c-9.659-7.4-20.63-12.88-30.31-20.26c4.6-3.54,9.3-7.38,11.88-12.7c0.78-1.36-1.38-3.02-2.341-1.74
			c-2.689,3.39-5.159,7.04-8.709,9.62c-9.08,7.14-20.26,12.65-25.561,23.52c-9.279-9.71-20.92-16.91-33.17-22.27
			c-1.58-1.22-4.189-0.24-3.02,1.99c11.82,5.56,23.529,11.99,32.76,21.42c12.52,11.97,21.02,27.25,30.189,41.75
			c1.08,1.54,1.67,3.33,1.851,5.2c5.94,3.25,13.39,6.14,15.63,13.22c2.23,7.57,0.34,15.62,1.87,23.32
			c1.43,9.77,6.899,18.27,9.271,27.76c2.77,10.311,2.25,21.28,5.93,31.381c0.58,2.08,2.529,3.24,4.129,4.49
			c6.431,4.559,12.15,10.229,19.391,13.559c5.23,2.65,11.1,3.58,16.9,3.961c-1.92,1.85-5.91,2.92-5.03,6.279
			c1.39-0.34,2.94-0.42,4.101-1.39c5.379-3.96,9.799-9.39,16.109-11.96c4.29-2.05,10.32,1.08,10.471,6.01
			c-0.121,3.771-2.351,7.051-4.781,9.78c-4.229,4.69-10.27,8.24-16.779,7.72c-0.01,0.68-0.02,2.021-0.02,2.69
			c5.319,1.53,10.779-1.21,14.979-4.33c4.69-3.67,9.19-8.67,9.61-14.89c-0.09-3.351,3.039-5.301,5.609-6.74
			c3.141-1.631,7.641-2.61,10.29,0.42c3.25,3.311,1.03,8.391-1.159,11.66c-4.791,6.92-12.421,13.119-21.25,12.9
			c-0.291,0.459-0.861,1.389-1.15,1.859c0.77,0.57,1.55,1.16,2.33,1.75c-7.971,5.45-17.45,8.88-27.18,8.75
			c-11.841,0.09-23.33-4.15-33.271-10.35c-1.271-1.131-3.2,0.14-2.771,1.76c1.211,1.16,2.7,1.93,4.12,2.8
			c-6.97,1.09-14.01,1.74-21.05,2.22c-5.99,0.28-12.38-0.119-17.62-3.33c-4.89-3.17-6.979-9.1-7.58-14.64
			c-0.88-8.34,0.65-16.84-1.35-25.06c-4.101-20.121-19.12-35.53-25.271-54.851c-1.83-5.58-3.6-11.36-7.279-16.04
			c-2.791-3.7-7.051-5.77-10.93-8.1c-16.171-9.57-32.281-19.28-47.551-30.25c-12.22-8.91-24.9-18.95-30.66-33.42
			c-5.58-13.99,0.18-29.96,9.95-40.59c5.73-7.01,14.27-10.96,19.88-18.07c3.19-3.81,6.18-7.81,8.74-12.09
			c5.641,4.71,13.51,6.44,20.62,4.58c3.29-0.54,5.96-2.66,8.989-3.86c3.511-0.12,7.49,0.59,10.48-1.75
			c6.42-4.89,11.891-12.05,12.301-20.38c0.26-7.58-3.891-14.51-8.98-19.81c-4.82-5.36-11.01-9.13-16.891-13.15
			c-5.39-8.93-11.439-17.77-19.8-24.21c-2.47-1.87-5.36-3.25-8.521-3.27c-0.959,3.77,4.031,3.68,6.091,5.63
			c8.229,6.2,14.53,14.77,19.239,23.86c5.451,3.84,11.41,7.1,16.07,11.98c5.141,4.94,9.801,11.4,9.551,18.86
			c-0.311,7.06-5.08,12.93-10.26,17.29c-1.74,1.75-4.311,1.7-6.57,2.05c2.77-4.05,5.129-8.45,6.18-13.28
			c0.96-1.92-1.43-2.33-2.73-2.29c-1.41,5.86-3.72,11.95-8.66,15.74c-6.969,5.46-17.85,5.55-24.609-0.32
			c-1.189-1.12-2.859-3.24-1.57-4.8c3.1-2.5,7.34-1.98,11.061-2.25c-0.131-0.69-0.381-2.06-0.51-2.74c-3.051-0.4-6.32,0.3-9.16-1.17
			c-4.32-2.01-8.92-4.19-11.791-8.16c-2.64-3.73-2.55-8.46-2.83-12.82c-6.12-3.23-12.41-6.25-17.99-10.36
			c-9.04-7.41-15.06-19.11-13.85-30.96c0.77-8.2,3.99-16.83,11.04-21.64c6.87-4.81,15.77-5.01,23.77-3.74
			c16.109,2.67,30.96,10.65,43.5,20.91c8.689,6.92,18.57,12.97,24.529,22.63c2.181,3.27,3.131,7.1,4.361,10.77
			c0.02,1.26,2.76,1.59,2.659,0.15c0.47-4.62-2.649-8.67-3.989-12.93c0.869-16.71-1.971-33.33-2.09-50.03
			c0.09-11.63,1.6-24.34,9.469-33.5c1.271-1.83,4.541-2.93,3.631-5.63c-3.41-0.88-5.291,3.04-7.44,4.99
			c-10.42,1.43-20.899,2.5-31.2,4.72c-11.72,2.35-22.93,6.63-34.06,10.88c-10.33,4.05-21.04,8.07-32.3,7.85
			c-8.3-0.18-16.82-2.77-23.15-8.29c-3.13-2.68-3.93-7.72-0.69-10.64c6.33-5.83,15.48-6.76,23.71-7.09
			c14.68-0.19,29.53,2.17,44.07-0.82C747.931,138.736,760.061,130.946,772.611,124.656z"/>
		<path fill="#5BBA00" d="M826.74,174.886c5.66-7.48,14.61-12.87,24.181-12.56c8.14,0.22,16.659,3.37,21.8,9.92
			c6.391,7.82,7.29,18.88,3.98,28.19C861.841,188.836,844.201,181.616,826.74,174.886z"/>
		<path fill="#5BBA00" d="M879.691,205.176c-0.23-14.87,12.289-28.9,27.319-29.46c8.06-0.69,16.14,4.24,19.021,11.85
			C910.131,192.086,894.33,197.436,879.691,205.176z"/>
		<path fill="#FFFFFF" d="M824.99,177.316c9.99,3.79,19.951,7.75,29.451,12.67c-5.091,5.01-6.65,13.34-3.221,19.68
			c1.641,3.11,4.811,4.93,7.96,6.19c-6.96,2.63-14.81,3.45-21.97,1.11c-7.24-2.21-13.36-7.98-15.67-15.23
			C818.641,193.616,820.551,184.496,824.99,177.316z"/>
		<path fill="#FFFFFF" d="M885.361,205.476c13.389-6.35,27.479-11.17,41.699-15.28c0.35,1.68,0.67,3.36,1,5.04
			c-4.65-0.56-9.73,0.44-13.18,3.77c-4.52,4.01-6.6,11.24-3.49,16.68c1.27,2.54,3.971,3.74,6.34,5.02
			c-6.42,4.18-14.56,5.85-21.99,3.59c-7.33-1.89-15.01-7.13-15.85-15.25C881.16,207.256,883.511,206.566,885.361,205.476z"/>
		<path fill="#F4A800" d="M852.921,206.326c-1.97-5.27,0.18-11.27,4.239-14.93c6.41,3.34,12.59,7.15,18.141,11.79
			c-3.01,4.12-6.65,8.13-11.391,10.21C859.261,213.816,854.311,210.896,852.921,206.326z"/>
		<path fill="#F4A800" d="M912.82,211.136c-0.99-8.16,7.521-14.75,15.28-13.09c0.181,7.41-2.569,14.74-7.62,20.16
			C916.861,217.436,913.08,215.226,912.82,211.136z"/>
		<path fill="#5BBA00" d="M564.571,282.516c6.13-1.84,12.75,0.35,17.49,4.41c11.35,9.16,14.88,24.66,26.16,33.87
			c12.06,10.04,28.29,12.01,41.73,19.51c6.52,3.4,12.16,8.6,15.62,15.13c-2.66,5.11-5.3,10.27-7.27,15.68
			c0.44,2.24,2.99,1.68,3.42-0.17c4.43-9.54,8.61-19.71,16.72-26.81c-0.84,9.99,2.5,19.98,8.61,27.83
			c9.03,11.74,21.13,20.56,33.16,28.97c-14.43,10.15-30.02,20.91-48.31,21.54c-15.83,0.45-29.62-9.27-40.11-20.23
			c-11.63-12.12-21.44-25.84-32.96-38.07c-7.16-8.1-14.24-16.53-23.27-22.65c-3.91-2.68-8.82-4.58-13.56-3.1
			c-6.97,1.81-14.48,2.91-20.37,7.35c-6.44,5.35-6.71,14.74-12.26,20.73c-2.39,2.68-6.41,0.75-8.6-1.21
			c-2.38-2.18-1.52-5.91,0.43-8.07c4.13-4.91,2.69-13.01,8.76-16.52c-0.06-0.65-0.2-1.96-0.26-2.61c-4.24,0.27-6.45,4.53-7.54,8.13
			c-1.14,3.1-1.31,6.82-3.87,9.19c-3.51,3.51-10.09,1.68-12.14-2.6c-2.85-5.32-3.19-11.96-1.11-17.6
			c3.09-7.66,12.66-9.5,16.29-16.75c1.98-3.82,1.81-8.75,5.18-11.78c5.21-5.16,12.54-6.85,18.95-9.89
			C551.121,291.246,556.611,284.716,564.571,282.516z"/>
		<path fill="#5BBA00" d="M911.311,323.536c5.26-1.5,10.53,1.44,14.68,4.45c6,4.72,11.34,11.95,10.301,19.98
			c-0.43,4.41-3.84,7.53-7.2,9.99c0.54-13.49-10.45-25.41-23.24-28.25C907.07,327.236,908.32,324.246,911.311,323.536z"/>
	</g>
</g>
<g id="Layer_4" display="none">
	<path id="Outline_1_" display="inline" fill="#080E03" d="M933.95,202.547c-3.38-15.02-12.591-28.22-24.14-38.18
		c-14.801-12.95-34.211-20.46-53.881-20.77c-24.14-0.88-47.84,7.89-67.52,21.49c-5.51,3.87-11.54,7.38-18.33,8.26
		c-11.891,1.97-23.99-3.02-32.561-11.14c-6.149-5.39-10.27-12.54-15.289-18.89c-3.601-4.66-9.99-7.35-15.75-5.4
		c-5.59,1.73-8.96,7.23-10.34,12.62c-2.46,11.04,0.72,23.21,8.41,31.54c8.22,9.19,20.16,14.37,32.21,16.1
		c14.471,2.03,29.2-1.42,42.32-7.49c5.061-2.37,10.08-5.64,15.859-5.5c3.17,0.17,4.92,3.13,6.521,5.47
		c-2.2,4.38-3.87,9.06-4.47,13.94c-2.35,15.29,1,30.67,0.07,46c-0.17,2.35-1.061,5.93-4.08,5.76c-6.09-0.63-11.84-3.34-18.041-3.43
		c-11.31-0.34-22.42,2.36-33.489,4.32c-12.511,2.48-25.771,6.59-34.39,16.55c-6.661,7.46-7.411,18.41-4.65,27.66
		c4.22,14.32,13.9,26.16,23.98,36.82c-7.301,6.28-15.49,11.67-21.681,19.14c-7.43,9.06-9.25,21.81-6.02,32.92
		c-6.59-2.94-14.3-4.63-18.9-10.69c-4.61-6.12-8.72-12.63-12.75-19.14c-1.91-2.75-4.32-5.53-7.79-6.17
		c-5.46-1.86-12.28-2.76-16.9,1.49c-7.22,6.53-8.82,16.7-11.95,25.47c-6.77,1.33-14.13,3.66-18.06,9.77
		c-3.53,5-3.25,11.42-2.25,17.16c-4.62,3.98-7.73,10.1-6.44,16.29c1.38,6.59,4.86,13.26,10.77,16.84c3.98,2.42,9.08,1.88,12.92-0.57
		c2.4,4.19,6.52,7.85,11.59,7.869c4.41,0.431,8.59-2.899,9.49-7.169c1.46-6.63-2.06-13.2-0.93-19.83c0.75-4.09,5.81-5.84,9.44-4.73
		c4.59,1.51,7.76,5.47,10.76,9.05c3.84,5.03,7.51,10.22,12.01,14.69c-10.96,6.03-20,15.331-31.86,19.7
		c-10.88,4.24-23.32-0.051-33.88,5.311c-6.3,3.02-9.47,10.209-9.32,16.939c-0.06,11.52,5.75,21.77,9.84,32.189
		c-0.06,3.611-1.36,7.141-1.1,10.791c-0.04,10.41,6.53,20.549,16.22,24.49c7.11,3.02,15.35,2.469,22.35-0.602
		c3.82-2.02,8,0.221,12.02,0.041c5.66,0.279,11.13-3.471,13.24-8.67c1.08-2.65,0.29-5.75-1.53-7.859
		c-4.57-5.42-11.34-8.111-16.79-12.451c-2.07-1.6-2.4-4.4-3.05-6.75c-0.55-3.26-1.3-6.91,0.26-9.98c2.38-1.52,5.15-2.238,7.82-3.049
		c14.93-4.35,30.65-3.85,46.04-3.891c8.39,0.08,16.86,0.131,25.13-1.549c6.36-1.021,12.27-3.932,18.74-4.4
		c13.18-1.811,27.811-3.98,37.33-14.23c8.119-8.48,9.25-21.119,7.32-32.18c-2.641-15.19-8.84-29.54-15.9-43.15
		c6.96-4.6,13.29-10.06,19.58-15.52c1.42-1.15,2.75-2.5,4.449-3.23c8.15,6.32,13.58,15.95,23.17,20.43c9.94,4.58,22.33,5.1,32-0.43
		c5.961-3.31,9.041-10.01,9.41-16.6c5.061-3.09,10.431-7.98,9.78-14.49c-0.909-7.25-7.55-12.59-14.45-13.94
		c1.17-5.8-2.08-11.86-7.689-13.83c-8.02-2.79-16.689-0.34-24.52,1.95c4.949-7.81,9.1-16.61,9.149-26.04
		c0.14-4.61-1.74-8.84-3.7-12.89c1.91-2.95,5.04-4.95,8.381-5.91c7.09-1.95,14.5-0.3,21.709-1.12c4.271-0.39,7.971-2.84,12.15-3.57
		c4.32-0.67,7.77,2.95,11.92,3.16c3.12-0.58,5.641-2.73,7.96-4.77c7.149-6.7,13.21-14.55,17.979-23.11
		c2.82-4.44,7.73-7.13,10.351-11.76c3.351-6.13,3.75-13.41,3.09-20.24C936.22,227.407,936.68,214.677,933.95,202.547z"/>
	<g id="Color_2_" display="inline">
		<path fill="#5BBA00" d="M707.32,140.987c4.39-1.62,9.34,0.56,12.14,4.07c3.45,4.27,6.229,9.06,9.81,13.24
			c7.141,8.56,16.67,15.64,27.75,17.9c10.881,2.18,22.51-0.57,31.42-7.14c19.541-14.03,43.291-23.09,67.561-22.39
			c20.75,0.66,41.22,9.29,55.891,24.03c11.199,10.83,18.899,25.47,20.379,41.07c0.91,6.98,0.101,14-0.68,20.96
			c-5.79-14.19-23.09-21.19-37.41-16.88c-15.88,4.85-27.5,22.24-24.119,38.83c1.479,8.2,7,15.57,14.59,19.09
			c9.539,4.54,20.939,3.5,30.439-0.63c-4.67,7.6-10.311,14.71-17.13,20.49c-1.729,1.12-3.72,3.24-5.88,1.97
			c-10.4-4.18-20.62-8.8-30.98-13.08c-3.75-1.48-7.35-3.51-11.39-4.09c-0.09,0.56-0.271,1.69-0.36,2.25
			c3.211,2.28,7.101,3.24,10.65,4.86c5.939,2.6,12,4.93,17.85,7.72c-0.27,1.19-1.83,1.21-2.699,1.77
			c-8.32,3.48-17.521,0.58-26.15,2.36c-5.52,0.81-10.43,4.45-13.12,9.3c1.399,3.26,3.771,6.19,4.07,9.85
			c1.17,10.28-3.601,20.07-9.07,28.44c-5.771-6.94-11.94-13.6-18.96-19.3c5.87-5.05,10.82-12,11.91-19.75
			c-0.63-0.2-1.91-0.61-2.54-0.82c-2.29,7.05-6.021,13.71-11.83,18.45c-5.601-3.65-11.53-8.05-18.56-7.7
			c-2.021,0.16-5.66,0.91-4.681,3.7c2.54,0.17,5.07-0.54,7.61-0.3c4.6,0.84,8.6,3.47,12.37,6.09c7.63,5.63,14.28,12.45,20.43,19.64
			c1.271,1.44,2,3.23,2.75,4.99c5.09-0.11,9.64-2.76,14.63-3.51c5.561-1.13,12.23-1.82,16.77,2.32c3.57,2.83,3.531,8.81,0.061,11.71
			c-2.439,2.2-5.939,2.01-8.89,3.01c-1.14,3.28,3.02,2.72,4.979,2.26c3.381-0.49,6.061-2.71,8.34-5.09
			c5.44,0.92,10.76,4.49,12.32,10.01c1.221,3.44-1.029,6.87-3.48,9.11c-5.959,5.34-14.159,7.92-22.109,7.33
			c-2.35-0.78-2.82,2.64-0.67,2.9c5.62,1.28,11.32-0.54,16.64-2.26c-1.079,4.52-3.05,9.2-7.229,11.67
			c-9.631,5.94-22.43,4.96-31.98-0.67c-7.869-4.62-12.55-12.86-19.66-18.4c-1.81-1.51-4.17-1.99-6.38-2.59
			c-8.94-2.19-17.64-5.55-25.45-10.47c-13.18-7.5-25.979-17.31-32.74-31.26c-4.489-9.12-4.35-20.28,0.601-29.19
			c7.61-13.71,20.94-23.89,35.91-28.32c0.021-0.56,0.05-1.66,0.06-2.22c-2.07-0.95-4.289,0.49-6.32,0.99
			c-5.02,1.72-9.579,4.46-13.979,7.37c1.65-5.37,4.25-10.36,7.29-15.07c1.1-1.36,1.221-3.72-1.13-3.49
			c-3.37,3.39-5.29,7.93-7.3,12.21c-1.49,3.07-1.59,6.66-3.21,9.64c-3.421,3.51-7.091,6.8-10.04,10.74
			c-5.19-1.55-9.92-4.48-12.74-9.23c-0.68,1.1-2.23,2.2-1.16,3.58c2.36,4.59,7.4,6.62,11.891,8.5c-2.94,4.93-5.48,10.27-6,16.07
			c-0.381,2.95-0.01,6.13-1.42,8.86c-1.9,3.75-4.99,6.7-8.051,9.52c-8.42-8.6-16.1-18.18-21.15-29.17
			c-3.34-7.58-5.399-16.54-2.1-24.5c3.4-8.5,11.51-13.9,19.69-17.24c7.56-3.06,15.59-4.75,23.62-6.02
			c11.479-2.02,23.5-4.79,34.99-1.36c4.119,0.87,8.799,3.27,12.789,0.78c3.41-2.45,3.4-7.12,3.711-10.89
			c0.229-13.65-2.291-27.32-0.551-40.95c0.461-4.58,1.74-9.06,3.91-13.12c2.01-2.88-0.57-6.19-2.4-8.45
			c-2.97-3.58-8.17-3.56-12.289-2.37c-5.41,1.62-10.181,4.79-15.431,6.83c-14.01,5.72-29.97,8.25-44.68,3.73
			c-8.56-2.73-16.94-7.11-22.761-14.11c-6.31-7.53-9.29-17.99-7.069-27.65C700.27,147.127,702.91,142.667,707.32,140.987z"/>
		<path fill="#5BBA00" d="M894.561,219.137c8.33-2.77,17.76-1.01,25.01,3.78c12.869,8.76,15.41,29.87,3.72,40.63
			c-3.82-8.42-10.67-14.93-17.8-20.58c-7.711-5.96-16.29-11.08-25.84-13.38C883.65,224.947,888.63,220.967,894.561,219.137z"/>
		<path fill="#FFFFFF" d="M873.23,254.768c-1.771-7.6,0.109-15.94,4.56-22.29c5.149,0.33,9.83,2.78,14.319,5.14
			c6.851,3.66,12.951,8.52,18.721,13.67c-4.7,5.73-3.78,14.75,2.109,19.3c-7.379,2.99-15.779,4.21-23.47,1.64
			C881.439,269.848,875.12,262.877,873.23,254.768z"/>
		<path fill="#F4A800" d="M910.98,262.657c-1.221-3.19,0.27-6.41,1.76-9.2c3.5,3.62,6.72,7.69,8.08,12.64
			c-1.61,0.98-3.221,1.96-4.83,2.93C913.85,267.348,911.529,265.478,910.98,262.657z"/>
		<path fill="#5BBA00" d="M738.82,329.917c5.029,17.81,19.97,30.53,35.459,39.43c8.73,5.52,18.41,9.35,28.41,11.84
			c-5.479,4.58-10.789,9.37-16.52,13.66c-2.52,1.95-5.47,3.37-7.67,5.71c7.38,13.94,13.9,28.61,16.8,44.21
			c1.761,9.719,1.04,20.779-5.51,28.68c-6.399,7.689-16.41,10.92-25.92,12.699c-7.13,1.531-14.58,1.551-21.5,4.031
			c-10.101,3.379-20.851,3.76-31.4,3.619c-18.32-0.029-37.37-0.77-54.69,6.189c-4.73,1.541-4.57,7.42-4.06,11.441
			c0.88,4.4,1.21,9.91,5.55,12.439c5.24,4.07,12.04,6.43,15.95,12.039c2.05,3.07-0.79,6.48-3.2,8.311
			c-4.35,3.57-10.27,1.77-15.24,0.961c0.43-2.471,1.43-5.33-0.42-7.48c-3.37-4.529-9.24-5.949-13.45-9.52
			c-1.19-1.5-4.49-1.41-3.29,1.16c3.7,4.92,10.8,5.629,14.37,10.67c0.95,2.859-1.66,5.67-3.76,7.289
			c-6.67,2.551-14.59,1.99-20.76-1.66c-7.63-4.35-11.8-13.379-11.42-22c-0.02-3.49,2.04-7.02,0.88-10.439
			c-3.98-9.561-9.25-19.041-9.58-29.641c-0.19-5.9,2.17-12.59,7.9-15.16c9.93-4.648,21.31-1.039,31.52-4.439
			c14.26-4.33,24.29-16.33,37.77-22.22c13.09-6.32,27.97-4.22,41.989-4.59c4.58,5.9,9.131,11.82,13.65,17.759
			c1.16,1.41,2.24,3.061,4.01,3.771c1.521-0.98,1.221-2.721,0.11-3.861c-7.239-9.439-14.64-18.749-21.69-28.329
			c-8.109-11.84-17.31-23.45-21.409-37.43c-3.36-11.06-0.48-23.82,7.63-32.12C718.609,347.337,730.939,340.907,738.82,329.917z"/>
		<path fill="#5BBA00" d="M643.52,359.167c5.01-5.51,13.77-3.13,18.96,0.83c6.43,8.27,10.7,18.38,18.59,25.49
			c5.52,5.15,14.29,4.92,19.34,10.55c6.34,13.69,15.4,25.85,24.199,38.03c-13.959,0.12-28.649-1.29-41.669,4.89
			c-8.38-6.84-12.48-17.79-21.75-23.63c-4.91-3.24-12.42-2.42-15.72,2.67c-3.47,6.91,0.7,14.52,0.03,21.72
			c-0.17,4.55-5.75,7.42-9.58,5.02c-3.95-1.57-5.6-5.59-7.1-9.22c-3.04,0.58-4.5,4.39-7.83,4.3c-4.76,0.17-8.49-3.6-10.8-7.39
			c-2.55-4.29-4.68-9.57-2.98-14.56c1.08-3.56,4-6.06,6.58-8.56c-1.38-5.45-2.23-11.76,1.33-16.6c3.85-5.77,11.05-7.2,17.37-8.49
			C636.29,375.958,637.14,366.087,643.52,359.167z"/>
	</g>
</g>
<g id="Layer_5" display="none">
	<path id="Outline_2_" display="inline" fill="#0A1104" d="M965.955,324.318c-1.439-6.43-6.301-11.63-11.689-15.13
		c-2.031-1.28-2.83-3.88-5.041-4.92c-4.979-2.5-10.82-2.07-16.18-1.52c-5.88,0.94-12.76,3.74-14.45,10.07
		c-1.39,3.48-0.69,8.51-4.64,10.38c-9.24,3.67-19.641,0.1-28.92,3.65c-13.4-10.53-19.96-26.94-31.41-39.24
		c6.52-8.18,17.859-8.43,27.42-8.62c5.29,0.25,10.189-1.77,15.04-3.57c5.01-2.09,9.08,3.22,13.97,2.89c3-0.99,5.59-2.93,7.881-5.07
		c4.949-4.73,9.489-9.91,13.42-15.52c2.399-3.38,3.869-7.39,6.899-10.31c4.66-4.89,9.69-10.08,10.931-17.01
		c1.119-4.24-0.101-8.59,0.14-12.87c2.329-10.86,2.8-22.18,0.8-33.13c-2.37-13.61-9.34-26.2-19.05-35.95
		c-14.8-15.44-35.64-24.82-56.98-25.89c-16.88-0.94-33.8,2.91-49.19,9.72c-9.279,4.13-17.459,10.37-26.899,14.16
		c-9.271,3.69-18.72,6.93-27.83,10.99c-16.569,7.44-32.5,17.86-42.819,33.13c-4.94,7.36-9.25,15.77-9.081,24.85
		c0.25,5.77,2.9,12.03,8.241,14.79c3.729,1.47,7.869-0.05,10.799-2.53c8.59-6.94,13.28-17.28,20.601-25.37
		c11.521-12.93,24.7-24.51,39.479-33.59c4.4-2.63,9.4-5.35,14.711-4.32c2.649,0.68,3.83,3.28,4.939,5.5
		c-7.05,13.41-5.189,29.09-4.45,43.63c0.25,5.68,0.95,11.41,0.16,17.07c-0.3,2.27-2.04,4.74-4.61,4.29
		c-10.279-1.58-17.56-11.07-28.14-11.67c-14.7-0.86-28.56,4.9-42.75,7.71c-11.87,2.87-24.69,3.69-35.22,10.46
		c-4.88,3-8.59,8.15-8.92,13.98c-0.84,9.01,3.19,17.56,7.93,24.95c6.59,10.12,14.7,19.12,22.6,28.21
		c-1.89,7.85-4.479,16.21-10.83,21.65c-5.84,4.93-13.81,5.26-20.89,7.11c-5.53,1.31-10.93,4.01-14.49,8.55
		c-5.13,5.98-6.72,14.11-11.85,20.09c-4.74,5.44-11.27,9.03-15.68,14.8c-6.07,7.89-10.32,17.13-17.32,24.32
		c-4.726,4.251-16.2,0.478-25.53,2.38c-4.73,0.84-8.99,3.3-12.91,5.98c-9.02,6.27-17.11,13.85-26.69,19.32
		c-3.23,1.8-6.56,3.62-10.27,4.19c-7.04,1.34-14.05-1.85-21.11-0.53c-6.14,0.73-11.98,4.89-13.6,11.04
		c-2.83,9.81-0.14,20.03-0.19,30.01c-0.09,10.29-5.44,19.74-5.24,30.061c0.06,6.02,2.91,11.64,6.73,16.16
		c2.23,2.74,5.13,4.879,7.09,7.83c2.64,3.82,4.05,8.42,7.12,11.959c3.07,3.41,7.75,4.68,12.15,5.18
		c6.01,0.73,12.62,0.32,17.62-3.459c5.43,4.221,14.07,2.209,18.09-3.029c3.13-4.66,0.04-10.521-3.91-13.551
		c-4.63-4.49-12.57-5.45-14.87-12.15c-2.32-7.3-3.85-15.189-2.46-22.82c1.18-6.58,7.1-11.16,13.34-12.619
		c9.61-2.381,19.64-2.09,29.34-3.92c10.83-1.781,20.77-6.811,30.1-12.371c2.44-1.34,4.7-3.52,7.68-3.299
		c7.35-0.351,14.65-2.261,21.23-5.541c5.55-2.709,8.31-8.65,13.3-12.08c4.85-3.39,10.77-4.75,15.68-8.05
		c14.87-9.16,24.49-24.31,38.081-35c5.899,4.74,11.58,10.11,18.81,12.77c8.989,3.41,18.83,2.16,28.09,4.3
		c5.09,1.17,10.181,2.34,15.38,2.94c-5.779,6.15-7.3,15.03-13.15,21.11c-6.06,6.57-15.14,9.301-21.06,16.03
		c-5.84,6.05-6.64,16.239-1.85,23.14c3.409,5.29,9.979,7.23,13.68,12.26c4.33,5.17,5.56,12.051,9.24,17.61
		c3.93,6.14,9.81,11.2,16.83,13.38c7.72,2.531,15.86,0.98,23.54-0.83c6.939,4.02,15.88,2.961,22.789-0.59
		c3.99-2.439,8.83-3.141,12.521-6.12c4.31-2.96,6.011-8.3,6.7-13.239c0.57-3.371-1.57-6.871-4.9-7.721
		c-7.699-2.04-15.789,1.36-23.459-1.01c-6.361-1.98-12.341-5.13-17.621-9.17c-3.779-2.99-7.27-6.71-8.91-11.32
		c-0.219-2.859,2.091-5.119,3.99-6.949c8.461-7.25,19.93-9.69,28.24-17.141c6.13-5.21,11.311-11.65,14.62-19.01
		c0.819-2.16,2.99-3.22,4.681-4.59c4.34-3.23,8.319-7.4,9.949-12.67c2.02-6.74,0.52-14.07-2.79-20.13
		c-5.55-10.17-14.81-18.1-25.44-22.6c-14.68-6.31-30.539-9.4-46.369-11.01c8.63-5.26,16.4-11.79,23.029-19.43
		c9.49,8.85,18.431,18.34,28.791,26.23c10.299,7.95,22.159,15.06,35.439,15.96c14.279,0.97,28.42-6.08,37.09-17.31
		c0.83-1.04,1.561-2.18,2.59-3.04c7.43-3.18,16.131,0.92,23.26-3.37c6.451-3.98,9.09-11.52,11.84-18.17
		C962.505,336.178,966.904,330.808,965.955,324.318z"/>
	<g id="Color_3_" display="inline">
		<path fill="#5BBA00" d="M810.495,143.798c18.271-11.65,39.84-18.99,61.68-18.09c20.11,0.77,40.091,8.77,54.49,22.96
			c9.53,9.14,17.03,20.77,19.94,33.75c2.22,9.5,2.069,19.42,0.609,29.02c-5.93-13.42-22.1-20.66-36.15-16.93
			c-16.01,3.87-27.5,20.74-25.739,37.02c1.21,10.67,9.329,20.18,19.71,22.96c8.689,2.5,18,0.84,26.189-2.65
			c-5.1,7.88-11.01,15.43-18.35,21.34c-1.29,0.75-2.67,2.46-4.3,1.67c-13.95-5.62-27.601-12.02-41.64-17.39
			c-1.881-0.8-2.69,2.48-0.91,2.92c9.41,4.08,18.949,7.89,28.33,12.08c-9.61,5.32-20.961,2.08-31.121,5.25
			c-4.629,1.24-8.799,3.92-11.85,7.61c-5.99-5.78-13.72-10.05-22.14-10.66c-1.75,0.35-1.8,3.41,0.271,3.14
			c6.109,0.96,12.029,3.34,16.739,7.42c12.649,10.72,19.29,26.44,30.431,38.48c2.34,2.39,4.77,4.8,7.719,6.43
			c3.271-0.31,6.32-1.95,9.681-1.84c7.36-0.67,15.28,0.71,22.11-2.74c5.92-3.25,3.34-11.72,8.24-15.83
			c4.569-3.85,10.979-4.52,16.729-4.19c3.34,0.43,8,0.99,8.94,4.91c-0.431,2.49-2.4,4.25-4.021,6.02c-1.2,0.82-2.14,3.08-0.01,3.53
			c3.55-1.02,5.36-4.75,7.14-7.7c4.71,3.68,9.95,8.69,9.59,15.19c-0.779,5.7-5.35,9.68-8.52,14.15c-0.35,5.31-3.66,10.02-7.48,13.52
			c-5.52,4.77-13.189,2.29-19.76,3.19c-0.1-1.4-0.52-3.83-2.49-2.68c-6.51,10.14-15.59,19.4-27.52,22.7
			c-11.52,3.62-23.881,0.04-34.03-5.78c-19.271-10.71-33.239-28.17-49.66-42.46c-3.02-2.75-7.18-4.91-11.34-3.69l-0.59,1.02
			c0.149,0.44,0.45,1.3,0.601,1.74c6.779-0.66,10.92,5.33,15.569,9.17c-8.53,9.94-19.101,18.12-31.12,23.41
			c-1.449,0.67-4.17,1.65-2.51,3.71c2.05,0.67,3.91-0.99,5.779-1.58c2.23-1.36,4.841-0.75,7.281-0.57
			c15.699,1.46,31.42,4.67,45.81,11.28c10.25,4.71,19.079,12.8,23.97,23.03c2.689,5.74,3.63,12.96,0.08,18.54
			c-4.13,7.04-11.77,10.59-18.061,15.29c-1.67,2.63,1.65,2.54,3.301,2.15c-3.271,4.89-6.7,9.78-11.24,13.6
			c-9.07,8.19-22.07,10.38-30.65,19.229c-2.83,2.881-4.699,7.51-2.38,11.26c5.671,9.73,15.79,16.061,26.24,19.631
			c6.8,2.38,14.04,0.92,21.04,0.89c2.33,0.05,5.57,0.45,6.279,3.15c0.781,6.06-2.829,12.2-8.27,14.88c2.18-5.87-0.9-14.7-8.01-14.87
			c-6.45,0.34-12.32,3.569-18.7,4.47c-0.09,0.6-0.28,1.811-0.37,2.41c6.69,1.1,12.5-3.41,19.04-3.619
			c3.71,0.109,5.63,4.489,5.47,7.739c-0.64,4.79-5.379,7.49-9.52,8.96c-4.97,1.46-10.83,2.41-15.55-0.29
			c-1.87-0.87-2.07-3.09-2.67-4.8c-0.71,0.01-2.13,0.029-2.841,0.029c0.17,1.431,0.351,2.861,0.541,4.291
			c-6.09,1.41-12.51,2.789-18.69,1.029c-7.87-1.92-14.22-7.859-17.97-14.88c-3.01-5.63-4.59-12.2-9.29-16.79
			c-3.5-3.91-8.511-6.109-11.79-10.22c-3.98-4.83-4.51-12.29-0.82-17.431c6.26-9.06,18.24-11.58,24.78-20.37
			c5.06-6.45,6.35-15.54,13.21-20.62c13.67,1.77,27.64,2.36,41.189-0.61c2.121,0.48,1.94-4.01-0.1-3.07
			c-8.891,1.37-17.87,2.53-26.891,1.82c-10.879-0.8-21.779-1.94-32.389-4.58c-8.951-2.26-18.431-1.22-27.271-3.97
			c-7.16-2.26-12.601-7.62-18.33-12.18c2.5-2.06,5.33-3.61,8.17-5.12c1.39-0.4,1.84-1.72,1.601-3.05
			c-2.181-1.09-4.15,0.83-6.041,1.69c-18.09,10.42-28.68,29.69-46.24,40.77c-5.41,3.55-12,4.86-17.18,8.8
			c-4.22,3.07-6.44,8.271-11.07,10.87c-6.19,3.439-13.26,5.189-20.31,5.57c-1.71,0.16-3.57-0.021-5.05,1.039
			c-11.06,6.791-22.8,13.311-35.87,15.061c-10.81,1.88-22.29,1.01-32.5,5.57c-6.86,2.879-10.63,10.319-10.77,17.51
			c-0.08,7.48,0.97,15.18,4.04,22.05c3.47,7.081,12.56,7.911,17.16,13.921c1.57,1.889,2.95,4.949,1.03,7.09
			c-3.14,3.529-8.7,4.709-12.97,2.65c1.36-2.521,2.86-5.531,1.47-8.361c-3.71-6.93-13.93-6.4-17.25-13.52
			c-2.56-0.021-2.97,2.699-1.46,4.359c4.51,4.801,12.26,5.381,16.07,10.99c0.43,2.33-1.55,4.131-3.01,5.67
			c-2.59,2.57-6.33,3.33-9.86,3.34c-4.62,0.131-9.5-0.17-13.6-2.529c-3.66-2.279-4.97-6.609-6.91-10.211
			c-2.89-5.85-8.73-9.43-12.12-14.92c-2.12-3.459-3.47-7.49-3.37-11.569c0.62-10.511,5.7-20.33,5.27-30.95
			c0.15-8.96-2.6-18.12,0.11-26.92c1.25-4.47,5.26-7.63,9.66-8.7c6.29-1.75,12.61,0.97,18.95,0.65c5.12-0.06,9.98-2.02,14.37-4.51
			c9.03-5.06,16.83-11.94,25.08-18.13c5.18-3.86,11.04-7.37,17.65-7.77c7.15-0.37,14.54,1.26,21.52-0.83
			c8.88-7.17,13.21-18.13,20.15-26.93c4.88-6.16,12.2-9.85,16.81-16.25c4.64-6.3,6.19-14.56,12.05-20.01
			c9.69-9.2,25.55-5.23,35.02-14.91c9.469-10.02,9.719-24.61,14.07-37c4.101-11.45,11.05-21.8,19.59-30.41
			c1.511-1.04,0.8-3.91-1.26-3.11c-4.42,3.64-7.761,8.38-11.271,12.85c-3.75-0.29-7.199-2.85-10.949-2.27
			c0.01,0.54,0.02,1.61,0.029,2.15c2.62,1.67,5.75,2.13,8.67,3.03c-1.029,2.71-2.709,5.1-3.99,7.69c-3.51,6.37-5.42,13.45-7.02,20.5
			c-8.91-10.09-18.2-20.15-24.39-32.21c-2.8-5.85-5.31-12.56-3.59-19.08c1.68-6.15,7.4-10.03,13.01-12.29
			c6.91-2.62,14.18-4.17,21.43-5.53c13.87-1.8,26.921-7.52,40.87-8.9c4.33-0.43,8.87-0.58,13,1.02c7.92,3.02,14.46,9.66,23.17,10.44
			c4.09,0.47,7.33-2.95,7.7-6.83c1.66-18.5-4.09-37.66,2.149-55.69c1.33,0.6,3.551,1.41,3.711-0.86c-0.68-3.73-1.9-7.51-4.271-10.53
			c-2.44-2.93-6.659-3.74-10.239-2.9c-8.201,1.61-15.011,6.76-21.65,11.51c-13.11,9.75-25.381,20.84-35.23,33.92
			c-4.49,5.86-8.38,12.26-13.67,17.46c-2.529,2.28-6.449,4.95-9.74,2.52c-4.729-3.8-6.449-10.61-4.949-16.38
			c3.07-13.47,12.119-24.73,22.43-33.54c12.83-10.67,28.41-17.17,43.85-23.05C795.795,150.718,803.635,148.238,810.495,143.798z"/>
		<path fill="#5BBA00" d="M895.305,208.618c4.86-5.72,11.37-10.46,18.961-11.55c10.76-1.66,22.869,3.04,28.369,12.74
			c3.54,6.49,5.42,14.33,3.311,21.58c-1.09,4-3.73,7.3-6.41,10.36c-2.33-5.5-6.391-10.05-11.051-13.71
			C918.845,219.568,908.095,211.408,895.305,208.618z"/>
		<path fill="#FFFFFF" d="M893.355,211.258c12.58,2.21,23.31,10.2,32.6,18.57c-3.65,2.97-6.21,7.75-5.17,12.54
			c0.31,3.29,2.439,5.89,4.369,8.41c-6.699,2.02-14.029,2.59-20.699,0.13c-8.02-2.66-14.08-10.02-15.59-18.28
			C887.205,225.238,889.425,217.558,893.355,211.258z"/>
		<path fill="#F4A800" d="M923.955,237.238c0.74-2.37,2.74-3.97,4.39-5.7c3.38,3.45,7.19,7.05,8.48,11.86
			c-0.21,3.75-4.56,5.16-7.64,6C924.814,247.328,922.195,241.848,923.955,237.238z"/>
	</g>
</g>
<g id="Layer_6" display="none">
	<path display="inline" fill="#0C1205" d="M970.458,365.69c-1.86-0.57-4.39,0.46-5.521-1.55c-2.229-2.65-5.09-5.47-8.82-5.37
		c-5.049,0.07-8.789,4.23-11.289,8.2c-4.95,7.25-3.36,17.49-10.12,23.73c-8.99,8.17-21.54,14.67-33.95,11.46
		c-11.23-3.06-20.24-10.78-29.721-17.12c-7.989-5.49-16.949-9.51-24.389-15.77c-6.24-5.24-9.311-13.23-15.49-18.51
		c-5.36-4.17-12.16-5.64-18.65-7.08c-4.13-6.49-10.279-11.29-16.721-15.33c9.461-9.07,22.211-13.33,32.721-20.93
		c4.74-3.46,9.3-7.19,13.74-11.04c14.07,7.75,26.6,17.99,40.789,25.55c8.311,4.47,17.421,8.04,26.98,8.13
		c10.131-0.22,19.54-4.96,27.26-11.26c4.551,0.49,9.33,0.71,13.621-1.21c7.129-2.61,12.299-8.99,14.289-16.21
		c4.68-2.38,9.44-5.39,12.01-10.14c2.98-4.87,2.641-11.76-1.319-16c-3.681-3.41-9.44-1.91-13.42-4.76
		c-4.44-3.24-3.13-10.31-7.88-13.27c-4.021-2.17-8.59-0.67-12.6,0.69c-7.021,2.43-11.57,9.59-12.23,16.79
		c-8.141,1.17-16.45,0.96-24.471,2.92c-3.129-2.11-5.899-4.69-8.56-7.34c-8.521-8.47-16.79-17.2-25.14-25.82
		c3.68-0.81,7.39-1.62,10.88-3.08c4.25-1.94,7.479-6.54,12.55-6.36c3.04-0.24,5.92,1.3,8.96,0.97c4.11-2.06,6.601-6.2,8.92-10
		c4.55-8.08,8.229-16.73,10.33-25.78c2.97-3.31,5.11-7.34,6.63-11.5c1.49-6.58,0.631-13.5-1.65-19.79
		c-0.16-9.07-1.459-18.19-4.31-26.83c-4.18-13.19-12.739-24.84-23.81-33.08c-14.811-11.26-33.44-17.6-52.08-17
		c-20.94,0.63-40.86,9.24-57.77,21.21c-9.645,6.653-12.873,10.734-25.096,16.775v25.188c0.207-0.102,0.408-0.212,0.615-0.313
		c6.05-2.96,12.4-5.95,19.26-6.16c1.939,0.22,4.42,0.43,5.21,2.58c-2.649,2.48-2.319,6.42-2.479,9.74
		c-0.641,14.25,5.199,27.58,8.77,41.1c-4.73-3.33-9.561-6.82-15.221-8.35c-14.709-3.88-30.18-7.09-42.789-16.1
		c-1.551-1.08-3.09-2.16-4.65-3.23c10.131-6.712,20.117-13.742,31.035-19.14v-25.194c-19.27,9.478-40.551,14.531-58.955,25.814
		c-2.93-1.4-5.68-3.21-8.79-4.23c-8.16-3.11-17.77-2.27-25.16,2.45c-6.39,4.11-10.64,10.85-12.71,18.06
		c-5.94,4.64-9.27,11.91-10.44,19.23c-3.44,4.46-6.47,9.83-5.88,15.66c0.59,7.88,6,14.65,12.6,18.61c1.78,3.02,3.61,6.32,7.04,7.74
		c5.02,2.51,10.96,0.65,15.12-2.67c1.33-1.6,3.03-0.15,4.54,0.25c4.96,2.38,11.7-0.53,13.27-5.84c1.5-3.96-0.96-7.98-2.11-11.7
		c1.4-0.62,2.79-1.26,4.16-1.93c14.07,7.73,26.581,17.91,39.36,27.54c-2.3,7.1-2.87,14.58-3.939,21.92
		c-1.08,9.51-3.391,19.59-10.28,26.68c-7.68,7.31-18.3,10.12-26.72,16.36c-6.89,4.79-11.54,12.3-13.4,20.43
		c-10.68,4.22-20.72,10.19-29.44,17.68c-2.87-4.45-6.29-8.64-10.82-11.49c-11.6-7.53-25.91-8.36-39.33-8.94
		c-7.93-0.86-16.44-0.82-23.5-5.05c-7.74-5.87-13.7-14.14-22.7-18.29c-6.99-3.47-16.33-3.41-22.15,2.29
		c-8.15,8.02-8.48,20.62-15.57,29.33c-7.45,7.55-17.67,12.95-21.97,23.15c-3.03,6-3.06,12.8-3.94,19.29
		c-4.87,6.76-6.41,15.86-3.1,23.63c2.36,6.27,8.46,12.51,15.72,11.02c-0.44,10.46,15.59,13.5,20.479,5.13
		c2.7-5.77,0.82-12.4,2.75-18.35c2.73-10.61,7.55-21.58,16.87-27.98c6.82-4.51,16.16-6.49,23.69-2.53
		c7.52,3.8,13.22,10.22,19.95,15.16c10.04,7.77,22.14,12.49,34.58,14.66c1.94,0.29,3.89,0.84,5.41,2.15
		c6.09,4.79,13.33,8.12,20.97,9.47c10.25,1.32,20.7,0.18,30.54-2.91c15.714-4.287,42.093-19.677,48.04-19.677
		c0,0,45.049,11.876,45.05,11.877c18.641,5.81,30.631,22.91,48.471,30.25c13,5.72,27.72,4.82,40.88,10.01
		c6.84,2.61,13.06,6.78,18.22,11.97c5.57,5.4,10.4,11.69,16.98,15.95c5.5,3.56,13.04,4.86,18.939,1.5
		c7.24-4.37,10.2-12.729,15.11-19.19c6.61-9.53,17.399-15.58,22.59-26.18c2.101-3.65,2.19-7.95,3.25-11.91
		c4.33-8.86,11.771-15.64,17.021-23.91c1.75-2.87,3.449-6.12,2.979-9.59C978.178,368.931,974.058,366.521,970.458,365.69z"/>
	<g id="Color_4_" display="inline">
		<path fill="#5BBA00" d="M839.098,95.8c20.141-3.17,41.141,2.63,57.551,14.53c9.789,6.96,17.779,16.52,22.34,27.67
			c3.299,7.66,4.949,15.9,5.959,24.14c-4.14-4.78-9.34-8.83-15.569-10.4c-9.82-2.48-20.89-0.65-28.83,5.82
			c-12.36,9.94-17.011,29.04-9.09,43.08c5.31,9.59,17,14.62,27.69,13.12c7.319-0.86,14.1-4.3,19.859-8.78
			c-3.51,9.48-7.43,19.21-14.25,26.84c-1.609,2.18-4.45,0.53-6.609,0.46c-13.861-1.94-27.57-4.89-41.48-6.54
			c-0.32,1.08-0.77,2.34,0.48,3.05c10.279,1.8,20.619,3.4,30.909,5.17c-3.05,2.07-5.96,4.55-9.55,5.62
			c-3.12,0.92-6.3,1.61-9.391,2.65c-8.229-6.66-18.08-12.85-29.119-12.06c-3.33,0.42-7.26,0.49-9.84,2.87
			c0.18,0.51,0.529,1.53,0.699,2.04c4.4-0.57,8.69-2.39,13.211-1.66c12.209,1.4,21.89,9.98,30.209,18.35
			c10.25,9.83,19.131,21.22,30.74,29.54c3.75-1.85,7.99-2,12.08-2.39c8.12-0.67,16.37-1.3,24.1-4.08
			c-0.27-1.1-0.289-3.58-2.119-2.69c-2.09,0.51-4.141,1.14-6.221,1.67c1.07-5.54,4.5-10.95,10.021-12.87
			c3.36-1.09,7.46-2.75,10.739-0.59c2.91,3.46,2.631,8.74,6.121,11.9c3.549,3.66,9.289,2.22,13.369,4.8
			c3.61,2.96,3.95,8.73,1.59,12.58c-2.709,4.69-7.699,7.28-12.319,9.72c-1.69,10.01-11.39,17.6-21.521,16.86
			c3.11-3.01,6.33-5.93,8.9-9.43c-0.77-0.66-1.54-1.32-2.3-1.97c-9.46,10.25-20.86,20.64-35.38,22.08
			c-12.19,0.68-23.551-5.07-33.73-11.16c-9.92-6-19.34-12.76-29.109-18.98c-5.141-3.07-10.971-6.25-17.141-5.54
			c-2.48,3.93,4.301,3.03,6.6,3.93c-3.279,3.26-7.06,5.96-10.67,8.83c-11.1,8.32-24.84,12.72-34.84,22.56
			c-9.3-5.32-19.199-9.45-29-13.73c-3.479-1.44-6.77-3.43-10.5-4.17c-0.74,1.87,0.041,3.3,1.9,3.88
			c12.43,5.84,25.449,10.53,37.23,17.71c6.719,4.06,13.319,8.92,17.43,15.78c6.67,2.33,14.32,2.96,19.83,7.82
			c5.459,5.38,8.58,12.75,14.459,17.76c7.351,6.28,16.221,10.33,24.221,15.67c9.8,6.4,18.96,14.42,30.45,17.63
			c9.68,2.74,20.14,0.18,28.489-5.11c5.051-3.12,10.23-6.69,13.041-12.1c3.109-5.61,2.89-12.41,6.029-18.01
			c1.52-2.66,3.67-4.96,6.17-6.74c1.76-1.3,4.37-1.27,6.15-0.01c3.85,2.64,6.63,7.35,5.811,12.12c-1.24,7.16-6.99,12.48-8.541,19.54
			c-2.039,7.23-0.119,15.19-3.58,22.08c-5.069,10.25-15.49,16.14-21.979,25.3c-4.13,5.29-6.74,11.65-11.45,16.491
			c-3.119,3.129-7.72,5.459-12.21,4.189c-7.13-1.801-12.39-7.32-17.39-12.36c-6.381-6.69-13.11-13.44-21.62-17.36
			c-15.44-7.21-33.591-5.19-48.681-13.43c-12.93-6.89-22.939-18.13-35.979-24.87c-10.88-5.83-23.39-6.77-35.149-9.82
			c-12.711-3.19-25.73-7.54-35.57-16.55c-3.04-2.62-5.02-6.25-8.28-8.63c-7.29-5.6-14.54-12.13-17.89-20.93
			c-3.69-9.48-0.36-20.48,6.27-27.81c9.4-10.35,24.75-12.36,33.93-22.99c6.19-7.13,7.871-16.77,9.141-25.83
			c1.49-10.85,2.27-22.34,8.29-31.84c1.51-1.36,0-3.92-1.86-2.88c-2.109,2.5-3.32,5.59-4.619,8.54
			c-15.111-11.72-30.381-23.56-47.671-31.95c-3.62-1.46-7.13-3.51-11.02-4.06c-1.88-0.56-1.76,3.15-0.03,3.11
			c5.23,1.88,10.34,4.08,15.24,6.73c-3.42,1.69-7.19,3.69-11.11,2.74c-1.87-0.24-4.92-1.66-5.04,1.32
			c3.27,3.11,8.51,2.17,12.53,1.24c1.23,2.8,2.52,5.8,2.05,8.94c-0.89,3.57-5.15,5.64-8.59,4.55c-4.11-1.01-6.94-4.38-9.26-7.69
			c-4,1.53-0.11,5.29,1.42,7.27c-3.2,2.28-7.19,4.3-11.21,3.11c-4.89-1.6-7.64-7.33-6.01-12.19c-2.29-2.19-3.41,0.66-4.09,2.61
			c-4.37-3.33-7.94-8.07-8.84-13.59c-0.61-3.93,0.79-7.78,2.75-11.13c1.17,0.58,2.66,1.73,3.61,0.1c-0.82-4.37-0.38-8.89,1.69-12.86
			c1.76-3.36,3.37-7.66,7.42-8.74c2.01-8.99,7.68-17.66,16.62-20.91c8.12-3.32,17.3-1.2,24.54,3.26
			c-4.97,3.71-10.14,8.1-11.79,14.35c-1.08,4.38-0.86,9.95,3.06,12.89c4.34,2.9,9.9,1.95,14.67,0.8c7.85-2.17,15.25-5.73,22.33-9.69
			c5.26,3.87,10.58,7.76,16.59,10.39c10.21,4.53,21.1,7.24,31.9,9.97c6.26,1.69,11.609,5.55,16.75,9.36
			c2.66,1.77,1.959,5.49,2.89,8.19c1.94,0.14,3.34-0.84,2.649-2.92c-2.75-15.54-10.08-30.08-11.129-45.97
			c-0.33-3.45,0.049-6.91,1.01-10.23c-0.041,2.22-1.601,7.07,2.33,6.17c1.58-4.65,1.18-10.96-3.28-13.89
			c-3.88-2.22-8.66-1.51-12.8-0.49c-12.48,3.67-23.65,10.64-34.48,17.67c-10.62,7.33-21.88,14.04-34.27,17.91
			c-4.1,1.09-8.72,2.38-12.75,0.39c-3.32-2.25-3.35-6.96-2.14-10.39c1.83-5.03,6.1-8.67,10.32-11.73
			c23.25-15.63,52.27-19.64,75.3-35.63C797.008,110.871,816.857,98.991,839.098,95.8z"/>
		<path fill="#5BBA00" d="M889.729,155.771c6.139-2.54,13.119-2.57,19.489-0.92c15.71,4.43,24.04,25.49,15.09,39.26
			c-6.56-8.07-15.95-13.11-25.399-17.04c-8.041-3.23-16.57-5.75-25.32-5.39C876.898,164.71,882.458,158.641,889.729,155.771z"/>
		<path fill="#FFFFFF" d="M872.287,174.871c5.98-1.05,12.011,0.43,17.721,2.13c6.09,1.82,11.91,4.42,17.561,7.3
			c-4.601,6.97-1.061,17.81,7.399,19.57c-7.11,5.28-16.41,8.19-25.22,6.36c-9.131-1.91-16.44-9.63-18.44-18.66
			C869.857,186.021,870.818,180.291,872.287,174.871z"/>
		<path fill="#F4A800" d="M910.048,185.86c4.521,2.78,8.89,5.98,11.931,10.42c-1.441,2.55-3.971,4.02-6.65,4.93
			c-3.041-1.29-5.68-3.65-6.57-6.92C907.578,191.431,908.867,188.471,910.048,185.86z"/>
		<path fill="#5BBA00" d="M535.828,303.891c3.41-4.21,9.43-5.58,14.56-4.43c6.6,1.4,12.02,5.78,16.82,10.29
			c5.04,4.77,9.77,10.51,16.8,12.29c15.21,4.16,31.49,1.5,46.56,6.49c8.23,2.37,15.59,7.78,19.86,15.27
			c-0.78,1.39-0.98,4.16,1.44,3.67c8.81-8.2,19.06-14.77,30.12-19.5c-1.03,9.93,3.9,19.45,11.05,26.04
			c4.04,4.66,9.7,7.55,13.46,12.46c4.87,6.01,11.47,10.27,18.25,13.81c-14.29,4.43-26.82,13.12-41.1,17.61
			c-10.44,3.37-21.6,5.82-32.58,3.92c-7.5-1.32-14.55-4.74-20.44-9.54c-1.85-1.56-4.37-1.68-6.62-2.2
			c-11.34-2.14-22.45-6.28-31.69-13.32c-7.37-5.21-13.41-12.32-21.65-16.24c-9.77-4.76-21.9-1.64-29.78,5.32
			c-8.43,7.87-13.13,18.97-15.46,30.09c-0.99,4.39-0.19,8.99-1.24,13.36c-1.44,4.91-8,5.91-11.97,3.54
			c-2.89-1.27-4.06-4.84-3.07-7.72c1.141-2.21,2.63-4.27,3.19-6.74c1.89-6.2-0.21-13.13,2.84-19.03c0.75-1.39,1.19-2.89,1.02-4.48
			c-2.56-0.43-3.7,2.01-4.47,3.98c-2.92,7.06-0.06,15.28-3.9,22.09c-1.351,2.63-4.67,4.57-7.47,2.79
			c-8.33-4.97-11.52-16.8-7.05-25.38c1.22-2.38,3.36-4.46,3.2-7.34c0.26-7.21,1.55-14.69,5.73-20.74c5.02-7.29,12.9-11.76,19-18
			C528.348,324.05,528.848,312.17,535.828,303.891z"/>
		<path fill="#5BBA00" d="M967.697,368.021c4.356-1.353,8.006,0.696,8.07,5.97c-0.619,4.46-3.529,8.1-6.09,11.62
			c-3.71,4.64-7.34,9.34-10.99,14.03c0.36-8.86,7.69-15.14,9.34-23.59C968.598,373.38,968.058,370.67,967.697,368.021z"/>
	</g>
</g>
<g id="Layer_7" display="none">
	<path id="Outline_3_" display="inline" fill="#0E1507" d="M932.37,286.47c-5.5-2.63-11.71-0.55-17.351,0.55
		c-1.209-3.21-2.869-6.71-6.31-7.98c-5.2-1.4-10.75,1.78-13.19,6.37c-2.639,4.95-2.819,10.71-2.609,16.19
		c-8.971,1.5-18.529,2.93-25.85,8.79c-9.34-11.37-13.53-25.81-20.78-38.44c7.101-0.11,14.3-1.72,20.51-5.25
		c4.479-2.4,8.229-6.16,13.19-7.63c3.92-0.75,7.72,1.24,11.67,0.84c3.76-2.43,6.07-6.38,8.42-10.06
		c3.91-6.94,7.359-14.21,9.39-21.94c1.56-3.5,3.55-6.81,5.54-10.09c4.54-7.95,3.7-17.92,0.25-26.12
		c-0.27-16.38-4.97-33.05-15.09-46.13c-15.32-19.41-40.34-29.96-64.83-29.57c-10.5,0.54-20.92,2.61-30.72,6.46
		c-14.41,5.22-26.61,14.74-39.87,22.17c-6.689,3.8-14.109,6.48-21.83,6.91c-8.029-0.4-16.12-4.17-20.75-10.89
		c-5.9-8.33-9.08-18.41-15.94-26.1c-3.57-4.06-8.75-7.21-14.33-6.82c-4.04-0.06-8.89,1.64-10.26,5.82
		c-1.67,3.69-0.02,7.65,1.24,11.18c6.16,14.48,17.1,26.11,27.94,37.22c5.82,5.31,11.56,11.17,19.129,13.93
		c14.611,5.52,30.99,5.49,45.931,1.26c-3.94,17.15,4.11,33.69,8.19,49.99c-10.01-5.29-21.76-9.11-33.08-6.31
		c-9.98,2.57-17.42,10.23-26.58,14.5c-6.39,2.61-13.01,4.68-19.24,7.68c-6.89,3.3-14.63,7.27-17.47,14.87
		c-2.07,4.77,0.3,10.04,3.07,13.98c5.19,6.88,13.06,11.58,21.46,13.36c-4.54,7.56-9.11,15.13-12.7,23.2
		c-5.7,12.6-18.45,19.96-24.89,32.08c-4.39,7.71-5.68,16.65-6.45,25.35c-4.19-4.92-7.04-11.19-12.65-14.74
		c-7.73-4.36-16.24-6.99-24.3-10.64c-8.08-3.58-15.93-8.86-20.12-16.88c-4.18-8.18-5.2-18.24-12.16-24.8
		c-5.85-5.05-14.59-3.25-20.62,0.49c-5.81,4.06-7.73,11.48-12.83,16.21c-6.72,5.46-16.54,4.88-22.83,11.08
		c-6.27,6.32-8.02,15.43-10.3,23.69c-1.91,3.09-5.41,5.01-6.71,8.56c-4.83,8.69-0.06,22.28,10.25,24.07
		c1.82-0.3,3.39-1.35,5.08-2.02c3.14,2.17,6.8,4.52,10.77,3.01c8.36-7.82,5.68-21.49,13.61-29.59c4.69-4.11,11.8-2.73,16.47,0.69
		c9.61,6.83,15.31,17.42,22.34,26.6c12.25,15.87,25.39,31.75,42.76,42.24c9.45,5.75,17.28,13.94,27.36,18.69
		c5.58,2.83,12.44,3.7,18.27,1.08c6.85-3.22,11.47-9.57,15.18-15.94c6.45-11.69,11.03-24.28,15.54-36.81
		c7.271,2.81,11.47,9.75,16.29,15.43c10.18,11.25,22.92,20,36.62,26.43c4.91,2.33,10.26,5.76,11.14,11.62
		c1.85,10.19-3.01,20.22-2.24,30.42c1.211,12.439,11.201,21.789,12.84,34.14c2.131,9.84-1.639,19.819,0.111,29.7
		c1.029,4.189,4.629,7.46,8.84,8.279c11.069,3.311,22.039-3.049,33.17-1.83c4.439,0.74,8.6,2.541,12.93,3.701
		c7.73,1.279,15.51-0.221,22.84-2.781c8.35-3.069,17.689-3.1,25.52-7.609c2.301-1.391,5.101-1.3,7.521-2.391
		c4.851-1.92,8.83-6.709,8.67-12.09c0.16-4.93-4.97-8.529-9.58-8.129c-2.78-0.351-5.28,1.609-8.03,1.049
		c-9.43-1.469-16.85,6.74-26.049,6.811c-7.971-0.9-15.841-3.15-23-6.79c-5.591-3.09-11.351-7.29-13.25-13.71
		c-2.91-9.17-1.291-18.859-0.701-28.24c0.59-8.49-1.72-16.76-2.25-25.18c-0.67-6.31,1.08-12.54,1.271-18.82
		c0.069-7.98-2.47-15.77-6.3-22.71c-9.85-18.02-24.721-33.59-43.09-43c-5.7-3.23-12.24-5.39-16.891-10.18
		c-2.8-2.58-2.15-7.38,0.59-9.73c10.551-2.55,21.59-4.33,31.03-10.01c3.591-2.02,6.399-5.09,9.56-7.68
		c9.051,10.99,19.181,21.13,29.931,30.46c7.51,5.78,15.21,12.94,25.19,13.43c9.779,0.4,18.56-4.94,26.41-10.17
		c10.229-6.84,13.899-20.06,24.549-26.39c5.48-2.94,11.9-5.33,15.17-11c3.801-7.11,2.051-15.47,3.641-23.09
		C936.061,295.95,937.16,289.53,932.37,286.47z"/>
	<g id="Color_5_" display="inline">
		<path fill="#5BBA00" d="M686.3,112.24c5.15-3.32,12.14-1.19,16.14,3c8.5,8.48,11.49,20.74,19.21,29.81
			c6.699,7.47,17.47,10.82,27.26,8.74c13.68-2.51,25.01-11.1,36.54-18.29c15.95-9.98,34.489-16.69,53.479-16.39
			c19.74,0.52,39.201,8.62,53.391,22.35c11.75,11.59,18.14,27.75,19.619,44.02c-5.219-5.66-12.18-9.78-19.93-10.61
			c-11.699-1.81-24.029,3.71-30.64,13.49c-7.17,10.26-9.09,24.75-2.81,35.87c4.24,7.26,11.84,12.55,20.26,13.44
			c9.27,0.94,19.369-1,26.57-7.22c0.029,0.65-0.01,1.31-0.34,1.89c-3.621,8.19-7.041,16.77-13.201,23.45
			c-2.989,0-5.989,0.28-8.969,0.02c-13.051-1.76-25.951-4.79-39.051-5.98c-0.061,0.74-0.16,2.21-0.22,2.95
			c10.21,1.59,20.45,3.07,30.579,5.1c-8.069,7.18-18.619,11.46-29.489,11.01c-3.99-5.81-8.41-11.74-14.89-14.94
			c-4.44-2.25-9.78-3.09-14.601-1.75c-0.12,0.65-0.36,1.94-0.479,2.59c3.72,0.13,7.619-0.35,11.18,1.05
			c5.27,1.87,9.439,5.88,12.721,10.3c10.01,13.21,14.119,29.79,23.67,43.26c5.439,6.57,11.779,12.59,19.229,16.84
			c1.12,0.62,3.69,1.78,3.83-0.46c0.38-1.63-1.851-1.93-2.75-2.79c-4.81-2.91-9.49-6.33-12.97-10.79
			c9.699-6.29,21.6-6.73,32.52-9.46c0.04-0.78,0.109-2.33,0.15-3.11c-2.141,0.24-4.271,0.6-6.351,1.13
			c-0.229-4.87-0.03-10.06,2.62-14.32c1.88-3,5.51-5.51,9.18-4.4c2.301,0.82,3.141,3.29,4.141,5.29c-1.48,0.64-1.881,2.02-2,3.48
			c6.13,0.41,11.77-3.48,17.96-2.58c2.34,0.35,4.78,1.97,5.04,4.51c0.699,5.41-0.93,10.75-1.07,16.15
			c-0.26,4.96-0.13,10.4-3.21,14.61c-3.84,4.91-10.181,6.5-15.101,9.99c-6.92,4.48-10.699,12.04-15.779,18.26
			c-4.46,5.69-10.689,9.65-17.07,12.89c-4.27,2.14-8.92,3.78-13.74,3.87c-5.959-0.14-11.289-3.3-16.029-6.65
			c-12.9-9.25-23.85-20.85-34.561-32.48c-4.199-4.51-7.119-11.11-13.5-12.89c-2.06-0.42-6.479-0.93-5,2.55
			c4.541-0.12,8.26,2.46,10.881,5.98c-6.511,7.66-16.131,11.65-25.67,14.04c-10.811,3.12-22.58,3.65-32.461,9.49
			c-1.76,1.17-4.77,2.47-3.43,5.11c1.641,0.64,2.859-0.74,4.141-1.51c4.159-2.96,9.119-4.45,14.01-5.7
			c-0.381,2.98-1.03,6.35,0.899,8.97c4.07,6,11.36,8.26,17.37,11.74c11.73,5.89,22.26,14.13,30.65,24.23
			c8.209,9.7,15.9,20.61,18.209,33.35c1.471,7.03-0.859,14.03-1.079,21.05c-0.13,8.78,2.86,17.271,2.61,26.05
			c-0.011,10.95-2.73,22.28,1.06,32.91c1.851,5.59,6.28,9.87,11.25,12.811c8.63,5.18,18.489,8.77,28.649,8.869
			c7.641,0.101,13.721-5.459,21.021-6.83c7.11-1.67,11.44,9.121,6.55,13.74c-4.83,4.971-12.16,5.551-18.52,7.26
			c-7.791,1.51-15.16,4.84-23.09,5.641c-8,0.84-15.03-4.21-22.9-4.42c-8.85-0.301-17.33,3.359-26.18,2.85
			c-3.94-0.369-8.53-1.689-10.2-5.689c-2.06-4.83-0.79-10.18-0.479-15.211c0.879-8.689,0.449-17.779-3.271-25.819
			c-3.341-8.341-9.479-15.81-9.94-25.091c0.2-9.779,4.211-19.399,2.41-29.229c-1.05-6.09-5.939-10.63-11.4-13.02
			c-14.56-6.71-28.049-16.04-38.619-28.18c-4.621-5.47-8.94-11.99-16.03-14.44c3.04-10.14,3.899-20.76,4.37-31.28l-0.37-1.12
			l-1.44-0.47c-0.32,0.3-0.959,0.89-1.279,1.18c-0.75,9.53-1.121,19.21-3.791,28.46c-4.169,13.25-8.77,26.46-15.399,38.71
			c-3.45,6.15-7.11,12.67-13.28,16.49c-5.22,3.23-11.96,2.4-17.31-0.08c-9.91-4.43-17.32-12.7-26.52-18.28
			c-17.04-10.2-30.09-25.61-42.06-41.16c-7.23-9.35-13.06-20.09-22.6-27.39c-4.74-3.6-11.14-5.49-16.95-3.57
			c-3.27,1.09-5.87,3.6-7.49,6.59c-3.84,6.71-4.3,14.68-7.45,21.67c-0.9,1.75-2.39,4.09-4.68,3.67c-1.87-0.59-3.43-1.83-5.08-2.85
			c2.97-6.59,2.63-14.62,7.82-20.11c1.59-1.51-1.05-3.77-2.38-2.04c-5.9,5.23-5.03,13.89-8.55,20.41c-0.97,1.95-3.28,3.55-5.46,2.49
			c-7.06-3.36-9.65-13.12-5.73-19.77c1.52-3.43,5.83-4.83,6.64-8.64c2.31-7.85,3.77-16.72,10.12-22.48
			c5.93-5.51,14.86-5.08,21.22-9.85c5.57-4.3,7.51-11.67,12.81-16.2c5.27-4.05,14.15-5.78,18.82,0.07
			c6.98,9.16,7.28,22.02,15.63,30.33c11.18,11.52,28.05,13.63,41.29,21.81c4.89,4.66,8.62,10.49,12.13,16.21
			c-0.73,10.74-1.66,21.51-3.83,32.07c-0.23,1.73,0.55,2.36,2.33,1.89c1.42-2.4,1.63-5.27,2.13-7.95
			c1.66-11.67,2.32-23.44,3.72-35.13c0.97-7.66,2.68-15.48,7.01-22c4.86-7.63,12.08-13.28,17.57-20.4
			c4.85-5.92,7.71-13.09,11.37-19.74c6.61-12.57,15.079-24.05,23.97-35.08c0.91-0.98,1.061-2.34,1.391-3.57
			c-0.701,0.01-2.09,0.03-2.781,0.03c-5.729,6.99-11.159,14.23-16.309,21.65c-9.42-2.1-18.78-7.66-23.06-16.61
			c-2.39-4.97,0.89-10.35,4.73-13.49c8.64-7.16,19.71-10.09,29.9-14.28c9.03-3.71,15.83-11.67,25.479-14.03
			c11.051-2.9,22.76,0.53,32.32,6.25c2.92,1.29,2.18,4.98,2.92,7.53c3.93,0.58,2.68-3.85,2.32-6.27
			c-2.99-13.33-8.66-26.02-10.33-39.65c-0.689-5.27-0.26-10.62,1.09-15.75c1.91-0.63,4.79-0.89,3.811-3.68
			c-1.791-0.6-3.551,0.27-5.24,0.71c-15.1,4.83-32.1,5.88-46.93-0.41c-7.211-2.93-12.92-8.37-18.42-13.71
			c-7.98-7.74-15.14-16.34-21.32-25.58c-2.85-4.4-5.55-9.05-6.73-14.21C683.91,116.92,683.89,113.74,686.3,112.24z"/>
		<path fill="#5BBA00" d="M873.5,181.37c9.891-5.67,23.52-5.02,32.24,2.57c9.52,7.97,13.27,23.65,5.689,34.08
			c-3.18-4.4-7.439-7.97-12.24-10.47c-11.689-6.64-24.699-12.39-38.42-11.87C863.641,189.9,867.73,184.49,873.5,181.37z"/>
		<path fill="#FFFFFF" d="M858.721,215.99c-1.57-5.68-0.621-11.64,1.01-17.19c12.91-1.32,25.26,4.42,36.369,10.34
			c-2.34,3.38-4.26,7.48-3.219,11.69c0.719,4.3,3.92,7.56,7.539,9.7c-7.55,3.58-16.34,5.61-24.56,3.17
			C867.45,231.53,860.61,224.47,858.721,215.99z"/>
		<path fill="#F4A800" d="M898.391,211.29l0.459-0.5c4.32,2.33,8.301,5.72,10.681,10.08c-0.229,3.62-3.95,6.7-7.5,6.8
			C895.33,225.51,893.35,216.15,898.391,211.29z"/>
		<path fill="#5BBA00" d="M904.83,518.93c3.551-0.6,8.359-0.08,9.63,3.94c0.681,4.681-3.159,9.04-7.43,10.46
			C908.84,528.391,907.27,523.32,904.83,518.93z"/>
	</g>
</g>
<g id="Layer_8" display="none">
	<path id="Outline_4_" display="inline" fill="#0C1305" d="M942.954,198.927c-3.44-13.44-11.229-25.7-22.06-34.38
		c-22.92-18.09-55.15-23.88-82.811-14.35c-27.391,8.69-55.62,15.74-84.47,16.56c-13.091-0.23-26.39,0.42-39,4.19
		c-5.99,1.82-12.26,5.13-14.75,11.24c-1.89,5.85-0.11,12.85,4.63,16.85c3.37,2.84,7.9,3.36,12.13,3.78
		c10.71-0.61,21.04-3.91,30.88-8.01c9.131-3.87,18.551-6.97,28.061-9.75c11.09-3.06,22.52-5.63,34.1-5.24
		c-4.07,5.69-6.58,12.32-8.25,19.07c-3.95,15.82-3.58,32.2-4.5,48.36c-0.4,6.14-0.51,12.36-2.32,18.3
		c-9.18-4.22-20.229-3.79-28.939,1.37c-8.961,4.63-15.09,12.98-23.49,18.37c-10.99,7.53-23.38,13.72-31.73,24.42
		c-5.23,6.45-6.77,15.84-3.11,23.41c3.59,7.93,10.8,13.24,17.66,18.2c-6.05,1.28-11.99,4.06-16.09,8.82
		c-4.09,4.66-5.73,11.04-5.4,17.15c-5.64-7.44-12.32-15.12-21.76-17.47c-7.29-1.56-16.17-0.12-20.91,6.14
		c-4.83,6.41-4.24,15.08-8.23,21.88c-6.6,9.87-19.64,12.92-25.83,23.14c-5.25,10.19-5.56,24.19,2.77,32.87
		c-0.65,4.12,1.2,8.74-1.42,12.4c-4.3,6.569-11.77,9.94-18.53,13.38c-6.23,3.25-13.66,3.47-19.57,7.391
		c-6.86,5.149-7.96,15.42-4.48,22.859c4.17,8.811,13.29,13.529,18.86,21.26c5.51,7.381,6.35,17.891,14.2,23.561
		c8.6,6.219,19.9,5.59,29.98,5.01c9.59-1.471,19.43-0.531,28.92-2.701c6.43,0.201,14.07-2.629,15.94-9.42
		c0.59-4.129,1.26-9.279-2.2-12.379c-4.66-3.85-11.1-2.141-16.58-3.5c-7.67-1.881-15.62-4.85-20.95-10.95
		c-4.17-4.78-4.13-12.33-0.5-17.399c4.54-6.67,11.97-10.541,19.12-13.801c15.38-6.75,32.16-9.49,47.58-16.13
		c9.17,8.19,19.31,15.31,30.29,20.89c11.24,5.721,22.891,10.711,33.601,17.431c2.62,1.7,5.761,2.31,8.841,2.329
		c10.279,0.601,20.289-4.59,26.889-12.27c5.301-5.9,8.08-14.15,6.73-22.02c0.16-7.93,0.87-15.881,0.27-23.82
		c-1.529-13.73-7.129-26.81-15.02-38.08c4.131-0.93,8.61-1.29,12.12-3.91c3.771-2.58,5.49-7.3,5.21-11.73
		c0.68-0.21,2.04-0.62,2.721-0.83c3.119,6.29,7.09,12.32,12.629,16.74c6.311,5.3,15.19,8.23,23.28,5.76
		c7.74,3.73,17.41,4.34,24.81-0.53c6.341-4.09,14.301-6.65,18.25-13.55c4.551-7.59,6.4-18.11,0.91-25.72
		c-1.91-2.95-5.279-4.18-8.06-6.04c-1.94-4.38-4.899-8.86-9.8-10.19c-6.52-1.1-13.29,0.04-19.16,3.04
		c-2.83-4.93-5.939-10.24-5.76-16.12c0.039-5.79-0.45-11.62-1.67-17.28c-1.19-5.41-4.74-9.86-8.95-13.31
		c5.101-2.54,10.71-3.79,15.89-6.14c6.891-2.86,13.82-6.81,17.79-13.36c3.771,0.85,7.591,1.51,11.41,2.19
		c7.71-7.56,14.88-15.72,20.819-24.76c1.921-2.71,3.23-6.01,6.121-7.9c6.3-4.53,10.26-11.8,11.609-19.36
		c0.76-4.18-0.76-8.49,0.561-12.6C944.975,221.407,945.714,209.877,942.954,198.927z"/>
	<g id="Color_6_" display="inline">
		<path fill="#5BBA00" d="M823.684,157.737c13.41-3.94,26.76-9.32,40.98-9.07c24.27,0.13,49.609,9.59,64.84,29.12
			c7.48,10.39,12.53,23.02,12.16,35.97c0.05,5.12-0.77,10.19-1.68,15.21c-3.48-7.27-9.881-13.87-18.35-14.34
			c-5.311-0.93-10.521,1.2-15.531,1.88c-9.26-11.21-26.229-16.16-39.649-9.8c-12.42,5.79-21.39,19.25-20.59,33.12
			c0.62,11.41,8.489,22.59,19.89,25.29c8.92,1.87,18.32,0.35,26.67-3.12c7.66,7.68,19.311,9.71,29.62,7.33
			c-5.851,8.75-12.34,17.36-20.399,24.16c-9.521-1.1-18.451-5.01-27.931-6.32c-7.71-1.16-15.5-0.49-23.239-0.33
			c-0.11,0.9-0.221,1.81-0.32,2.72c7.16,0.22,14.35-0.75,21.49,0.26c5.83,0.83,11.699,1.96,17.109,4.33
			c-3.42,4.01-7.68,7.18-12.42,9.45c-8.73,4.88-19.77,5.48-26.97,12.99c-2.22,2.62-4.97,5.58-4.75,9.27
			c0.51,0.12,1.54,0.35,2.05,0.47c2.43-3.64,4.43-7.79,8.3-10.17c5.5,3.3,9.181,9.28,9.82,15.65c1.42,7.57-0.44,15.71,2.95,22.88
			c1.15,2.6,2.479,5.12,3.699,7.69c-1.02,1.12-2.119,2.19-2.91,3.48c-1.029,1.69-0.199,3.83-0.869,5.6
			c-3.25,1.71-7.051,3.35-8.37,7.1c-1.5,3.01,0.659,6.63-1.38,9.46c-2.051,3.68-1.801,8.59,0.27,12.21
			c0.391,1.63,3.35,0.13,2.53-1.27c-0.7-3.01-1.36-6.06-0.66-9.13c3.021,5.27,5.229,10.99,6.851,16.84
			c0.72,0.05,2.17,0.14,2.89,0.19c-0.511-8.6-6.62-15.57-7.87-23.97c-0.62-5.05,4.66-7.53,8.641-8.85
			c3.27,1.97,7.1,2.57,10.869,2.19c8.34,6.65,10.54,17.75,12.37,27.67c0.32,1.37,0.649,4.07,2.64,2.68
			c0.181-0.37,0.551-1.1,0.73-1.47c-1.54-11.22-4.37-23.25-13.02-31.25c3.359-3.36,8.199-5.78,13.039-4.44
			c5.291,1.63,11.371,3.88,13.541,9.5c2.449,6.6,0.39,14.13-3.23,19.91c-2.33,3.99-6.78,5.74-10.26,8.51
			c-5.131,2.21-9.69,6.18-15.49,6.45c-7,0.58-13.58-2.51-19.29-6.22c-3.58-0.84-1.511,3.42,0.181,4.36
			c-13.131,0.13-23.271-10.73-28.201-21.96c2.65-2.22,5.49-4.65,6.351-8.16c1.319-3.91,0.08-7.97-0.63-11.85
			c6.46-5.56,11.01-13.65,11.05-22.3c-0.14-2.21-3.36-2.02-3.229,0.15c-0.17,7.31-3.801,14.26-9.33,18.96
			c-3.5-5.86-6.78-12.46-13.051-15.82c-7.09-3.99-15.539-2.78-23.15-4.92c-4.279-1.18-7.899-3.96-10.829-7.21
			c-3.979-4.38-7.591-9.08-11.091-13.83c8.42-4.71,17.67-10,21.67-19.26c-0.059-0.51-0.189-1.53-0.25-2.03
			c-2.43-0.95-3.069,1.88-4.159,3.32c-4.41,7.25-12.2,11.28-19.33,15.36c-5.87-6.87-13.38-13.17-22.71-14.17
			c-2.561-0.16-7.59-1.54-7.29,2.65c5.14,0.33,10.5,0.62,15.14,3.12c7.641,4.01,12.7,11.26,17.98,17.83
			c4.869,6.08,9.55,12.99,16.92,16.24c7.779,3.55,16.87,1.59,24.59,5.29c5.34,2.52,8.48,7.78,11.32,12.69
			c2.42,4.41,4.63,9.56,3.33,14.66c-1.131,4.22-5.131,6.57-8.76,8.41c-1.08-6.09-2.811-12.06-4.94-17.85
			c-0.54-0.08-1.63-0.23-2.17-0.3c-1.12,2.19,0.3,4.49,0.829,6.65c1.971,6.26,4.4,13.08,2.391,19.64
			c-2.32,6.12-9.74,7.13-15.42,7.53c-7.391,0.11-15.59,0.28-21.939-4.07c-2.351-1.51-1.761-4.87,0.199-6.42
			c5.83-1.21,11.95-1.21,17.711-2.53l0.379-1.01c-0.18-0.4-0.529-1.21-0.709-1.61c-7.761-0.77-15.75,3.75-23.281,0.3
			c-8.819-4.26-12.979-14.22-13.6-23.53c-0.689-0.02-2.06-0.07-2.75-0.1c-0.02,1.73-0.029,3.45-0.029,5.19
			c-14.371-10.11-31.33-15.97-45.141-26.93c-5.44-4.45-10.74-10.05-11.97-17.24c-1.21-6.54,1.93-13.06,6.36-17.72
			c11.299-12.22,27.69-17.97,39.42-29.68c6.939-6.73,15.42-12.92,25.369-13.69c7.32-0.71,14.461,2.41,20.07,6.92
			c1.891,1.41,3.53,3.26,5.77,4.14c1.061-0.6,1.42-1.49,1.061-2.67c-2.72-2.83-6.05-4.96-9.22-7.24c1.05-3.89,1.76-7.86,2.1-11.87
			c1.41-18.27,0.55-36.83,4.7-54.8c1.67-7.37,4.65-14.51,9.42-20.43c1.221-1.08,1.25-3.4-0.891-3.17
			c-17.439-0.49-34.529,4.06-50.93,9.56c-13.64,4.47-26.57,11.56-41.02,13.22c-3.84,0.33-7.89,0.41-11.51-1.11
			c-5.76-2.25-8.37-9.62-6.38-15.23c2.25-4.77,7.34-7.29,12.09-8.95c13.121-4.26,27.08-4.42,40.73-4.45
			C778.764,168.807,801.544,164.157,823.684,157.737z"/>
		<path fill="#5BBA00" d="M855.443,219.617c6.031-8.1,16.041-13.54,26.271-12.67c7.46,1.03,14.931,4.13,20.2,9.62
			c6.65,7.84,7.359,19.33,3.7,28.67C890.555,233.777,873.023,226.257,855.443,219.617z"/>
		<path fill="#5BBA00" d="M907.624,219.817c6.011-2.09,12.84-3.43,18.91-0.82c4.61,1.89,7.86,5.92,10.069,10.25
			c-8.76,2.57-17.42,5.48-25.989,8.65C911.044,231.727,910.354,225.447,907.624,219.817z"/>
		<path fill="#FFFFFF" d="M853.693,222.047c9.941,3.8,19.841,7.74,29.311,12.62c-4.88,4.24-8.311,10.55-7.619,17.17
			c0.159,4.57,3.709,7.98,7.319,10.29c-7.729,1.71-16.319,1.1-23.04-3.39c-6.939-4.46-11.09-12.73-10.79-20.94
			C848.834,232.207,850.844,226.797,853.693,222.047z"/>
		<path fill="#FFFFFF" d="M909.924,241.257c9.01-3.31,18.08-6.49,27.311-9.16c1.43,3.6,2.38,7.41,2.209,11.32
			c-8.609-4.61-20.649,1.4-21.579,11.23c-0.761,4.28,1.85,8.01,5.069,10.5c-9.149,4.02-20.209,1.57-27.67-4.81
			C901.574,255.307,908.244,249.597,909.924,241.257z"/>
		<path fill="#F4A800" d="M884.994,237.027l0.8-0.6c6.36,2.82,12.39,6.77,17.72,11.29c-2.529,5.2-7.74,8.43-12.459,11.46
			c-4.621,3.12-10.471-1.03-12.371-5.45C876.834,247.547,880.114,240.847,884.994,237.027z"/>
		<path fill="#F4A800" d="M928.385,245.557c3.34-1.46,7.049-0.62,10.399,0.39c-1.681,7.17-6.149,13.44-12.21,17.57
			c-2.49-1.23-5.189-2.89-5.76-5.84C919.824,252.487,923.674,247.377,928.385,245.557z"/>
		<path fill="#5BBA00" d="M713.094,360.227c4.3-3.68,9.87-5.87,15.49-6.35c8.04,4.27,16.03,8.66,24.061,12.95
			c4.97,2.9,10.189,5.66,14.27,9.79c1.91,3.11,3.01,6.7,5.48,9.47c2.869,3.69,7.039,6.06,11.39,7.58
			c-0.99,2.95-1.62,6.66,1.101,8.93c5.899,5.21,14.359,4.97,21.75,5.56c1.379-0.18,2.029,1.08,2.729,2.02
			c6.36,9.21,11.1,19.63,13.319,30.62c2.101,10.23,0.311,20.68,0.701,31.01c0.27,4.721-0.531,9.551-3.061,13.61
			c-5.43,8.88-15.189,15.34-25.721,15.79c-3.209,0-6.569-0.391-9.319-2.16c-10.24-6.58-21.46-11.391-32.33-16.79
			c-11.54-5.8-22.46-13.03-31.71-22.08c-9.47-10.34-16.78-22.46-26.4-32.67c-3.05-2.96-6.59-6.41-11.15-6.22
			c-7.2,1.92-12.42,8.44-14.51,15.39c-2.94,9.1-1.18,18.729-1.41,28.08c0.02,3.71-1.86,8.521-6.11,8.81
			c-4.69-0.199-7.12-4.75-9.64-8.049c3.6-6.861,0.28-14.541,0.66-21.761c0.03-2.7,1.81-4.84,2.92-7.16
			c0.51-1.94-2.31-2.53-3.11-0.92c-4.69,5.71-2.74,13.48-1.97,20.13c0.8,4.881-1.61,10.631-6.32,12.58
			c-4.62,0.77-7.94-3.82-9.62-7.529c-2.05-5.69-2.66-11.96-1.77-17.951c-8.74-8.17-8.7-22.63-2.16-32.1
			c6.38-8.11,17.02-11.37,23.31-19.59c4.85-6.1,4.66-14.34,7.87-21.17c3.74-7.47,13.86-9.52,21.18-6.62
			c9.28,3.72,15.96,12,20.66,20.53c2.7,11.85,8.86,22.83,17.65,31.24c14.74,14.19,35.449,19.11,51.5,31.4
			c5.88,4.54,9.6,11.16,12.35,17.931c0.73,2.42,4.141,0.189,2.73-1.66c-2.461-6.65-6.221-12.99-11.6-17.7
			c-16.181-13.38-38-17.96-53.15-32.79c-8.77-8.73-15.28-20.18-16.59-32.62C705.844,372.747,707.624,365.017,713.094,360.227z"/>
		<path fill="#5BBA00" d="M876.943,363.117c4.891-2.04,10.4-3.56,15.691-2.29c2.869,0.68,4.739,3.14,6.489,5.31
			c-3.96-0.15-8.19-0.65-11.81,1.36c-3.021,1.2-4.78,4.27-7.66,5.59c-3.28,0.19-7.551-0.79-8.73-4.28
			C871.534,365.847,874.464,364.327,876.943,363.117z"/>
		<path fill="#5BBA00" d="M682.064,425.337c3.56-2.17,6.94,1.38,9.44,3.57c9.69,9.86,16.98,21.73,26,32.16
			c-13.55,5.681-28.13,8.371-41.77,13.82c-8.73,3.52-17.9,7.46-23.9,15.04c-4.59,5.66-6.16,14.31-1.96,20.62
			c4.88,7.66,13.81,11.27,22.16,13.75c5.68,1.79,12.66-0.439,17.5,3.641c3.28,5.318,0.74,13.58-5.69,15.148
			c1.42-2.469,3.11-5.219,2.15-8.18c-1.37-5.34-7.39-7.41-12.29-7.99c-9.39-1.609-19.46,2.861-28.31-1.889
			c-1.53-1.201-3.95-0.521-3.1,1.77c11.17,8.549,26.02-1.18,37.76,5.539c2.48,1.311,3.99,4.682,2.13,7.131
			c-3.2,4.6-9.28,5.869-14.56,5.859c-11.66,0.25-23.3,2.33-34.98,1.24c-5.47-0.629-11.27-2.379-14.83-6.859
			c-4.84-5.77-6.14-13.53-10.4-19.65c-5.12-7.779-13.82-12.42-18.56-20.48c-3.32-5.579-2.82-13.239,1.11-18.379
			c4.4-4.58,11.19-4.84,16.79-7.11c8.67-3.59,17.63-7.81,23.58-15.351c1.64,5.531,5.1,11.631,11.19,12.9
			c3.38,0.87,6.34-1.29,8.66-3.46c2.26,4.32,6.21,8.61,11.46,8.54c4.48,0.17,7.89-3.71,8.84-7.79c1.61-6.62-0.29-13.399,0.17-20.1
			C670.674,439.917,673.554,429.697,682.064,425.337z"/>
	</g>
</g>
</svg>
