<?xml version="1.0" encoding="utf-8"?>
<!-- Generator: Adobe Illustrator 15.1.0, SVG Export Plug-In . SVG Version: 6.00 Build 0)  -->
<!DOCTYPE svg PUBLIC "-//W3C//DTD SVG 1.1//EN" "http://www.w3.org/Graphics/SVG/1.1/DTD/svg11.dtd">
<svg version="1.1" xmlns="http://www.w3.org/2000/svg" xmlns:xlink="http://www.w3.org/1999/xlink" x="0px" y="0px" width="1024px"
	 height="1024px" viewBox="0 0 1024 1024" enable-background="new 0 0 1024 1024" xml:space="preserve">
<g id="Layer_1">
	<g id="Thigh">
		<polygon fill="#F57E20" stroke="#FFFFFF" stroke-miterlimit="10" points="374.499,92.142 336.918,369.769 299.337,92.142 
			336.918,54.562 		"/>
		<circle id="pivot_1_" cx="336.915" cy="54.562" r="12.388"/>
		<path opacity="0.4" d="M452.07,17.437L336.917,53.19l-90.375-79.773c22.089-25.008,54.39-40.774,90.375-40.774
			C391.045-67.358,436.836-31.679,452.07,17.437z"/>
		<path opacity="0.54" fill="#96CD80" d="M457.46,53.19c0,66.573-53.969,120.548-120.542,120.548
			c-66.579,0-120.548-53.975-120.548-120.548c0-30.589,11.397-58.522,30.173-79.773l90.375,79.773L452.07,17.437
			C455.573,28.734,457.46,40.744,457.46,53.19z"/>
	</g>
	<g id="Knee">
		<polygon fill="#F57E20" stroke="#FFFFFF" stroke-miterlimit="10" points="373.128,407.21 335.548,684.838 297.967,407.21 
			335.548,369.63 		"/>
		<polygon fill="#F57E20" stroke="#FFFFFF" stroke-miterlimit="10" points="313.903,706.121 164.131,681.961 313.903,657.801 
			334.177,681.961 		"/>
		<circle id="pivot" cx="336.918" cy="369.769" r="12.388"/>
		<path opacity="0.54" fill="#96CD80" d="M456.093,369.63c0,66.575-53.97,120.545-120.545,120.545V369.63l41.435-113.235
			C423.148,273.294,456.093,317.615,456.093,369.63z"/>
		<path opacity="0.4" d="M376.982,256.395L335.547,369.63v120.545c-66.575,0-120.55-53.97-120.55-120.545
			s53.975-120.545,120.55-120.545C350.107,249.084,364.063,251.665,376.982,256.395z"/>
	</g>
</g>
<g id="Layer_2">
</g>
</svg>
