<?xml version="1.0" encoding="iso-8859-1"?>
<!-- Generator: Adobe Illustrator 15.1.0, SVG Export Plug-In . SVG Version: 6.00 Build 0)  -->
<!DOCTYPE svg PUBLIC "-//W3C//DTD SVG 1.1//EN" "http://www.w3.org/Graphics/SVG/1.1/DTD/svg11.dtd">
<svg version="1.1" id="Layer_1" xmlns="http://www.w3.org/2000/svg" xmlns:xlink="http://www.w3.org/1999/xlink" x="0px" y="0px"
	 width="1024px" height="1024px" viewBox="0 0 1024 1024" enable-background="new 0 0 1024 1024" xml:space="preserve">
<path fill="#C064A7" d="M684,277.845c-31.891,1.123-69.229,2.441-109,3.853c-34.813,1.235-71.487,2.541-108,3.849
	c-36.503,1.308-72.845,2.617-107,3.86c-40.539,1.475-78.002,2.856-109,4.027c-46.872,1.771-78.98,3.065-84.601,3.481
	C140.374,298.843,137,304.626,137,308s3.374,9.157,29.399,11.085c5.621,0.417,37.729,1.71,84.601,3.481
	c30.998,1.171,68.461,2.553,109,4.027c34.155,1.243,70.497,2.552,107,3.86c36.513,1.308,73.187,2.614,108,3.849
	c39.771,1.411,77.109,2.729,109,3.853c60.999,2.148,102.063,3.582,102.063,3.582v-67.473
	C786.063,274.264,744.999,275.697,684,277.845z"/>
</svg>
