<?xml version="1.0" encoding="utf-8"?>
<!-- Generator: Adobe Illustrator 15.1.0, SVG Export Plug-In . SVG Version: 6.00 Build 0)  -->
<!DOCTYPE svg PUBLIC "-//W3C//DTD SVG 1.1//EN" "http://www.w3.org/Graphics/SVG/1.1/DTD/svg11.dtd">
<svg version="1.1" id="Vilas" xmlns="http://www.w3.org/2000/svg" xmlns:xlink="http://www.w3.org/1999/xlink" x="0px" y="0px"
	 width="1760px" height="1344px" viewBox="0 0 1760 1344" enable-background="new 0 0 1760 1344" xml:space="preserve">
<g id="LegRight">
	<path id="LegRightOutline" fill="#231F20" d="M36.019,93.117c0.787-0.785-0.278-1.437-1.081-2.11c-0.843-0.707-1.324-1.374-2.078-0.735
		c-1.653,1.404-3.014,2.797-3.954,4.333c-0.618,1.01-1.338,2.583-1.282,3.879c0.056,1.316,0.845,2.065,1.734,2.125
		c1.039,0.069,2.391,0.078,2.815-2.632c0.112-0.714,1.019-1.827,1.489-2.375C34.232,94.939,34.996,94.132,36.019,93.117z"/>
	<path id="LegRightFill" fill="#FFE3E3" d="M35.11,92.48c-0.339-0.438-1.049-1.147-1.6-1.4l-0.01,0.01c-2.05,2.067-4.293,4.159-4.707,7.069
		c-0.144,1.009,0.283,1.459,0.941,1.497c0.922,0.053,1.034-0.77,1.126-1.484C31.017,96.953,31.85,95.472,35.11,92.48z"/>
	<path id="ShortsRightOutline" fill="#231F20" d="M41.976,83.697c-1.078-0.864-2.533-1.315-3.718-0.919c-0.639,0.214-1.199,0.674-1.58,1.448
		c-0.438,0.891-1.075,1.636-1.779,2.32c-0.84,0.813-1.774,1.556-2.634,2.296c-0.733,0.633-0.655,1.028,0.12,1.552
		c1.39,0.94,2.652,2.061,3.793,3.289c1.107,1.19,1.176,1.124,1.958,0.036c0.78-1.084,1.205-1.723,2.294-2.765
		c0.726-0.695,1.506-1.328,2.308-1.998c0.656-0.548,0.882-1.464,0.821-2.35C43.482,85.482,42.987,84.509,41.976,83.697z"/>
	<path id="ShortsRightFill" fill="#7B94FF" d="M35.517,87.805c-0.547,0.57-1.185,1.201-1.849,1.736c0.838,0.506,3.005,2.183,3.648,3.045
		c0.462-0.765,1.028-1.477,1.618-2.134c0.638-0.712,1.417-1.613,2.329-2.091c0.857-0.45,0.858-0.425,0.98-1.004
		c0.147-0.696,0.077-1.566-0.701-2.383c-0.882-0.927-1.723-1.146-2.397-1.095c-1.209,0.092-1.16,0.607-1.612,1.394
		C37,86.196,35.91,87.396,35.517,87.805z"/>
	<circle id="pivot_7_" cx="40.25" cy="86" r="1.167"/>
	<g id="KneeRight">
		<path id="KneeRightOutline" fill="#231F20" d="M29.948,96.646c-1.035-0.039-2.233,0.681-2.373,1.618c-0.209,1.405-0.052,2.929,0.14,4.343
			c0.198,1.46,0.454,2.922,0.496,4.352c0.023,0.83-0.075,0.906-1.109,1.251c-2.72,0.908-6.126,0.674-7.369,2.396
			c-1.262,1.749,0.09,3.361,1.823,3.633c2.537,0.396,6.459,0.102,8.936,0.027c2.969-0.089,4.071-2.551,3.51-5.343
			c-0.395-1.964-0.976-4.388-1.39-6.517c-0.658-3.377-0.392-3.316-0.558-4.388C31.912,97.114,30.746,96.675,29.948,96.646z"/>
		<path id="KneeRightFill" fill="#FFE3E3" d="M28.742,98.648c-0.024,0.362-0.028,0.733,0.008,1.122c0.26,2.81,0.66,4.8,0.73,6.77
			c0.04,1.44,0.02,2.02-1.37,2.61c-1.22,0.51-2.95,0.64-4.26,0.8c-1.5,0.19-2.73,0.7-3.13,1.62c-0.43,0.97,0.88,1.28,1.58,1.39
			c1.95,0.31,7.07,0.08,8.07-0.13c1.62-0.33,2.69-1.27,2.36-3.56c-0.47-3.21-1.67-7.65-1.84-9.63
			c-0.029-0.333-0.061-0.647-0.061-0.967C30.83,97.984,28.782,98.062,28.742,98.648z"/>
		<circle id="pivot_2_" cx="29.75" cy="98.583" r="1.167"/>
	</g>
</g>
<g id="Hips">
	<path id="HipsOutline" fill="#231F20" d="M36.937,80.915c-0.466,2.427-0.105,4.804,1.651,6.56
		c1.486,1.486,3.703,2.294,5.911,2.292c3.418-0.004,5.989-1.967,7.124-4.725c0.688-1.67,1.167-4.063,0.561-5.91
		c-1.132-3.448-5.432-4.523-8.486-4.182C40.583,75.297,37.665,77.13,36.937,80.915z"/>
	<path id="HipsFill" fill="#7B94FF" d="M38.34,84.007c0.595,1.957,2.251,3.404,4.209,4.008c1.58,0.486,3.394,0.427,4.879-0.366
		c1.861-0.993,3.249-3.273,3.447-5.524c0.158-1.786-0.477-3.554-1.911-4.636c-1.557-1.175-3.706-1.402-4.756-1.323
		c-1.245,0.094-3.022,0.704-4.352,1.896C38.429,79.344,37.518,81.297,38.34,84.007z"/>
</g>
<g id="LegLeft">
	<path id="LegLeftOutline" fill="#231F20" d="M55.301,91.419c-0.616-0.925-1.463-0.009-2.281,0.646
		c-0.858,0.688-1.606,1.029-1.127,1.894c1.054,1.896,2.153,3.503,3.476,4.726c0.869,0.804,2.271,1.818,3.553,2.017
		c1.301,0.203,2.191-0.425,2.423-1.285c0.271-1.005,0.545-2.329-2.029-3.276c-0.678-0.25-1.592-1.356-2.038-1.925
		C56.738,93.529,56.096,92.622,55.301,91.419z"/>
	<path id="LegLeftFill" fill="#FFE3E3" d="M54.498,92.187c-0.496,0.247-1.33,0.804-1.686,1.295l0.008,0.012
		c1.626,2.415,3.238,5.024,6.011,6c0.961,0.338,1.487,0.008,1.652-0.63c0.232-0.894-0.552-1.165-1.235-1.396
		C58.083,97.076,56.793,95.969,54.498,92.187z"/>
	<path id="ShortsLeftOutline" fill="#231F20" d="M47.229,83.734C46.17,84.622,45.443,85.96,45.6,87.2
		c0.085,0.668,0.426,1.308,1.11,1.833c0.789,0.604,1.395,1.375,1.927,2.199c0.633,0.983,1.178,2.044,1.736,3.032
		c0.478,0.843,0.88,0.844,1.545,0.187c1.194-1.179,2.54-2.197,3.968-3.076c1.384-0.853,1.333-0.933,0.418-1.914
		c-0.91-0.977-1.454-1.519-2.262-2.792c-0.54-0.848-1.007-1.736-1.508-2.654c-0.409-0.75-1.263-1.152-2.143-1.265
		C49.274,82.606,48.224,82.901,47.229,83.734z"/>
	<path id="ShortsLeftFill" fill="#7B94FF" d="M49.993,90.872c0.452,0.648,0.945,1.397,1.34,2.153c0.66-0.723,2.729-2.519,3.7-2.981
		c-0.66-0.603-1.247-1.298-1.776-2.005c-0.574-0.765-1.304-1.705-1.594-2.693c-0.273-0.928-0.249-0.924-0.793-1.158
		c-0.654-0.281-1.521-0.382-2.474,0.221c-1.082,0.684-1.461,1.465-1.543,2.137c-0.147,1.204,0.368,1.256,1.051,1.854
		C48.706,89.102,49.669,90.406,49.993,90.872z"/>
	<circle id="pivot_9_" cx="49.149" cy="85.877" r="1.167"/>
	<g id="KneeLeft">
		<path id="KneeLeftOutline" fill="#231F20" d="M57.572,98.064c-0.241,1.007,0.23,2.323,1.122,2.644
			c1.336,0.48,2.862,0.625,4.286,0.713c1.47,0.091,2.954,0.127,4.365,0.366c0.818,0.139,0.874,0.251,1.01,1.333
			c0.358,2.845-0.539,6.14,0.907,7.695c1.468,1.58,3.313,0.57,3.92-1.076c0.884-2.41,1.364-6.314,1.776-8.758
			c0.494-2.929-1.705-4.491-4.553-4.488c-2.003,0.002-4.494,0.098-6.663,0.087c-3.44-0.016-3.329-0.265-4.413-0.312
			C58.416,96.229,57.757,97.288,57.572,98.064z"/>
		<path id="KneeLeftFill" fill="#FFE3E3" d="M59.3,99.639c0.35,0.095,0.713,0.171,1.101,0.212c2.807,0.295,4.836,0.292,6.782,0.609
			c1.42,0.243,1.985,0.376,2.291,1.855c0.261,1.296,0.05,3.018-0.049,4.334c-0.107,1.508,0.152,2.814,0.976,3.386
			c0.867,0.612,1.428-0.612,1.672-1.277c0.686-1.852,1.463-6.918,1.453-7.939c-0.006-1.653-0.719-2.887-3.029-3.011
			c-3.24-0.167-7.829,0.14-9.804-0.081c-0.333-0.037-0.646-0.067-0.96-0.13C59.058,97.461,58.733,99.485,59.3,99.639z"/>
		<circle id="pivot_8_" cx="59.434" cy="98.638" r="1.167"/>
	</g>
</g>
<g id="ArmRight">
	<path id="ArmRightOutline" fill="#231F20" d="M34.452,71.291c2.54-1.904,6.404-7.821,7.274-10.598
		c0.303-0.964-0.06-1.321-0.527-0.424c-1.668,3.208-2.769-0.837-2.503-1.853c0.086-0.328-0.425-0.672-0.569-0.302
		c-0.723,1.87-4.819,7.61-6.542,8.583C28.178,68.619,31.164,73.756,34.452,71.291z"/>
	<path id="ArmRightFill" fill="#FFE3E3" d="M41.196,60.27c0.155-0.341,0.314-0.501,0.435-0.52c-0.026-0.487-0.198-0.912-0.549-1.224
		c-0.718-0.641-1.845-0.855-2.568-0.511c0.129,0.079,0.226,0.24,0.183,0.401c-0.317,1.211-2.901,6.638-6.544,9.381
		c-1.688,1.271-0.296,3.995,1.397,2.574C35.278,68.92,39.352,64.327,41.196,60.27z"/>
	<circle id="pivot_10_" cx="39.943" cy="59.288" r="1.167"/>
	<g id="ForeArmRight">
		<path id="ForeArmRightOutline" fill="#231F20" d="M22.589,79.156c1.27-0.835,2.503-2.541,2.863-4.267
			c3.029-0.675,6.525-1.771,9-3.598c1.701-1.256-0.57-5.877-2.867-4.594c-3.062,1.71-4.789,3.033-7.178,3.768
			c-0.576-0.62-2.027-1.819-3.12-2.299c-1.356-0.596-2.73-0.43-3.45,0.351c-0.56,0.608-0.64,1.865-0.079,2.606
			c-1.35,0.392-2.57,1.154-2.929,2.562c-0.256,1.002,0.513,1.979,1.406,2.511c-0.152,0.99-0.002,2.103,0.631,2.755
			C18.104,80.223,20.376,80.615,22.589,79.156z"/>
		<path id="ForeArmRightFill" fill="#FFE3E3" d="M21.778,78.194c1.144-0.833,2.174-2.042,2.416-3.352
			c0.158-0.852,0.048-0.9,0.89-1.094c3.812-0.873,5.694-1.56,8.448-3.363c1.134-0.742-0.512-3.242-1.38-2.589
			c-2.001,1.507-7.055,3.733-7.577,3.815c-0.328,0.052-0.979,0.118-1.083-0.126c-0.722-1.149-1.536-1.906-2.239-2.272
			c-1.171-0.614-2.262-0.228-2.581,0.191c-0.384,0.508-0.117,1.314,0.271,1.628c0.954,0.766,0.561,1.039-0.236,1.009
			c-0.887-0.035-2.099,0.734-2.378,1.687c-0.252,0.862,0.277,1.387,0.894,1.621c0.311,0.118,1.688,0.184,1.663,0.464
			c-0.026,0.289-1.093,0.687-1.428,0.717c-0.04,1.057,0.387,1.799,1.554,2.119C19.89,78.89,20.98,78.775,21.778,78.194z"/>
		<circle id="pivot_4_" cx="32.839" cy="68.983" r="1.167"/>
	</g>
</g>
<g id="TShirt">
	<ellipse id="ChestOutline" fill="#231F20" cx="44.4" cy="59.359" rx="5.429" ry="4.668"/>
	<ellipse id="Chest" fill="#FFE3E3" cx="44.4" cy="59.359" rx="4.632" ry="4.031"/>
	<path id="TShirtOutline" fill="#231F20" d="M49.618,68.84c-0.979-3.149,0.703-5.605,0.44-9.004
		c-0.178-2.297-1.129-3.999-3.204-4.611c-0.597-0.176-1.419-0.208-2.206,0.37c-1.112,0.825-1.625,2.554-1.944,3.791
		c-0.11,0.428-0.147,1.366-0.809,1.463c-0.554,0.081-0.963-0.678-1.063-1.063c-0.224-0.862,0.03-2.037,0.333-2.854
		c0.305-0.82-0.173-1.601-1.294-0.807c-2.554,1.809-2.583,5.267-2.626,8.142c-0.037,2.504,0.005,2.047,0.13,4.54
		c0.386,7.682-0.789,7.141-0.609,11.417c0.03,0.71,0.222,0.877,0.485,1.206c1.42,1.775,3.662,1.543,5.739,1.192
		c2.623-0.443,4.67-1.482,7.677-1.787c0.884-0.218,1.343-0.528,1.587-1.902C52.837,75.649,50.635,72.108,49.618,68.84z"/>
	<path id="Color" fill="#1DC100" d="M50.594,79.311c-4.24-0.326-9.303,3.83-12.607,1.337c-0.237-2.382,0.951-5.991,0.638-11.715
		c-0.171-3.134-0.516-7.661,0.98-10.692c-0.246,1.571,0.22,3.28,1.814,3.835c1.286,0.447,2.13-0.67,2.458-1.751
		c0.35-1.15,0.751-3.865,2.222-3.98c0.312-0.024,0.581-0.002,0.826,0.046c-1.633,1.023-2.117,3.211-1.415,5.021
		c0.567,1.462,1.763,2.161,2.846,1.732c-0.194,1.417-0.4,2.82-0.387,3.943c0.023,1.93,0.83,4.275,1.252,5.275
		C50.268,74.838,50.752,76.796,50.594,79.311z"/>
	<path id="Sleeve" fill="#FFE3E3" d="M49.208,59.667c0,0.958-0.144,2.164-0.958,2.417c-0.886,0.276-1.958-1.078-1.906-2.488
		c0.049-1.313,0.764-2.472,1.49-2.429C48.542,57.208,49.208,58.4,49.208,59.667z"/>
	<circle id="pivot_3_" display="none" cx="44.25" cy="81" r="1.167"/>
</g>
<g id="ArmLeft">
	<path id="ArmLeftOutline" fill="#231F20" d="M60.613,63.563c-2.124-2.359-8.362-5.679-11.206-6.297
		c-0.987-0.215-1.31,0.178-0.375,0.563c3.344,1.375-0.586,2.833-1.621,2.659c-0.334-0.057-0.631,0.483-0.25,0.593
		c1.927,0.553,8.011,4.119,9.133,5.749C58.513,70.05,63.362,66.618,60.613,63.563z"/>
	<path id="ArmLeftFill" fill="#FFE3E3" d="M49.033,57.831c-0.354-0.124-0.527-0.268-0.557-0.386c-0.483,0.069-0.89,0.278-1.17,0.656
		c-0.574,0.773-0.687,1.914-0.279,2.604c0.067-0.136,0.219-0.246,0.383-0.218c1.234,0.207,6.87,2.296,9.928,5.679
		c1.417,1.567,4.005-0.062,2.438-1.622C58.178,62.952,53.239,59.306,49.033,57.831z"/>
	<circle id="pivot_5_" cx="48.167" cy="59.167" r="1.167"/>
	<g id="ForeArmLeft">
		<path id="ForeArmLeftOutline" fill="#231F20" d="M69.508,74.675c-0.946-1.19-2.754-2.266-4.506-2.47
			c-0.943-2.957-2.348-6.34-4.389-8.642c-1.403-1.582-5.803,1.093-4.319,3.267c1.978,2.896,3.449,4.498,4.395,6.813
			c-0.566,0.629-1.631,2.182-2.011,3.313c-0.472,1.404-0.184,2.758,0.658,3.405c0.655,0.503,1.915,0.47,2.603-0.155
			c0.511,1.309,1.379,2.457,2.813,2.688c1.021,0.165,1.925-0.688,2.375-1.625c1,0.063,2.094-0.186,2.688-0.875
			C70.971,79.047,71.158,76.748,69.508,74.675z"/>
		<path id="ForeArmLeftFill" fill="#FFE3E3" d="M68.622,75.569c-0.932-1.065-2.228-1.983-3.554-2.106
			c-0.863-0.081-0.901,0.032-1.169-0.789c-1.21-3.719-2.063-5.531-4.105-8.114c-0.84-1.063-3.184,0.8-2.456,1.606
			c1.68,1.859,4.349,6.693,4.478,7.205c0.081,0.322,0.205,0.965-0.029,1.09c-1.08,0.821-1.761,1.7-2.063,2.433
			c-0.506,1.221-0.025,2.274,0.421,2.553c0.54,0.337,1.32-0.001,1.597-0.416c0.678-1.018,0.985-0.651,1.026,0.146
			c0.045,0.886,0.919,2.024,1.893,2.217c0.881,0.174,1.356-0.4,1.535-1.035c0.089-0.32,0.032-1.698,0.313-1.698
			c0.29,0,0.781,1.028,0.842,1.358c1.056-0.055,1.757-0.546,1.971-1.737C69.484,77.387,69.272,76.312,68.622,75.569z"/>
		<circle id="pivot_6_" cx="58.458" cy="65.375" r="1.167"/>
	</g>
</g>
<g id="Head">
	<path id="HeadOutline" fill="#231F20" d="M62.335,33.091c-1.926-1.447-4.741,0.175-6.3,0.26c-0.15-0.43-0.2-0.89-0.04-1.42
		c0.26-0.87,1.12-1.34,1.95-1.48c0.34-0.05,0.449-0.31,0.42-0.57c0-0.07,0-0.15-0.04-0.23c-1.681-3.99-5.12-9.89-10.22-9.62
		c0.17-0.25,0.44-0.39,0.71-0.54c0.29-0.15,0.37-0.41,0.33-0.66c0.02-0.17-0.05-0.36-0.25-0.49c-1.05-0.71-2.37-0.69-3.51-0.22
		c-0.08-1.15-0.99-2.24-1.88-2.91c-1.43-1.08-3.27-1.26-4.97-0.99c-0.11,0.01-0.18,0.06-0.25,0.12c-0.32,0.12-0.54,0.53-0.32,0.84
		c0.33,0.46,0.7,0.88,1.06,1.32c-5.95-3.27-15.49-2.11-21.01,0.33c-5.57,2.46-12.72,9.08-12,16.62c0,0.051,0.03,0.091,0.05,0.131
		c0.03,0.39,0.61,0.71,0.94,0.359c1.39-1.43,3.16-2.63,5.08-3.25c-1.86,1.891-3.14,4.601-2.67,7.141c-0.04,0.42,0.51,0.8,0.93,0.439
		c0.89-0.77,1.83-1.41,2.78-1.939c0.69,5.109,2.26,9.52,6.85,12.63c4.23,2.859,11.23,2.97,16.06,3c1.34,0.01,2.45,0.55,3.26,1.47
		c0.85,0.96,0.98,3.03,1.38,3.41c0.35,0.33,0.85,0.17,1.03-0.23l2.75-1.08c0.18,0.5,0.83,0.511,1.01,0
		c0.57-1.529-0.14-3.26,0.93-4.93c0.38-0.59,3.54-2.38,5.31-4.29c1.64-1.76,2.88-3.84,3.3-5.88c0.14-0.7,4.08,2.29,7.021,1.06
		c1.689-0.72,2.52-2.359,2.55-4.159C64.605,35.621,63.665,34.091,62.335,33.091z"/>
	<path id="HeadFill" fill="#FFE3E3" d="M61.085,40.11c-1.95,0.721-3.89-0.8-5.79-1.22c-0.6-0.13-0.88-0.04-1.21,0.63
		c-1.01,2.14-1.89,4.061-3.52,5.86c-1.92,2.1-4.25,3.109-6.73,4.35c-0.55,0.28-0.34,1.19,0.73,0.97
		c-0.62,1.561-0.57,3.641-0.11,4.82v0.01c-1.05,1.188-2.12,1.53-2.75,1.08c0.01-0.01,0.02-0.029,0.03-0.05
		c0.47-1.26-0.69-3.15-1.46-4.17c-0.95-1.28-2.49-1.68-4.15-1.75c-4.11-0.18-8.56-0.39-12.25-1.71c-6.35-2.26-8.22-7.271-9.7-13.16
		c5.7-2.71,12.24-2.08,18.61-3.26c4.12-0.76,8.49-3.13,10.39-6.93c1.19,5.82,7.08,8.77,12.78,10.08
		c0.573,0.135,1.092-0.301,0.389-1.348c1.91,0.149,3.392-0.802,4.691-0.172c1.08,0.52,1.8,1.73,1.92,2.9
		C63.105,38.41,62.385,39.641,61.085,40.11z"/>
	<path id="HairFill" fill="#7F3333" d="M54.828,30.993c-0.422,0.795-0.549,1.763-0.309,2.66c-2.724-0.995-4.736-2.081-6.226-3.167
		c-4.468-3.257-4.225-6.51-4.333-7.31c-0.093-0.683-1.096-0.905-1.332-0.136c-2.579,8.416-12.565,8.509-19.765,9.076
		c-4.617,0.363-8.768,1.533-12.25,4.467c0.452-2.588,1.83-4.862,3.939-6.349c0.813-0.573,0.459-1.073-0.412-1.039
		c-1.735,0.069-4.293,0.411-6.907,2.912c1.328-7.568,6.795-12.199,13.426-14.186c6.528-1.956,14.183-1.348,20.127,1.544
		c0.548,0.267,1-0.214,0.98-0.726c0-0.006,0.004-0.011,0.005-0.018c0.147-1.112-0.773-2.438-1.516-3.251
		c2.86,0.607,3.832,2.257,3.722,3.565c-0.261,0.415-0.386,0.946-0.479,1.446c-0.116,0.618,0.232,0.989,0.559,0.507
		c0.723-1.069,1.726-1.511,2.773-1.688c-0.393,0.668-0.476,1.514-0.083,2.238c1-0.438,3.974,0.188,6.646,2.845
		c1.418,1.41,2.526,3.228,3.522,4.991C55.971,29.578,55.251,30.199,54.828,30.993z"/>
	<path id="Nose" fill="#231F20" d="M31.688,45.734c-0.337,0.096-0.734,0.137-1.047,0.063c-0.59-0.141-0.513-0.558-0.156-0.813
		c0.385-0.277,0.892-0.349,1.353-0.437c0.991-0.188,0.725-0.876-0.181-0.97c-0.561-0.058-1.125-0.032-1.639,0.207
		c-0.688,0.319-1.207,0.909-1.218,1.776c-0.01,0.769,0.593,1.548,1.653,1.548c0.61,0,1.028-0.176,1.548-0.384
		C33.061,46.302,32.82,45.414,31.688,45.734z"/>
	<path id="Mouth" fill="#231F20" d="M43.648,41.538c-0.531,0.157-0.496,0.867,0,1.039c0.185,0.064,0.355,0.128,0.521,0.2
		c-0.402,0.897-0.79,1.707-1.477,2.451c-0.705,0.765-1.588,1.385-2.508,1.86c-0.556,0.287-0.167,1.153,0.418,0.992
		c1.85-0.508,4.179-2.271,4.7-4.313c0.096,0.127,0.199,0.249,0.331,0.346c0.402,0.294,0.978-0.104,0.97-0.557
		C46.58,42.195,44.891,41.168,43.648,41.538z"/>
	<path id="EarDetail" fill="#231F20" d="M53.558,38.513c1.633-0.69,3.077-0.811,4.739-0.2c0.702,0.257,0.979-0.734,0.47-1.114
		c-1.776-1.323-4.003-0.547-5.741,0.404C52.413,37.938,52.952,38.77,53.558,38.513L53.558,38.513z"/>
	<g id="EyesOpen">
		<path fill="#231F20" d="M23.531,38.45c-0.678-0.249-1.411-0.325-2.113-0.21c-0.827,0.137-1.61,0.538-2.207,1.236
			c-0.406,0.475,0.135,1.33,0.71,0.92c0.288-0.205,0.642-0.381,0.829-0.443c0.101,0.764,0.51,1.533,1.127,1.985
			c0.606,0.444,1.324,0.502,1.887,0.289c0.638-0.238,0.943-0.811,0.991-1.446c0.486,0.137,1.093-0.364,0.731-0.864
			C24.986,39.228,24.294,38.73,23.531,38.45z"/>
		<path id="PupilRight" fill="#00B7FF" d="M23,41c-0.505-0.015-0.922-0.594-1.064-1.238c0.5-0.127,0.898-0.079,1.398,0.212
			C23.491,40.388,23.5,41.015,23,41z"/>
		<path fill="#231F20" d="M40.678,37.567c-0.694-0.599-1.85-1.349-3.378-1.192c-1.033,0.105-2.075,0.627-2.686,1.339
			c-0.755,0.88-0.442,1.724,1.038,1.034c0.143,1.459,1.553,2.606,2.969,2.229c0.93-0.248,1.617-1.3,1.214-2.522
			C40.844,38.641,41.183,38.003,40.678,37.567z"/>
		<path id="PupilLeft" fill="#00B7FF" d="M38.145,39.463c-0.689,0.194-1.393-0.742-1.364-1.289c0.259-0.164,0.838-0.299,1.359-0.236
			C38.676,38.319,38.799,39.278,38.145,39.463z"/>
	</g>
	<g id="EyesClosed" display="none">
		<g display="inline">
			<g>
				<path fill="#231F20" d="M35.364,40.568c1.763,1.555,5.854,0.946,6.11-1.762c0.065-0.688-0.868-0.799-1.194-0.323
					c-0.924,1.35-2.62,1.81-4.041,0.95C35.546,39.014,34.741,40.02,35.364,40.568L35.364,40.568z"/>
			</g>
		</g>
		<g display="inline">
			<g>
				<path fill="#231F20" d="M19.869,42.02c1.438,2.08,4.653,2.162,6.199,0.137c0.417-0.548-0.352-1.045-0.834-0.834
					c-1.57,0.688-2.979,1.26-4.445-0.013C20.314,40.896,19.47,41.441,19.869,42.02L19.869,42.02z"/>
			</g>
		</g>
	</g>
	<circle id="pivot_1_" display="none" cx="43.083" cy="55.917" r="1.167"/>
</g>
</svg>
