<?xml version="1.0" encoding="utf-8"?>
<!-- Generator: Adobe Illustrator 15.1.0, SVG Export Plug-In . SVG Version: 6.00 Build 0)  -->
<!DOCTYPE svg PUBLIC "-//W3C//DTD SVG 1.1//EN" "http://www.w3.org/Graphics/SVG/1.1/DTD/svg11.dtd">
<svg version="1.1" id="Layer_1" xmlns="http://www.w3.org/2000/svg" xmlns:xlink="http://www.w3.org/1999/xlink" x="0px" y="0px"
	 width="128px" height="128px" viewBox="0 0 128 128" enable-background="new 0 0 128 128" xml:space="preserve">
<path fill="#5071B7" d="M43.761,3.196c-1.215,0-3.645,0-4.86,0s-3.645,0-4.86,0s-3.645,0-4.86,0c-1.218,0-3.653,0-4.871,0
	s-3.653,0-4.871,0c-1.215,0-3.645,0-4.86,0s-3.645,0-4.86,0s-3.645,0-4.86,0c-1.152,0-3.651,0-4.61,0v8.554h24.061h24.061V3.196
	C47.413,3.195,44.914,3.196,43.761,3.196z"/>
<path fill="#6C89C5" d="M43.761,2.628c-1.215,0-3.645,0-4.86,0s-3.645,0-4.86,0s-3.645,0-4.86,0c-1.218,0-3.653,0-4.871,0
	s-3.653,0-4.871,0c-1.215,0-3.645,0-4.86,0s-3.645,0-4.86,0s-3.645,0-4.86,0c-1.152,0-3.651-0.048-4.61,0v1.134
	c1,0.003,3.458,0,4.61,0c1.215,0,3.645,0,4.86,0s3.645,0,4.86,0s3.645,0,4.86,0c1.218,0,3.653,0,4.871,0s3.653,0,4.871,0
	c1.215,0,3.645,0,4.86,0s3.645,0,4.86,0s3.645,0,4.86,0c1.152,0,3.61,0.003,4.61,0V2.628C47.413,2.58,44.914,2.628,43.761,2.628z"/>
<path fill="#84A2D4" d="M43.761,2.031c-1.215,0-3.645,0-4.86,0s-3.645,0-4.86,0s-3.645,0-4.86,0c-1.218,0-3.653,0-4.871,0
	s-3.653,0-4.871,0c-1.215,0-3.645,0-4.86,0s-3.645,0-4.86,0s-3.645,0-4.86,0c-1.152,0-3.631-0.014-4.61,0v1.134
	c0.958,0.009,3.458,0,4.61,0c1.215,0,3.645,0,4.86,0s3.645,0,4.86,0s3.645,0,4.86,0c1.218,0,3.653,0,4.871,0s3.653,0,4.871,0
	c1.215,0,3.645,0,4.86,0s3.645,0,4.86,0s3.645,0,4.86,0c1.152,0,3.651,0.009,4.61,0V2.031C47.392,2.017,44.914,2.031,43.761,2.031z"
	/>
<path fill="#99B8E1" d="M43.761,1.674c-1.215,0-3.645,0-4.86,0s-3.645,0-4.86,0s-3.645,0-4.86,0c-1.218,0-3.653,0-4.871,0
	s-3.653,0-4.871,0c-1.215,0-3.645,0-4.86,0s-3.645,0-4.86,0s-3.645,0-4.86,0c-1.152,0-3.651-0.018-4.61,0V2.58
	c0.958,0,3.458,0,4.61,0c1.215,0,3.645,0,4.86,0s3.645,0,4.86,0s3.645,0,4.86,0c1.218,0,3.653,0,4.871,0s3.653,0,4.871,0
	c1.215,0,3.645,0,4.86,0s3.645,0,4.86,0s3.645,0,4.86,0c1.152,0,3.651,0,4.61,0V1.674C47.413,1.656,44.914,1.674,43.761,1.674z"/>
<path fill="#E6ECF3" d="M43.761,1.313c-1.215,0-3.645,0-4.86,0s-3.645,0-4.86,0s-3.645,0-4.86,0c-1.218,0-3.653,0-4.871,0
	s-3.653,0-4.871,0c-1.215,0-3.645,0-4.86,0s-3.645,0-4.86,0s-3.645,0-4.86,0c-1.152,0-3.651,0-4.61,0V2c0.958,0,3.458,0,4.61,0
	c1.215,0,3.645,0,4.86,0s3.645,0,4.86,0s3.645,0,4.86,0c1.218,0,3.653,0,4.871,0s3.653,0,4.871,0c1.215,0,3.645,0,4.86,0
	s3.645,0,4.86,0s3.645,0,4.86,0c1.152,0,3.651,0,4.61,0V1.313C47.413,1.313,44.914,1.313,43.761,1.313z"/>
</svg>
