<?xml version="1.0" encoding="utf-8"?>
<!-- Generator: Adobe Illustrator 15.1.0, SVG Export Plug-In . SVG Version: 6.00 Build 0)  -->
<!DOCTYPE svg PUBLIC "-//W3C//DTD SVG 1.1//EN" "http://www.w3.org/Graphics/SVG/1.1/DTD/svg11.dtd">
<svg version="1.1" id="Layer_1" xmlns="http://www.w3.org/2000/svg" xmlns:xlink="http://www.w3.org/1999/xlink" x="0px" y="0px"
	 width="2000px" height="1125px" viewBox="0 0 2000 1125" enable-background="new 0 0 2000 1125" xml:space="preserve">
<g id="BG-Gradient">
	
		<linearGradient id="SVGID_1_" gradientUnits="userSpaceOnUse" x1="995.9995" y1="173" x2="995.9995" y2="1117.0062" gradientTransform="matrix(1 0 0 -1 4 1120)">
		<stop  offset="0" style="stop-color:#675D82"/>
		<stop  offset="1" style="stop-color:#0A0432"/>
	</linearGradient>
	<rect fill="url(#SVGID_1_)" width="2000" height="1125"/>
	
		<image overflow="visible" enable-background="new    " width="1280" height="720" id="Ref_x5F_colors_x5F_img" xlink:href="E:\_Trabalhos\RageTools_stuff\Demo_RageSprite\SpaceNinja-Scenery.jpg"  transform="matrix(1 0 0 1 2195.1641 332.5723)">
	</image>
</g>
<g id="Moon">
	<path fill="#EAFF00" d="M1094,598c0,44.183-8.954,86.273-25.146,124.559c-16.192,38.284-39.625,72.762-68.579,101.716
		c-28.955,28.955-63.433,52.387-101.717,68.579C860.274,909.046,818.183,918,774,918s-86.274-8.954-124.558-25.146
		c-38.285-16.192-72.763-39.625-101.717-68.579c-28.953-28.954-52.386-63.432-68.578-101.716C462.954,684.273,454,642.183,454,598
		s8.954-86.274,25.147-124.558c16.192-38.284,39.624-72.762,68.578-101.717c28.955-28.954,63.433-52.386,101.717-68.579
		C687.726,286.954,729.817,278,774,278s86.274,8.954,124.558,25.147c38.284,16.193,72.762,39.625,101.717,68.579
		c28.954,28.955,52.386,63.433,68.579,101.717C1085.046,511.726,1094,553.817,1094,598z"/>
</g>
<g id="GUI">
	<g id="zoom-in">
		<path fill="#FFFFFF" d="M1803.914,46.775h-9.211c0,0,0-12.196,0-8.914c0,0-0.885-5.943-5.943-5.943
			c-5.559,0-5.943,5.943-5.943,5.943c0-3.282,0,8.914,0,8.914h-8.913c-3.281,0-5.943,2.662-5.943,5.943
			c0,3.282,2.659,5.944,5.943,5.944h8.913v9.211c0,3.281,2.659,5.944,5.943,5.944s5.943-2.663,5.943-5.944v-9.211h9.211
			c3.282,0,5.943-2.662,5.943-5.944C1809.857,49.438,1807.196,46.775,1803.914,46.775z"/>
		<path fill="#FFFFFF" d="M1823.666,85.833c4.805-4.802,6.296-7.961,6.296-7.961c0.467-0.467,1.119-0.293,2.435,1.021l25.005,25.002
			c3.248,3.25,3.248,8.518,0,11.767l-5.255,5.255c-3.25,3.249-8.519,3.249-11.768,0l-25.003-25.006
			c-1.51-1.509-1.521-2.457-0.767-3.211C1814.617,92.692,1818.697,90.802,1823.666,85.833z"/>
		<path fill="#FFFFFF" d="M1788.908,11.118c-23.096,0-42.328,18.892-41.688,42.911h13.371
			c-0.676-16.242,12.295-29.243,28.021-29.243c15.508,0,28.079,12.572,28.079,28.08c0,15.509-12.573,28.081-28.079,28.081
			c-15.037,0-27.277-12.029-28.013-26.883h-13.369c0.742,22.404,19.095,40.551,41.679,40.551c23.057,0,41.748-18.692,41.748-41.751
			C1830.658,29.809,1811.967,11.118,1788.908,11.118z"/>
	</g>
	<g id="zoom-out">
		<path fill="#FFFFFF" d="M1933.684,46.775h-30.012c-3.282,0-5.943,2.662-5.943,5.943c0,3.282,2.658,5.944,5.943,5.944h30.012
			c3.281,0,5.943-2.662,5.943-5.944C1939.627,49.438,1936.965,46.775,1933.684,46.775z"/>
		<path fill="#FFFFFF" d="M1953.467,85.833c4.805-4.802,6.295-7.961,6.295-7.961c0.468-0.467,1.119-0.293,2.435,1.021l25.005,25.002
			c3.248,3.25,3.248,8.518,0,11.767l-5.255,5.255c-3.249,3.249-8.519,3.249-11.767,0l-25.004-25.006
			c-1.51-1.509-1.52-2.457-0.767-3.211C1944.418,92.692,1948.496,90.802,1953.467,85.833z"/>
		<path fill="#FFFFFF" d="M1918.678,11.118c-23.097,0-42.328,18.892-41.688,42.911h13.371
			c-0.676-16.242,12.295-29.243,28.021-29.243c15.508,0,28.078,12.572,28.078,28.08c0,15.509-12.573,28.081-28.078,28.081
			c-15.037,0-27.277-12.029-28.012-26.883h-13.371c0.743,22.404,19.096,40.551,41.68,40.551c23.058,0,41.747-18.692,41.747-41.751
			C1960.427,29.809,1941.736,11.118,1918.678,11.118z"/>
	</g>
</g>
<g id="Clouds">
	<path fill="#FBFBFB" fill-opacity="0.55" d="M0,0.5h368.18c6.836,4.529,7.455,9.092,10.291,14.26
		c1.41,6.3-1.691,17.456,5.459,19.01c6.598,1.434,12.04-5.63,18.24-8.08c10.853-5.362,22.979-4.102,33.549-0.863
		c14.092,4.319,25.414,12.157,27.262,12.513c2.729,0.5,5.53,0.18,8.229-0.36c4.76-0.96,9.61-0.14,14.35,0.52
		c-11.682,8.134-11.474,5.767-23.012,5.767c-9.384,0-19.758,9.292-32.005,17.297c-8.444,5.52-17.779,10.428-28.292,11.258
		c-16.67,1.316-18.019-2.194-25.583-2.869c-4.399-0.392-7.375,0.714-9.448,2.787c-5.844,5.844-4.504,19.358-7.63,28.56
		c-4.319,10.955-10.752,18.734-18.92,24.038c-9.894,6.423-22.34,9.215-36.662,9.621c-11.271,0.319-20.53-2.643-27.99-6.524
		c-12.438-6.472-18.351-13.934-23.428-16.184c-5.387-2.388-5.302-2.564-18.82-5.42c4.09-3.33,9.208-6.324,14.396-7.044
		c5.8-0.84,11.642-0.225,17.534,0.354c4.202,0.414,34.62,2.262,43.43-0.5c5.19-1.06,9.571-4.181,13.87-7.09
		c6.101-4.391,9.339-11.459,12.08-18.229c4.54-11.13,2.149-25.001-6.48-33.51c-5.573-4.381-11.369-8.649-18.13-11.01
		c-8.93-4-19.831-5.33-28.78-0.7c-7.069,4.059-14,9.981-15.83,18.29c-0.91,5.54-0.96,11.889,2.63,16.56
		c3.06,4.97,8.67,8.09,14.46,8.38c4.691,0.58,9.129-1.49,13.24-3.47c5.352-2.391,7.59-8.729,7.77-14.2
		c-0.885-7.444-10.137-12.344-17.39-9.83c-4.791,1.66-7.53,10.89-1.391,12.74c3.801,1.86,6.699-2.741,5.23-6.09
		c3.605-2.892,8.332,2.753,2.205,8.879c-3.804,3.804-8.821,3.733-12.554,2.631c-4.28-1.97-6.61-7.081-5.9-11.66
		c0.35-5.57,4.59-9.7,8.85-12.78c4.26-2.86,9.601-4.62,14.74-3.479c7.025,1.692,14.413,5.155,20.066,9.82
		c7.587,6.262,12.385,16.378,8.684,25.61c-1.8,4.819-3.9,8.21-7.61,11.93c-6.11,6.4-13.223,8.57-23.95,8.8
		c-7.455,0.16-14.922,0.491-22.34-0.19c-9.213-0.846-18.57-1.14-27.6,1.03c-18.9,2.696-25.909,18.131-30.57,20.91
		c-21.54,17.663-44.123,18.967-56.54,18.27c-10.715-0.602-21.327-3.608-30.83-8.7c-4.432-3.451-8.865-7.352-10.75-12.95
		c-2.89-8.583-3.085-17.614-2.03-26.32c0.888-7.324,4.111-14.373,3.41-21.86c-0.393-3.493-2.695-6.596-2.59-10.08
		c0.072-2.389,0.991-4.35,2.73-6.02c6.628-6.363,12.042-3.56,13.634-15.852c2.104-16.24-16.597-24.847-28.295-25.363
		c-5.16-0.227-15.614,1.824-20.271,6.481c-1.156,1.156-5.835,10.645-8.798,5.854C68.069,7.989,60.632,5.131,53.843,5.131
		c-9.713,0-18.116,5.847-19.223,12.459c-0.45,3.958-0.226,6.439,1.014,10.207c1.23,3.791,6.906,8.593,10.096,4.913
		c-4.4-3.06-5.26-8.91-4.14-13.82c0.81-3.005,6.151-6.35,12.734-5.799c4.627,0.387,9.872,2.7,14.585,8.409
		c3.625,3.9,8.698,4.109,13.59,2.5c4.25-1.398,8.361-4.421,11.3-4.421c3.281,0,6.599,1.284,9,5.341c1.98,2.53,1.561,6.661-0.83,8.22
		c-3.446,2.248-7.91,2.83-10.58,5.95C88.657,44.785,93.4,46.8,93.4,50.179c0,3.942-5.917,13.632-18.734,19.488
		c-9.182,4.196-21.347,6.865-33.5,7.13C32.093,76.994,23.025,75.851,15.21,73C4.505,69.377,7.045,67.593,0,67.41V0.5z"/>
	<path fill="#FBFBFB" fill-opacity="0.55" d="M1364.42,0.5c14.568,0,29.137,0,43.705,0c4.166,0,12.321-1.957,14.386,2.087
		c2.566,5.027,9.854,6.478,14.093,2.472c0.797-0.753,2.103-4.56,2.37-4.56c1.767,0,3.53,0,5.296,0
		c-3.612,16.452-30.742,11.542-42.162,8.718c-3.362-0.832-7.067-1.185-10.314-2.384c-3.329-1.229-5.587-3.303-9.259-3.502
		C1376.301,2.992,1366.813,8.022,1364.42,0.5C1364.42,0.5,1364.98,2.26,1364.42,0.5z"/>
	<path fill="#FBFBFB" fill-opacity="0.55" d="M1425.75,0.5h5.8c0.83,0.16,2.479-0.67,3.3-0.5c-1.016,2.167-2.25,2.99-3.67,3.25
		C1428.9,3.83,1427.47,1.51,1425.75,0.5z"/>
	<path fill="#FBFBFB" fill-opacity="0.55" d="M1448.35,0.5c19.651,0,39.303,0,58.952,0c1.457,0,6.46,13.033,5.298,14.8
		c-3.946,8.813-19.442,10.625-27.81,10.33c-12.344-0.224-25-0.054-37.241-1.847c-4.878-0.714-8.234-4.013-7.406-9.225
		c0.404-2.543,2.177-3.845,3.946-5.527C1446.906,6.351,1447.423,4.144,1448.35,0.5C1448.35,0.5,1447.76,2.82,1448.35,0.5z"/>
	<path fill="#FBFBFB" fill-opacity="0.55" d="M1512.819,0.5c2.476,0,8.015-0.5,8.181-0.5c2.834,8.167,5.563,0.5,8.067,0.5
		c5.692,0,11.388,0,17.081,0c13.291,0,26.581,0,39.871,0c-2.979,8.006-11.928,5.332-19.466,6.32
		c-10.366,1.359-21.644,2.848-31.585-1.16c3.204,8.363-6.721,5.359-10.846,4.816c-2.753-0.363-5.552-0.45-8.305-0.026
		C1514.113,7.403,1512.919,4.02,1512.819,0.5C1512.819,0.5,1512.92,4.04,1512.819,0.5z"/>
	<path fill="#FBFBFB" fill-opacity="0.55" d="M1966.45,79.61c5.623-2.499,11.97-3.693,18.104-2.922
		c6.424,0.807,9.548,4.915,15.445,0.692c0,6.075,0,12.15,0,18.225c0,2.767,0,5.534,0,8.3c0,0.041-6.806,2.392-7.448,2.572
		c-3.821,1.075-8.129,0.538-11.972-0.047c0.424,7.357,16.539,0.925,19.42-0.39c0,6.143,0,12.285,0,18.427c0,9.377,0,19.033,0,28.533
		c-6.941,0.02-15.901-3.75-21.13-8.27c-3.678,3.585-2.256,8.924-7.905,10.827c-5.017,1.69-10.93,0.89-16.147,1.692
		c-6.453,0.992-10.199,1.382-15.832-2.185c-5.076-3.214-7.925-7.043-10.744-12.305c-6.972,6.775-17.027,4.254-24.377-0.57
		c-1.465-0.956-2.813-2.056-4.044-3.299c-2.604,1.154-5.097,2.728-7.979,3.12c-5.26,0.874-8.938-1.674-12.909-4.609
		c-3.041-2.248-5.993-4.81-7.841-8.169c-2.529-4.601-6.792,0.085-10.021-3.472c-0.154-3.69,2.115-4.937,5.71-6.04
		c5.543-0.045,10.137,3.181,14.132-1.296c2.341-2.624,4.423-5.664,7.688-7.234c3.896-2.394,11.814,0.366,12.693-3.467
		c1.853-8.072,14.217-15.434,22.127-14.669c9.31,0.9,17.813,9.164,27.024,5.381C1958.501,95.126,1956.944,82.911,1966.45,79.61
		C1975.16,75.74,1962.39,81.02,1966.45,79.61z"/>
	<path fill="#FBFBFB" fill-opacity="0.55" d="M522.832,98.797c7.602-0.152,15.23,1.197,21.914,4.726
		c4.499,2.375,8.267,6.465,9.658,11.423c1.242,4.423,1.787,11.329-1.833,14.794c8.379-1.654,14.254-1.352,22.626-0.076
		c18.776,2.862,24.381,11.415,24.527,11.499c6.313,3.57,13.249-2.88,20.718,2.636c3.163,2.337,4.069,5.815-0.436,7.166
		c-3.85,1.154-7.903,0.074-11.827,0.335c-3.082,1.273-5.865,3.263-9.117,4.124c-4.807,1.272-8.181-1.162-12.161-1.162
		c-4.321,0-7.749,2.192-9.33,7.208c-1.693,5.371,0.831,6.577-5.558,8.904c-5.829,2.123-13.588,1.015-19.281,1.526
		c-4.777,0.43-9.281,2.064-14.041,2.33c-4.562,0.254-9.106-0.468-13.582-1.26c2.316-7.235-6.487-12.49-11.246-15.995
		c-5.26-3.872-13.104-5.896-16.401-11.866c-8.544-15.471,12.845-23.52,24.658-22.427c6.675,0.618,13.2,1.854,13.269,9.837
		c0.489,2.817-0.28,5.959-2.246,8.078c-2.833,3.054-8.332,2.002-12.009,1.296c-3.05-0.585-6.84-2.018-3.347-4.645
		c3.228-2.427,4.025,0.708,6.362,2.148c2.985,1.84,4.432-2.324,3.873-4.542c-0.846-3.354-4.052-4.998-7.299-4.892
		c-6.258,0.206-11.732,3.302-11.218,10.265c0.652,8.818,11.632,9.98,18.665,9.74c14.104-0.481,18.912-17.454,11.461-28.104
		c-3.93-5.618-12.247-6.975-18.612-7.753c-8.397-1.027-16.065,2.196-23.488,5.811c-13.54,6.594-15.086,24.045-5.521,34.707
		c1.807,2.013,3.899,3.77,6.188,5.211c-3.201,0.019-5.324-0.605-8.062,1.454c-2.299,1.729-3.471,4.207-5.299,6.341
		c-3.838,4.481-9.724,7.497-15.715,6.928c-3.021-0.287-6.021-2.236-8.923-3.188c-3.712-1.218-7.522-2.579-11.331-3.449
		c-6.565-1.501-13.271-0.869-19.334-4.26c-1.926-1.078-3.737-2.541-4.578-4.647c-1.484-3.715,0.186-5.282,1.169-8.75
		c0.908-3.233,0.077-6.578-0.715-9.735c-0.829-3.307-5.893-4.44-5.72-7.265c0.183-2.986-3.385-2.622-5.68-2.743
		c-3.121-0.166-5.16-3.668-8.567-4.233c-3.438-0.57-6.913-1.075-10.407-0.934c-3.782-0.21-7.048,1.982-10.47,3.21
		c-2.962-5.425,6.356-9.558,10.262-10.042c7.002-0.868,12.209,1.764,18.788,3.068c5.804,1.151,10.299-5.891,15.9-1.876
		c2.414,0.863,2.927,3.473,3.944,5.511c1.2,2.405,4.56,2.548,7.07,3.233c7.114,1.94,12.94-1.261,16.075-7.505
		c2.018-3.914,11.819-6.387,15.708-7.319c4.061-0.974,8.203-0.916,12.349-0.809c13.696,0.354,10.563-1.766,14.776-5.854
		C506.19,100.43,512.94,98.996,522.832,98.797z"/>
	<path fill="#FBFBFB" fill-opacity="0.55" d="M1014.374,239.787c9.635,9.643,4.102,1.526,13.104,5.385
		c2.255,0.966,4.562,2.713,7.28,2.868c3.652-0.094,7.289-0.411,10.888-0.703c6.271-0.51,12.069-1.037,18.274,0.671
		c2.776,0.764,5.515,1.756,8.366,3.109c1.675,0.794,3.132,1.608,8.51-0.931c2.409-1.136,4.594-2.156,7.059-2.437
		c3.265-0.372,20.753,8.896,19.891,9.165c2.443-0.76,3.107-2.473,5.423-0.24c1.013,0.976-1.208,2.958-3.391,3.523
		c-5.587,1.445-11.509,0.958-17.288,2.483c-4.969,0.9-8.856,4.493-13.795,6.024c-2.226,0.689-12.649,2.518-15.111,2.214
		c-5.156-0.637-8.65-7.354-13.344-2.473c-4.106,4.273-2.88,11.113-8.471,15.245c-4.115,3.044-8.138,5.424-13.104,6.309
		c-6.097,1.085-13.898,1.014-20.05-0.083c-3.011-0.537-23.186-7.255-24.707-12.525c9.077,3.431,27.326,1.989,33.271-6.414
		c7.912-11.182-10.118-20.002-17.629-20.335c-10.85-0.48-13.545,21.364-0.748,20.261c3.682-0.317,8.641-3.611,7.225-6.752
		c-1.22-2.7-7.72-5.505-7.129-0.71c3.635,0.173,2.442-0.977,5.129,2.26c-3.361,2.885-9.074,3.696-10.712-0.942
		c-1.746-4.943,0.906-8.278,3.801-10.675c6.142-5.088,23.667,8.815,17.047,15.786c-2.366,2.493-10.345,5.485-15.043,6.002
		c-7.229,0.793-22.246-1.537-20.381-0.938c-8-2.495-5.229,3.748-22.164,4.124c-2.803,0.062-12.741-4.915-15.042-5.776
		c-9.353-3.501-12.325-0.624-16.334-2.95c0.305,0.113-8.354-4.789-9.107-5.543c-5.648-5.648,7.463-7.162,7.907-7.12
		c28.667,2.667,23.403,3.859,32.199-12.943c4.758-9.09,21.915-11.999,28.271-7.634
		C993.279,230.904,1006.646,232.059,1014.374,239.787z"/>
	<path fill="#FBFBFB" fill-opacity="0.55" d="M364.984,253.177c3.835,0.765,7.256,3.085,11.024,3.6
		c4.106,0.561,9.593,0.005,13.051,2.515c6.54,4.748,10.297,14.582,12.374,22.103c2.609,9.45,2.139,19.412-2.123,28.215
		c-2.583-1.551-4.271-4.228-7.549-6.128c-2.355-1.366-5.531-2.332-10.448-2.19c-3.984,0.114-6.695,1.148-9.298,4.204
		c-3.719,4.366,0.985,9.754-2.385,9.914c-2.076-1.397-4.254-2.669-6.579-3.61c-4.114-1.664-8.347-1.918-12.589-0.58
		c-6.81,2.147-17.2,9.098-12.152,17.181c-6.547-2.729-12.402-6.844-18.898-9.679c-8.435-3.681-19.078-3.305-24.461-2.392
		c-5.631,0.955-10.405,3.379-13.543,7.413c-2.683,3.449-4.212,7.738-4.212,12.092c0,8.724,5.677,16.593,16.169,16.593
		c4.532,0,9.147-1.505,12.25-4.309c2.709-2.448,4.265-5.887,3.603-10.177c-0.783-5.072-5.933-9.921-11.274-9.048
		c-2.541,0.415-4.821,2.019-5.321,4.643c-0.408,2.141,0.042,7.01,2.649,7.253c2.278,0.212,5.017-0.284,5.009-3.129
		c-1.802-0.649-7.477-2.788-2.594-4.936c2.213-0.973,5.682,2.637,6.565,4.397c1.349,2.688-1.863,5.852-3.962,7.246
		c-2.118,1.407-4.705,2.176-7.269,2.176c-6.21,0-11.104-4.536-11.104-11.148c0-2.971,0.978-6.029,2.632-8.588
		c2.846-4.399,7.05-5.826,11.62-6.177c10.056-0.77,18.954,2.048,27.23,9.99c4.408,4.229,11.992,7.285,17.841,4.438
		c3.72-1.81,4.696-3.838,4.063-6.952c-2.061-10.157,10.194-13.573,12.03-12.867c9.23,3.546,5.791,6.411,9.666,8.354
		c1.673,0.839,4.711,1.507,10.723,1.983c1.574,0.125,3.087-0.212,4.301-1.277c-2.031-1.706-2.853-6.716-1.027-9.159
		c2.378-3.182,8.659-3.279,10.38,0.747c3.014,7.056,8.809,3.313,15.195,3.375c2.676,0.026,5.379,0.324,7.926,1.181
		c1.52,0.511,2.972,1.224,4.28,2.154c1.966,1.397,1.826,0.607,3.588-0.813c6.069-4.897,12.771-3.229,19.581-0.943
		c5.938,1.993,15.373,1.966,19.92,6.52c3.683,3.688,4.632,9.981,1.686,14.39c9.45,2.75,15.271-0.873,22.8,0.563
		c8.407,1.604,6.954,11.846,7.69,18.156c4.214-1.743,7.961-4.608,12.447-5.688c3.903-0.938,9.012-0.845,12.928,0.011
		c2.067,0.452,4.031,1.335,5.594,2.787c2.458-1.159,5.017-2.102,7.63-2.84c4.748-1.048,8.144-2.021,10.997,2.686
		c1.534,2.53,2.298,6.156,0.271,8.654c-3.115,3.838-6.441,0.75-10.247,1.181c-4.09,0.462-8.407,4.148-11.656,6.42
		c-4.274,2.99-8.549,5.663-13.619,7.087c-4.697,1.317-9.769,0.867-14.291-0.886c-2.372-0.919-4.163-3.389-5.938-1.183
		c-1.481,1.84-3.23,3.148-3.228,5.539c0.016,8.776-4.762,17.678-12.509,21.94c-8.599,4.732-18.472,7.125-28.092,3.234
		c-7.597-3.072-12.848-13.903-21.898-13.054c2.155-6.12,17.08-3.619,22.035-3.46c7.621,0.245,15.596,0.857,21.688-4.583
		c5.989-5.35,9.498-16.82,1.915-24.402c-3.273-3.273-7.224-5.154-11.55-6.313c-3.883-1.041-9.169-0.605-12.744,1.521
		c-4.78,2.844-6.661,7.686-5.949,12.213c0.594,3.776,3.065,7.04,7.37,7.553c2.807,0.334,5.861-0.227,8.113-2.017
		c2.45-1.947,5.026-7.568,2.024-9.621c-2.906-1.987-6.938-3.004-9.266,0.537c-3.246,4.936,5.517,5.848,3.562,1.233
		c1.954-0.771,3.622,1.901,1.49,4.222c-1.404,1.528-3.735,2.078-5.72,1.599c-7.005-1.692-2.742-10.27,1.311-12.676
		c6.48-3.848,14.146,0.896,18.359,5.365c4.414,4.684,2.76,11.772-1.158,16.211c-4.898,5.548-12.16,4.687-18.846,4.656
		c-6.849-0.032-13.436-1.115-20.065,1.221c-6.523,2.298-9.591,7.646-14.985,11.443c-5.803,4.082-12.436,8.559-19.69,8.987
		c-7.875,0.466-16.119-0.896-21.84-5.029c-4.66-3.366-8.568-8.388-8.319-15.937c0.14-4.238,0.628-6.749,0.99-9.251
		c0.984-6.806,2.742-7.123,1.393-9.627c-1.835-3.406,2.42-4.07,4.793-5.177c2.965-1.383,5.227-3.088,5.06-6.64
		c-0.327-6.926-8.429-10.953-14.38-12.025c-3.183-0.573-6.424,0.467-8.825,2.609c-1.929,1.723-2.702,5.492-5.5,2.301
		c-3.675-4.191-11.08-5.794-15.938-2.155c-3.789,2.838-3.676,13.061,2.712,11.842c-1.571-2.605-3.67-6.702-0.424-9.042
		c1.897-1.368,6.946-1.771,8.645-0.353c2.507,2.093,3.958,4.349,7.525,4.459c4.618,0.143,6.034-2.274,10.484-1.935
		c2.747,0.21,6.507,1.039,6.64,3.53c0.316,5.935-9.588,1.688-8,11.96c1.047,6.769-12.406,6.985-18.195,8.773
		c-7.732,2.388-16.065,4.528-24.005,1.756c-7.734-2.806-11.208-11.101-15.762-17.121c-1.416-1.872-2.783-0.588-4.816-0.023
		c-3.926,1.089-7.869,2.13-11.741,3.404c-3.5,1.152-5.466,2.729-8.316,4.913c-2.823,2.163-6.11,2.249-9.544,2.003
		c-6.528-0.467-12.283-5.564-18.533-7.465c-7.785-2.369-11.887-6.424-12.672-14.844c-0.351-3.766-0.069-7.549,0.064-11.316
		c-2.246-3.1-5.508-2.179-9.189-2.305c-8.156-0.28-15.149-2.419-22.98-4.366c-6.497-1.615-12.83-2.489-18.59-6.098
		c-3.215-2.015-4.065-4.273-3.513-6.483c0.616-2.469,2.982-4.877,5.753-6.813c0.123-0.085,0.246-0.17,0.37-0.253
		c3.081-2.068,6.648-3.443,10.326-3.943c3.723-0.506,7.486-0.105,10.939,1.288c3.056,1.232,7.471-3.403,16.301-4.502
		c3.407-0.424,7.537-0.217,10.423,1.867c2.566,1.854,3.338,5.817,6.438,5.122c5.442-1.221,17.33-2.629,21.271,2.388
		c2.167-1.715,2.946-4.259,2.68-7.44c-0.534-6.396-1.114-10.861,2.25-16.142c2.611-4.096,10.236-11.134,19.2-13.896
		c5.88-1.813,12.179-1.919,17.742,0.773c5.047,2.442,8.813,5.872,13.121,9.368c4.257,3.455,9.931-4.575,13.252-6.662
		c1.721-1.082,3.574-1.965,5.179-3.226c2.719-2.137,1.713-3.986,2.121-7.084c0.759-5.771,4.214-10.975,9.39-14.416
		C349.698,253.248,356.959,251.577,364.984,253.177z"/>
	<path fill="#FBFBFB" fill-opacity="0.55" d="M1285.08,395.7c3.979,1.229,5.979,5.45,10,6.67c7.39,2.34,11.05,9.899,13.49,16.67
		c1.039,4,3.979,7.13,5.108,11.09c-0.285,4.504-1.465,7.544-8.069,2.521c-2.069-1.45-4.619,0.069-6.859,0.159
		c-3.91,0.261-6.11,4.471-5.73,8.061c-1.64,1.01-3.51,1.56-5.229,2.37c-1.488,1.104-1.989,2.848-3.253,4.061
		c-1.898,1.821-6.219-1.352-7.777-2.65c-1.229-2.091-2.26-4.681-4.83-5.391c-4.192-1.159-11.434-0.311-14.218,3.278
		c-2.534,3.267,1.441,6.395-0.245,9.359c-2.048,3.602-4.879,3.162-8.345,2.301c-4.536-1.128-8.018,1.576-12.355,2.424
		c-3.568,0.697-7.516-1.043-10.6,1.206c3.979,1.921,7.54,2.111,11.741,0.734c4.42-1.449,7.688-2.755,12.396-1.655
		c3.621,0.845,6.35,0.541,8.691-2.726c2.374-3.31-0.741-6.779,0.793-10.081c1.507-3.239,6.278-2.988,9.219-2.967
		c5.2,0.041,4.105,3.906,6.321,5.126c3.45,1.9,7.08,5.38,11.27,3.271c4.317-6.361,4.97-2.768,7.95-5.29
		c3.102-1.36,1.33-6.24,4.771-7.21c3.787-0.556,7.692,0.532,10.854,2.692c2.798,1.911,4.738,0.813,5.992-1.389
		c1.83-3.213,2.199-8.772,1.643-10.744c1.379-2.14,2.909-4.38,2.539-7.06c3.04-4.76,8.59-6.9,13.211-9.8
		c5.011-1.98,10.649-0.83,14.601,2.829c-3.28,1.95-6.83,4.021-8.511,7.631c-4.05,9.503-0.473,15.876,6.018,21.063
		c3.601,2.876,7.604,5.327,12.353,5.297c4.472-0.74,9.432-1.91,12.271-5.79c2.81-2.79,4.069-7.17,2.63-10.93
		c-2.53-3.84-7.109-6.88-11.859-5.46c-3.609,0.35-5.609,3.93-5.229,7.3c1.41,2.3,4.1,2.59,6.5,1.76c-0.181-1.93-2.13-2-3.562-2.489
		c-0.479-4.11,5.062-5.25,7.802-3.261c1.788,1.41,4.31,3.301,3.648,5.92c-0.68,5.91-6.72,9.421-12.18,9.841
		c-2.464,0.234-6.485-1.451-10.056-4.254c-6.021-4.73-8.925-10.409-5.479-17.351c2.154-4.341,6.489-7.673,11.374-7.446
		c0.819-0.064,6.479-1.309,13.28-0.332c5.209,0.749,11.088,2.801,15.972,7.685c3.338,3.337,6.21,7.998,8.088,14.467
		c5.33,1.179,9.165,3.095,11.32,5.75c2.12,2.612,3.479,5.26,3.53,8.3c2.198,0.92,3.764,0.24,6.06,3.73
		c6.271,0.649,12.479,2.58,17.851,5.92c2.279-1.04,4.699-1.97,7.229-2.141c3.28-0.05,5.351,3.641,8.729,3.091
		c2.609,0.069,5.229-0.7,7.851-0.32c3.16,1.45,3.638,4.969,5.67,7.53c1.927,2.427,3.943,3.053,6.62,3.76
		c3.68,0.47,6.347-3.807,9.84-3.6c3.863,0.229,8.576,3.389,9.109,7.239c0.316,2.285-2.557,4.761-4.859,4.88
		c-3.328,0.174-6.23-1.899-9.16-0.27c-4.05,1.95-7.609-2.51-11.58-0.97c-5.49,0.792-5.333,3.6-6.451,4.718
		c-0.881,0.88-2.553,0.714-8.397-2.309c-2.16-0.079-4.29,0.54-6.28,1.24c-1.57,3.931-1.953,5.315-5.396,5.5
		c-1.767,0.096-3.474-0.313-5.207-0.565c-1.466-0.214-12.559-3.396-17.654-0.056c-2.504,1.641-4.396,5.996-5.533,8.662
		c-3.21,1.01-6.72,0.79-9.8-0.49c-3-1.439-4.32-4.829-4.811-7.92c-3.729-2.66-2.25-7.77-3.42-11.6c-0.66-3.68-3.121-6.84-6.74-7.95
		c-3.209,0.771-6.359,1.89-9.689,1.86c-2.939-0.17-5.479,1.5-7.54,3.41c-1.082-2.585-2.941-4.598-5.187-6.094
		c-2.444-1.627-5.348-2.643-8.202-3.116c-1.948-0.323-4.886,0.172-6.555,1.213c-0.861,0.538-2.586,2.66-1.536,3.691
		c1.175,1.153,5.183-1.284,6.63-1.165c2.574,0.211,5.335,1.007,7.31,2.764c2.434,2.164,1.498,4.457,2.784,6.988
		c0.881,1.73,1.452,4.132,3.205,5.224c1.539,0.958,4.145,0.91,5.747,0.121c2.199-1.084,0.837-2.938,1.263-4.634
		c1.139-4.529,9.734-2.021,10.981,1.099c1.06,2.649-0.541,5.04-2.131,7.03c0.142,1.24,1.615,2.888,2.15,4.028
		c2.074,4.425-0.727,8.672-5.143,11.901c-5.111,3.738-12.391,6.111-16.778,5.82c-7.33,0.949-14.51-2.69-18.979-8.381
		c-2.909,1.99-5.51,4.42-8.601,6.12c-9.739,5.97-20.84,10.62-32.46,10.24c-11.14,0.55-22-2.36-33.01-3.47
		c-5.562-0.351-9.67-4.521-13.65-7.931c-5.229-7.596-5.826-23.109,7.813-31.731c4.931-3.117,11.722-5.333,20.827-5.948
		c5.17-0.5,10.21,1.89,13.97,5.3c2.7,2.49,3.36,6.323,3.7,9.78c0.674,6.874-2.771,10.01-6.21,13.68
		c-1.948,1.979-5.548,3.317-9.146,3.317c-3.872,0-7.743-1.551-9.554-5.527c-1.3-2.325-1.085-5.18,0.131-7.494
		c1.217-2.313,3.434-4.087,6.139-4.246c2.379-0.549,9.198,2.549,3.08,9.31c-2.229,0.96-2.858-1.87-4.108-3
		c-0.882,6.567,3.624,5.657,5.815,4.214c3.216-2.117,4.871-7.074,2.043-10.165c-1.52-2.203-3.785-3.131-6.158-3.131
		c-3.918,0-8.131,2.528-9.78,6.021c-1.66,2.842-1.65,6.021-0.561,8.885c2.038,5.351,7.853,9.606,13.609,8.525
		c4.973,0.173,9.322-2.027,12.679-5.383c3.034-3.035,5.861-6.892,6.393-11.037c0.693-5.417-0.801-11.45-4.12-15.97
		c-5.002-4.651-10.825-6.603-16.576-6.988c-10.776-0.723-21.299,4.05-25.683,6.841c-7.244,4.616-10.803,13.379-11.651,18.107
		c-0.41,4.01-0.28,8.06,0.13,12.07c-5.5,0.35-11.18-1.19-15.45-4.75c-1.229-1.141-2.77-1.851-4.449-1.48
		c-0.614,6.975-6.22,11.023-13.396,12.742c-5.466,1.31-11.844,1.268-17.624,0.138c-8.783-1.717-13.741-7.635-18.14-15.43
		c-4.352,4.229-10.95,4.91-16.5,2.96c-4.53-1.08-8.53-3.57-11.9-6.71c-3.82,0.71-7.07,4.06-11.2,3.05
		c-3.665-0.31-7.671-1.038-10.304-3.343c-4.623-4.047-6.832-7.981-8.187-11.657c-2.521-0.38-4.572,1.126-7.541,0.13
		c-2.019-0.678-1.568-2.71-1.448-4.2c1.14-1.54,2.979-2.279,4.6-3.21c4.16-0.27,8.24,0.9,12.38,1.04
		c3.08-1.02,3.058-3.866,5.92-6.489c3.188-2.919,3.956-4.435,16.561-4.58c-0.747-0.11-0.899-6.623,7.217-12.033
		c5.228-3.482,10.522-4.867,15.668-4.729c3.646,0.1,7.215,0.965,10.626,2.393c6.636,2.777,5.841,4.136,12.169,3.836
		c3.253-0.154,5.428-1.863,8.021-3.587c1.811-7.58,6.859-14.8,14.529-17.26c8.26-2.381,17.67-2.881,25.471,1.27
		c4.649-0.43,7.891-4.39,10.801-7.71c-0.928-8.052,2.919-14.949,9.067-19.686C1266.709,397.041,1276.124,394.444,1285.08,395.7z"/>
	<path fill="#FBFBFB" fill-opacity="0.55" d="M23.042,623.193c3.325,0.353,5.372,1.232,7.658,3.727
		c2.088,2.364,5.272,3.12,7.939,4.594c5.219,2.883,8.304,8.629,10.09,14.102c0.996,3.051,2.592,5.517,4.098,8.32
		c2.103,3.916,0.415,5.399-0.297,9.386c-2.176-0.437-4.004-1.729-5.969-2.675c-1.963-0.944-4.577-0.544-6.712-0.215
		c-2.385,0.366-4.053,1.71-5.145,3.865c-1.629,3.218,0.135,4.424-3.667,5.975c-2.766,1.129-4.078,2.655-5.823,5.02
		c-1.598,2.165-5.516-1.117-7.415-2.63c-1.486-1.902-2.352-4.654-4.86-5.5c-3.289-0.643-6.672-0.26-9.93,0.358
		c-0.03-12.854,0-25.713-0.01-38.568C10.019,625.016,14.927,622.334,23.042,623.193z"/>
	<path fill="#FBFBFB" fill-opacity="0.55" d="M88.91,641.51c-8.251,4.542-13.344,13.938-8.103,22.896
		c5,8.549,16.143,13.421,25.208,9.151c4.39-2.065,8.17-6.025,8.152-11.115c-0.016-4.525-3.626-8.94-8.568-9.317
		c-3.424-0.262-8.548,0.728-8.899,4.986c-0.28,3.393,3.854,7.264,6.411,3.407c-0.914-0.757-3.672-1.221-3.535-2.81
		c0.158-1.826,2.646-2.846,4.178-2.903c3.497-0.132,7.584,2.871,7.394,6.623c-0.534,10.478-14.476,11.585-20.863,6.632
		c-4.19-3.249-8.127-6.249-8.324-12.063c-0.17-5.018,2.895-9.86,7.174-12.34c5.084-2.946,14.228-2.665,19.937-2.069
		c5.557,0.771,10.642,6.39,14.524,10.043c2.079,1.957,4.063,4.046,5.662,6.421c1.616,2.4,1.941,5.685,4.503,6.85
		c3.695,1.68,10.9,4.354,12.416,8.378c2.735,7.259,5.954,9.006,8.525,9.09c3.21,0.099,6.361,0.9,9.326,2.109
		c1.785,0.728,3.508,1.602,5.174,2.567c2.326,1.351,2.434,0.464,4.813-0.375c5.856-2.066,9.129,2.932,14.864,2.163
		c10.454-1.397,7.386,3.093,10.353,6.414c4.131,2.493,8.141,6.177,13.107,3.725c2.86-1.411,2.966-3.429,6.158-1.313
		c5.208,3.449,8.029,6.172,4.023,9.437c-1.953,1.592-2.821,0.313-5.113,0.063c-3.574-0.391-6.53,1.786-10.084,0.9
		c-3.125-0.778-5.654-1.596-8.862-0.544c-3.139,1.028-3.927,4.794-7.113,4.821c-3.846,0.031-4.801-3.423-9.024-2.652
		c-4.788,0.873-1.826,4.75-5.532,5.854c-4.001,1.191-6.478-0.001-10.396-0.2c-1.954-0.1-2.497-0.662-4.212-1.458
		c-2.042-0.944-4.326,0.34-6.426,0.538c-4.775,0.45-5.513,1.597-7.973,5.417c-2.228,3.46-2.425,5.31-7.099,5.201
		c-8.282-0.19-7.461-5.806-11.217-11.004c-3.425-4.742-1.07-7.812-5.8-12.699c-6.323-6.536-16-6-20.667,0.276
		c-2.95-5.813-9.017-10.079-15.981-9.055c-1.967,0.289-6.484,1.492-5.178,4.539c0.605,1.412,5.16-1.272,7.232-1.104
		c2.325,0.19,4.569,1.191,6.344,2.69c3.028,2.559,1.625,5.313,3.699,7.948c2.611,3.32,1.997,5.315,6.865,4.985
		c4.345-0.294,1.333-3.493,3.393-5.84c4.031-4.593,14.429,1.949,9.531,7.098c-2.259,2.374,1.613,5.665,1.427,8.914
		c-0.243,4.26-2.345,5.631-5.531,8.229c-4.544,3.706-10.876,6.206-17.14,6.596c-7.312,0.452-14.532-1.975-18.709-8.725
		c-7.57,6.448-16.486,11.22-25.87,14.44c-10.94,3.789-23.712,2.204-34.894,0.567c-4.329-0.633-8.714-1.259-13.023-1.839
		c-2.18,0.44-2.904-0.394-2.171-2.501c0.005-6.635,0.012-13.269,0.012-19.901c0-5.896-0.004-11.791-0.018-17.687
		c-0.014-5.684,9.642-5.26,13.935-5.626c9.401-0.802,18.105,2.977,20.002,12.774c2.178,11.255-5.984,18.65-16.57,19.175
		c-8.307,0.409-11.954-12.247-4.352-16.167c2.738-1.412,6.177-1.158,7.839,1.713c1.252,1.521,1.01,3.491-0.141,4.978
		c-2.657,3.431-3.822,1.529-5.779-1.188c-0.418,7.25,6.702,5.462,8.887,0.276c2.248-5.338-3.431-9.807-8.25-9.498
		c-15.684,1-10.77,23.805,3.459,23.643c7.005-0.08,12.209-3.477,16.189-9.024c4.079-5.688,4.18-11.366,2.314-17.953
		C36.27,690.066,14.805,689.715,3,694.62c0.008-6.188-0.002-12.378,0.001-18.567c0.001-2.798-1.264-6.02,1.916-6.42
		c2.83-0.355,6.911-1.338,8.844,1.226c3.142,4.165,7.879,8.595,13.698,6.741c1.277-1.928,2.029-3.687,4.309-4.025
		c2.253-0.336,4.272-1.714,5.436-3.668c1.171-1.967,0.219-3.956,2.695-4.658c2.814-0.799,5.734,0.175,8.491,0.724
		c2.212,0.834,3.667,2.785,5.49,4.181c1.976-1.781,3.475-4.104,4.333-6.617c0.686-2.01,0.961-4.178,0.644-6.285
		c-0.424-2.823,1.955-4.445,2.301-7.326c0.347-2.893,5.066-7.871,11.111-10.376C77.48,637.387,83.678,637.066,88.91,641.51z"/>
	<path fill="#FBFBFB" fill-opacity="0.55" d="M1132.823,681.336c1.837,1.216,2.601,3.65,1.997,5.734
		c2.31,2.599,4.039,5.664,5.26,8.91c-2.385,0.855-5.612,3.221-7.393,1.301c-2.219-2.393-4.964-3.237-8.103-2.185
		c-5.574,1.871-8.792,9.151-4.937,13.634c-3.977,1.358-4.258,0.577-6.715-2.395c-2.006-2.426-6.512-1.069-9.182-0.262
		c-3.85,1.164-5.858,4.23-5.587,8.286c0.356,5.338-4.509,3.868-8.637,4.147c3.413,2.465,10.193,1.984,10.396-3.134
		c0.177-4.505,1.271-7.398,6.417-7.417c3.479-0.014,3.818-1.207,5.668,1.857c1.104,1.826,2.392,3.02,4.64,2.678
		c4.659-0.71,7.623-2.346,4.799-6.496c-1.937-2.846,2.951-7.396,5.51-7.469c2.387-0.07,1.438,1.326,2.971,2.722
		c1.619,1.476,6.024,0.38,8.029,0.366c9.43-0.065,22.995,3.096,23.009,3.096c3.161-0.055,5.706-1.771,8.738-2.366
		c4.257-0.836,10.317-1.646,13.524,1.88c2.217,2.437,2.243,7.605,5.166,9.203c1.563,0.854,4.069-0.864,5.592-1.24
		c2.345-0.58,4.771-0.779,7.183-0.714c5.664,0.157,9.17,1.832,13.995,4.378c3.23,1.704,8.789,3.768,4.014,8.119
		c-4.225,3.853-4.191,0.274-11.176,1.302c-4.438,0.651-10.922,2.316-21.821,2.316c-5.519,0-10.998-0.647-16.281-2.479
		c1.745,2.271,0.542,4.949-1.49,6.52c-3.83-0.49-7.51-1.804-11.363-2.149c-1.931-0.174-3.884-0.077-5.757,0.45
		c-0.968-1.412-1.7-2.974-2.229-4.599c-1.28-3.932-1.093-5.455,1.928-8.242c1.798-1.659,4.006-2.923,6.529-2.79
		c1.38,1.248,2.679,2.602,3.73,4.141c-1.211,1.486-1.057,2.328-2.901,1.542c-4.187-1.783-1.646,4.98,1.835,3.169
		c2.426-1.263,4.518-3.298,3.617-6.244c-1.966-6.435-8.599-7.078-13.609-4.259c-7.233,4.069-6.762,10.794-3.479,17.563
		c1.646,3.396,1.688,3.953-0.533,7.163c-2.008,2.903-5.595,4.156-8.867,4.975c-8.227,2.059-16.07,3.11-24.539,3.034
		c-7.872-0.07-15.674-1.256-23.516-1.798c-5.729-0.396-14.664-0.212-14.206-8.57c0.3-5.462,7.28-6.12,8.045-12.737
		c0.807-6.972-3.808-11.296-10.231-13.38c-5.408-1.753-12.607-0.994-15.251,4.751c-2.166,4.709-0.327,11.214,5.003,12.722
		c4.025,1.14,11.493-0.415,10.961-5.994c-0.749-7.844-10.85-0.695-3.968,0.955c-2.786,2.233-9.035,1.236-8.644-3.143
		c0.489-5.444,5.406-6.579,9.998-5.299c2.066,0.576,4.002,1.606,5.663,2.961c2.636,2.147,3.499,3.91,2.402,6.891
		c-2.475,6.717-7.549,7.4-12.653,7.671c-5.251,0.277-10.502,1.254-15.768,0.649c-6.064-0.091-11.794-2.281-17.685-3.444
		c-4.924-0.973-9.651-4.381-14.464-4.772c-2.665-0.218-5.345-0.062-7.994,0.269c-2.32,0.289-7.222,2.229-9.008,0.523
		c-4.849-4.626,2.671-6.517,5.898-7.699c5.929-2.173,11.376-3.007,17.392-4.937c5.481-1.758,11.427-5.207,16.965-6.764
		c5.918-1.662,11.334,0.103,17.304-0.262c6.163-0.375,12.051-2.738,18.161-3.072c2.48-0.135,4.978-0.025,7.431,0.367
		c2.322-7.133,8.666-11.822,15.888-14.032c5.703-1.744,11.986-2.025,17.522-1.257
		C1122.348,682.396,1128.114,678.217,1132.823,681.336z"/>
	<path fill="#FBFBFB" fill-opacity="0.55" d="M555.813,393.506c5.856-1.488,12.604-1.542,18.071,1.346
		c2.232,1.18,4.102,3.208,4.792,5.667c0.616,2.195,0.887,5.621-0.91,7.341c4.158-0.821,7.072-0.67,11.227-0.038
		c9.315,1.42,12.097,5.664,12.17,5.705c3.132,1.771,6.573-1.43,10.279,1.308c1.568,1.16,2.019,2.886-0.217,3.555
		c-1.908,0.573-3.92,0.037-5.866,0.167c-1.529,0.632-2.91,1.619-4.523,2.046c-2.385,0.632-4.059-0.575-6.034-0.575
		c-2.144,0-3.844,1.087-4.629,3.575c-0.839,2.665,0.413,3.265-2.757,4.417c-2.892,1.055-6.741,0.505-9.566,0.759
		c-2.37,0.213-4.604,1.022-6.967,1.154c-2.262,0.126-4.518-0.231-6.737-0.625c1.149-3.59-3.219-6.196-5.58-7.936
		c-2.609-1.921-6.501-2.926-8.138-5.887c-4.239-7.677,6.373-11.67,12.234-11.127c3.312,0.307,6.548,0.92,6.583,4.881
		c0.243,1.397-0.141,2.957-1.114,4.007c-1.405,1.516-4.134,0.994-5.958,0.644c-1.514-0.291-3.394-1.001-1.66-2.305
		c1.602-1.204,1.997,0.352,3.156,1.066c1.481,0.912,2.199-1.153,1.921-2.254c-0.419-1.664-2.01-2.48-3.621-2.429
		c-3.104,0.104-5.82,1.64-5.565,5.093c0.322,4.375,5.771,4.951,9.26,4.832c6.998-0.237,9.383-8.659,5.688-13.942
		c-1.95-2.787-6.077-3.46-9.234-3.848c-4.166-0.51-7.971,1.09-11.653,2.884c-6.718,3.271-7.484,11.93-2.74,17.219
		c0.896,0.999,1.936,1.871,3.07,2.586c-1.588,0.009-2.641-0.3-3.999,0.722c-1.141,0.858-1.722,2.087-2.629,3.146
		c-1.904,2.223-4.824,3.719-7.797,3.437c-1.499-0.142-2.988-1.108-4.427-1.582c-1.843-0.604-3.732-1.278-5.622-1.711
		c-3.258-0.745-6.584-0.431-9.592-2.113c-0.955-0.534-1.854-1.261-2.271-2.306c-0.736-1.843,0.092-2.621,0.581-4.341
		c0.451-1.604,0.038-3.263-0.354-4.83c-0.411-1.641-2.924-2.203-2.838-3.604c0.09-1.482-1.679-1.302-2.817-1.361
		c-1.548-0.082-2.561-1.82-4.251-2.102c-1.705-0.282-3.431-0.532-5.164-0.463c-1.876-0.104-3.497,0.984-5.194,1.594
		c-1.47-2.692,3.153-4.742,5.091-4.982c3.475-0.431,6.059,0.875,9.321,1.522c2.88,0.57,5.11-2.923,7.889-0.932
		c1.198,0.429,1.452,1.724,1.957,2.734c0.595,1.192,2.263,1.265,3.507,1.604c3.53,0.963,6.422-0.625,7.977-3.724
		c1.001-1.941,5.864-3.168,7.793-3.631c2.015-0.483,4.07-0.455,6.126-0.401c6.795,0.176,5.24-0.876,7.331-2.905
		C552.698,395.313,554.262,394.396,555.813,393.506C561.259,392.122,554.015,394.538,555.813,393.506z"/>
	<path fill="#FBFBFB" d="M314,68.5"/>
</g>
<g id="CityFar">
	<path fill="#513C5F" d="M523.89,353.78c9.49,9.16,22.091,13.64,33.92,18.85c30.811,12.94,61.79,25.62,93.73,35.54
		c21.59,6.15,43.45,11.37,65.47,15.75c8.748,1.825,17.462,3.928,26.317,5.119c2.159,0.29,5.34,0.461,6.503,0.691
		c-0.33,1.604-3.285,1.95-6.177,1.983c-21.221,0.252-42.433,1.304-63.653,1.996c1.799,23.547,2.104,36.944,5.179,82.543
		c6.134,90.909,3.376,52.003,9.432,105.737c12.029,6.85,25.58,10.02,38.609,14.31c40.443,12.054,61.494,17.308,112.65,22.812
		c2.82,0.278,5.83,0.488,8.14,2.37c-13.72,1.89-27.63,1.118-41.41,2.449c1.961,18.521,3.37,37.089,5.44,55.601
		c2.12,18.62,3.1,37.35,5.7,55.909c12.049-0.035,23.486-1.421,50.259-1.991c59.092-1.266,69.537,0.953,81.521-0.578
		c2.131,11.729,2.28,23.71,3.75,35.53c16.94,1.59,34.03,2.55,50.65,6.448c1.28-9.938,2.271-19.919,3.859-29.818
		c1.569-11.721,3.979-23.45,3.351-35.341c-2.648,1.329-5.09,3.271-8.061,3.829c-1.891-1.028-2.919-3.02-4.22-4.618
		c-3.53,1.569-6.899,3.868-10.87,4.1c-3.88,0.42-7.4-2.35-9.15-5.61c-1.229-2.3,0.61-4.488,1.46-6.54
		c1.53-2.618,1.2-5.738,1.37-8.64c-4.41,1.88-8.771,4.4-13.66,4.67c-4.062,0.084-7.628-1.866-10.662-4.439
		c-2.349-1.991-7.013-6.352-4.498-8.141c2.141-1.28,4.62-1.84,6.95-2.688c-2.665-5.303-5.896-7.82-4.41-15.73
		c1.79-2.819,4.87-4.648,6.301-7.729c0.68-2.04-1.83-3.15-2.75-4.66c-3.512-3.707-3.888-9.063-2.112-13.615
		c1.485-3.812,4.479-7.063,8.401-8.313c2.66-0.881,3.82-3.58,5.44-5.631c1.771-2.801,5.8-1.689,8.17-3.561
		c1.232-3.109,1.013-6.829,1.838-10.076c1.081-4.251,4.35-7.284,9.396-7.284c7.119,0,7.721,1.209,9.936,2.521
		c2.21-2.22,3.588-6.636,6.72-6.57c4.61,0.097,5.9,7.64,10.301,9.45c4-0.16,5.881-5.229,9.869-5.76
		c3.23-0.36,7.262,0.76,8.721,3.938c0.74,3.79-0.17,7.66-0.909,11.392c2.56,2.158,5.64,4.63,9.25,3.5
		c3.06-0.19,7.72-2.102,9.33,1.648c2.27,6.141,0.688,12.76,0.329,19.091c2.811,0.029,6.66-1.819,8.701,0.97
		c2.858,3.891,4.686,9.125,3.26,13.971c-1.765,5.99-5.189,9.939-9.551,12.72c2.261,3.82,5.029,7.311,7.511,10.98
		c0.729,3.47-0.48,7.13-1.96,10.278c-1.9,4.15-6.87,5.021-10,7.932c-1.892,1.188-3.642,3.84-6.142,3.09
		c-2.56-2.971-4.89-6.4-9.1-6.979c-0.2,3.899,1.85,9.659-2.69,11.76c-4.158,1.671-9.068,4.311-13.31,1.479
		c-0.82,22.75-1.05,45.521-1.63,68.271c8.938,3.021,17.88,6.051,26.729,9.33c18.73,5.851,36.98,13.149,55.69,19.091
		c8.77,2.238,17.739,3.898,26.819,4.12c11.721,0.52,23.359-1.301,34.851-3.4c-0.62-5.78-1.08-11.58-1.34-17.38
		c-2.091-27.22-5-54.381-6.58-81.641c-17.649,0.676-35.253,2.165-52.874,3.321c-15.15,0.994-13.068,1.354-15.716-1.4
		c5.51-1.45,11.21-1.95,16.75-3.271c21.17-4.79,41.92-11.229,62.42-18.3c28.153-12.467,56.53-22.075,78.46-37.55
		c-2.78-31.96-4.96-63.972-7.551-95.94c-25.129,1.812-50.189,4.43-75.329,6.021c-1.94,0.12-3.9,0.229-5.771-0.3
		c-0.487-1.899,0.462-1.895,4.527-3.008c7.514-2.055,39.83-9.367,74.438-18.969c37.732-10.467,61.173-18.398,84.25-27.479
		c21.829-8.588,43.334-18.203,76.307-31.966c28.229,9.2,56.489,18.33,85.229,25.83c29.88,8.22,60.13,15.22,90.79,19.86
		c22.796,3.748,58.075,8.718,63.69,9.436c3.285,0.42,6.573,0.811,9.869,1.154c-2.939,2.439-6.921,1.27-10.391,1.689
		c-20.359,1.311-40.71,2.601-61.05,4.041c1.57,23.789,2.42,47.608,4.16,71.39c13.1,3.311,26.449,6.05,40,6.47
		c23.39,1.03,46.79,2.021,70.199,2.5c-6-38.59-11.939-77.188-18.391-115.71c-4.398-23.51-9.3-46.93-15.079-70.14
		c-18.054,2.794-35.974,6.386-54.002,9.309c-14.739,2.391-7.946,1.282-11.979-1.159c3.37-1.84,6.858-3.46,10.399-4.96
		c14.239-5.899,28.239-12.449,41.471-20.399c20.148-11.91,40.238-24.05,58.96-38.13c13.77-11.061,26.58-23.29,38.909-35.92
		c4.589,2.095,41.818,14.122,46.475,15.639c20.674,6.733,41.407,13.281,62.396,18.98c14.664,4.17,60.176,11.584,61.189,11.771
		c6.08,1.17,12.399,1.47,18.25,3.68c-1.99,1.57-4.29,2.69-6.78,3.09c-21.608,4.271-43.16,8.79-64.78,13.021
		c11.32,49.42,23.012,98.76,34.73,148.09c10.511,43.729,20.92,87.5,32.689,130.91c10.711,41.021,22.311,81.8,33.079,122.8
		c13-1.891,26.052-3.45,39.182-4.21v276.5H0V849.061c12.355,0.211,24.684,0.991,37.004,1.898
		c24.408,1.795,25.225,1.834,31.226,3.031c9.26-32.9,18.31-65.852,27.11-98.87c2.439-10.83,5.86-21.439,7.27-32.47
		c3.27-17.091,5.08-34.392,7.31-51.62c-16.68-2.22-33.41-3.95-50.07-6.341c-5.2-0.92-10.8-0.561-15.56-3.159
		c13.35-3.311,27.21-4.04,40.64-7c25.661-5.4,50.541-13.91,75.23-22.65c15.78-5.54,30.331-13.97,44.62-22.55
		c7.62,8.04,17.22,13.75,26.23,20.06c25.18,16.98,50.6,33.801,77.97,47.092c12.31,6.489,25.15,11.908,37.41,18.489
		c-5.25,2.311-10.899-0.061-16.29-0.511c-18.32-2.07-36.45-5.55-54.79-7.479c-0.91,16.14-2.2,32.26-3.26,48.39
		c15.134,5.712,23.577,8.513,37.989,11.468c5.89,1.207,39.345,7.837,53.88,8.715c8.647,0.524,17.336,0.58,25.941,1.519
		c-2.313,2.719-3.972,2.296-23.398,6.732c-9.667,2.208-19.31,4.525-29.001,6.606c7.89,31.8,15.86,63.58,23.36,95.47
		c12.47-2.49,24.95-4.92,37.49-7.029c-5.34-104.968-0.219-25.937-8.79-175.38c-0.399-10.614-8.594-157.998-8.66-159
		c-1.34-25.55-3.26-51.08-4.14-76.659c-23.59,0.89-47.15,2.3-70.73,3.329c-2.67-0.04-5.78,0.49-7.851-1.619
		c2.99-2.591,7.25-2.271,10.87-3.311c19.79-4.74,39.65-9.38,58.97-15.83c19.416-5.932,53.922-20.917,76.02-32.046
		C452.381,394.112,516.122,359.107,523.89,353.78z"/>
</g>
<g id="CityClose">
	<path fill="#0D0A13" stroke="#000000" stroke-width="0.1" stroke-miterlimit="10" d="M479.117,895.679
		c-3.985-0.639-8.012-0.927-12.097-0.606c-4.6,0.281-9.02,1.671-13.36,3.091c-1.909-19.521-3.88-39.061-4.56-58.67
		c-2.07-35.91-4.74-71.78-6.47-107.71c10.007-0.063,20.014-0.189,30.021-0.278v-10.563c-11.182-1.233-21.899-2.68-32.42-4.389
		c-30.415-4.945-59.236-12.076-93.251-22.515c-10.309-3.164-16.25-4.744-37.84-15.854c-8.83-29.591-17.91-59.161-24.44-89.36
		c-2.22-8.71-3.61-17.59-5.65-26.33c10.38-3.02,20.87-5.63,31.33-8.38c4.681-1.47,9.811-2,13.931-4.89
		c-4.76-0.45-9.53,0.01-14.28,0.18c-10.429,0.449-20.914,0.578-31.328-0.198c-19.766-1.471-48.99-8.748-68.122-14.23
		c-9.43-3.38-19.09-6.41-27.85-11.37c-5.55,9.04-12.43,17.18-19.11,25.39c-10.63,13.09-23.38,24.32-37.11,34.05
		c-13.1,9.36-26.78,17.96-41.37,24.811c-3.81,1.761-7.72,3.431-11.05,6.04c5.58,0.561,10.7-2.249,15.99-3.521
		c9.88-2.66,19.7-5.53,29.53-8.37c4.458,17.754,9.358,35.391,13.776,53.16c0.042,0.167,0.083,0.334,0.124,0.5
		c1.36,5.609,3.38,11.07,4.27,16.79c0.373,1.208-1.406,4.077-4.214,7.561c-5.563,6.898-15.162,16.202-20.061,19.762
		c-9.042,6.566-12.471,5.898-18.475,9.738c0.64,2.211,2.99,0.869,4.44,0.641c5.31-1.72,10.54-3.68,15.87-5.352
		c1.605,6.218,3.116,12.457,4.629,18.695h6.583c-1.514-6.704-3.022-13.408-4.662-20.085c7.29-2.62,14.69-4.93,22.08-7.271
		c3.36,14,4.96,28.341,7.65,42.471c-6.75,1.8-13.44,3.898-20.31,5.229c-1.685-6.76-3.224-13.547-4.756-20.335h-6.582
		c1.869,7.706,3.743,15.412,5.798,23.075c-16.33,4.8-32.56,9.95-48.77,15.13C51.75,768.03,25.74,770.2,0,773.6v1.07
		c21.05-1.96,42.12-4.16,62.92-8.03c1.88,0.86,3.88,2,6.02,1.32c16.26-3.39,32.58-6.529,48.7-10.58
		c3.07,14.801,6.72,29.49,9.19,44.41c4.03,20.729,6.67,41.689,10.34,62.49c-4.15-3.061-9.3-3.561-14.12-4.842
		c-2.09-2.77-1.32-6.688-1.17-9.93c0.3-4.449,5.21-5.99,7.62-9.13c-1.28-3.05-4.47-5.26-4.27-8.85
		c-0.02-4.262-2.06-8.892-6.23-10.512c-3.87-0.5-6.15,3.57-8.99,5.562c-1.93-3.642-2.06-7.84-3.55-11.59
		c-2.11-1.16-4.66-0.71-6.93-1.29c-2.09-2.391-2.63-5.94-5.34-7.78c-1.6,1.37-2.91,3.051-4.56,4.391
		c-2.98,0.569-7.8-1.291-9.07,2.579c-0.922,5.795,0.719,9.174,1.338,12.21c0.507,2.487,0.327,4.744-2.508,7.91
		c-3.05-1.66-5.95-3.68-9.29-4.69c-3.23,1.262-4.89,5.771-2.58,8.57c2.2,3.15,3.91,6.93,2.72,10.841
		c-2.561,0.279-5.28-0.609-7.74,0.25c-3.66,3.971-2.8,11.25,1.97,14.029c3.41,2.68,7.68,0.2,11.26-0.75c0,3.37,0.24,6.76-0.19,10.12
		c-0.21,2.189-2.73,2.89-4.18,4.16c-1.32-1.83-2.05-4.34-4.21-5.391c-4.55,0.919-9.04,3.859-10.44,8.489
		c2.64,4.03,9.03,5.24,9.56,10.7c-2.03,2.07-5.47,3.18-5.92,6.43c-0.47,2.44-0.63,5.99,2.06,7.23c2.85,0.311,5.97-0.99,8.57,0.7
		c3.22,1.89,7.08,1.3,10.64,1.88c-2.88,2.51-7.48,4.58-7.7,8.89c1.75,3.88,5.06,7.461,9.21,8.74c4.28,1.221,6.38-3.649,8.91-6.09
		c3.64,2.109,7.58,3.92,11.91,3.659c0.283,1.205,4.949,23.291,6.985,34.716h8.21c-1.751-8.419-3.953-16.741-5.485-25.205
		c-0.6-3.32-1.38-6.62-2.27-9.87c3.54,0.41,2.38-3.12,2.58-5.311c1.92-0.869,3.86-2.13,6.06-1.93c2.47,1.009,4.52,2.8,6.98,3.85
		c3.62-0.521,6.561-4.039,6.94-7.561c-0.42-5.17-6.28-6.689-9.24-10.15c0.95-2.619,4.2-1.709,5.95-0.479
		c3.96,2.82,8.581-0.33,11.89-2.7c2.03,19.461,5.85,38.69,8.07,58.13c-10.17,2.07-20.4,3.8-30.54,5.971
		c-0.288-1.582-0.605-3.159-0.933-4.734h-8.21c0.612,3.434,0.989,5.913,0.933,6.556c-15.33,4.851-30.96,8.72-46.72,11.959
		c-7.33-35.089-15.16-70.08-22.68-105.14c-0.854-4.972-8.88-37.162-9.05-68.37c-0.06-5.12,1.08-12.26,4.03-14.449
		c2.56,0.819,6.67,3.939,8.41,0.3c1.95-2.109-0.41-4.409-2.29-5.399c-3.85-2.58-8.86-0.63-12.021,2.16
		c-3.83,4.09-5.49,9.698-5.97,15.18c-3.01-5.75-8.41-10.11-14.63-11.91c-3.22-0.93-6.64,0.86-8.8,3.19
		c-1.07,1.154-1.433,2.799-1.304,4.43c0.139,1.762,2.245,3.535,3.247,2.586c1.546-1.467,3.536-3.531,3.807-3.725
		c4.441,0.447,8.601,3.169,10.441,7.299c8.63,16.62,11.05,35.46,15.04,53.52c8.07,40.631,16.01,81.28,24.43,121.842
		c-8.98,0.47-18.32,1.479-26.97-1.642c-9.94-3.35-20.5-3.739-30.84-4.88v78.33c29.99-0.5,59.99-0.08,89.98-0.22
		c129.712,0,259.425,0,389.137,0V895.679z"/>
	<path fill="#0D0A13" stroke="#000000" stroke-width="0.1" stroke-miterlimit="10" d="M1573.451,993.011
		c-3.535-0.486-7.07-0.963-10.613-1.396c0.002-1.701,0.014-3.403,0.022-5.104h-6.303c0.071,2.085,0.191,4.17,0.3,6.264
		c-4-0.47-8.011-0.85-12.011-1.188c-0.08-30.47-0.59-60.94-1.01-91.399c3.938,0.859,7.92,1.561,11.9,2.3
		c0.02,27.021,0.479,54.029,0.76,81.051c0,0.767,0.013,2.13,0.033,2.896h6.332c0.126-27.19,0.889-54.973,1.085-82.156
		c4.666,0.472,9.363,0.563,14.046,0.879v-9.972c-4.825-0.961-9.644-1.965-14.478-2.877c-0.011-4.043-0.007-8.085-0.008-12.127
		h-8.399c-0.016,3.735-0.034,7.472-0.071,11.207c-56.118-14.428-60.823-14.646-70.37-18.569c0.171-3.322,0.34-6.646,0.509-9.972
		h-8.604c-0.02,2.271-0.037,4.541-0.047,6.813c-13.528-4.962-26.328-11.591-39.438-17.49c-0.83-9.03-0.189-18.11,0.061-27.16
		c1.505,0.182,3.01,0.376,4.513,0.574v-1.737c-1.509-0.229-3.018-0.447-4.522-0.687c0.22-12.57,1.15-25.11,1.39-37.671
		c13,1.601,26,3.221,39.012,4.75c-0.25,12.909-0.301,25.811-0.602,38.709c-11.748-1.771-23.524-3.314-35.268-5.101v1.736
		c11.785,1.557,23.514,3.562,35.298,5.175c-0.147,10.695-0.312,21.39-0.395,32.079h8.604c0.523-10.296,1.046-20.593,1.62-30.879
		c10.936,1.159,21.888,2.235,32.863,2.94v-1.789c-10.92-0.624-21.82-1.613-32.684-2.821c0.729-13.28,1.459-26.561,2.289-39.83
		c11.08,0.33,22.142,2.06,33.221,1.618c0.761-1.688-1.301-2.06-2.409-2.528c-39.57-10.41-78.892-22.05-116.95-37.15
		c-15.78-6.13-31.62-12.31-46.55-20.329c-13.812-7.811-25.7-18.471-37.38-29.09c-36.2,17.93-72.541,36.219-111.471,47.561
		c-21.17,6.33-42.801,11.408-64.761,14.039c-11.93,1.54-23.92,2.65-35.92,3.479c-3.931,0.33-7.989,0.131-11.76,1.47
		c1.14,2.12,3.76,1.682,5.779,1.961c25.899,1.119,51.811,2.261,77.71,3.471c0.359,14.148,0.021,28.3,0.409,42.449
		c-20.659,1.789-41.39,2.789-62.129,3.101c-20.417,0.285-40.8-1.039-61.095-3.211c-5.358-0.573-34.156-4.035-44.961-5.763v1.815
		c14.701,2.029,29.431,3.981,44.195,5.552c17.556,1.867,35.16,3.197,52.829,3.485c23.79,0.21,47.511-1.771,71.229-3.09
		c-0.05,17.59,0.229,35.181,0.41,52.771c-12.242,8.146-24.668,16.314-37.99,22.59c-15.851,7.469-31.595,11.21-39.02,13.561
		c-10.041,3.13-20.472,4.71-30.642,7.358c0.19,0.461,0.57,1.382,0.761,1.842c15.42,0.17,30.84,0.399,46.261,0.42
		c-0.067,10.778-0.127,21.559,0.028,32.332l12.17,0.001c0.051-10.657,0.068-21.318-0.05-31.975c15.94,0.08,31.871,0.762,47.82,0.741
		c0.069,13.1,0.35,26.199,0.29,39.31c-16.021-1.069-32.05-1.619-48.09-2.029c0.011-2.013,0.021-4.024,0.029-6.037l-12.171-0.001
		c0.029,2.036,0.054,4.072,0.102,6.107c-15.75,0.4-31.53,0.721-47.25,1.739c-0.062,5.44,0.141,10.881,0.42,16.32
		c-7.101-1.08-14.189-2.22-21.271-3.391c1.09-8.92,1.609-17.939,3.319-26.779c-14.55-1.739-28.84-5.359-43.439-6.58
		c-0.54,8.87-0.851,17.76-2.05,26.58c-1.819-0.45-3.601-0.852-5.391-1.28c-1.24-2-2.21-4.47-4.53-5.399
		c-3.27-1.33-6.77-1.949-10.2-2.641c-5.52-0.669-10.81-3.609-16.46-1.97c0.8-1.21,1.61-2.41,2.431-3.61
		c-2.711-3.68-7.7-1.789-11.53-1.959c0.024-6.046,0.045-12.093,0.052-18.139h-7.527c0,6.454-0.048,12.908-0.295,19.357
		c-3.199-0.961-6.3-2.399-9.64-2.699c-0.36,0.449-1.08,1.351-1.44,1.8c-1.88-0.33-3.75-0.66-5.609-0.979
		c-0.31-5.827-0.244-11.652-0.063-17.479h-7.686c-0.145,5.79-0.31,11.58-0.521,17.368c-4.872-0.454-9.733-1.005-14.598-1.526
		v102.101c219.189,0,438.378,0,657.567,0V993.011z"/>
	<path fill="#0D0A13" stroke="#000000" stroke-width="0.1" stroke-miterlimit="10" d="M1846.784,991.59
		c-4.1-0.229-8.375-0.495-9.585-0.618c-0.976-0.099-11.169-0.68-11.309-1.338c0.58-11.391,0.44-22.801,0.092-34.19
		c-0.182-2.229-0.262-5.301-2.74-6.209c-4.29-1.17-8.79-1.102-13.181-1.42c-0.108-1.324-0.191-2.648-0.266-3.973h-5.813
		c0.072,1.394,0.151,2.786,0.238,4.182c-8.988-0.459-18,0.131-26.979-0.45c0.029-5.3,0.05-10.601-0.04-15.899
		c8.829,1.28,17.67,2.5,26.489,3.892c0.032,2.755,0.146,5.511,0.291,8.269h5.813c-0.154-2.782-0.247-5.563-0.335-8.339
		c9.939,1.608,19.939,2.77,29.87,4.479c2.621,0.452,1.238-3.771-1.349-4.1c-8.872-2-17.843-3.78-26.473-6.689
		c-13.25-5.74-25.96-13.631-35.31-24.801c0.85-47.64,3.5-95.21,5.568-142.81c1.404,0.353,2.816,0.67,4.228,0.996v-1.744
		c-1.362-0.332-2.724-0.674-4.076-1.042c1.83-42.642,2.7-85.311,2.54-127.99c26.59,0.431,53.2,1.41,79.8,1.56
		c-0.06-0.398-0.189-1.21-0.25-1.618c-12.59-2.82-25.5-3.98-38.09-6.801c-17.92-3.541-35.641-8.101-52.83-14.279
		c-19.91-6.86-39.38-15.12-57.64-25.62c-5.55-2.811-10.602-6.591-16.312-9.03c-17.738,7.15-35.31,14.82-53.29,21.41
		c-27.938,11.278-57.53,17.561-87.08,22.899c-8.778,1.5-17.75,1.17-26.538,2.359c-0.121,0.46-0.352,1.4-0.462,1.87
		c3.312,0.96,6.791,0.94,10.222,1.141c16.85,0.669,33.688,1.739,50.56,2.149c-0.92,62.101-1.35,124.21-2.319,186.31
		c-6.051,5.38-12.511,10.37-19.711,14.12c-4.039,2.03-7.8,5.301-12.55,5.271c-9.407,0.389-18.817,0.37-28.22,0.042
		c-3.36-0.117-6.72-0.277-10.077-0.47v1.789c3.114,0.2,6.229,0.375,9.347,0.509c9.352,0.368,18.711-0.012,28.07,0.25
		c-7.17,3.8-15.14,5.52-22.68,8.34c-0.271,0.39-0.82,1.17-1.092,1.56c1.602,1.34,3.75,1.09,5.73,1.19
		c5.511,0.09,11.03-0.04,16.561,0.16c-0.427,11.075-0.449,22.169-0.497,33.263h8.398c-0.004-10.924,0.007-21.846-0.021-32.763
		c7.449,0.419,14.91,0.51,22.358,0.788c-0.608,16.102-0.648,32.222-0.88,48.33c-2.324-0.425-4.646-0.879-6.964-1.341v9.972
		c2.277,0.153,4.551,0.355,6.813,0.689c0.189,24.88,0.649,49.78,0.921,74.67c-0.08,4.75-0.011,9.5,0.369,14.24
		c-4.189-0.562-8.372-1.152-12.558-1.729v54.096c36.166,0,72.333,0,108.499,0c54.909,0.042,109.822,0.002,164.734-0.011V991.59z"/>
	<path fill="#0D0A13" stroke="#000000" stroke-width="0.1" stroke-miterlimit="10" d="M1957.252,776.189
		c14.266-0.133,28.526-0.495,42.748-1.659v-1c-13.66,0.58-27.33,0.55-40.971,1.239c-14.909,0.3-29.811,0.101-44.71,0.25
		c3.741-3.989,6.439-8.789,8.261-13.931c1.55-4.479,4.239-8.74,4.439-13.569c-0.779-3.869-4.351-6.989-8.069-7.949
		c-3.53-0.021-6.57,2.25-9.75,3.49c-3.24-1.9-6.8-3.102-10.12-4.78c-2.35-1.22-2.61-4.12-3.28-6.37
		c2.979-2.61,7.979-4.641,7.69-9.32c-0.26-3.35,0.279-7.108-1.421-10.108c-5.25-3.69-12.089-2.062-18.079-2.45
		c-2.7-0.25-6.392,0.068-7.87-2.71c-1.79-3.67,1.06-7.302,1.739-10.891c0.66-2.671,1.451-6.831-1.899-8
		c-4.61,0.021-9,1.79-13.601,1.819c-0.821,0.006-1.859-8.75-5.561-9.05c-3.047-0.247-2.29,4.16-3.28,6.31
		c-3.909,1.01-8.688,2.61-9.778,7.03c0.869,4.229,2.948,8.399,1.828,12.85c-0.52,4.591-5.898,5.8-9.648,6.5
		c-3.68,0.82-8.58-2.278-11.141,1.49c-3.239,4.45-1.091,10.16-0.899,15.15c0.71,4.279-3.08,7.67-2.91,11.84
		c1.9,4.04,6.11,6.41,8.271,10.351c-2.18,1.399-4.351,3.859-7.18,3.239c-3.791-0.61-8.051-2.36-11.58-0.021
		c-3.411,1.811-2.529,6.24-2.649,9.431c-7.282-1.472-14.605-2.787-21.824-4.545v1.743c7.228,1.668,14.526,3.047,21.805,4.552
		c3.561,0.67,6.789,3.2,7.979,6.689c1.42,4.061,2.42,8.271,4.199,12.221c-2.851-0.471-6.25-1.55-8.569,0.8
		c-3.75,2.45-3.59,7.38-2.892,11.27c0.642,0.852,1.472,1.562,2.271,2.331c2.74-0.641,5.74-1.391,8.17,0.579
		c-3.159,2.07-7.2,5.09-6.4,9.392c1.991,5.63,5,11.029,5.172,17.169c-1.552,0.86-2.95,2.141-4.722,2.421
		c-2.26-1.09-4.278-3.431-7.01-2.73c-2.88-0.05-5.439,2.311-5.319,5.24c0.449,4.28,2,9.221,6.189,11.21
		c3.3,1.102,6.931,0.49,10.26,1.561c3.012,2.41,2.48,7.141-0.279,9.55c-1.899,0.529-4.3,0.319-5.591,2.021
		c-1.898,2.58-3,6.49-0.76,9.221c3.26,3.819,7.46,6.841,12.04,8.909c3.03,1.381,6.87-0.31,9.42,2.341
		c-1.55,3.171-3.35,6.229-4.55,9.551c-0.82,1.959,0.96,3.819,2.562,4.739c3.158,1.631,6.81,1.669,10.209,2.631
		c6.271,1.51,12.729,4.648,19.211,2.158c0.858,9.472-0.062,18.98-0.24,28.472c-0.93,22.39-2.7,44.72-3.801,67.1
		c-0.003,0.07-4.126-0.126-8.478-0.367v55.514c51.04-0.012,102.079,0.001,153.116,0.131v-77.802c-3.17,0.421-6.32,0.961-9.41,1.722
		c1.891-4.771-2.771-8.729-6.7-10.351c-2.359,0.209-4.13,2.271-6.14,3.359c-2.17-1.97-3.52-4.54-4.61-7.189
		c-0.77-2.08-3.319-2.33-5.188-2.279c-3.61-0.062-6.66,2.1-9.421,4.14c-1.46-1.37-2.811-2.88-4.521-3.89
		c-3.17-0.29-6.55,0.659-9.09,2.55c-2.27,2.649-1.63,6.5-2.13,9.74c-4.943-0.166-10.257,0.054-10.03,3.939
		c1.431,2.369,3.03,4.659,4.79,6.839c0.13,1.24,0.3,2.5,0.49,3.771c-3.03,0.16-6.521-0.41-8.979,1.729
		c-1.671,2.161-0.221,5.74-2.511,7.602c-1.92,2.068-4.729,3.561-5.67,6.37c-0.729,2.778,1.521,4.92,3.521,6.439
		c-9.521,1.109-18.91,3.229-28.472,3.909c-9.109,0.6-17.819-2.79-26.109-6.12c-2.431-1.14-5.779-2.26-6.189-5.31
		c-0.96-7.29,0.12-14.63,0.37-21.92c1.08-25.422,1.931-50.852,3.23-76.261c1.85,2.181,3.339,5.971,6.738,5.709
		c3.313-1.156,7.828-1.639,10.872-3.152c3.633-1.809-1.983-7.271-1.452-7.576c2.551-1.47,4.891-3.279,7.21-5.101
		c3.271-2.641,7.36-3.921,10.84-6.25c1.041-0.71,2.462-1.841,1.83-3.291c-1.3-4.028-6.16-7.25-4.188-11.908
		c1.54-3.301,5.449-0.92,7.84,0.09c3.26,2.25,6.85,4.89,11.1,3.71c3.271-0.24,3.98-3.899,5.94-5.87c2.46-1.83,5.92-2.96,7.021-6.119
		c0.459-2.891-0.461-7.16-3.771-7.831c-2.09,0.74-4.021,1.87-5.99,2.831c0.543-0.265,1.266-9.148,0.618-9.683
		c-2.125-1.721-4.881-2.209-7.368-3.059c3.86-6.239,0.47-13.479,1.521-20.189c1.328-3.141,4.14-5.4,5.438-8.58
		c1.19-2.97,2.51-6.08,2.39-9.33c-0.778-4.061-4.509-6.35-7.818-8.21c0.4-1.699,0.811-3.39,1.26-5.07
		c-1.74-1.619-3.79-2.938-5.14-4.89c-1.052-2.37-0.841-5.04-1.04-7.55C1916.351,775.714,1915.734,776.577,1957.252,776.189z"/>
	<path fill="#0D0A13" stroke="#000000" stroke-width="0.1" stroke-miterlimit="10" d="M970.012,896.435
		c1.431-0.985,1.401-2.475,1.125-4.052h-17.042c0.154,1.661,0.254,3.329,0.304,5.001c-7.45-3.37-15.2-6.08-22.4-9.97
		c-9.26-4.75-18.09-10.301-26.689-16.16c-9.33-6.48-17.48-14.49-25.271-22.71c-0.409-21.4,0.341-42.79,1.49-64.15
		c12.081,3.694,24.248,7.106,36.456,10.368v-1.704c-0.182-0.048-0.364-0.098-0.545-0.144c-11.92-3.421-23.93-6.521-35.75-10.29
		c1.03-19.432,2.07-38.86,3.1-58.29c14.226,0.824,29.063,0.164,43.196,2.415v-6.073c-17.457-6.438-34.407-14.18-51.315-21.922
		c-24.5-11.271-47.71-25.13-70.029-40.21c-0.13-7.551-0.12-15.091-0.351-22.63c9.12-0.62,18.38,0.3,27.38-1.53
		c-2.829-0.86-5.789-1.061-8.72-0.891c-6.22,0.29-12.439,0.521-18.66,0.641c0-4.979-0.069-9.96-0.189-14.94
		c5.58-0.43,11.38,0.182,16.74-1.779c-5.551-1.061-11.181-0.069-16.75,0.062c-0.051-5.011-0.24-10.011-0.61-15
		c3.86-0.16,7.77-0.261,11.58-1.08c-3.78-1.391-7.84-0.811-11.74-0.681c-0.3-6.41-0.859-12.801-1.33-19.2
		c-0.06-1.891-0.649-3.689-1.83-5.17c-0.16,8.141,1.021,16.239,1.521,24.359c-3.62-0.199-7.26-0.319-10.86,0.021
		c3.43,1.579,7.271,1.579,10.98,1.779c0.17,5.01,0.37,10.029,0.54,15.061c-5.471,0.14-10.931-0.44-16.391-0.09
		c4.99,2.789,10.97,1.739,16.44,1.93c0.07,4.93,0.149,9.869,0.27,14.811c-5.229,0.069-10.47-0.051-15.67-0.649
		c-4.189-0.33-8.479-1.38-12.63-0.2c9.22,2.37,18.86,2.57,28.34,2.57c0,7.148,0.07,14.3,0.15,21.449
		c-21.18-14.516-42.833-28.436-63.294-43.96c-11.829-8.975-20.607-16.597-26.756-21.359c-27.54,23.379-55.351,47.16-87.76,63.62
		c-23.522,12.417-67.003,32.471-90.231,40.172c-4.773,1.583-25.539,7.585-32.639,9.058c-3.421,0.689-6.801,1.57-10.03,2.891
		c4.08,1.739,8.58,1.399,12.91,1.729c10.31,0.479,20.62,1.229,30.939,1.59c0.32,4.87,0.49,9.761,0.8,14.641
		c-24.625-1.095-46.126-2.615-66.128-4.821v10.563c10.791-0.099,21.583-0.15,32.378-0.031c1.671,4.5,1.07,9.369-0.75,13.739
		c-4.47-0.561-8.85-2.07-13.38-1.95c-3.8,0.45-2.41,5.28-2.62,7.88c-1.532-0.862-4.27-3.276-5.396-1.512
		c-0.931,1.46,0.99,4.085,1.617,5.305c1.891,3.677,6.75,2.668,9.988,4.188c2.261,2.29,1.62,5.812,1.601,8.721
		c-3.37-0.32-6.771-0.301-10.09-0.891c-1.857-0.846-3.377-3.182-5.359-3.638c-2.612-0.603-2.098,1.048-2.171,3.396
		c-1.52-1.67-2.7-4.39-5.38-4.14c-3.743,0.098-12.739,3.486-10.953,8.514c0.136,0.386,2.306,3.558,2.283,3.576
		c-1.101,0.93-2.25,1.812-3.21,2.9c0.25,4.64,2.25,9.039,4.6,12.979c2.13,3.779,6.811,4.12,10.53,5.32
		c-2.95,4.75-9.46,2.34-14.01,2.939c-2.521,2.05-2.25,5.819-1.061,8.539c1.61,1.051,3.47,1.671,5.11,2.711
		c1.649,2.14,2.46,4.811,4.149,6.949c1.46,1.069,3.19-0.25,4.721-0.51c3.649,2.91,6.72,6.449,9.399,10.26
		c1.88,3.319,6.24,2.78,8.91,5.11c-2.01,2.17-5.47,4.239-4.58,7.739c1.061,5.371,6.78,7.189,10.78,9.931
		c-0.281,10.887-0.031,21.772,0.658,32.632h6.959c-1.131-14.532-0.396-22.651-0.768-33.262c2.141,1.55,4.271,4.47,7.28,3.63
		c3.22-1.54,5.09-4.79,5.88-8.149c-0.788,3.353,11.489,7.158,9.559-0.911c-0.751-3.137-2.249-6.014-3.368-9.01
		c5.649-0.329,10.47-3.488,15.54-5.641c0.38,28.491,0.739,56.98,1.02,85.48c-11.149-3.931-22.21-8.119-33.399-11.931
		c-0.399-6.745-1.218-13.463-1.742-20.197h-6.96c0.415,6.533,0.988,13.059,1.702,19.567c-7.529-2.183-15.139-4.79-22.914-6.048
		v151.425c145.522,0,291.045,0,436.567,0V945.009c-6.256-0.671-12.515-1.292-18.803-1.583c-5.35-0.28-10.699-0.58-16.029-1.061
		c0.29-16.449,0.96-32.91,0.97-49.359c16.35,3.811,32.99,5.949,49.56,8.59c-0.092,9.188-0.25,18.381-0.479,27.572h7.686
		c0.271-8.688,0.806-17.372,0.793-26.063c5.391,0.969,10.83,1.689,16.29,2.239c-0.109,7.938-0.035,15.88-0.035,23.822h7.527
		c0.01-8.102-0.003-16.201-0.072-24.303c3.601,0.029,7.221,0.189,10.811-0.239c-3.101-2.95-7.69-2.932-11.51-4.352
		C964.401,897.955,967.271,897.273,970.012,896.435z"/>
	<path fill="#0D0A13" stroke="#000000" stroke-width="0.1" stroke-miterlimit="10" d="M996.351,805.813
		c-1.24-1.91-1.44-4.28-2.02-6.421c2.51-0.87,5.64-0.95,7.359-3.279c2.92-3.819,2.84-9.041,2.431-13.601
		c-0.33-4.3-4.75-6.12-7.62-8.579c1.47-2.171,3.35-4.171,4.12-6.721c0.619-3.239,0.079-6.55,0-9.8
		c-0.351-6.171,0.31-12.472-1.15-18.53c-1.78-3.38-5.24-5.46-7.82-8.19c6.78-3.27,8.869-12.14,5.32-18.528
		c2.91-2.812,6.28-5.03,9.77-7.051c2.46-1.311,4.08-3.89,4.341-6.64c-0.04-2.141-2.141-3.19-3.511-4.451
		c-2.551-1.858-4.359-4.449-6.38-6.799c-1.83-2.24-4.75-3.04-6.899-4.851c-1.53-3.932-2.57-8.021-4.2-11.91
		c-3.521-8.04,0.819-16.95-1.99-25.13c-0.56-1.75-1.979-3.851-4.07-3.521c-1.909,0.391-3.68,1.25-5.479,1.939
		c-2.32-7.87,0.85-16.23-1.78-24.11c-4.03-11.14,1.48-22.72-0.44-34.09c-0.289-4.11-3.67-7.05-4.43-10.979
		c-1.229-12.92,2.55-25.989-0.229-38.8c-0.591-2.52-1.591-5.78-4.65-6.05c-3.02,0.42-5.08,3.19-6,5.9
		c-1.05,4.1,0.59,8.609-1.43,12.52c-1.65,3.18-2.431,6.73-1.761,10.3c0.75,4.471-1.34,8.66-3.439,12.451
		c-2.41,3.92-3.49,8.659-2.83,13.229c0.33,2.67,3.38,3.359,5.24,4.72c-1.431,3.801-4.351,7.46-3.4,11.771
		c0.72,4.409,0.59,9.301-2.34,12.939c-3.021,3.75-5.79,8.46-4.21,13.439c-2.65,2.011-6.32,3.811-6.83,7.471
		c-0.3,3.06-0.44,6.75,1.93,9.101c2.681,2.12,6.21,2.569,9.22,4.079c0.5,2.721-1.609,4.921-2.89,7.102
		c-3.33,5.278-8.33,9.5-10.439,15.51c-1.631,4.721-2.561,10.62,1.079,14.67c-4.489,3.439-10.449,8.13-8.979,14.53
		c0.78,3.279,4.271,3.909,7.09,4.409c0.4,2.779,1.17,5.61,0.74,8.42c-1.95,3.25-4.59,6.181-5.13,10.091
		c-1.555-0.548-3.099-1.125-4.646-1.695v6.072c0.917,0.146,1.831,0.303,2.741,0.475c0.002,1.875,0.11,3.383,1.945,4.202
		c0.567,0.254,5,0.308,5.106-0.199c-0.308,1.449,0.169,3.626-1.519,4.355c-1.82,1.141-4.66,1.5-5.12,3.979
		c-0.639,3.95-2.4,10.153,1.488,13.008c0.647,0.477,4.558,1.464,4.672,2.072c0.809,7.59-6.48,11.79-11.87,15.409
		c-2.87,1.671-3.1,5.36-2.81,8.32c0.31,2.63,0.739,5.698,2.89,7.52c2.18,1.32,4.86,1.221,7.24,2.021
		c2.35,2.17,0.92,7.489-2.62,7.311c-4.166,0.229-8.168-1.127-12.146-2.164v1.704c1.835,0.49,3.668,0.986,5.504,1.47
		c0.961,4.25,5.181,6.271,7.66,9.529c-3.72,0.5-8.51-0.5-10.97,3.101c-2.29,2.709-1.67,6.54,0.11,9.351
		c2.869,4.528,5.792,9.431,8.389,14.118c2.699,4.87-4.593,7.442-8.738,6.69c-2.51-0.239-5.25-1.83-7.451,0.17
		c2.16,2.13,4.261,4.58,7.23,5.61c2.08,0.52,4.25,0.149,6.38,0.171c-0.53,4.329-2.04,8.849-0.85,13.18
		c2.59,3.919,7.989,3.26,12.04,2.859c-1.427,3.438-1.817,4.385,1.559,6.146c1.87,0.976,3.715,1.994,5.331,3.363
		c-1.78,3.25-5.09,5.94-4.78,10.011c-0.31,3.9,3.63,5.561,6.5,7.051c2.33,1.38,5.11,0.75,7.681,0.71
		c0.211,1.322,0.369,2.653,0.495,3.989h17.037c-0.393-2.176-1.209-4.503,0.691-5.909c4.19-3.591,5.7-9.04,6.94-14.182
		c3.39-1.85,7.54-2.02,10.729-4.34c4.04-2.819,5.12-8.71,3.07-13.05c-0.79-2.51-3.39-5.6-0.49-7.7c4.54,0.24,9.771,1.41,13.61-1.85
		c4.82-4,2.131-12.062-2.74-14.8c0.852-3.29,0.461-6.632-0.14-9.91c1.88-2.359,4.239-4.49,4.609-7.69
		c1.194,0.166,2.392,0.327,3.585,0.492v-1.815c-1.465-0.233-2.607-0.438-3.306-0.596
		C1003.991,809.013,1000.331,807.072,996.351,805.813z"/>
</g>
<g id="Ground">
	
		<linearGradient id="SVGID_2_" gradientUnits="userSpaceOnUse" x1="996.0005" y1="72.6602" x2="996.0005" y2="-5.5" gradientTransform="matrix(1 0 0 -1 4 1120)">
		<stop  offset="0" style="stop-color:#53595E"/>
		<stop  offset="1" style="stop-color:#27212F"/>
	</linearGradient>
	<rect y="1047.34" fill="url(#SVGID_2_)" width="2000" height="78.16"/>
	<g>
		<g>
			<rect x="2.997" y="1060.6" fill="#FFDA00" width="50" height="4"/>
		</g>
		<g>
			<path fill="#FFDA00" d="M1850.157,1064.6h-99.843v-4h99.843V1064.6z M1650.473,1064.6h-99.842v-4h99.842V1064.6z
				 M1450.789,1064.6h-99.843v-4h99.843V1064.6z M1251.104,1064.6h-99.842v-4h99.842V1064.6z M1051.42,1064.6h-99.843v-4h99.843
				V1064.6z M851.735,1064.6h-99.844v-4h99.844V1064.6z M652.05,1064.6h-99.842v-4h99.842V1064.6z M452.365,1064.6h-99.842v-4
				h99.842V1064.6z M252.681,1064.6h-99.842v-4h99.842V1064.6z"/>
		</g>
		<g>
			<rect x="1950" y="1060.6" fill="#FFDA00" width="50" height="4"/>
		</g>
	</g>
</g>
<g id="Windows">
	<path fill="#F0EFE3" d="M182.5,551.47c4.25-0.81,8.44-1.92,12.55-3.29c0.51,1.4,1.021,2.801,1.51,4.221
		c-4.31,1.3-8.69,2.38-13.14,3.06C183.11,554.12,182.8,552.79,182.5,551.47z"/>
	<path fill="#F0EFE3" d="M184.3,558.71c4.41-1.22,8.84-2.4,13.28-3.54c1.82,6.23,3.47,12.521,5.65,18.641
		c-4.66,1.289-9.34,2.5-13.99,3.841C187.91,571.26,186.02,565,184.3,558.71z"/>
	<path fill="#F0EFE3" d="M237.46,591.32c6.25-1.881,12.53-3.65,18.9-5.12c1.99,8.898,4.03,17.79,6.11,26.67
		c-5.97,1.36-11.77,3.36-17.64,5.061C242.54,609.01,240.12,600.13,237.46,591.32z"/>
	<path fill="#F0EFE3" d="M217.83,596.971c5.55-1.711,11.18-3.131,16.77-4.701c2.45,8.86,4.43,17.86,7.47,26.552
		c-5.67,1.5-11.32,3.05-16.9,4.859C222.92,614.721,220.1,605.92,217.83,596.971z"/>
	<path fill="#F0EFE3" d="M172.74,608.49c6.3-1.642,12.6-3.33,18.85-5.17c2.27,8.819,3.37,17.93,6.29,26.58
		c-5.78,2.108-11.83,3.279-17.66,5.22C177.27,626.37,175.56,617.28,172.74,608.49z"/>
	<path fill="#F0EFE3" d="M152.8,614.221c5.76-1.239,11.34-3.181,16.99-4.851c1.97,9.02,5.04,17.75,7.24,26.72
		c-5.64,1.61-11.2,3.471-16.93,4.75C158.16,631.83,155.56,623,152.8,614.221z"/>
	<path fill="#F0EFE3" d="M245.71,620.87c5.97-1.29,11.75-3.26,17.59-5.021c2.39,7.66,4.11,15.5,6.49,23.17
		c-5.96,1.421-11.86,3.062-17.75,4.74C249.67,636.2,248.03,628.439,245.71,620.87z"/>
	<path fill="#F0EFE3" d="M225.69,626.91c5.72-1.58,11.37-3.37,17.05-5.062c1.7,7.682,4.09,15.2,6.36,22.73
		c-6,1.55-12.06,2.84-18.03,4.52C229.23,641.71,227.6,634.28,225.69,626.91z"/>
	<path fill="#F0EFE3" d="M180.92,638.41c5.9-1.83,11.79-3.689,17.76-5.28c1.98,7.73,3.9,15.49,6.41,23.07
		c-5.88,1.84-11.9,3.148-17.87,4.68C184.89,653.45,183.22,645.83,180.92,638.41z"/>
	<path fill="#F0EFE3" d="M160.84,644.21c5.63-1.72,11.25-3.51,16.97-4.91c2.22,7.47,4.23,14.99,6.3,22.5
		c-6.04,1.5-11.98,3.381-18.08,4.61C164.41,658.98,163.09,651.48,160.84,644.21z"/>
	<path fill="#F0EFE3" d="M687.35,647.79c4.391,0.58,8.851-0.05,13.23,0.58c0.21,1.311,0.39,2.648,0.54,3.99
		c-4.561,0.109-9.141,0.25-13.69-0.181C687.41,651.08,687.37,648.89,687.35,647.79z"/>
	<path fill="#F0EFE3" d="M730.67,647.79c4.42,0.45,8.86,0.26,13.3,0.37c0.04,1.42,0.09,2.85,0.141,4.279
		c-4.46-0.01-8.92,0.149-13.37-0.22C730.72,651.11,730.69,648.9,730.67,647.79z"/>
	<path fill="#F0EFE3" d="M1615.52,655.13c12.82-0.6,25.642-0.36,38.461-0.03c-0.041,2.352-0.041,4.711-0.029,7.07
		c-12.78-0.03-25.562-0.54-38.352-0.78C1615.569,659.3,1615.54,657.21,1615.52,655.13z"/>
	<path fill="#F0EFE3" d="M687.4,655.37c4.54-0.04,9.09-0.021,13.64-0.021c0.15,6.4,0.5,12.802,0.95,19.2
		c-4.87,0.33-9.75,0.3-14.62,0.2C687.54,668.29,687.5,661.82,687.4,655.37z"/>
	<path fill="#F0EFE3" d="M730.72,655.35c4.5-0.01,9.011-0.01,13.521,0c0.229,6.4,0.648,12.802,0.88,19.211
		c-4.8,0.319-9.61,0.25-14.41,0.229C730.79,668.311,730.77,661.83,730.72,655.35z"/>
	<path fill="#F0EFE3" d="M1615.569,664.77c5.811-0.27,11.601,0.392,17.421,0.271c-0.551,12.13-0.171,24.3-0.23,36.45
		c-5.87-0.36-11.77,0.05-17.608-0.67C1615.39,688.8,1615.18,676.78,1615.569,664.77z"/>
	<path fill="#F0EFE3" d="M1635.819,665.2c5.971,0.2,11.96,0.06,17.939,0.359c0.11,12.051-0.649,24.079-0.3,36.13
		c-5.97,0.101-11.932-0.17-17.88-0.159C1635.6,689.42,1636.09,677.311,1635.819,665.2z"/>
	<path fill="#F0EFE3" d="M1615.04,704.42c5.91-0.15,11.819,0.15,17.739,0.23c-0.299,11.039-0.549,22.08-0.279,33.13
		c-6.01-0.23-12.01-0.262-18-0.45C1615.02,726.37,1615.04,715.39,1615.04,704.42z"/>
	<path fill="#F0EFE3" d="M1635.561,704.63c5.97,0.341,11.959,0.07,17.921,0.63c-0.36,10.961,0.18,21.91,0.288,32.87
		c-6.239-0.18-12.47-0.069-18.688-0.42C1636.189,726.74,1635.311,715.65,1635.561,704.63z"/>
	<path fill="#F0EFE3" d="M573.17,739.82c12.3,0.79,24.6,1.59,36.92,1.948c5.561,0.462,11.16-0.13,16.7,0.602
		c-0.04,2.79-0.04,5.59,0.05,8.39c-17.79-0.188-35.609-0.43-53.37-1.6C573.31,746.04,573.49,742.92,573.17,739.82z"/>
	<path fill="#F0EFE3" d="M812,742.64c13.29-0.408,26.57-1.158,39.84-2.12c-0.25,3.102-0.24,6.222-0.1,9.342
		c-17.79,1.27-35.641,1.359-53.46,1.488c-0.011-2.729-0.011-5.46-0.07-8.18C802.76,742.33,807.4,742.82,812,742.64z"/>
	<path fill="#F0EFE3" d="M663.06,742.26c7.994,0.127,13.227-0.111,15.86-0.16c-0.12,2.871-0.13,5.75-0.03,8.632
		c-16.439,0.09-32.88,0.01-49.319,0.038c-0.07-2.818-0.271-5.64-0.42-8.448C640.45,742.221,651.75,742.37,663.06,742.26z"/>
	<path fill="#F0EFE3" d="M401.84,742.53c3.48-0.142,6.94-0.432,10.42-0.62c0.15,1.71,0.29,3.438,0.44,5.17
		c-3.562,0.359-7.141,0.52-10.72,0.72C401.92,746.04,401.87,744.28,401.84,742.53z"/>
	<path fill="#F0EFE3" d="M746.05,742.721c0,0,49.729,0.399,49.73,0.399c0.09,2.729-0.221,5.47-0.311,8.21
		c-16.47,0.07-32.95,0.05-49.42,0.01C746.06,748.46,746.07,745.58,746.05,742.721z"/>
	<path fill="#F0EFE3" d="M1711.25,744.46c12.811-0.271,25.62-0.19,38.439,0.011c-0.021,2.271-0.011,4.561,0.021,6.851
		c-12.86-0.062-25.75,0.119-38.59-0.67C1711.189,748.58,1711.21,746.52,1711.25,744.46z"/>
	<path fill="#F0EFE3" d="M402.11,751.221c3.529-0.421,7.069-0.631,10.62-0.841c1.369,19.65,2.989,39.28,4.68,58.9
		c-3.82,0.239-7.63,0.51-11.439,0.72C404.64,790.41,403.64,770.8,402.11,751.221z"/>
	<path fill="#F0EFE3" d="M573.56,752.35c7.591,0.19,15.19,0.53,22.78,0.98c0.811,17.57,1.17,35.16,2.12,52.729
		c-7.82,0.199-15.63,0.079-23.44,0.069C574.56,788.2,574.09,770.27,573.56,752.35z"/>
	<path fill="#F0EFE3" d="M598.96,753.39c9.33,0.081,18.65,0.352,27.98,0.28c0.13,17.58,0.899,35.149,1.119,52.73
		c-9.09,0.05-18.17-0.381-27.26-0.28C599.99,788.55,600.09,770.939,598.96,753.39z"/>
	<path fill="#F0EFE3" d="M629.53,753.65c8.17-0.221,16.34,0.35,24.52,0.279c0.4,17.619,0.03,35.239,0.23,52.869
		c-7.91-0.438-15.851,0.04-23.761-0.47C630.25,788.77,630.15,771.2,629.53,753.65z"/>
	<path fill="#F0EFE3" d="M656.62,753.99c7.41-0.11,14.82-0.07,22.229-0.03c0.12,17.71-0.069,35.42,0.11,53.13
		c-7.45,0.25-14.89-0.521-22.34-0.271C656.73,789.21,656.73,771.6,656.62,753.99z"/>
	<path fill="#F0EFE3" d="M828.69,754.03c7.6-0.5,15.22-0.62,22.84-0.88c-0.63,17.88-1.04,35.77-1.49,53.659
		c-7.81,0.029-15.63,0.039-23.44,0C827.52,789.23,827.92,771.62,828.69,754.03z"/>
	<path fill="#F0EFE3" d="M746.08,754.67c7.43-0.05,14.86-0.03,22.29-0.02c0.02,17.648-0.061,35.3,0.03,52.948
		c-7.5-0.169-14.98,0.302-22.48,0.23C746.03,790.11,745.76,772.38,746.08,754.67z"/>
	<path fill="#F0EFE3" d="M770.96,754.65c8.2,0.06,16.39-0.381,24.6-0.221c-0.729,17.551-0.689,35.131-1.39,52.681
		c-7.79,0.5-15.59,0.1-23.38,0.479C770.9,789.939,770.65,772.29,770.96,754.65z"/>
	<path fill="#F0EFE3" d="M798.08,754.431c9.32,0.079,18.65-0.12,27.979-0.271c-0.85,17.55-1.479,35.109-2.01,52.67
		c-9.04-0.25-18.05,0.41-27.069,0.31C797.21,789.569,797.99,772.01,798.08,754.431z"/>
	<path fill="#F0EFE3" d="M1711.15,754.01c5.89-0.34,11.778,0.37,17.688,0.29c-1.01,12.07-0.279,24.22-0.43,36.33
		c-5.82-0.29-11.642-0.1-17.44-0.319C1710.859,778.21,1711.061,766.11,1711.15,754.01z"/>
	<path fill="#F0EFE3" d="M1731.62,754.38c5.97,0.021,11.949,0.091,17.93,0.352c0.04,12.05-0.39,24.1-0.13,36.148
		c-6,0.21-11.97-0.28-17.938-0.28C1731.58,778.53,1731.859,766.45,1731.62,754.38z"/>
	<path fill="#F0EFE3" d="M309.02,757.71c0.42,2.89,0.8,5.8,1.18,8.71c-16.19,2.98-32.5,5.09-48.68,8.09
		c-0.41-2.829-0.93-5.64-1.61-8.41C259.911,766.1,309.02,757.71,309.02,757.71z"/>
	<path fill="#F0EFE3" d="M288.92,773.26c7.25-1.398,14.56-2.449,21.87-3.5c3.58,17.34,5.56,34.95,8.96,52.32
		c-7.28,1.46-14.76,1.63-22,3.359c-1.96-10.97-3.76-21.97-5.67-32.939C291.18,786.061,290.31,779.61,288.92,773.26z"/>
	<path fill="#F0EFE3" d="M261.92,777.55c8.07-1.54,16.23-2.38,24.3-3.91c3.72,17.262,5.63,34.831,9,52.15
		c-7.791,0.92-15.49,2.521-23.28,3.5C268.27,812.11,265.88,794.681,261.92,777.55z"/>
	<path fill="#F0EFE3" d="M152.5,784.25c3.5-0.39,6.98-0.87,10.47-1.26c0.29,1.66,0.669,3.329,0.83,5.028
		c-3.51,0.682-7.05,1.142-10.58,1.69C152.98,787.88,152.74,786.061,152.5,784.25z"/>
	<path fill="#F0EFE3" d="M1358.45,788.04c4.85-0.471,9.75-0.319,14.63-0.46c0.05,7.68,0.01,15.359,0.14,23.05
		c-4.938,0-9.859,0.25-14.79,0.33C1358.9,803.319,1358.46,795.67,1358.45,788.04z"/>
	<path fill="#F0EFE3" d="M1375.75,787.46c5.46-0.021,10.93-0.05,16.4-0.05c-0.25,7.62-0.82,15.229-0.852,22.859
		c-5.16,0.141-10.3,0.16-15.439,0.351C1375.83,802.89,1375.75,795.181,1375.75,787.46z"/>
	<path fill="#F0EFE3" d="M153.76,792.689c3.5-0.521,6.98-1.141,10.49-1.601c0.929,7.433,7.845,49.708,9.39,58.25
		c-3.819,0.58-7.62,1.25-11.43,1.82C159.31,831.681,156.71,812.16,153.76,792.689z"/>
	<path fill="#F0EFE3" d="M1710.859,793.55c5.851-0.148,11.689,0.23,17.551,0.271c-0.24,11.069-0.4,22.141-0.28,33.221
		c-5.99-0.44-12-0.41-17.99-0.5C1710.689,815.55,1710.85,804.55,1710.859,793.55z"/>
	<path fill="#F0EFE3" d="M1731.45,793.86c5.97,0.329,11.97,0.13,17.95,0.56c-0.212,11.04,0.079,22.08,0.14,33.12
		c-6.16-0.25-12.32-0.09-18.45-0.609C1732.01,815.95,1731.37,804.88,1731.45,793.86z"/>
	<path fill="#F0EFE3" d="M1358.439,813.96c4.891-0.56,9.851-0.229,14.771-0.521c0.021,6.591,0.06,13.181,0.14,19.771
		c-5.198-0.07-10.41-0.12-15.608-0.141C1358.05,826.7,1358.09,820.319,1358.439,813.96z"/>
	<path fill="#F0EFE3" d="M1375.85,813.42c5.15-0.06,10.302-0.12,15.45-0.351c-0.1,6.74,0.23,13.471,0.101,20.211
		c-5.159-0.05-10.311-0.05-15.461-0.061C1375.91,826.62,1375.91,820.02,1375.85,813.42z"/>
	<path fill="#F0EFE3" d="M573.15,844.98c17.85,1.18,35.729,1.989,53.609,2.449c-0.01,2.771-0.01,5.54,0.08,8.319
		c-17.83,0.021-35.649-0.39-53.45-1.4C573.43,851.221,573.46,848.09,573.15,844.98z"/>
	<path fill="#F0EFE3" d="M827.08,847.181c8.25-0.591,16.53-0.811,24.77-1.529c-0.289,3.108-0.1,6.238-0.26,9.358
		c-17.74,1.15-35.55,0.99-53.32,1.461c0.011-2.739,0.011-5.479-0.039-8.201C807.81,847.41,817.47,847.87,827.08,847.181z"/>
	<path fill="#F0EFE3" d="M629.18,847.4c16.58,0.1,33.15-0.16,49.721-0.2c-0.101,2.84-0.101,5.68-0.011,8.53
		c-16.439,0.089-32.88,0.01-49.319,0.039C629.49,852.971,629.29,850.181,629.18,847.4z"/>
	<path fill="#F0EFE3" d="M746.07,847.84c16.608,0.21,33.229,0.341,49.85,0.37c-0.17,2.729-0.36,5.479-0.45,8.229
		c-16.479,0.041-32.95,0.041-49.43,0C746.07,853.561,746.07,850.7,746.07,847.84z"/>
	<path fill="#F0EFE3" d="M573.57,857.4c7.59,0.27,15.16,0.669,22.739,1.029c0.86,17.569,1.21,35.17,2.131,52.739
		c-7.811,0.24-15.631,0.101-23.44,0.09C574.6,893.3,574.05,875.351,573.57,857.4z"/>
	<path fill="#F0EFE3" d="M598.97,858.55c9.32-0.06,18.641,0.381,27.97,0.24c0.141,17.59,0.9,35.16,1.12,52.75
		c-9.08-0.01-18.159-0.38-27.239-0.271C599.98,893.7,600.09,876.101,598.97,858.55z"/>
	<path fill="#F0EFE3" d="M629.54,859c8.15-0.76,16.34,0.311,24.52,0.09c0.381,17.61,0.03,35.229,0.23,52.851
		c-7.91-0.551-15.85,0-23.76-0.5C630.25,893.96,630.14,876.47,629.54,859z"/>
	<path fill="#F0EFE3" d="M828.7,859.17c7.6-0.47,15.22-0.739,22.83-0.89c-0.641,17.88-1.04,35.789-1.48,53.688
		c-7.819,0.021-15.64,0.04-23.45-0.02C827.52,894.37,827.91,876.76,828.7,859.17z"/>
	<path fill="#F0EFE3" d="M656.63,859.11c7.42-0.021,14.84-0.092,22.26,0.04c0.011,17.699-0.04,35.398,0.04,53.108
		c-7.438,0.15-14.87-0.47-22.31-0.31C656.73,894.33,656.73,876.72,656.63,859.11z"/>
	<path fill="#F0EFE3" d="M746.09,859.78c7.44,0.02,14.891-0.101,22.33,0.068c-0.09,17.61-0.1,35.221,0,52.831
		c-7.51-0.211-14.99,0.399-22.5,0.301C746.03,895.25,745.74,877.51,746.09,859.78z"/>
	<path fill="#F0EFE3" d="M770.97,859.77c8.19,0.062,16.37-0.408,24.57-0.22c-0.68,17.552-0.69,35.131-1.36,52.69
		c-7.8,0.43-15.6,0.17-23.399,0.43C770.92,895.03,770.64,877.4,770.97,859.77z"/>
	<path fill="#F0EFE3" d="M798.07,859.561c9.33,0.051,18.649-0.181,27.979-0.271c-0.84,17.561-1.46,35.13-2,52.69
		c-9.04-0.23-18.05,0.38-27.08,0.288C797.22,894.689,797.99,877.13,798.07,859.561z"/>
	<path fill="#F0EFE3" d="M1214.93,913.89c4.83-0.158,9.66-0.278,14.49-0.319c0.17,7.699,0.03,15.411,0.3,23.11
		c-4.93,0.101-9.85,0.311-14.76,0.431C1215.24,929.37,1215,921.63,1214.93,913.89z"/>
	<path fill="#F0EFE3" d="M1232.16,913.5c5.449-0.1,10.91-0.08,16.37-0.1c-0.46,7.64-0.72,15.3-0.761,22.96
		c-5.181,0.14-10.359,0.22-15.539,0.278C1232.3,928.92,1232.13,921.21,1232.16,913.5z"/>
	<path fill="#F0EFE3" d="M1214.939,939.76c4.899-0.13,9.811-0.18,14.721-0.26c0.04,6.6,0.029,13.2,0.17,19.8
		c-5.24-0.04-10.48-0.04-15.71-0.17C1214.53,952.681,1214.85,946.22,1214.939,939.76z"/>
	<path fill="#F0EFE3" d="M1232.25,939.431c5.18-0.069,10.359-0.211,15.55-0.319c-0.14,6.738,0.09,13.47,0.11,20.209
		c-5.16,0.069-10.32,0.029-15.471-0.021C1232.42,952.67,1232.41,946.05,1232.25,939.431z"/>
	<path fill="#F0EFE3" d="M1510.97,926.2c3.4-0.3,6.8-0.57,10.22-0.75c0.2,1.7,0.421,3.43,0.682,5.14
		c-3.521,0.351-7.051,0.68-10.57,0.851C1511.15,929.681,1511.04,927.931,1510.97,926.2z"/>
	<path fill="#F0EFE3" d="M1511.59,934.62c3.439-0.17,6.9-0.34,10.35-0.61c1.472,19.53,3.091,39.04,4.53,58.57
		c-1.51,0.26-2.989,0.64-4.439,1.05c-2.311,0.22-4.619,0.352-6.909,0.53C1513.72,974.319,1512.84,954.46,1511.59,934.62z"/>
</g>
</svg>
