<?xml version="1.0" encoding="utf-8"?>
<!-- Generator: Adobe Illustrator 15.1.0, SVG Export Plug-In . SVG Version: 6.00 Build 0)  -->
<!DOCTYPE svg PUBLIC "-//W3C//DTD SVG 1.1//EN" "http://www.w3.org/Graphics/SVG/1.1/DTD/svg11.dtd">
<svg version="1.1" id="CityClose" xmlns="http://www.w3.org/2000/svg" xmlns:xlink="http://www.w3.org/1999/xlink" x="0px" y="0px"
	 width="2000px" height="1125px" viewBox="0 0 2000 1125" enable-background="new 0 0 2000 1125" xml:space="preserve">
<g id="Buildings">
	<path fill="#0D0A13" d="M182.74,523.6c8.76,4.96,18.419,7.99,27.85,11.37c19.132,5.484,48.356,12.76,68.122,14.231
		c10.414,0.776,20.899,0.647,31.328,0.198c4.75-0.17,9.52-0.63,14.28-0.18c-4.12,2.89-9.25,3.42-13.931,4.89
		c-10.46,2.75-20.95,5.36-31.33,8.38c2.04,8.74,3.43,17.62,5.65,26.33c6.53,30.199,15.61,59.77,24.44,89.36
		c21.59,11.11,27.532,12.69,37.84,15.854c34.016,10.438,62.837,17.568,93.251,22.514c29.34,4.77,60.162,7.506,98.558,9.211
		c-0.31-4.88-0.479-9.77-0.8-14.64c-10.32-0.36-20.63-1.11-30.94-1.59c-4.33-0.33-8.83,0.01-12.91-1.73
		c3.23-1.319,6.61-2.2,10.03-2.89c7.1-1.473,27.865-7.475,32.639-9.058c23.229-7.701,66.709-27.755,90.231-40.172
		c32.41-16.46,60.22-40.241,87.76-63.62c6.148,4.764,14.927,12.386,26.756,21.359c20.46,15.525,42.114,29.445,63.294,43.96
		c-0.08-7.149-0.15-14.3-0.15-21.449c-9.48,0-19.12-0.2-28.34-2.57c4.15-1.18,8.44-0.13,12.63,0.2c5.2,0.6,10.44,0.72,15.67,0.649
		c-0.12-4.94-0.2-9.88-0.27-14.81c-5.47-0.19-11.45,0.859-16.44-1.93c5.46-0.351,10.92,0.229,16.39,0.09
		c-0.17-5.03-0.37-10.051-0.54-15.061c-3.71-0.2-7.55-0.2-10.98-1.779c3.6-0.341,7.24-0.221,10.86-0.021
		c-0.5-8.12-1.68-16.22-1.52-24.36c1.18,1.48,1.77,3.28,1.83,5.17c0.47,6.4,1.03,12.79,1.33,19.2c3.9-0.13,7.96-0.71,11.74,0.681
		c-3.81,0.819-7.72,0.92-11.58,1.08c0.37,4.989,0.56,9.989,0.61,15c5.57-0.131,11.2-1.121,16.75-0.061
		c-5.36,1.96-11.16,1.35-16.74,1.779c0.12,4.98,0.19,9.961,0.19,14.94c6.22-0.12,12.44-0.35,18.66-0.64
		c2.93-0.17,5.89,0.029,8.72,0.89c-9,1.83-18.26,0.91-27.38,1.53c0.23,7.54,0.22,15.08,0.35,22.63
		c22.32,15.08,45.53,28.94,70.03,40.21c18.41,8.431,36.86,16.88,55.97,23.62c0.54-3.91,3.18-6.84,5.13-10.09
		c0.43-2.81-0.34-5.641-0.74-8.42c-2.82-0.5-6.31-1.13-7.09-4.41c-1.47-6.4,4.49-11.09,8.98-14.53c-3.64-4.05-2.71-9.949-1.08-14.67
		c2.11-6.01,7.11-10.23,10.44-15.51c1.28-2.18,3.39-4.38,2.89-7.101c-3.01-1.51-6.54-1.959-9.22-4.079
		c-2.37-2.351-2.23-6.041-1.93-9.101c0.51-3.66,4.18-5.46,6.83-7.47c-1.58-4.98,1.19-9.69,4.21-13.44
		c2.93-3.64,3.06-8.53,2.34-12.939c-0.95-4.311,1.97-7.97,3.4-11.771c-1.86-1.359-4.91-2.05-5.24-4.72
		c-0.66-4.57,0.42-9.31,2.83-13.229c2.1-3.791,4.19-7.98,3.44-12.451c-0.67-3.57,0.11-7.12,1.76-10.3
		c2.02-3.91,0.38-8.42,1.43-12.52c0.92-2.71,2.98-5.48,6-5.9c3.06,0.27,4.06,3.53,4.65,6.05c2.78,12.81-1,25.88,0.23,38.8
		c0.76,3.93,4.14,6.869,4.43,10.979c1.92,11.37-3.59,22.95,0.44,34.09c2.63,7.88-0.54,16.24,1.78,24.11
		c1.8-0.689,3.57-1.55,5.48-1.939c2.09-0.33,3.51,1.77,4.07,3.52c2.81,8.18-1.53,17.09,1.99,25.13c1.63,3.89,2.67,7.979,4.2,11.91
		c2.15,1.811,5.07,2.61,6.9,4.851c2.02,2.35,3.829,4.939,6.38,6.799c1.37,1.261,3.47,2.311,3.51,4.451
		c-0.26,2.75-1.88,5.329-4.34,6.64c-3.49,2.02-6.86,4.239-9.77,7.05c3.549,6.39,1.46,15.26-5.32,18.529
		c2.58,2.73,6.04,4.811,7.82,8.19c1.459,6.06,0.8,12.36,1.15,18.53c0.08,3.25,0.62,6.561,0,9.8c-0.77,2.55-2.65,4.55-4.12,6.721
		c2.87,2.459,7.29,4.279,7.62,8.579c0.41,4.56,0.49,9.78-2.43,13.601c-1.72,2.329-4.85,2.409-7.36,3.279
		c0.58,2.141,0.78,4.511,2.02,6.421c3.98,1.259,7.64,3.199,11.33,5.12c5.839,1.326,42.189,5.707,48.276,6.358
		c20.295,2.172,40.678,3.496,61.095,3.211c20.739-0.311,41.47-1.311,62.129-3.1c-0.39-14.15-0.05-28.301-0.409-42.45
		c-25.9-1.21-51.811-2.351-77.71-3.47c-2.021-0.28-4.641,0.159-5.78-1.961c3.771-1.339,7.83-1.14,11.76-1.47
		c12-0.829,23.99-1.939,35.92-3.479c21.96-2.631,43.591-7.71,64.761-14.04c38.93-11.341,75.27-29.63,111.47-47.56
		c11.68,10.619,23.569,21.279,37.38,29.09c14.93,8.02,30.77,14.199,46.55,20.329c38.06,15.101,77.38,26.74,116.95,37.15
		c1.109,0.47,3.17,0.84,2.41,2.529c-11.08,0.44-22.141-1.289-33.221-1.619c-0.83,13.271-1.56,26.55-2.289,39.83
		c14.205,1.58,28.477,2.793,42.77,3.292c9.401,0.328,18.813,0.347,28.22-0.042c4.75,0.03,8.511-3.24,12.55-5.271
		c7.2-3.75,13.66-8.74,19.711-14.12c0.97-62.1,1.399-124.209,2.319-186.31c-16.87-0.41-33.71-1.48-50.56-2.149
		c-3.43-0.2-6.91-0.181-10.221-1.141c0.11-0.47,0.34-1.41,0.461-1.87c8.789-1.189,17.76-0.859,26.539-2.359
		c29.55-5.34,59.141-11.621,87.08-22.9c17.98-6.59,35.551-14.26,53.29-21.41c5.71,2.439,10.761,6.221,16.311,9.03
		c18.26,10.5,37.729,18.76,57.64,25.62c17.189,6.18,34.91,10.739,52.83,14.28c12.59,2.819,25.5,3.979,38.09,6.8
		c0.06,0.409,0.19,1.22,0.25,1.619c-26.6-0.149-53.21-1.129-79.8-1.56c0.16,42.681-0.71,85.35-2.54,127.99
		c8.53,2.319,17.25,3.84,25.91,5.59c0.12-3.189-0.761-7.62,2.65-9.431c3.529-2.34,7.789-0.59,11.58,0.021
		c2.829,0.62,5-1.84,7.18-3.239c-2.16-3.94-6.37-6.311-8.271-10.351c-0.17-4.17,3.62-7.56,2.91-11.84
		c-0.19-4.99-2.34-10.7,0.899-15.15c2.561-3.77,7.461-0.67,11.141-1.49c3.75-0.7,9.13-1.909,9.649-6.5
		c1.12-4.45-0.96-8.62-1.829-12.85c1.09-4.42,5.869-6.021,9.779-7.03c0.99-2.149,0.233-6.557,3.28-6.31
		c3.7,0.3,4.738,9.056,5.56,9.05c4.601-0.029,8.99-1.8,13.601-1.819c3.351,1.169,2.56,5.329,1.899,8
		c-0.68,3.589-3.529,7.22-1.739,10.89c1.479,2.779,5.17,2.46,7.87,2.71c5.99,0.39,12.829-1.24,18.079,2.45
		c1.7,3,1.161,6.76,1.421,10.109c0.289,4.68-4.711,6.71-7.69,9.32c0.67,2.25,0.931,5.15,3.28,6.37c3.32,1.68,6.88,2.88,10.12,4.78
		c3.18-1.24,6.22-3.511,9.75-3.49c3.72,0.96,7.29,4.08,8.069,7.949c-0.2,4.83-2.89,9.091-4.439,13.57
		c-1.82,5.141-4.52,9.94-8.261,13.93c14.9-0.149,29.801,0.05,44.71-0.25c13.641-0.689,27.311-0.659,40.971-1.239v1
		c-14.222,1.164-28.482,1.527-42.748,1.659c-41.518,0.388-40.901-0.476-46.172,0.721c0.199,2.51-0.011,5.18,1.04,7.55
		c1.35,1.95,3.399,3.271,5.14,4.89c-0.449,1.681-0.859,3.371-1.26,5.07c3.311,1.86,7.04,4.149,7.819,8.21
		c0.12,3.25-1.199,6.36-2.39,9.33c-1.3,3.18-4.11,5.44-5.439,8.58c-1.051,6.71,2.34,13.95-1.521,20.19
		c2.487,0.849,5.243,1.338,7.368,3.058c0.646,0.533-0.075,9.418-0.618,9.683c1.97-0.961,3.9-2.091,5.99-2.831
		c3.31,0.671,4.229,4.94,3.771,7.831c-1.101,3.159-4.561,4.289-7.021,6.119c-1.96,1.971-2.67,5.63-5.94,5.87
		c-4.25,1.18-7.84-1.46-11.1-3.71c-2.391-1.01-6.3-3.39-7.84-0.09c-1.971,4.659,2.89,7.88,4.189,11.909
		c0.631,1.45-0.789,2.581-1.83,3.291c-3.479,2.329-7.569,3.609-10.84,6.25c-2.32,1.82-4.66,3.63-7.21,5.1
		c-0.532,0.307,5.085,5.769,1.452,7.576c-3.044,1.515-7.559,1.996-10.872,3.153c-3.4,0.261-4.89-3.529-6.739-5.709
		c-1.301,25.409-2.15,50.839-3.23,76.26c-0.25,7.29-1.33,14.63-0.37,21.92c0.41,3.05,3.76,4.17,6.189,5.31
		c8.29,3.33,17,6.72,26.11,6.12c9.561-0.68,18.95-2.8,28.471-3.909c-2-1.521-4.25-3.661-3.521-6.44c0.939-2.81,3.75-4.301,5.67-6.37
		c2.29-1.86,0.84-5.439,2.511-7.601c2.459-2.14,5.949-1.569,8.979-1.729c-0.19-1.271-0.36-2.53-0.49-3.771
		c-1.76-2.18-3.36-4.47-4.79-6.839c-0.227-3.887,5.087-4.106,10.03-3.94c0.5-3.24-0.14-7.09,2.13-9.74
		c2.54-1.89,5.92-2.84,9.09-2.55c1.71,1.01,3.06,2.52,4.52,3.89c2.761-2.04,5.811-4.2,9.421-4.14c1.869-0.05,4.42,0.2,5.189,2.28
		c1.091,2.649,2.44,5.22,4.61,7.189c2.01-1.09,3.779-3.15,6.14-3.359c3.93,1.62,8.591,5.579,6.7,10.35
		c3.09-0.76,6.24-1.3,9.41-1.721v77.801c-105.98-0.271-211.971-0.04-317.95-0.12c-530.69,0-1061.38,0-1592.07,0
		c-29.99,0.14-59.99-0.28-89.98,0.22v-78.33c10.34,1.141,20.9,1.53,30.84,4.88c8.65,3.12,17.99,2.11,26.97,1.641
		c-8.42-40.561-16.36-81.211-24.43-121.841c-3.99-18.06-6.41-36.899-15.04-53.52c-1.84-4.13-6-6.851-10.441-7.299
		c-0.271,0.193-2.261,2.258-3.807,3.725c-1.002,0.949-3.107-0.824-3.247-2.586c-0.129-1.631,0.233-3.274,1.304-4.43
		c2.16-2.33,5.58-4.12,8.8-3.19c6.22,1.8,11.62,6.16,14.63,11.91c0.48-5.48,2.14-11.09,5.97-15.18c3.16-2.79,8.17-4.74,12.021-2.16
		c1.88,0.99,4.24,3.29,2.29,5.4c-1.74,3.64-5.85,0.52-8.41-0.3c-2.95,2.189-4.09,9.329-4.03,14.449
		c0.17,31.208,8.196,63.398,9.05,68.37c7.52,35.06,15.35,70.051,22.68,105.14c15.76-3.239,31.39-7.109,46.72-11.959
		c0.24-2.779-7.552-39.713-7.92-41.28c-4.33,0.26-8.271-1.55-11.91-3.66c-2.53,2.44-4.63,7.311-8.91,6.09
		c-4.15-1.279-7.46-4.86-9.21-8.74c0.22-4.31,4.82-6.38,7.7-8.89c-3.56-0.58-7.42,0.01-10.64-1.88c-2.6-1.69-5.72-0.39-8.57-0.7
		c-2.689-1.24-2.53-4.79-2.06-7.23c0.45-3.25,3.89-4.359,5.92-6.43c-0.53-5.46-6.92-6.67-9.56-10.7c1.4-4.63,5.89-7.57,10.44-8.489
		c2.16,1.05,2.89,3.56,4.21,5.39c1.45-1.271,3.97-1.971,4.18-4.16c0.43-3.36,0.19-6.75,0.19-10.12c-3.58,0.95-7.85,3.43-11.26,0.75
		c-4.77-2.779-5.63-10.06-1.97-14.029c2.46-0.86,5.18,0.029,7.74-0.25c1.189-3.911-0.52-7.69-2.72-10.841
		c-2.31-2.8-0.65-7.31,2.58-8.57c3.34,1.011,6.24,3.03,9.29,4.69c2.835-3.166,3.015-5.423,2.508-7.91
		c-0.619-3.036-2.261-6.415-1.338-12.21c1.27-3.87,6.09-2.01,9.07-2.579c1.65-1.34,2.96-3.021,4.56-4.391
		c2.71,1.84,3.25,5.391,5.34,7.78c2.27,0.58,4.82,0.13,6.93,1.29c1.49,3.75,1.62,7.949,3.55,11.59c2.84-1.99,5.12-6.061,8.99-5.561
		c4.17,1.62,6.21,6.25,6.23,10.511c-0.2,3.59,2.99,5.8,4.27,8.85c-2.41,3.14-7.32,4.681-7.62,9.13c-0.15,3.24-0.92,7.16,1.17,9.93
		c4.82,1.281,9.97,1.781,14.12,4.841c-3.67-20.8-6.31-41.761-10.34-62.49c-2.47-14.92-6.12-29.609-9.19-44.41
		c-16.12,4.051-32.44,7.19-48.7,10.58c-2.14,0.68-4.14-0.46-6.02-1.32c-20.8,3.87-41.87,6.07-62.92,8.03v-1.07
		c25.74-3.399,51.75-5.569,77.01-11.89c16.21-5.18,32.44-10.33,48.77-15.13c-3.72-13.87-6.84-27.88-10.43-41.78
		c-5.33,1.671-10.56,3.631-15.87,5.351c-1.45,0.229-3.8,1.57-4.44-0.641c6.004-3.839,9.433-3.171,18.475-9.738
		c4.899-3.559,14.499-12.862,20.061-19.762c2.808-3.482,4.587-6.352,4.214-7.56c-0.89-5.72-2.91-11.181-4.27-16.79
		c-0.041-0.166-0.083-0.333-0.124-0.5c-4.417-17.771-9.317-35.406-13.776-53.16c-9.83,2.84-19.65,5.71-29.53,8.37
		c-5.291,1.271-10.411,4.08-15.99,3.52c3.33-2.609,7.24-4.279,11.05-6.04c14.59-6.85,28.27-15.449,41.37-24.81
		c13.73-9.729,26.48-20.96,37.11-34.05C170.31,540.78,177.19,532.64,182.74,523.6z M121.9,703.41c3.3,13.439,6.07,26.99,9.42,40.43
		c6.87-1.33,13.56-3.43,20.31-5.229c-2.69-14.13-4.29-28.471-7.65-42.471C136.59,698.48,129.19,700.79,121.9,703.41z M881.7,782.62
		c11.82,3.77,23.83,6.87,35.75,10.29c4.16,1.05,8.34,2.55,12.7,2.311c3.54,0.18,4.97-5.141,2.62-7.311
		c-2.38-0.8-5.06-0.7-7.24-2.021c-2.15-1.82-2.58-4.89-2.89-7.52c-0.29-2.96-0.06-6.649,2.81-8.32
		c5.389-3.619,12.679-7.819,11.87-15.409c-0.114-0.609-4.024-1.597-4.672-2.072c-3.888-2.854-2.126-9.058-1.488-13.008
		c0.46-2.48,3.3-2.84,5.12-3.98c1.688-0.729,1.211-2.906,1.519-4.355c-0.107,0.507-4.539,0.453-5.107,0.199
		c-1.835-0.819-1.943-2.327-1.945-4.202c-14.951-2.82-30.795-2.013-45.946-2.892C883.77,743.76,882.73,763.189,881.7,782.62z
		 M442.64,731.78c1.73,35.93,4.4,71.8,6.47,107.71c0.68,19.609,2.65,39.149,4.56,58.67c4.34-1.42,8.76-2.81,13.36-3.091
		c12.09-0.949,23.69,3.361,35.11,6.671c-1.899-17.33-2.81-34.77-2.36-52.21c-4-2.74-9.72-4.56-10.78-9.931
		c-0.89-3.5,2.57-5.569,4.58-7.739c-2.67-2.33-7.03-1.791-8.91-5.11c-2.68-3.811-5.75-7.35-9.4-10.26
		c-1.53,0.26-3.26,1.579-4.72,0.51c-1.69-2.14-2.5-4.811-4.15-6.95c-1.64-1.04-3.5-1.66-5.11-2.71c-1.19-2.72-1.46-6.49,1.06-8.54
		c4.55-0.6,11.06,1.811,14.01-2.939c-3.72-1.2-8.4-1.541-10.53-5.32c-2.35-3.94-4.35-8.34-4.6-12.979c0.96-1.09,2.11-1.971,3.21-2.9
		c0.022-0.02-2.147-3.191-2.283-3.576c-1.786-5.027,7.21-8.416,10.953-8.514c2.68-0.25,3.86,2.47,5.38,4.14
		c0.073-2.35-0.441-3.999,2.171-3.397c1.982,0.456,3.501,2.792,5.359,3.638c3.32,0.59,6.72,0.569,10.09,0.89
		c0.02-2.909,0.66-6.43-1.6-8.72c-3.239-1.52-8.098-0.511-9.989-4.188c-0.627-1.22-2.548-3.845-1.617-5.305
		c1.126-1.765,3.863,0.649,5.396,1.512c0.21-2.6-1.18-7.43,2.62-7.88c4.53-0.12,8.91,1.391,13.38,1.95
		c1.82-4.37,2.42-9.239,0.75-13.739C484.24,731.24,463.44,731.65,442.64,731.78z M1781.77,761.57
		c-2.069,47.6-4.72,95.17-5.569,142.81c9.35,11.17,22.06,19.06,35.31,24.801c8.63,2.909,17.6,4.689,26.472,6.689
		c2.587,0.329,3.97,4.552,1.349,4.1c-9.93-1.71-19.93-2.87-29.87-4.479c0.13,4.1,0.26,8.21,0.601,12.32
		c4.39,0.319,8.89,0.25,13.18,1.42c2.479,0.909,2.56,3.979,2.74,6.209c0.35,11.391,0.489,22.801-0.091,34.191
		c0.139,0.658,10.333,1.239,11.308,1.338c2.505,0.254,18.156,1.128,18.162,0.991c1.101-22.38,2.871-44.71,3.801-67.1
		c0.18-9.49,1.1-19,0.24-28.471c-6.48,2.49-12.94-0.649-19.211-2.159c-3.399-0.961-7.05-1-10.209-2.63
		c-1.601-0.92-3.381-2.781-2.561-4.74c1.2-3.32,3-6.38,4.55-9.55c-2.55-2.65-6.39-0.96-9.42-2.341
		c-4.58-2.069-8.78-5.09-12.04-8.909c-2.24-2.73-1.14-6.641,0.76-9.221c1.291-1.7,3.69-1.49,5.59-2.021
		c2.761-2.409,3.291-7.139,0.28-9.55c-3.329-1.069-6.96-0.459-10.26-1.56c-4.19-1.989-5.74-6.93-6.19-11.21
		c-0.12-2.931,2.44-5.29,5.32-5.24c2.73-0.699,4.75,1.641,7.01,2.73c1.771-0.28,3.17-1.56,4.721-2.421
		c-0.171-6.139-3.18-11.539-5.171-17.169c-0.8-4.301,3.241-7.32,6.4-9.391c-2.43-1.97-5.43-1.22-8.17-0.579
		c-0.8-0.771-1.63-1.48-2.271-2.331c-0.699-3.89-0.859-8.819,2.891-11.27c2.32-2.35,5.72-1.27,8.57-0.8
		c-1.78-3.95-2.78-8.16-4.2-12.22c-1.19-3.49-4.42-6.021-7.979-6.69C1799.109,765.32,1790.37,763.73,1781.77,761.57z M881.54,784.39
		c-1.15,21.36-1.9,42.75-1.49,64.15c7.79,8.22,15.94,16.229,25.27,22.71c8.6,5.86,17.43,11.41,26.69,16.16
		c7.2,3.89,14.95,6.6,22.4,9.97c-0.09-3.05-0.33-6.09-0.81-9.09c-2.57,0.04-5.35,0.67-7.68-0.71c-2.87-1.49-6.81-3.149-6.5-7.05
		c-0.31-4.07,3-6.761,4.78-10.011c-1.616-1.369-3.461-2.389-5.331-3.363c-3.376-1.762-2.985-2.708-1.559-6.146
		c-4.05,0.4-9.45,1.06-12.04-2.859c-1.19-4.331,0.32-8.851,0.85-13.18c-2.13-0.021-4.3,0.349-6.38-0.171
		c-2.97-1.03-5.07-3.48-7.23-5.61c2.2-2,4.94-0.409,7.451-0.17c4.145,0.752,11.438-1.82,8.738-6.691
		c-2.597-4.688-5.52-9.589-8.389-14.118c-1.78-2.81-2.4-6.641-0.11-9.35c2.46-3.601,7.25-2.601,10.97-3.101
		c-2.48-3.26-6.7-5.279-7.66-9.529C909.45,792.53,895.44,788.64,881.54,784.39z M1438.529,785.48c-0.239,12.56-1.17,25.1-1.39,37.67
		c13.24,2.1,26.54,3.789,39.8,5.789c0.301-12.899,0.351-25.8,0.601-38.709C1464.529,788.7,1451.529,787.08,1438.529,785.48z
		 M1007.41,812.85c-0.37,3.2-2.73,5.331-4.61,7.69c0.601,3.279,0.99,6.62,0.14,9.91c4.871,2.739,7.561,10.8,2.74,14.8
		c-3.84,3.26-9.07,2.09-13.61,1.85c-2.9,2.101-0.3,5.19,0.49,7.7c2.05,4.34,0.97,10.23-3.07,13.05c-3.19,2.32-7.34,2.49-10.73,4.34
		c-1.24,5.141-2.75,10.591-6.94,14.181c-3.31,2.449,1.63,7.699-1.8,10.061c-2.74,0.839-5.61,1.52-7.52,3.839
		c3.82,1.42,8.41,1.4,11.51,4.351c-3.59,0.43-7.21,0.27-10.81,0.24c0.12,14.149,0.08,28.3,0.02,42.45
		c3.83,0.17,8.82-1.721,11.53,1.959c-0.82,1.2-1.63,2.4-2.43,3.61c5.65-1.64,10.94,1.301,16.46,1.97
		c3.43,0.69,6.93,1.311,10.2,2.641c2.32,0.93,3.29,3.399,4.53,5.399c1.79,0.43,3.57,0.83,5.391,1.28
		c1.199-8.82,1.51-17.71,2.05-26.58c14.6,1.221,28.89,4.841,43.439,6.58c-1.71,8.84-2.229,17.86-3.319,26.78
		c7.08,1.17,14.17,2.31,21.27,3.39c-0.279-5.439-0.48-10.88-0.42-16.32c15.72-1.02,31.5-1.339,47.25-1.739
		c-0.3-12.811-0.21-25.63-0.13-38.45c-15.42-0.02-30.84-0.25-46.26-0.42c-0.19-0.46-0.57-1.38-0.761-1.841
		c10.17-2.649,20.601-4.229,30.641-7.359c7.425-2.35,23.169-6.092,39.02-13.56c13.322-6.275,25.748-14.444,37.99-22.59
		c-0.18-17.59-0.46-35.181-0.41-52.771c-23.72,1.32-47.439,3.3-71.229,3.09c-17.669-0.288-35.274-1.618-52.83-3.485
		C1039.232,817.197,1023.305,815.056,1007.41,812.85z M1437.15,825c-0.25,9.05-0.891,18.13-0.061,27.16
		c13.11,5.9,25.91,12.529,39.439,17.49c0.051-12.961,0.261-25.93,0.44-38.9C1463.68,828.931,1450.46,826.61,1437.15,825z
		 M525.98,834.46c1.119,2.996,2.617,5.873,3.368,9.009c1.932,8.07-10.345,4.264-9.558,0.911c-0.79,3.36-2.66,6.61-5.88,8.15
		c-3.01,0.84-5.14-2.08-7.28-3.63c0.31,8.869-0.16,17.76,0.37,26.63c0.34,8.97,1.61,17.88,2.14,26.84
		c11.19,3.811,22.25,8,33.4,11.93c-0.28-28.5-0.64-56.989-1.02-85.48C536.45,830.971,531.63,834.13,525.98,834.46z M1484.67,872.811
		c9.547,3.925,14.252,4.142,70.37,18.569c0.149-14.83,0-29.67,0.569-44.479c-5.529-0.2-11.049-0.07-16.56-0.16
		c-1.98-0.101-4.13,0.149-5.73-1.19c0.271-0.39,0.82-1.17,1.091-1.56c7.54-2.82,15.51-4.54,22.68-8.34
		c-9.359-0.261-18.72,0.119-28.07-0.25c-14.109-0.601-28.18-1.961-42.22-3.45C1486.04,845.561,1485.37,859.189,1484.67,872.811z
		 M1563.49,847.4c0.039,14.96-0.01,29.93,0.029,44.899c7.16,1.351,14.28,2.91,21.45,4.22c0.23-16.109,0.271-32.229,0.88-48.33
		C1578.4,847.91,1570.939,847.819,1563.49,847.4z M881.93,893c-0.01,16.45-0.68,32.91-0.97,49.36c5.33,0.479,10.68,0.779,16.03,1.06
		c11.21,0.52,22.33,2.08,33.5,3.12c0.55-14.979,0.85-29.971,1-44.95C914.92,898.95,898.28,896.811,881.93,893z M130.66,898.84
		c-1.75-1.229-5-2.14-5.95,0.479c2.96,3.461,8.82,4.98,9.24,10.15c-0.38,3.521-3.32,7.04-6.94,7.561
		c-2.46-1.05-4.51-2.841-6.98-3.85c-2.2-0.2-4.14,1.06-6.06,1.93c-0.2,2.189,0.959,5.72-2.58,5.31c0.89,3.25,1.67,6.55,2.27,9.87
		c1.82,10.05,4.59,19.899,6.42,29.95c10.14-2.171,20.37-3.9,30.54-5.971c-2.22-19.439-6.04-38.669-8.07-58.13
		C139.24,898.51,134.62,901.66,130.66,898.84z M1543.84,900.181c0.42,30.459,0.93,60.93,1.01,91.399c4,0.34,8.01,0.72,12.01,1.189
		c-0.159-3.089-0.359-6.159-0.359-9.239c-0.28-27.021-0.74-54.03-0.76-81.05C1551.76,901.74,1547.779,901.04,1543.84,900.181z
		 M939.49,903.101c0.02,14.52-1.5,29.029-0.73,43.55c1.86,0.319,3.73,0.649,5.61,0.979c0.36-0.449,1.08-1.35,1.44-1.8
		c3.34,0.3,6.44,1.739,9.64,2.7c0.55-14.391,0.13-28.8,0.33-43.19C950.32,904.79,944.88,904.069,939.49,903.101z M1563.95,904.27
		c-0.21,29.11-1.08,58.221-1.11,87.341c7.77,0.95,15.51,2.1,23.27,3.14c-0.379-4.74-0.449-9.49-0.369-14.24
		c-0.271-24.89-0.73-49.79-0.921-74.67C1577.9,904.819,1570.89,904.97,1563.95,904.27z M1131.189,918.189
		c0.141,12.671,0.091,25.351,0.021,38.021c16.04,0.41,32.07,0.96,48.09,2.03c0.06-13.11-0.22-26.21-0.29-39.31
		C1163.061,918.95,1147.13,918.27,1131.189,918.189z M1510.97,926.2c0.07,1.73,0.181,3.48,0.33,5.239c3.52-0.17,7.05-0.5,10.57-0.85
		c-0.261-1.71-0.48-3.439-0.681-5.14C1517.77,925.63,1514.37,925.9,1510.97,926.2z M1777.2,931.67c0.09,5.3,0.069,10.6,0.04,15.899
		c8.979,0.581,17.99-0.009,26.979,0.45c-0.26-4.159-0.479-8.31-0.53-12.459C1794.87,934.17,1786.029,932.95,1777.2,931.67z
		 M1511.59,934.62c1.25,19.84,2.13,39.699,3.53,59.54c1.136,0.067,11.405-0.832,11.35-1.58c-1.44-19.53-3.06-39.04-4.53-58.57
		C1518.49,934.28,1515.029,934.45,1511.59,934.62z"/>
</g>
<g id="Windows">
	<path fill="#F0EFE3" d="M182.5,551.47c4.25-0.81,8.44-1.92,12.55-3.29c0.51,1.4,1.021,2.8,1.51,4.22
		c-4.31,1.3-8.69,2.38-13.14,3.06C183.11,554.12,182.8,552.79,182.5,551.47z"/>
	<path fill="#F0EFE3" d="M184.3,558.71c4.41-1.22,8.84-2.4,13.28-3.54c1.82,6.23,3.47,12.52,5.65,18.641
		c-4.66,1.289-9.34,2.5-13.99,3.84C187.91,571.26,186.02,565,184.3,558.71z"/>
	<path fill="#F0EFE3" d="M237.46,591.32c6.25-1.881,12.53-3.65,18.9-5.12c1.99,8.899,4.03,17.79,6.11,26.67
		c-5.97,1.36-11.77,3.36-17.64,5.061C242.54,609.01,240.12,600.13,237.46,591.32z"/>
	<path fill="#F0EFE3" d="M217.83,596.971c5.55-1.711,11.18-3.131,16.77-4.701c2.45,8.86,4.43,17.86,7.47,26.551
		c-5.67,1.5-11.32,3.05-16.9,4.86C222.92,614.721,220.1,605.92,217.83,596.971z"/>
	<path fill="#F0EFE3" d="M172.74,608.49c6.3-1.641,12.6-3.33,18.85-5.17c2.27,8.82,3.37,17.93,6.29,26.58
		c-5.78,2.109-11.83,3.28-17.66,5.22C177.27,626.37,175.56,617.28,172.74,608.49z"/>
	<path fill="#F0EFE3" d="M152.8,614.221c5.76-1.24,11.34-3.181,16.99-4.851c1.97,9.02,5.04,17.75,7.24,26.72
		c-5.64,1.61-11.2,3.471-16.93,4.75C158.16,631.83,155.56,623,152.8,614.221z"/>
	<path fill="#F0EFE3" d="M245.71,620.87c5.97-1.29,11.75-3.26,17.59-5.021c2.39,7.66,4.11,15.5,6.49,23.17
		c-5.96,1.42-11.86,3.061-17.75,4.74C249.67,636.2,248.03,628.439,245.71,620.87z"/>
	<path fill="#F0EFE3" d="M225.69,626.91c5.72-1.58,11.37-3.37,17.05-5.061c1.7,7.681,4.09,15.2,6.36,22.73
		c-6,1.55-12.06,2.84-18.03,4.52C229.23,641.71,227.6,634.28,225.69,626.91z"/>
	<path fill="#F0EFE3" d="M180.92,638.41c5.9-1.83,11.79-3.689,17.76-5.28c1.98,7.73,3.9,15.49,6.41,23.07
		c-5.88,1.84-11.9,3.149-17.87,4.68C184.89,653.45,183.22,645.83,180.92,638.41z"/>
	<path fill="#F0EFE3" d="M160.84,644.21c5.63-1.72,11.25-3.51,16.97-4.91c2.22,7.47,4.23,14.99,6.3,22.5
		c-6.04,1.5-11.98,3.381-18.08,4.61C164.41,658.98,163.09,651.48,160.84,644.21z"/>
	<path fill="#F0EFE3" d="M687.35,647.79c4.39,0.58,8.85-0.05,13.23,0.58c0.21,1.311,0.39,2.649,0.54,3.99
		c-4.56,0.11-9.14,0.25-13.69-0.18C687.41,651.08,687.37,648.89,687.35,647.79z"/>
	<path fill="#F0EFE3" d="M730.67,647.79c4.42,0.45,8.86,0.26,13.3,0.37c0.04,1.42,0.09,2.85,0.14,4.279
		c-4.46-0.009-8.92,0.15-13.37-0.219C730.72,651.11,730.69,648.9,730.67,647.79z"/>
	<path fill="#F0EFE3" d="M1615.52,655.13c12.82-0.6,25.641-0.36,38.461-0.03c-0.041,2.351-0.041,4.711-0.03,7.07
		c-12.78-0.03-25.561-0.54-38.351-0.78C1615.569,659.3,1615.54,657.21,1615.52,655.13z"/>
	<path fill="#F0EFE3" d="M687.4,655.37c4.54-0.04,9.09-0.021,13.64-0.021c0.15,6.4,0.5,12.801,0.95,19.2
		c-4.87,0.33-9.75,0.3-14.62,0.2C687.54,668.29,687.5,661.82,687.4,655.37z"/>
	<path fill="#F0EFE3" d="M730.72,655.35c4.5-0.01,9.01-0.01,13.521,0c0.229,6.4,0.649,12.801,0.88,19.211
		c-4.8,0.319-9.61,0.25-14.41,0.229C730.79,668.311,730.77,661.83,730.72,655.35z"/>
	<path fill="#F0EFE3" d="M1615.569,664.77c5.811-0.27,11.601,0.391,17.421,0.271c-0.551,12.13-0.171,24.3-0.23,36.45
		c-5.87-0.36-11.77,0.05-17.609-0.67C1615.39,688.8,1615.18,676.78,1615.569,664.77z"/>
	<path fill="#F0EFE3" d="M1635.819,665.2c5.971,0.2,11.96,0.06,17.94,0.36c0.11,12.05-0.65,24.079-0.3,36.129
		c-5.97,0.101-11.931-0.17-17.88-0.159C1635.6,689.42,1636.09,677.311,1635.819,665.2z"/>
	<path fill="#F0EFE3" d="M1615.04,704.42c5.91-0.15,11.819,0.15,17.739,0.23c-0.299,11.039-0.549,22.08-0.279,33.13
		c-6.01-0.23-12.01-0.261-18-0.45C1615.02,726.37,1615.04,715.39,1615.04,704.42z"/>
	<path fill="#F0EFE3" d="M1635.561,704.63c5.969,0.341,11.959,0.07,17.92,0.63c-0.36,10.961,0.18,21.91,0.289,32.87
		c-6.24-0.18-12.47-0.069-18.689-0.42C1636.189,726.74,1635.311,715.65,1635.561,704.63z"/>
	<path fill="#F0EFE3" d="M573.17,739.82c12.3,0.79,24.6,1.59,36.92,1.949c5.56,0.461,11.16-0.13,16.7,0.601
		c-0.04,2.79-0.04,5.59,0.05,8.39c-17.79-0.189-35.61-0.43-53.37-1.6C573.31,746.04,573.49,742.92,573.17,739.82z"/>
	<path fill="#F0EFE3" d="M812,742.64c13.29-0.409,26.57-1.159,39.84-2.12c-0.25,3.101-0.24,6.221-0.1,9.341
		c-17.79,1.27-35.64,1.36-53.46,1.489c-0.01-2.729-0.01-5.46-0.07-8.18C802.76,742.33,807.4,742.82,812,742.64z"/>
	<path fill="#F0EFE3" d="M663.06,742.26c7.994,0.127,13.226-0.112,15.86-0.16c-0.12,2.871-0.13,5.75-0.03,8.631
		c-16.44,0.09-32.88,0.01-49.32,0.039c-0.07-2.819-0.271-5.64-0.42-8.449C640.45,742.221,651.75,742.37,663.06,742.26z"/>
	<path fill="#F0EFE3" d="M401.84,742.53c3.48-0.141,6.94-0.431,10.42-0.62c0.15,1.71,0.29,3.439,0.44,5.17
		c-3.561,0.359-7.14,0.52-10.72,0.72C401.92,746.04,401.87,744.28,401.84,742.53z"/>
	<path fill="#F0EFE3" d="M746.05,742.721c0,0,49.728,0.399,49.73,0.399c0.09,2.729-0.22,5.47-0.31,8.21
		c-16.47,0.07-32.95,0.05-49.42,0.01C746.06,748.46,746.07,745.58,746.05,742.721z"/>
	<path fill="#F0EFE3" d="M1711.25,744.46c12.811-0.271,25.62-0.19,38.439,0.011c-0.02,2.27-0.01,4.56,0.021,6.85
		c-12.86-0.061-25.75,0.119-38.59-0.67C1711.189,748.58,1711.21,746.52,1711.25,744.46z"/>
	<path fill="#F0EFE3" d="M402.11,751.221c3.53-0.421,7.07-0.631,10.62-0.841c1.37,19.65,2.99,39.28,4.68,58.9
		c-3.82,0.239-7.63,0.51-11.439,0.72C404.64,790.41,403.64,770.8,402.11,751.221z"/>
	<path fill="#F0EFE3" d="M573.56,752.35c7.59,0.19,15.19,0.53,22.78,0.98c0.81,17.57,1.17,35.16,2.12,52.73
		c-7.82,0.199-15.63,0.079-23.44,0.069C574.56,788.2,574.09,770.27,573.56,752.35z"/>
	<path fill="#F0EFE3" d="M598.96,753.39c9.33,0.081,18.65,0.351,27.98,0.28c0.13,17.58,0.9,35.149,1.12,52.73
		c-9.09,0.05-18.17-0.381-27.26-0.28C599.99,788.55,600.09,770.939,598.96,753.39z"/>
	<path fill="#F0EFE3" d="M629.53,753.65c8.17-0.22,16.34,0.35,24.52,0.28c0.4,17.619,0.03,35.239,0.23,52.869
		c-7.91-0.439-15.85,0.04-23.76-0.47C630.25,788.77,630.15,771.2,629.53,753.65z"/>
	<path fill="#F0EFE3" d="M656.62,753.99c7.41-0.11,14.82-0.07,22.23-0.03c0.12,17.71-0.07,35.42,0.11,53.13
		c-7.45,0.25-14.89-0.521-22.34-0.271C656.73,789.21,656.73,771.6,656.62,753.99z"/>
	<path fill="#F0EFE3" d="M828.69,754.03c7.6-0.5,15.22-0.62,22.84-0.88c-0.63,17.88-1.04,35.77-1.49,53.66
		c-7.81,0.029-15.63,0.039-23.44,0C827.52,789.23,827.92,771.62,828.69,754.03z"/>
	<path fill="#F0EFE3" d="M746.08,754.67c7.43-0.05,14.86-0.03,22.29-0.02c0.02,17.649-0.06,35.3,0.03,52.949
		c-7.5-0.169-14.98,0.301-22.48,0.23C746.03,790.11,745.76,772.38,746.08,754.67z"/>
	<path fill="#F0EFE3" d="M770.96,754.65c8.2,0.06,16.39-0.381,24.6-0.22c-0.73,17.55-0.69,35.13-1.39,52.68
		c-7.79,0.5-15.59,0.1-23.38,0.479C770.9,789.939,770.65,772.29,770.96,754.65z"/>
	<path fill="#F0EFE3" d="M798.08,754.431c9.32,0.079,18.65-0.12,27.98-0.271c-0.85,17.55-1.48,35.109-2.01,52.67
		c-9.04-0.25-18.05,0.41-27.07,0.31C797.21,789.569,797.99,772.01,798.08,754.431z"/>
	<path fill="#F0EFE3" d="M1711.15,754.01c5.89-0.34,11.779,0.37,17.689,0.29c-1.01,12.07-0.279,24.22-0.43,36.33
		c-5.82-0.29-11.641-0.1-17.44-0.319C1710.859,778.21,1711.061,766.11,1711.15,754.01z"/>
	<path fill="#F0EFE3" d="M1731.62,754.38c5.97,0.021,11.949,0.091,17.93,0.351c0.04,12.05-0.39,24.1-0.13,36.149
		c-6,0.21-11.97-0.28-17.939-0.28C1731.58,778.53,1731.859,766.45,1731.62,754.38z"/>
	<path fill="#F0EFE3" d="M309.02,757.71c0.42,2.89,0.8,5.8,1.18,8.71c-16.19,2.98-32.5,5.09-48.68,8.09
		c-0.41-2.829-0.93-5.64-1.61-8.41C259.911,766.1,309.02,757.71,309.02,757.71z"/>
	<path fill="#F0EFE3" d="M288.92,773.26c7.25-1.399,14.56-2.449,21.87-3.5c3.58,17.34,5.56,34.95,8.96,52.32
		c-7.28,1.46-14.76,1.63-22,3.359c-1.96-10.969-3.76-21.969-5.67-32.939C291.18,786.061,290.31,779.61,288.92,773.26z"/>
	<path fill="#F0EFE3" d="M261.92,777.55c8.07-1.54,16.23-2.38,24.3-3.91c3.72,17.261,5.63,34.831,9,52.15
		c-7.791,0.92-15.49,2.521-23.28,3.5C268.27,812.11,265.88,794.681,261.92,777.55z"/>
	<path fill="#F0EFE3" d="M152.5,784.25c3.5-0.39,6.98-0.87,10.47-1.26c0.29,1.66,0.669,3.329,0.83,5.029
		c-3.51,0.681-7.05,1.141-10.58,1.69C152.98,787.88,152.74,786.061,152.5,784.25z"/>
	<path fill="#F0EFE3" d="M1358.45,788.04c4.85-0.471,9.75-0.319,14.63-0.46c0.05,7.68,0.01,15.359,0.14,23.05
		c-4.939,0-9.86,0.25-14.79,0.33C1358.9,803.319,1358.46,795.67,1358.45,788.04z"/>
	<path fill="#F0EFE3" d="M1375.75,787.46c5.46-0.021,10.93-0.05,16.4-0.05c-0.25,7.62-0.82,15.229-0.851,22.859
		c-5.16,0.141-10.3,0.161-15.44,0.351C1375.83,802.89,1375.75,795.181,1375.75,787.46z"/>
	<path fill="#F0EFE3" d="M153.76,792.689c3.5-0.52,6.98-1.14,10.49-1.6c0.929,7.432,7.845,49.708,9.39,58.25
		c-3.819,0.58-7.62,1.25-11.43,1.82C159.31,831.681,156.71,812.16,153.76,792.689z"/>
	<path fill="#F0EFE3" d="M1710.859,793.55c5.851-0.149,11.69,0.23,17.551,0.27c-0.24,11.07-0.4,22.141-0.28,33.221
		c-5.99-0.44-12-0.41-17.99-0.5C1710.689,815.55,1710.85,804.55,1710.859,793.55z"/>
	<path fill="#F0EFE3" d="M1731.45,793.86c5.97,0.329,11.97,0.13,17.95,0.56c-0.211,11.04,0.08,22.08,0.14,33.12
		c-6.16-0.25-12.32-0.09-18.45-0.609C1732.01,815.95,1731.37,804.88,1731.45,793.86z"/>
	<path fill="#F0EFE3" d="M1358.439,813.96c4.891-0.56,9.851-0.229,14.771-0.521c0.021,6.591,0.06,13.181,0.14,19.771
		c-5.199-0.07-10.41-0.12-15.609-0.141C1358.05,826.7,1358.09,820.319,1358.439,813.96z"/>
	<path fill="#F0EFE3" d="M1375.85,813.42c5.15-0.06,10.301-0.12,15.45-0.351c-0.1,6.741,0.23,13.471,0.101,20.211
		c-5.16-0.05-10.311-0.05-15.461-0.06C1375.91,826.62,1375.91,820.02,1375.85,813.42z"/>
	<path fill="#F0EFE3" d="M573.15,844.98c17.85,1.18,35.73,1.99,53.61,2.45c-0.01,2.77-0.01,5.54,0.08,8.319
		c-17.83,0.02-35.65-0.39-53.45-1.4C573.43,851.221,573.46,848.09,573.15,844.98z"/>
	<path fill="#F0EFE3" d="M827.08,847.181c8.25-0.591,16.53-0.811,24.77-1.53c-0.29,3.109-0.1,6.239-0.26,9.359
		c-17.74,1.15-35.55,0.99-53.32,1.461c0.01-2.74,0.01-5.48-0.04-8.201C807.81,847.41,817.47,847.87,827.08,847.181z"/>
	<path fill="#F0EFE3" d="M629.18,847.4c16.58,0.1,33.15-0.16,49.72-0.2c-0.1,2.84-0.1,5.68-0.01,8.53
		c-16.44,0.089-32.88,0.01-49.32,0.039C629.49,852.971,629.29,850.181,629.18,847.4z"/>
	<path fill="#F0EFE3" d="M746.07,847.84c16.609,0.21,33.229,0.341,49.85,0.37c-0.17,2.729-0.36,5.479-0.45,8.229
		c-16.479,0.041-32.95,0.041-49.43,0C746.07,853.561,746.07,850.7,746.07,847.84z"/>
	<path fill="#F0EFE3" d="M573.57,857.4c7.59,0.27,15.16,0.669,22.74,1.03c0.86,17.569,1.21,35.17,2.13,52.739
		c-7.81,0.24-15.63,0.1-23.44,0.09C574.6,893.3,574.05,875.351,573.57,857.4z"/>
	<path fill="#F0EFE3" d="M598.97,858.55c9.32-0.06,18.64,0.381,27.97,0.24c0.14,17.59,0.9,35.16,1.12,52.75
		c-9.08-0.01-18.16-0.38-27.24-0.271C599.98,893.7,600.09,876.101,598.97,858.55z"/>
	<path fill="#F0EFE3" d="M629.54,859c8.15-0.76,16.34,0.311,24.52,0.09c0.38,17.61,0.03,35.229,0.23,52.85
		c-7.91-0.55-15.85,0-23.76-0.5C630.25,893.96,630.14,876.47,629.54,859z"/>
	<path fill="#F0EFE3" d="M828.7,859.17c7.6-0.47,15.22-0.739,22.83-0.89c-0.64,17.88-1.04,35.789-1.48,53.689
		c-7.82,0.021-15.64,0.04-23.45-0.02C827.52,894.37,827.91,876.76,828.7,859.17z"/>
	<path fill="#F0EFE3" d="M656.63,859.11c7.42-0.021,14.84-0.091,22.26,0.04c0.01,17.7-0.04,35.399,0.04,53.109
		c-7.439,0.15-14.87-0.47-22.31-0.31C656.73,894.33,656.73,876.72,656.63,859.11z"/>
	<path fill="#F0EFE3" d="M746.09,859.78c7.44,0.02,14.89-0.1,22.33,0.069c-0.09,17.61-0.1,35.22,0,52.831
		c-7.51-0.211-14.99,0.399-22.5,0.3C746.03,895.25,745.74,877.51,746.09,859.78z"/>
	<path fill="#F0EFE3" d="M770.97,859.77c8.19,0.061,16.37-0.409,24.57-0.22c-0.68,17.551-0.69,35.131-1.36,52.69
		c-7.8,0.43-15.6,0.17-23.4,0.43C770.92,895.03,770.64,877.4,770.97,859.77z"/>
	<path fill="#F0EFE3" d="M798.07,859.561c9.33,0.05,18.65-0.181,27.98-0.271c-0.84,17.561-1.46,35.13-2,52.69
		c-9.04-0.23-18.05,0.38-27.08,0.289C797.22,894.689,797.99,877.13,798.07,859.561z"/>
	<path fill="#F0EFE3" d="M1214.93,913.89c4.83-0.159,9.66-0.279,14.49-0.32c0.17,7.7,0.03,15.411,0.3,23.111
		c-4.93,0.1-9.85,0.31-14.76,0.43C1215.24,929.37,1215,921.63,1214.93,913.89z"/>
	<path fill="#F0EFE3" d="M1232.16,913.5c5.449-0.1,10.91-0.08,16.37-0.1c-0.46,7.64-0.72,15.3-0.761,22.96
		c-5.18,0.14-10.359,0.22-15.539,0.279C1232.3,928.92,1232.13,921.21,1232.16,913.5z"/>
	<path fill="#F0EFE3" d="M1510.97,926.2c3.4-0.3,6.8-0.57,10.22-0.75c0.2,1.7,0.42,3.43,0.681,5.14
		c-3.521,0.35-7.051,0.68-10.57,0.85C1511.15,929.681,1511.04,927.931,1510.97,926.2z"/>
	<path fill="#F0EFE3" d="M1511.59,934.62c3.439-0.17,6.9-0.34,10.35-0.61c1.471,19.53,3.09,39.04,4.53,58.57
		c-1.51,0.26-2.989,0.64-4.44,1.05c-2.31,0.22-4.619,0.351-6.909,0.53C1513.72,974.319,1512.84,954.46,1511.59,934.62z"/>
	<path fill="#F0EFE3" d="M1214.939,939.76c4.9-0.13,9.811-0.18,14.721-0.26c0.04,6.6,0.029,13.2,0.17,19.8
		c-5.24-0.04-10.48-0.04-15.71-0.17C1214.53,952.681,1214.85,946.22,1214.939,939.76z"/>
	<path fill="#F0EFE3" d="M1232.25,939.431c5.18-0.07,10.359-0.211,15.55-0.32c-0.14,6.739,0.09,13.47,0.11,20.209
		c-5.16,0.07-10.32,0.03-15.471-0.02C1232.42,952.67,1232.41,946.05,1232.25,939.431z"/>
</g>
</svg>
